<svg width="48" height="50" viewBox="0 0 48 50" fill="none" xmlns="http://www.w3.org/2000/svg">
<path d="M37.432 42.6525L37.4308 42.6525C36.7444 42.6477 36.2213 43.1657 36.2178 43.8485C36.2164 44.5463 36.7433 45.0746 37.4064 45.0793L37.4076 45.0794C38.079 45.0857 38.6229 44.5486 38.6262 43.876L37.432 42.6525ZM37.432 42.6525C38.1045 42.6557 38.6294 43.1845 38.6262 43.876L39.1261 43.8783M37.432 42.6525L35.7178 43.8467C35.7223 42.8867 36.4714 42.1457 37.4343 42.1525C38.3882 42.157 39.1306 42.916 39.1261 43.8783M39.1261 43.8783C39.1216 44.8271 38.3522 45.5884 37.4028 45.5793L39.1261 43.8783Z" fill="#0064C8" stroke="#0064C8"/>
<path d="M2.92296 17.7874L2.92297 17.7862C2.92938 17.1025 2.40519 16.5734 1.72771 16.5718M2.92296 17.7874L1.72771 16.5718M2.92296 17.7874C2.91815 18.4721 2.39089 18.9935 1.70759 18.9919L2.92296 17.7874ZM1.72771 16.5718C1.03892 16.5702 0.51101 17.0946 0.507827 17.7707M1.72771 16.5718L0.507827 17.7707M0.507827 17.7707V17.7707C0.504617 18.4507 1.04258 18.9903 1.70757 18.9919L0.507827 17.7707Z" fill="#0064C8" stroke="#0064C8"/>
<path d="M2.90739 32.1798V32.1798C2.90899 32.8541 2.37042 33.3931 1.69758 33.3931C1.03097 33.3931 0.499023 32.8624 0.499023 32.1718C0.499023 31.4901 1.03343 30.9573 1.70433 30.9573C2.3716 30.9573 2.90578 31.4889 2.90739 32.1798Z" fill="#0064C8" stroke="#0064C8"/>
<path d="M23.8293 0.500005V0.500004C23.1347 0.498386 22.62 1.01257 22.6184 1.6999M23.8293 0.500005L25.0268 1.71672C25.0236 2.39419 24.49 2.92327 23.8126 2.92006L23.8126 2.92006C23.1323 2.91686 22.6168 2.40028 22.6184 1.6999M23.8293 0.500005H23.8305C24.501 0.500005 25.03 1.02967 25.0268 1.7167L25.5268 1.71906M23.8293 0.500005L23.8102 3.42005M22.6184 1.6999L22.1184 1.69873M22.6184 1.6999L22.1184 1.69873M22.1184 1.69873C22.1162 2.67008 22.8496 3.41553 23.8102 3.42005M22.1184 1.69873C22.1207 0.734163 22.8608 -0.00225377 23.8305 5.1829e-06C24.7821 5.1829e-06 25.5313 0.759012 25.5268 1.71906M23.8102 3.42005C24.7641 3.42457 25.5223 2.67234 25.5268 1.71906M23.8102 3.42005L25.5268 1.71906" fill="#0064C8" stroke="#0064C8"/>
<path d="M8.96289 6.13424C8.9645 5.44806 9.48678 4.92886 10.1726 4.93208L10.1738 4.93209C10.8471 4.93368 11.3729 5.46159 11.3713 6.14997M8.96289 6.13424L8.4629 6.13308L8.96289 6.13424ZM8.96289 6.13424C8.96128 6.82674 9.48217 7.34828 10.1581 7.34988M10.1581 7.34988L10.157 7.84988L10.1581 7.34988ZM10.1581 7.34988C10.8446 7.35149 11.3697 6.82745 11.3713 6.14997M11.3713 6.14997L11.8713 6.15115L11.3713 6.14997Z" fill="#0064C8" stroke="#0064C8"/>
<path d="M37.4538 7.39498L37.4539 7.39498C38.1 7.40598 38.6678 6.85281 38.671 6.18704L37.4538 7.39498ZM37.4538 7.39498C36.7842 7.3838 36.2527 6.8412 36.2559 6.1579L37.4538 7.39498ZM37.4732 4.94998C36.8133 4.94205 36.2591 5.48593 36.2559 6.15788L38.671 6.18701C38.6742 5.50601 38.1319 4.95791 37.4732 4.94998ZM37.4732 4.94998L37.4792 4.45001L37.4732 4.94998Z" fill="#0064C8" stroke="#0064C8"/>
<path d="M11.3263 43.8503C11.3232 44.5261 10.794 45.0488 10.1078 45.0424L8.91797 43.8109C8.91957 43.1438 9.45829 42.6113 10.1388 42.6178C10.8097 42.6242 11.3296 43.1486 11.3263 43.8503ZM10.1077 45.0424C9.4384 45.036 8.91636 44.5106 8.91797 43.811L10.1077 45.0424Z" fill="#0064C8" stroke="#0064C8"/>
<path d="M45.8882 16.6113C46.553 16.6129 47.0918 17.1525 47.0902 17.8337C47.0886 18.5097 46.5492 19.0465 45.8771 19.0449M45.8882 16.6113L45.8894 16.1113M45.8882 16.6113L45.8894 16.1113M45.8882 16.6113C45.2184 16.6097 44.6764 17.1466 44.6729 17.8231C44.6716 18.5008 45.2139 19.0433 45.8771 19.0449M45.8894 16.1113C46.8343 16.1135 47.5925 16.8816 47.5902 17.8348C47.588 18.7859 46.8253 19.5471 45.8759 19.5449M45.8894 16.1113L44.1729 17.8213C44.1706 18.7723 44.9333 19.5426 45.8759 19.5449M45.8771 19.0449L45.8759 19.5449M45.8771 19.0449L45.8759 19.5449" fill="#0064C8" stroke="#0064C8"/>
<path d="M45.8593 33.4386C45.1938 33.437 44.654 32.8946 44.6572 32.2173L44.6572 32.2162C44.6588 31.5456 45.1993 31.0085 45.8759 31.0117C46.5488 31.0149 47.0756 31.5441 47.0724 32.2307M45.8593 33.4386L45.8581 33.9386L45.8593 33.4386ZM45.8593 33.4386C46.5388 33.4402 47.0692 32.9138 47.0724 32.2307M47.0724 32.2307L47.5724 32.2331L47.0724 32.2307Z" fill="#0064C8" stroke="#0064C8"/>
<path d="M10.8358 9.24755C11.2794 8.88646 11.8017 8.49935 12.3418 8.12985C12.6447 7.92264 12.9473 7.72504 13.2388 7.54386C12.9378 8.14817 12.731 8.79522 12.6179 9.48294C12.0317 9.35314 11.4394 9.2767 10.8358 9.24755ZM12.5623 9.91339C12.5619 9.91691 12.5618 9.91587 12.5624 9.91122L12.5623 9.91339Z" fill="#0064C8" stroke="#0064C8"/>
<path d="M5.83116 30.5404C5.83148 30.5398 5.83178 30.5393 5.83205 30.5388M5.83116 30.5404L5.83085 30.541L5.83067 30.5409C5.8312 30.5401 5.83166 30.5394 5.83205 30.5388M5.83116 30.5404L6.07702 30.7052L6.07711 30.7053L6.24634 30.8187L5.83116 30.5404ZM5.83205 30.5388C5.83335 30.5368 5.8339 30.5358 5.83384 30.5358C5.83379 30.5358 5.83314 30.5368 5.83205 30.5388ZM4.85681 32.4757C4.49848 31.5619 4.21328 30.6352 3.99715 29.6908C4.4801 30.1632 5.02188 30.5573 5.62615 30.8645C5.38651 31.2664 5.18684 31.684 5.00859 32.0986L5.00858 32.0986L5.00764 32.1008C4.95506 32.2248 4.90486 32.3495 4.85681 32.4757Z" fill="#0064C8" stroke="#0064C8"/>
<path d="M12.5352 40.45C12.5872 41.0508 12.6954 41.6396 12.8524 42.2158C12.0308 41.6905 11.2526 41.1078 10.5139 40.4683C11.1764 40.5676 11.8509 40.5624 12.5352 40.45ZM12.5233 40.1675L12.515 40.168L12.5233 40.1675ZM12.5151 40.1687L12.5236 40.1682L12.5151 40.1685C12.5151 40.1685 12.5151 40.1686 12.5151 40.1687Z" fill="#0064C8" stroke="#0064C8"/>
<path d="M41.922 30.9652C42.4708 30.726 42.9953 30.4429 43.4942 30.1169C43.2515 31.0576 42.9416 31.9772 42.5612 32.8836C42.4498 32.2155 42.2338 31.5758 41.922 30.9652Z" fill="#0064C8" stroke="#0064C8"/>
<path d="M41.9553 19.1382C42.2573 18.6221 42.5122 18.085 42.7262 17.5231C43.087 18.4429 43.3779 19.3731 43.5979 20.3201C43.1188 19.8501 42.5693 19.4574 41.9553 19.1382ZM41.5535 18.9476C41.5482 18.9454 41.5498 18.9457 41.5564 18.9488C41.5554 18.9484 41.5545 18.9481 41.5535 18.9476Z" fill="#0064C8" stroke="#0064C8"/>
<path d="M23.7389 44.1401C24.1334 44.5907 24.5629 45.0017 25.0243 45.3751C24.0494 45.4356 23.0832 45.4237 22.1186 45.3438C22.7127 45.0315 23.2531 44.6294 23.7389 44.1401ZM23.7389 44.1401C23.6618 44.0521 23.5861 43.9626 23.5117 43.8715C23.5083 43.8674 23.5059 43.8647 23.5045 43.8632M21.1224 45.2371C22.0762 44.8931 22.901 44.3323 23.599 43.5611C23.7115 43.4369 23.77 43.3985 23.8982 43.5544L23.737 43.686L23.599 43.5612L23.737 43.6861L23.5119 43.8699C23.5084 43.867 23.506 43.8646 23.5045 43.8632M23.5045 43.8632C23.5035 43.8621 23.503 43.8616 23.503 43.8616C23.503 43.8616 23.5035 43.8622 23.5045 43.8632Z" fill="#0064C8" stroke="#0064C8"/>
<path d="M36.25 41.1427L36.2497 41.1429C35.6295 41.6318 34.9798 42.0761 34.3043 42.4825C34.3669 42.37 34.4229 42.26 34.4736 42.1489C34.682 41.6922 34.7979 41.2237 34.9476 40.5171C35.5403 40.6462 36.1378 40.7247 36.7386 40.7577C36.6293 40.8452 36.5172 40.9331 36.4027 41.0229C36.3522 41.0624 36.3013 41.1023 36.25 41.1427Z" fill="#0064C8" stroke="#0064C8"/>
<path d="M22.9384 4.95028C22.8133 4.8391 22.6859 4.73168 22.5556 4.62679C23.5341 4.56908 24.4983 4.58107 25.456 4.66609C24.8727 4.97819 24.3358 5.37493 23.8462 5.86043C23.5583 5.53899 23.2588 5.23712 22.9399 4.95157L22.9399 4.95157L22.9384 4.95028Z" fill="#0064C8" stroke="#0064C8"/>
<path d="M5.87315 19.42C5.87312 19.42 5.87265 19.4192 5.87182 19.4176C5.87277 19.4192 5.87318 19.42 5.87315 19.42ZM6.05738 18.8696C6.05717 18.8697 6.05696 18.8698 6.05675 18.8699L6.05761 18.8695C6.05753 18.8696 6.05746 18.8696 6.05738 18.8696ZM5.03251 17.1463C5.14444 17.7959 5.35112 18.4268 5.66154 19.0356C5.11194 19.2785 4.58656 19.564 4.08495 19.8918C4.19375 19.4959 4.33746 19.0387 4.50256 18.561C4.66554 18.0893 4.84682 17.605 5.03251 17.1463Z" fill="#0064C8" stroke="#0064C8"/>
<path d="M34.7382 7.79396C35.5603 8.32221 36.3294 8.89913 37.0502 9.53174C36.8758 9.50896 36.7068 9.49395 36.5492 9.47996C36.5313 9.47837 36.5135 9.4768 36.4959 9.47522L36.4959 9.47522L36.4938 9.47503C36.0055 9.43352 35.5262 9.46421 35.0596 9.5416C35.0162 9.09229 34.9414 8.64914 34.8423 8.21156L34.8423 8.21156L34.842 8.21025C34.8101 8.07101 34.7756 7.93258 34.7382 7.79396ZM35.0903 9.95289L35.0903 9.95279L35.0903 9.95289Z" fill="#0064C8" stroke="#0064C8"/>
<mask id="path-20-inside-1_549_10885" fill="white">
<path d="M44.693 35.1046C44.4972 34.9487 44.2543 35.0007 44.0698 35.2491C43.7751 35.649 43.4444 36.0172 43.0844 36.3583C41.901 37.481 40.5152 38.2174 38.9201 38.5585C38.8189 38.5879 38.8121 38.5856 38.8121 38.5088C39.4331 38.1135 39.964 37.6188 40.3869 37.0134C41.7076 35.1294 41.7255 32.6197 40.4184 30.6319C40.288 30.4331 40.324 30.3834 40.5287 30.3133C41.1586 30.0987 41.7638 29.8164 42.324 29.4572C45.2779 27.5665 46.8797 24.8851 47.0057 21.3498C47.017 21.0336 46.8572 20.8483 46.6097 20.8483C46.3555 20.8483 46.2025 21.0291 46.2003 21.3453C46.18 23.1976 45.6041 24.8648 44.5332 26.3647C44.4297 26.5115 44.3173 26.6516 44.2025 26.7916C44.0945 26.9227 43.9798 27.0492 43.8673 27.1757C44.0675 26.568 44.2115 25.9671 44.2475 25.3437C44.3825 22.9469 42.9877 20.7625 40.7222 19.8205C40.3105 19.6488 40.3105 19.6488 40.5669 19.2626C42.7424 15.96 42.6974 11.5595 40.4612 8.39024C40.2655 8.11465 40.0405 8.04011 39.829 8.18468C39.6198 8.32699 39.604 8.57773 39.793 8.84881C40.8954 10.4301 41.4061 12.1921 41.3723 14.1144C41.3678 14.3855 41.3341 14.6543 41.3161 14.9254C40.9471 13.6536 40.2992 12.5941 39.2508 11.8125C37.748 10.6921 36.0742 10.4052 34.2699 10.8841C34.0427 10.9451 33.9954 10.8977 33.9999 10.6808C34.0112 10.3013 33.9639 9.92407 33.9032 9.55134C33.3812 6.30523 31.7074 3.87009 28.8255 2.2843C28.3845 2.0426 27.9166 1.85285 27.4351 1.7015C27.1877 1.62469 26.9897 1.72634 26.9132 1.94772C26.8367 2.16684 26.9357 2.36563 27.1719 2.46502C27.2214 2.48535 27.2732 2.50116 27.3249 2.51924C29.2979 3.22177 30.8143 4.48904 31.9121 6.26683C31.9639 6.35041 32.0336 6.43173 32.0449 6.55824C29.5634 4.42805 25.7748 4.89791 23.8288 7.57702C23.8153 7.56573 23.7973 7.55895 23.7861 7.5454C23.7523 7.50473 23.7186 7.46181 23.6848 7.41889C22.7017 6.14033 21.4868 5.14413 20.0222 4.46871C17.8017 3.44315 15.5137 3.27598 13.1672 3.97852C12.8613 4.07113 12.7353 4.2654 12.805 4.50937C12.8748 4.75108 13.0975 4.84821 13.3922 4.75559C14.8298 4.30832 16.2854 4.24055 17.7567 4.55003C18.4002 4.68557 19.0256 4.8821 19.6128 5.19835C19.2978 5.19835 18.9873 5.20738 18.6769 5.23675C15.8872 5.49201 13.6937 7.85035 13.6487 10.6627C13.6464 10.8502 13.6262 10.9157 13.4125 10.8502C12.1414 10.4685 10.841 10.3442 9.5204 10.4978C6.79595 10.8164 4.5822 12.052 2.90164 14.2319C2.69466 14.5007 2.69691 14.7379 2.89714 14.8983C3.10861 15.0677 3.32909 15.0067 3.55181 14.713C3.56756 14.6904 3.58331 14.6701 3.60131 14.6475C4.86792 13.0143 6.51248 11.9684 8.51026 11.4737C8.562 11.4602 8.61375 11.4398 8.66549 11.433C8.71949 11.4263 8.77348 11.4308 8.87247 11.4308C7.46412 12.3389 6.58672 13.5632 6.29876 15.1784C6.01304 16.78 6.3865 18.2438 7.29764 19.5743C7.2594 19.6014 7.2459 19.615 7.23015 19.6217C7.17166 19.6443 7.11316 19.6669 7.05467 19.6872C4.96016 20.4575 3.29084 21.77 2.08273 23.654C1.10184 25.1833 0.597893 26.8639 0.588894 28.6869C0.586644 28.9738 0.728378 29.1364 0.969101 29.1477C1.21657 29.159 1.38305 28.9828 1.39655 28.6959C1.39655 28.6779 1.39655 28.6598 1.39655 28.6417C1.41905 26.6493 2.08273 24.8851 3.29759 23.3242C3.41458 23.1728 3.51807 23.0011 3.75429 22.8588C3.16711 24.4265 3.1851 25.9287 3.89152 27.388C4.59795 28.8473 5.75657 29.8073 7.2729 30.3382C7.26615 30.3608 7.26615 30.3811 7.25715 30.3947C7.23465 30.4331 7.20765 30.4692 7.18291 30.5076C5.63958 32.8095 5.10189 35.3237 5.61483 38.0525C5.8623 39.3627 6.38875 40.5599 7.15816 41.6465C7.33139 41.8904 7.52262 41.9492 7.7296 41.8362C7.97707 41.7007 7.99957 41.4432 7.79259 41.1405C6.52598 39.2994 6.04453 37.2641 6.27626 35.0391C6.36625 35.0842 6.35725 35.1633 6.37525 35.2288C6.69921 36.4238 7.33364 37.4222 8.32128 38.17C9.82861 39.3107 11.5114 39.5818 13.3247 39.121C13.5227 39.0713 13.6059 39.0487 13.5992 39.3062C13.5834 39.9478 13.6712 40.5848 13.8264 41.2082C14.6791 44.6396 16.7173 47.025 20.0425 48.2629C20.3642 48.3827 20.5914 48.3059 20.6747 48.0664C20.7669 47.7999 20.6432 47.6078 20.3034 47.4926C18.8321 46.9889 17.5947 46.1373 16.5756 44.9649C16.1842 44.5153 15.8354 44.0319 15.57 43.4853C16.8478 44.4995 18.2809 44.9491 19.9007 44.7277C21.5138 44.5086 22.7804 43.6908 23.7681 42.401C24.1618 42.925 24.569 43.4085 25.0437 43.8264C27.7749 46.2299 30.884 47.0205 34.4094 46.0221C34.7423 45.9272 34.8661 45.7374 34.7806 45.4844C34.6951 45.2269 34.5016 45.1546 34.1619 45.2585C32.5196 45.7623 30.8705 45.7691 29.2214 45.3037C28.7805 45.1795 28.344 45.0349 27.9413 44.7909C29.5724 44.8836 31.001 44.4092 32.1866 43.2797C33.3722 42.1502 33.9324 40.7361 33.9639 39.0894C35.5365 39.575 37.1158 39.706 38.7199 39.4124C41.1856 38.9606 43.1924 37.7475 44.7155 35.7438C44.9044 35.4908 44.8932 35.2649 44.693 35.1046ZM43.4444 25.0071C43.4444 27.1734 41.928 29.1274 39.8268 29.6763C39.6895 29.7125 39.586 29.6899 39.478 29.6153C38.2159 28.7479 37.4083 27.5574 37.1406 26.0552C36.7311 23.7466 37.5253 21.8807 39.3521 20.4372C39.5118 20.3107 39.6558 20.2972 39.847 20.3514C41.9685 20.9455 43.4444 22.8543 43.4444 25.0071ZM33.7164 12.1085C33.7659 11.9458 33.8447 11.8532 34.0067 11.7922C34.5848 11.5754 35.1788 11.4602 36.0944 11.4579C37.7592 11.5324 39.2868 12.3728 40.1327 14.1822C40.9831 16.0006 40.6929 17.74 39.5005 19.3371C39.3993 19.4749 39.2711 19.493 39.1226 19.4907C36.9988 19.4726 35.3408 18.5781 34.2294 16.7619C33.3385 15.3071 33.2192 13.7349 33.7164 12.1085ZM24.3125 8.30214C25.3294 6.67796 27.3542 5.75179 29.1832 6.0816C31.1495 6.43399 32.6771 7.92038 33.0775 9.87437C33.1585 10.2719 33.19 10.674 33.19 11.0829C33.19 11.2817 33.1045 11.4037 32.9628 11.5099C32.1236 12.1424 31.181 12.506 30.1393 12.6145C29.9526 12.6348 29.7636 12.6371 29.5747 12.6461C27.1449 12.6393 24.9807 11.0242 24.2585 8.68165C24.209 8.53482 24.236 8.42639 24.3125 8.30214ZM18.3934 6.0816C20.2112 5.73598 22.362 6.70958 23.2934 8.29311C23.3564 8.39928 23.3519 8.4919 23.3204 8.59807C22.9964 9.75691 22.353 10.7034 21.4148 11.4443C19.426 13.0188 16.6611 13.0527 14.6273 11.5392C14.4181 11.3833 14.4181 11.3833 14.4181 10.8909C14.4181 8.519 16.0672 6.52435 18.3934 6.0816ZM7.00518 16.1904C7.00743 13.7191 8.89047 11.6748 11.3404 11.4647C12.0896 11.4014 12.8073 11.5053 13.5137 11.7448C13.6734 11.799 13.7679 11.8871 13.8219 12.0475C14.4271 13.8546 14.2134 15.5624 13.1267 17.1188C12.0154 18.7136 10.4405 19.4839 8.50351 19.5178C8.31903 19.5201 8.20654 19.4546 8.09855 19.3145C7.38088 18.3974 7.00518 17.3605 7.00518 16.1904ZM4.14575 24.9867C4.14575 22.8227 5.68457 20.8483 7.76784 20.3243C7.92082 20.2859 8.02881 20.3356 8.1413 20.4124C9.25043 21.1804 9.98384 22.224 10.3506 23.5162C10.994 25.7864 10.1053 28.2487 8.17955 29.6085C8.06931 29.6854 7.97257 29.7147 7.83533 29.6808C5.69582 29.1568 4.14575 27.1892 4.14575 24.9867ZM13.8669 37.9124C13.8219 38.0615 13.7454 38.1496 13.5947 38.2106C10.67 39.3649 7.48662 37.551 7.03892 34.4382C6.8387 33.0534 7.22115 31.7975 8.07381 30.6861C8.20879 30.5121 8.37752 30.5144 8.553 30.5144C10.0086 30.5166 11.2864 31.0046 12.3551 31.994C13.5429 33.0964 14.1369 34.4766 14.1526 36.103C14.1661 36.7242 14.0491 37.3229 13.8669 37.9124ZM23.2574 41.7301C22.2675 43.1735 20.9041 43.928 19.579 43.9732C16.7893 43.9732 14.7466 42.1638 14.4586 39.8167C14.4316 39.5931 14.4361 39.3672 14.4001 39.1458C14.3416 38.7731 14.5193 38.554 14.8118 38.3529C17.912 36.2205 22.1685 37.6865 23.3204 41.2828C23.3788 41.4545 23.3586 41.5855 23.2574 41.7301ZM21.4868 37.5962C20.4857 36.9388 19.381 36.6045 18.1842 36.5345C18.6004 36.3538 19.0391 36.2544 19.4778 36.173C21.1336 35.8613 22.7669 35.9562 24.3777 36.4577C24.6747 36.5503 24.8907 36.4554 24.9649 36.2069C25.0347 35.972 24.8997 35.7664 24.6005 35.6806C21.2191 34.6867 18.0649 35.204 15.1223 37.1218C15.084 37.1467 15.048 37.1738 15.012 37.1986C14.967 37.2257 14.9198 37.2799 14.868 37.2415C14.8231 37.2076 14.8478 37.1489 14.8545 37.0947C15.2078 34.6505 14.4181 32.6491 12.5216 31.0836C12.5103 31.0746 12.5013 31.0588 12.4878 31.0452C12.5801 31.0001 12.6588 31.052 12.7398 31.0791C14.6903 31.7749 16.2944 32.9428 17.5408 34.6031C17.723 34.8448 17.939 34.9126 18.1369 34.7861C18.3642 34.6437 18.3912 34.3953 18.1977 34.131C17.624 33.3494 16.9558 32.6559 16.1932 32.0618C14.2561 30.5573 12.0581 29.7802 9.61263 29.6944C9.55864 29.6921 9.50465 29.6899 9.45065 29.6831C9.43715 29.6808 9.42366 29.665 9.38991 29.6424C9.83986 29.1748 10.2516 28.6801 10.5598 28.1086C11.3427 26.6606 11.5519 25.1358 11.1807 23.5297C11.1717 23.4868 11.1672 23.4416 11.1605 23.3964C11.147 23.3467 11.1065 23.2857 11.2077 23.2903C12.4316 25.0229 13.075 26.9498 13.1065 29.0754C13.111 29.3036 13.156 29.4933 13.3967 29.5611C13.6959 29.6447 13.9164 29.4595 13.9164 29.1229C13.9142 28.0883 13.7612 27.074 13.462 26.0868C12.7668 23.8008 11.4664 21.9304 9.59464 20.4553C9.52715 20.4011 9.43715 20.3694 9.39891 20.2701C11.9074 19.8386 13.6419 18.4516 14.5958 16.0436C14.6431 16.2875 14.6116 16.5044 14.6026 16.7167C14.5913 16.9336 14.5688 17.1482 14.5418 17.3628C14.3259 19.066 13.7342 20.6247 12.742 22.0253C12.5643 22.276 12.5868 22.4974 12.7893 22.6442C13.003 22.8001 13.2235 22.7481 13.4057 22.4883C14.5643 20.8461 15.2145 19.0209 15.381 17.0172C15.5002 15.5714 15.3337 14.1573 14.913 12.7703C14.9063 12.7455 14.9063 12.7206 14.904 12.68C17.1605 13.7982 19.354 13.7146 21.5071 12.3954C21.5386 12.5151 21.4418 12.5761 21.3878 12.6438C20.1617 14.2161 18.6206 15.3546 16.7421 16.0255C16.6993 16.0413 16.6566 16.0549 16.6161 16.0707C16.3124 16.1768 16.1909 16.3643 16.2696 16.6083C16.3529 16.8613 16.5689 16.9426 16.8883 16.8342C17.804 16.5225 18.6634 16.1 19.462 15.5556C21.4463 14.198 22.8434 12.3773 23.6871 10.1229C23.7276 10.0167 23.7681 9.91051 23.813 9.79305C25.4284 12.3434 26.8547 13.2718 29.4689 13.448C29.0437 13.6355 28.6433 13.7168 28.2473 13.7982C26.5487 14.1415 24.8727 14.0625 23.2169 13.5452C22.8682 13.4367 22.6139 13.5813 22.6072 13.8863C22.6027 14.1054 22.7129 14.2341 22.9199 14.2997C24.1753 14.6995 25.4576 14.8712 26.7715 14.7966C28.9155 14.6769 30.8615 13.9902 32.6253 12.7658C32.6456 12.7523 32.6703 12.741 32.7266 12.7116C32.3666 15.2055 33.1068 17.2724 35.01 18.9056C34.8548 18.9305 34.8526 18.9305 34.7176 18.8785C32.8345 18.176 31.2732 17.033 30.0584 15.4223C29.9774 15.3139 29.9031 15.1965 29.7591 15.1648C29.5859 15.1287 29.4352 15.1761 29.3294 15.323C29.2102 15.4901 29.2237 15.6573 29.3452 15.8222C29.7659 16.3982 30.2361 16.9313 30.767 17.4102C32.5961 19.0615 34.7378 20.0058 37.1833 20.252C37.5118 20.2859 37.8425 20.2994 38.2182 20.3265C36.4476 22.1359 35.8582 24.2616 36.4386 26.7058C36.3352 26.7239 36.3217 26.6448 36.2924 26.6019C35.127 24.8919 34.4971 23.0056 34.4724 20.9251C34.4679 20.5976 34.3329 20.4237 34.0764 20.4169C33.8109 20.4101 33.6557 20.5953 33.6647 20.9297C33.7614 24.4559 35.2238 27.2976 37.9392 29.5114C38.0022 29.5634 38.0652 29.6131 38.1282 29.665C38.1417 29.6763 38.1462 29.6944 38.1709 29.7328C35.676 30.162 33.9459 31.5467 32.9785 33.9615C32.9785 33.6859 32.9695 33.4691 32.9808 33.2522C32.992 33.0263 33.0145 32.8027 33.0438 32.5791C33.2665 30.9052 33.8514 29.3736 34.8256 27.9911C35.0123 27.7268 34.9943 27.4987 34.7873 27.3496C34.5803 27.1982 34.3419 27.266 34.1529 27.5394C32.6411 29.726 31.9999 32.1476 32.2024 34.7996C32.2676 35.6467 32.4408 36.469 32.6883 37.3229C30.3913 36.1866 28.1798 36.2815 26.0223 37.612C26.3823 37.054 26.8232 36.5751 27.2979 36.1301C28.3553 35.1362 29.5702 34.4043 30.9425 33.9322C31.0887 33.8825 31.2395 33.8373 31.2957 33.6701C31.3475 33.5143 31.3362 33.3674 31.2215 33.2409C31.0887 33.0918 30.9268 33.0828 30.7513 33.1415C30.0943 33.3629 29.4622 33.6385 28.8592 33.9819C26.4565 35.3531 24.8209 37.35 23.7613 40.2279C23.2259 39.1413 22.4857 38.2513 21.4868 37.5962ZM29.0437 43.9416C28.8412 43.9755 28.632 43.9755 28.4025 43.9935C26.6792 43.9348 25.3091 43.1871 24.317 41.7414C24.245 41.6374 24.2248 41.5403 24.263 41.4138C24.8097 39.5999 25.9683 38.3371 27.7366 37.6933C29.5927 37.0179 31.3407 37.3319 32.956 38.4546C33.109 38.5608 33.1563 38.6873 33.163 38.8589C33.2732 41.4093 31.5589 43.5282 29.0437 43.9416ZM35.3295 38.5404C34.8976 38.5133 34.4814 38.4004 34.0719 38.2581C33.9122 38.2038 33.8244 38.109 33.7682 37.9508C33.5432 37.3432 33.4532 36.7152 33.451 36.0714C33.4532 33.2116 35.5837 30.8306 38.4364 30.5325C39.4938 30.4218 39.2958 30.2998 39.856 31.2395C40.8504 32.9044 40.8954 34.6415 39.8673 36.3041C38.8369 37.9712 37.262 38.6602 35.3295 38.5404Z"/>
</mask>
<path d="M44.693 35.1046C44.4972 34.9487 44.2543 35.0007 44.0698 35.2491C43.7751 35.649 43.4444 36.0172 43.0844 36.3583C41.901 37.481 40.5152 38.2174 38.9201 38.5585C38.8189 38.5879 38.8121 38.5856 38.8121 38.5088C39.4331 38.1135 39.964 37.6188 40.3869 37.0134C41.7076 35.1294 41.7255 32.6197 40.4184 30.6319C40.288 30.4331 40.324 30.3834 40.5287 30.3133C41.1586 30.0987 41.7638 29.8164 42.324 29.4572C45.2779 27.5665 46.8797 24.8851 47.0057 21.3498C47.017 21.0336 46.8572 20.8483 46.6097 20.8483C46.3555 20.8483 46.2025 21.0291 46.2003 21.3453C46.18 23.1976 45.6041 24.8648 44.5332 26.3647C44.4297 26.5115 44.3173 26.6516 44.2025 26.7916C44.0945 26.9227 43.9798 27.0492 43.8673 27.1757C44.0675 26.568 44.2115 25.9671 44.2475 25.3437C44.3825 22.9469 42.9877 20.7625 40.7222 19.8205C40.3105 19.6488 40.3105 19.6488 40.5669 19.2626C42.7424 15.96 42.6974 11.5595 40.4612 8.39024C40.2655 8.11465 40.0405 8.04011 39.829 8.18468C39.6198 8.32699 39.604 8.57773 39.793 8.84881C40.8954 10.4301 41.4061 12.1921 41.3723 14.1144C41.3678 14.3855 41.3341 14.6543 41.3161 14.9254C40.9471 13.6536 40.2992 12.5941 39.2508 11.8125C37.748 10.6921 36.0742 10.4052 34.2699 10.8841C34.0427 10.9451 33.9954 10.8977 33.9999 10.6808C34.0112 10.3013 33.9639 9.92407 33.9032 9.55134C33.3812 6.30523 31.7074 3.87009 28.8255 2.2843C28.3845 2.0426 27.9166 1.85285 27.4351 1.7015C27.1877 1.62469 26.9897 1.72634 26.9132 1.94772C26.8367 2.16684 26.9357 2.36563 27.1719 2.46502C27.2214 2.48535 27.2732 2.50116 27.3249 2.51924C29.2979 3.22177 30.8143 4.48904 31.9121 6.26683C31.9639 6.35041 32.0336 6.43173 32.0449 6.55824C29.5634 4.42805 25.7748 4.89791 23.8288 7.57702C23.8153 7.56573 23.7973 7.55895 23.7861 7.5454C23.7523 7.50473 23.7186 7.46181 23.6848 7.41889C22.7017 6.14033 21.4868 5.14413 20.0222 4.46871C17.8017 3.44315 15.5137 3.27598 13.1672 3.97852C12.8613 4.07113 12.7353 4.2654 12.805 4.50937C12.8748 4.75108 13.0975 4.84821 13.3922 4.75559C14.8298 4.30832 16.2854 4.24055 17.7567 4.55003C18.4002 4.68557 19.0256 4.8821 19.6128 5.19835C19.2978 5.19835 18.9873 5.20738 18.6769 5.23675C15.8872 5.49201 13.6937 7.85035 13.6487 10.6627C13.6464 10.8502 13.6262 10.9157 13.4125 10.8502C12.1414 10.4685 10.841 10.3442 9.5204 10.4978C6.79595 10.8164 4.5822 12.052 2.90164 14.2319C2.69466 14.5007 2.69691 14.7379 2.89714 14.8983C3.10861 15.0677 3.32909 15.0067 3.55181 14.713C3.56756 14.6904 3.58331 14.6701 3.60131 14.6475C4.86792 13.0143 6.51248 11.9684 8.51026 11.4737C8.562 11.4602 8.61375 11.4398 8.66549 11.433C8.71949 11.4263 8.77348 11.4308 8.87247 11.4308C7.46412 12.3389 6.58672 13.5632 6.29876 15.1784C6.01304 16.78 6.3865 18.2438 7.29764 19.5743C7.2594 19.6014 7.2459 19.615 7.23015 19.6217C7.17166 19.6443 7.11316 19.6669 7.05467 19.6872C4.96016 20.4575 3.29084 21.77 2.08273 23.654C1.10184 25.1833 0.597893 26.8639 0.588894 28.6869C0.586644 28.9738 0.728378 29.1364 0.969101 29.1477C1.21657 29.159 1.38305 28.9828 1.39655 28.6959C1.39655 28.6779 1.39655 28.6598 1.39655 28.6417C1.41905 26.6493 2.08273 24.8851 3.29759 23.3242C3.41458 23.1728 3.51807 23.0011 3.75429 22.8588C3.16711 24.4265 3.1851 25.9287 3.89152 27.388C4.59795 28.8473 5.75657 29.8073 7.2729 30.3382C7.26615 30.3608 7.26615 30.3811 7.25715 30.3947C7.23465 30.4331 7.20765 30.4692 7.18291 30.5076C5.63958 32.8095 5.10189 35.3237 5.61483 38.0525C5.8623 39.3627 6.38875 40.5599 7.15816 41.6465C7.33139 41.8904 7.52262 41.9492 7.7296 41.8362C7.97707 41.7007 7.99957 41.4432 7.79259 41.1405C6.52598 39.2994 6.04453 37.2641 6.27626 35.0391C6.36625 35.0842 6.35725 35.1633 6.37525 35.2288C6.69921 36.4238 7.33364 37.4222 8.32128 38.17C9.82861 39.3107 11.5114 39.5818 13.3247 39.121C13.5227 39.0713 13.6059 39.0487 13.5992 39.3062C13.5834 39.9478 13.6712 40.5848 13.8264 41.2082C14.6791 44.6396 16.7173 47.025 20.0425 48.2629C20.3642 48.3827 20.5914 48.3059 20.6747 48.0664C20.7669 47.7999 20.6432 47.6078 20.3034 47.4926C18.8321 46.9889 17.5947 46.1373 16.5756 44.9649C16.1842 44.5153 15.8354 44.0319 15.57 43.4853C16.8478 44.4995 18.2809 44.9491 19.9007 44.7277C21.5138 44.5086 22.7804 43.6908 23.7681 42.401C24.1618 42.925 24.569 43.4085 25.0437 43.8264C27.7749 46.2299 30.884 47.0205 34.4094 46.0221C34.7423 45.9272 34.8661 45.7374 34.7806 45.4844C34.6951 45.2269 34.5016 45.1546 34.1619 45.2585C32.5196 45.7623 30.8705 45.7691 29.2214 45.3037C28.7805 45.1795 28.344 45.0349 27.9413 44.7909C29.5724 44.8836 31.001 44.4092 32.1866 43.2797C33.3722 42.1502 33.9324 40.7361 33.9639 39.0894C35.5365 39.575 37.1158 39.706 38.7199 39.4124C41.1856 38.9606 43.1924 37.7475 44.7155 35.7438C44.9044 35.4908 44.8932 35.2649 44.693 35.1046ZM43.4444 25.0071C43.4444 27.1734 41.928 29.1274 39.8268 29.6763C39.6895 29.7125 39.586 29.6899 39.478 29.6153C38.2159 28.7479 37.4083 27.5574 37.1406 26.0552C36.7311 23.7466 37.5253 21.8807 39.3521 20.4372C39.5118 20.3107 39.6558 20.2972 39.847 20.3514C41.9685 20.9455 43.4444 22.8543 43.4444 25.0071ZM33.7164 12.1085C33.7659 11.9458 33.8447 11.8532 34.0067 11.7922C34.5848 11.5754 35.1788 11.4602 36.0944 11.4579C37.7592 11.5324 39.2868 12.3728 40.1327 14.1822C40.9831 16.0006 40.6929 17.74 39.5005 19.3371C39.3993 19.4749 39.2711 19.493 39.1226 19.4907C36.9988 19.4726 35.3408 18.5781 34.2294 16.7619C33.3385 15.3071 33.2192 13.7349 33.7164 12.1085ZM24.3125 8.30214C25.3294 6.67796 27.3542 5.75179 29.1832 6.0816C31.1495 6.43399 32.6771 7.92038 33.0775 9.87437C33.1585 10.2719 33.19 10.674 33.19 11.0829C33.19 11.2817 33.1045 11.4037 32.9628 11.5099C32.1236 12.1424 31.181 12.506 30.1393 12.6145C29.9526 12.6348 29.7636 12.6371 29.5747 12.6461C27.1449 12.6393 24.9807 11.0242 24.2585 8.68165C24.209 8.53482 24.236 8.42639 24.3125 8.30214ZM18.3934 6.0816C20.2112 5.73598 22.362 6.70958 23.2934 8.29311C23.3564 8.39928 23.3519 8.4919 23.3204 8.59807C22.9964 9.75691 22.353 10.7034 21.4148 11.4443C19.426 13.0188 16.6611 13.0527 14.6273 11.5392C14.4181 11.3833 14.4181 11.3833 14.4181 10.8909C14.4181 8.519 16.0672 6.52435 18.3934 6.0816ZM7.00518 16.1904C7.00743 13.7191 8.89047 11.6748 11.3404 11.4647C12.0896 11.4014 12.8073 11.5053 13.5137 11.7448C13.6734 11.799 13.7679 11.8871 13.8219 12.0475C14.4271 13.8546 14.2134 15.5624 13.1267 17.1188C12.0154 18.7136 10.4405 19.4839 8.50351 19.5178C8.31903 19.5201 8.20654 19.4546 8.09855 19.3145C7.38088 18.3974 7.00518 17.3605 7.00518 16.1904ZM4.14575 24.9867C4.14575 22.8227 5.68457 20.8483 7.76784 20.3243C7.92082 20.2859 8.02881 20.3356 8.1413 20.4124C9.25043 21.1804 9.98384 22.224 10.3506 23.5162C10.994 25.7864 10.1053 28.2487 8.17955 29.6085C8.06931 29.6854 7.97257 29.7147 7.83533 29.6808C5.69582 29.1568 4.14575 27.1892 4.14575 24.9867ZM13.8669 37.9124C13.8219 38.0615 13.7454 38.1496 13.5947 38.2106C10.67 39.3649 7.48662 37.551 7.03892 34.4382C6.8387 33.0534 7.22115 31.7975 8.07381 30.6861C8.20879 30.5121 8.37752 30.5144 8.553 30.5144C10.0086 30.5166 11.2864 31.0046 12.3551 31.994C13.5429 33.0964 14.1369 34.4766 14.1526 36.103C14.1661 36.7242 14.0491 37.3229 13.8669 37.9124ZM23.2574 41.7301C22.2675 43.1735 20.9041 43.928 19.579 43.9732C16.7893 43.9732 14.7466 42.1638 14.4586 39.8167C14.4316 39.5931 14.4361 39.3672 14.4001 39.1458C14.3416 38.7731 14.5193 38.554 14.8118 38.3529C17.912 36.2205 22.1685 37.6865 23.3204 41.2828C23.3788 41.4545 23.3586 41.5855 23.2574 41.7301ZM21.4868 37.5962C20.4857 36.9388 19.381 36.6045 18.1842 36.5345C18.6004 36.3538 19.0391 36.2544 19.4778 36.173C21.1336 35.8613 22.7669 35.9562 24.3777 36.4577C24.6747 36.5503 24.8907 36.4554 24.9649 36.2069C25.0347 35.972 24.8997 35.7664 24.6005 35.6806C21.2191 34.6867 18.0649 35.204 15.1223 37.1218C15.084 37.1467 15.048 37.1738 15.012 37.1986C14.967 37.2257 14.9198 37.2799 14.868 37.2415C14.8231 37.2076 14.8478 37.1489 14.8545 37.0947C15.2078 34.6505 14.4181 32.6491 12.5216 31.0836C12.5103 31.0746 12.5013 31.0588 12.4878 31.0452C12.5801 31.0001 12.6588 31.052 12.7398 31.0791C14.6903 31.7749 16.2944 32.9428 17.5408 34.6031C17.723 34.8448 17.939 34.9126 18.1369 34.7861C18.3642 34.6437 18.3912 34.3953 18.1977 34.131C17.624 33.3494 16.9558 32.6559 16.1932 32.0618C14.2561 30.5573 12.0581 29.7802 9.61263 29.6944C9.55864 29.6921 9.50465 29.6899 9.45065 29.6831C9.43715 29.6808 9.42366 29.665 9.38991 29.6424C9.83986 29.1748 10.2516 28.6801 10.5598 28.1086C11.3427 26.6606 11.5519 25.1358 11.1807 23.5297C11.1717 23.4868 11.1672 23.4416 11.1605 23.3964C11.147 23.3467 11.1065 23.2857 11.2077 23.2903C12.4316 25.0229 13.075 26.9498 13.1065 29.0754C13.111 29.3036 13.156 29.4933 13.3967 29.5611C13.6959 29.6447 13.9164 29.4595 13.9164 29.1229C13.9142 28.0883 13.7612 27.074 13.462 26.0868C12.7668 23.8008 11.4664 21.9304 9.59464 20.4553C9.52715 20.4011 9.43715 20.3694 9.39891 20.2701C11.9074 19.8386 13.6419 18.4516 14.5958 16.0436C14.6431 16.2875 14.6116 16.5044 14.6026 16.7167C14.5913 16.9336 14.5688 17.1482 14.5418 17.3628C14.3259 19.066 13.7342 20.6247 12.742 22.0253C12.5643 22.276 12.5868 22.4974 12.7893 22.6442C13.003 22.8001 13.2235 22.7481 13.4057 22.4883C14.5643 20.8461 15.2145 19.0209 15.381 17.0172C15.5002 15.5714 15.3337 14.1573 14.913 12.7703C14.9063 12.7455 14.9063 12.7206 14.904 12.68C17.1605 13.7982 19.354 13.7146 21.5071 12.3954C21.5386 12.5151 21.4418 12.5761 21.3878 12.6438C20.1617 14.2161 18.6206 15.3546 16.7421 16.0255C16.6993 16.0413 16.6566 16.0549 16.6161 16.0707C16.3124 16.1768 16.1909 16.3643 16.2696 16.6083C16.3529 16.8613 16.5689 16.9426 16.8883 16.8342C17.804 16.5225 18.6634 16.1 19.462 15.5556C21.4463 14.198 22.8434 12.3773 23.6871 10.1229C23.7276 10.0167 23.7681 9.91051 23.813 9.79305C25.4284 12.3434 26.8547 13.2718 29.4689 13.448C29.0437 13.6355 28.6433 13.7168 28.2473 13.7982C26.5487 14.1415 24.8727 14.0625 23.2169 13.5452C22.8682 13.4367 22.6139 13.5813 22.6072 13.8863C22.6027 14.1054 22.7129 14.2341 22.9199 14.2997C24.1753 14.6995 25.4576 14.8712 26.7715 14.7966C28.9155 14.6769 30.8615 13.9902 32.6253 12.7658C32.6456 12.7523 32.6703 12.741 32.7266 12.7116C32.3666 15.2055 33.1068 17.2724 35.01 18.9056C34.8548 18.9305 34.8526 18.9305 34.7176 18.8785C32.8345 18.176 31.2732 17.033 30.0584 15.4223C29.9774 15.3139 29.9031 15.1965 29.7591 15.1648C29.5859 15.1287 29.4352 15.1761 29.3294 15.323C29.2102 15.4901 29.2237 15.6573 29.3452 15.8222C29.7659 16.3982 30.2361 16.9313 30.767 17.4102C32.5961 19.0615 34.7378 20.0058 37.1833 20.252C37.5118 20.2859 37.8425 20.2994 38.2182 20.3265C36.4476 22.1359 35.8582 24.2616 36.4386 26.7058C36.3352 26.7239 36.3217 26.6448 36.2924 26.6019C35.127 24.8919 34.4971 23.0056 34.4724 20.9251C34.4679 20.5976 34.3329 20.4237 34.0764 20.4169C33.8109 20.4101 33.6557 20.5953 33.6647 20.9297C33.7614 24.4559 35.2238 27.2976 37.9392 29.5114C38.0022 29.5634 38.0652 29.6131 38.1282 29.665C38.1417 29.6763 38.1462 29.6944 38.1709 29.7328C35.676 30.162 33.9459 31.5467 32.9785 33.9615C32.9785 33.6859 32.9695 33.4691 32.9808 33.2522C32.992 33.0263 33.0145 32.8027 33.0438 32.5791C33.2665 30.9052 33.8514 29.3736 34.8256 27.9911C35.0123 27.7268 34.9943 27.4987 34.7873 27.3496C34.5803 27.1982 34.3419 27.266 34.1529 27.5394C32.6411 29.726 31.9999 32.1476 32.2024 34.7996C32.2676 35.6467 32.4408 36.469 32.6883 37.3229C30.3913 36.1866 28.1798 36.2815 26.0223 37.612C26.3823 37.054 26.8232 36.5751 27.2979 36.1301C28.3553 35.1362 29.5702 34.4043 30.9425 33.9322C31.0887 33.8825 31.2395 33.8373 31.2957 33.6701C31.3475 33.5143 31.3362 33.3674 31.2215 33.2409C31.0887 33.0918 30.9268 33.0828 30.7513 33.1415C30.0943 33.3629 29.4622 33.6385 28.8592 33.9819C26.4565 35.3531 24.8209 37.35 23.7613 40.2279C23.2259 39.1413 22.4857 38.2513 21.4868 37.5962ZM29.0437 43.9416C28.8412 43.9755 28.632 43.9755 28.4025 43.9935C26.6792 43.9348 25.3091 43.1871 24.317 41.7414C24.245 41.6374 24.2248 41.5403 24.263 41.4138C24.8097 39.5999 25.9683 38.3371 27.7366 37.6933C29.5927 37.0179 31.3407 37.3319 32.956 38.4546C33.109 38.5608 33.1563 38.6873 33.163 38.8589C33.2732 41.4093 31.5589 43.5282 29.0437 43.9416ZM35.3295 38.5404C34.8976 38.5133 34.4814 38.4004 34.0719 38.2581C33.9122 38.2038 33.8244 38.109 33.7682 37.9508C33.5432 37.3432 33.4532 36.7152 33.451 36.0714C33.4532 33.2116 35.5837 30.8306 38.4364 30.5325C39.4938 30.4218 39.2958 30.2998 39.856 31.2395C40.8504 32.9044 40.8954 34.6415 39.8673 36.3041C38.8369 37.9712 37.262 38.6602 35.3295 38.5404Z" fill="#FF6E00" stroke="#FF6E00" stroke-width="2" mask="url(#path-20-inside-1_549_10885)"/>
<path d="M16.3264 41.0337L16.3264 41.0337C16.0757 41.0254 15.8679 40.8275 15.8804 40.507L15.8804 40.507C15.8894 40.2768 16.0984 40.0687 16.3719 40.079L16.3741 40.0791C16.6253 40.0876 16.8319 40.2957 16.8226 40.5819L16.8225 40.5835C16.8151 40.8365 16.6044 41.0429 16.3264 41.0337Z" fill="#0064C8" stroke="#0064C8"/>
<path d="M40.3731 27.3013L40.3731 27.3013C40.3719 27.0161 40.5784 26.8149 40.8377 26.8116L40.8378 26.8116C41.0874 26.8084 41.3129 27.0224 41.3169 27.2905C41.3185 27.5565 41.1109 27.7668 40.8451 27.7679L40.8451 27.7679L40.8411 27.7679C40.5688 27.7713 40.3742 27.5828 40.3731 27.3013Z" fill="#0064C8" stroke="#0064C8"/>
<path d="M20.2246 8.02978L20.2246 8.02993C20.2269 8.30723 20.4201 8.49969 20.7035 8.49856L20.2246 8.02978ZM20.2246 8.02978C20.2225 7.7709 20.4406 7.55016 20.6986 7.54908M20.2246 8.02978L20.6986 7.54908M20.6986 7.54908C20.9606 7.54797 21.1842 7.77457 21.1842 8.02495M20.6986 7.54908L21.1842 8.02495M21.1842 8.02495C21.1842 8.28571 20.9786 8.4974 20.7035 8.49856L21.1842 8.02495Z" fill="#0064C8" stroke="#0064C8"/>
<path d="M36.2567 36.4411L36.2549 36.4411C35.9584 36.4375 35.7731 36.6269 35.7687 36.8958L35.7687 36.8979C35.763 37.1739 35.9682 37.3841 36.2306 37.3908L36.2567 36.4411ZM36.2567 36.4411C36.5154 36.4433 36.7114 36.6362 36.7126 36.9077L36.2567 36.4411ZM36.7126 36.9078C36.7137 37.186 36.4912 37.3972 36.2307 37.3908L36.7126 36.9078Z" fill="#0064C8" stroke="#0064C8"/>
<path d="M31.7081 9.44297L31.7081 9.44503C31.7093 9.71474 31.4992 9.92335 31.2362 9.92335C30.9624 9.92335 30.7666 9.73046 30.7666 9.44974C30.7666 9.16288 30.9639 8.97162 31.2317 8.97162C31.5057 8.97162 31.7081 9.17582 31.7081 9.44297Z" fill="#0064C8" stroke="#0064C8"/>
<path d="M6.74391 22.2228L6.74375 22.2228C6.50169 22.2196 6.27379 22.4325 6.2715 22.705L6.74391 22.2228ZM6.74391 22.2228C7.00626 22.226 7.21645 22.4349 7.21531 22.7124C7.21418 22.9861 7.00432 23.1903 6.74085 23.1881L6.74391 22.2228ZM6.74081 23.1881C6.47938 23.1859 6.26928 22.9757 6.2715 22.7051L6.74081 23.1881Z" fill="#0064C8" stroke="#0064C8"/>
<path d="M11.812 13.0925H11.8119V13.0945C11.8119 13.37 11.6012 13.5749 11.3423 13.5749C11.0887 13.5749 10.8682 13.3594 10.8682 13.09C10.8682 12.8244 11.0691 12.6187 11.3468 12.6187L11.3489 12.6187C11.6173 12.6176 11.8131 12.8072 11.812 13.0925Z" fill="#0064C8" stroke="#0064C8"/>
<path d="M39.4056 16.8073L39.4056 16.8073C39.4078 16.5488 39.193 16.3236 38.9242 16.3174C38.6888 16.3139 38.4517 16.5323 38.4483 16.8042L38.4483 16.8042C38.4451 17.0568 38.6624 17.2828 38.9266 17.2851L39.4056 16.8073ZM39.4056 16.8073C39.4034 17.0786 39.1874 17.2873 38.9267 17.2851L39.4056 16.8073Z" fill="#0064C8" stroke="#0064C8"/>
<path d="M26.8878 41.4947L26.8878 41.4947C26.6286 41.4925 26.4065 41.7109 26.4043 41.9702L26.8878 41.4947ZM26.8878 41.4947C27.1495 41.4969 27.356 41.6988 27.3549 41.9798H27.3549M26.8878 41.4947L27.3549 41.9798M27.3549 41.9798V41.9819M27.3549 41.9798V41.9819M27.3549 41.9819C27.3549 42.25 27.1654 42.4453 26.8783 42.4442L27.3549 41.9819ZM26.8782 42.4442C26.6083 42.4431 26.4022 42.2307 26.4043 41.9703L26.8782 42.4442Z" fill="#0064C8" stroke="#0064C8"/>
<path d="M8.66051 32.7151L8.66049 32.7151C8.40368 32.7129 8.177 32.9357 8.17482 33.1929L8.66051 32.7151ZM8.66051 32.7151C8.91954 32.7173 9.13766 32.9403 9.13441 33.1982L9.13441 33.1984M8.66051 32.7151L9.13441 33.1984M9.13441 33.1984C9.13103 33.473 8.92118 33.6759 8.65316 33.6736L9.13441 33.1984ZM8.65313 33.6736C8.3871 33.6714 8.17267 33.4499 8.17482 33.1929L8.65313 33.6736Z" fill="#0064C8" stroke="#0064C8"/>
<path d="M23.7767 47.0733L23.7756 47.0733C23.0889 47.0684 22.5657 47.5867 22.5625 48.2698C22.5593 48.9634 23.0846 49.4938 23.7523 49.5001C24.4237 49.5065 24.9677 48.9694 24.9709 48.2968L23.7767 47.0733ZM23.7767 47.0733C24.4492 47.0765 24.9741 47.6053 24.9709 48.2968L23.7767 47.0733Z" fill="#0064C8" stroke="#0064C8"/>
</svg>
