<svg width="24" height="22" viewBox="0 0 24 22" fill="none" xmlns="http://www.w3.org/2000/svg">
<path d="M16.4 20.9993V18.7771C16.4 17.5984 15.9364 16.4679 15.1113 15.6344C14.2861 14.8009 13.167 14.3327 12 14.3327H5.4C4.23305 14.3327 3.11389 14.8009 2.28873 15.6344C1.46357 16.4679 1 17.5984 1 18.7771V20.9993" stroke="#fafafa" stroke-width="2" stroke-linecap="round" stroke-linejoin="round"/>
<path d="M8.69999 9.88953C11.13 9.88953 13.1 7.89968 13.1 5.44509C13.1 2.99049 11.13 1.00064 8.69999 1.00064C6.26993 1.00064 4.29999 2.99049 4.29999 5.44509C4.29999 7.89968 6.26993 9.88953 8.69999 9.88953Z" stroke="#fafafa" stroke-width="2" stroke-linecap="round" stroke-linejoin="round"/>
<path d="M19.7 14.4782C20.644 14.7244 21.4802 15.2802 22.0775 16.0585C22.6748 16.8368 22.9993 17.7934 23 18.7782V19.8894H20.8" stroke="#fafafa" stroke-width="2" stroke-linecap="round" stroke-linejoin="round"/>
<path d="M16.4 1.14615C17.3465 1.39093 18.1854 1.94693 18.7844 2.72649C19.3835 3.50606 19.7087 4.46485 19.7087 5.4517C19.7087 6.43856 19.3835 7.39735 18.7844 8.17691C18.1854 8.95648 17.3465 9.51248 16.4 9.75726" stroke="#fafafa" stroke-width="2" stroke-linecap="round" stroke-linejoin="round"/>
</svg>
