<?xml version="1.0" encoding="utf-8"?>
<!-- Generator: Adobe Illustrator 25.3.1, SVG Export Plug-In . SVG Version: 6.00 Build 0)  -->
<svg version="1.1" id="Camada_1" xmlns="http://www.w3.org/2000/svg" xmlns:xlink="http://www.w3.org/1999/xlink" x="0px" y="0px"
	 viewBox="0 0 32 32" style="enable-background:new 0 0 32 32;" xml:space="preserve">
<style type="text/css">
	.st0{fill:#3082A9;}
</style>
<g id="cuB9jx.tif">
	<g>
		<path class="st0" d="M1.9,19.5c0.1-0.7,0.2-1.4,0.5-2c0.5-1.3,1.2-2.5,2.2-3.5c3.6-3.6,7.2-7.2,10.8-10.8c0.8-0.8,2-0.5,2.3,0.4
			c0.1,0.4,0.1,0.8-0.2,1.2c-0.1,0.1-0.2,0.2-0.3,0.3C13.6,8.6,10,12.2,6.5,15.7c-1.1,1.1-1.8,2.5-1.9,4.1c-0.2,2.1,0.5,3.9,2.1,5.3
			c2.6,2.3,6.3,2.1,8.8-0.3c2.6-2.6,5.2-5.2,7.8-7.8c1-1,2.1-2.1,3.1-3.1c1.4-1.4,1.5-3.6,0.2-5.2c-1.3-1.6-3.8-1.8-5.4-0.4
			c-0.1,0.1-0.2,0.2-0.3,0.2c-3.3,3.3-6.6,6.6-9.9,9.9c-0.3,0.3-0.5,0.6-0.5,1c0,0.5,0.2,0.9,0.7,1.1c0.5,0.2,0.9,0.2,1.3-0.2
			c0.1-0.1,0.2-0.2,0.3-0.3c2.1-2.1,4.2-4.2,6.3-6.3c0.5-0.5,1.1-0.6,1.7-0.3c0.7,0.4,0.9,1.3,0.4,1.9c-0.1,0.1-0.1,0.2-0.2,0.2
			c-2.1,2.2-4.3,4.3-6.5,6.5c-0.8,0.8-1.8,1.2-3,1.2c-1.8-0.1-3.4-1.6-3.6-3.3c-0.1-1.3,0.2-2.4,1.2-3.3c3.3-3.3,6.6-6.6,9.9-9.9
			c1.4-1.4,3.1-2.1,5-1.9c2.5,0.2,4.3,1.4,5.4,3.7c1,2.1,0.8,4.1-0.3,6.1c-0.3,0.5-0.6,0.9-1,1.3c-3.6,3.6-7.2,7.2-10.8,10.8
			c-1.5,1.5-3.4,2.4-5.5,2.7c-0.2,0-0.4,0-0.6,0c-0.2,0-0.4,0-0.5,0c-0.1,0-0.1,0-0.2,0c-1.5-0.1-2.9-0.5-4.2-1.3
			c-1.8-1.1-3.1-2.6-3.8-4.6C2.2,22.8,2,22,1.9,21.3C1.9,20.7,1.9,20.1,1.9,19.5z"/>
	</g>
</g>
</svg>
