<?xml version="1.0" encoding="utf-8"?>
<!-- Generator: Adobe Illustrator 25.4.1, SVG Export Plug-In . SVG Version: 6.00 Build 0)  -->
<svg version="1.1" id="Camada_1" xmlns="http://www.w3.org/2000/svg" xmlns:xlink="http://www.w3.org/1999/xlink" x="0px" y="0px"
	 viewBox="0 0 32 32" style="enable-background:new 0 0 32 32;" xml:space="preserve">
<style type="text/css">
	.st0{fill:#FFFFFF;}
	.st1{fill:#3082A9;}
	.st2{fill:#9BCDE8;}
</style>
<g>
	<path class="st0" d="M6.8,13.3c0,0.2,0,0.4,0,0.6c0.1,0.4,0.4,0.6,0.7,0.7c0.4,0,0.8-0.2,0.9-0.6c0-0.2,0-0.3,0-0.5
		c0.1-1.6,0.5-3,1.3-4.3c0.4-0.6,0.8-1.1,1.3-1.6c0.3-0.4,0.3-0.8,0.1-1.1C10.7,6,10.2,6,9.8,6.4C7.9,8.3,6.9,10.6,6.8,13.3z"/>
	<path class="st1" d="M15.9,22.2c-2.3,0-4.5,0-6.8,0c-0.8,0-1.4-0.4-1.5-1.2c-0.1-0.6,0.1-1.1,0.5-1.5c0.5-0.4,0.9-0.9,1.2-1.4
		c0.5-0.9,0.8-1.9,0.8-2.9c0-0.8,0-1.6,0-2.4c0.1-2.7,2.1-5.1,4.8-5.6c0.1,0,0.2-0.1,0.2-0.2c0-0.2,0-0.4,0-0.7
		c0-0.5,0.4-0.9,0.8-0.9c0.5,0,0.8,0.4,0.8,0.9c0,0.2,0,0.5,0,0.7c0,0.1,0,0.2,0.1,0.2c2.4,0.4,4.2,2.2,4.7,4.6
		c0.1,0.4,0.1,0.8,0.1,1.2c0,0.9,0,1.8,0,2.6c0.1,1.5,0.7,2.7,1.9,3.8c0.3,0.3,0.6,0.6,0.6,1.1c0.1,0.9-0.6,1.6-1.5,1.6
		c-0.6,0-1.3,0-1.9,0C19.3,22.2,17.6,22.2,15.9,22.2z"/>
	<path class="st2" d="M6.8,13.3c0.1-2.7,1.1-5,3-6.9c0.4-0.4,1-0.4,1.3,0c0.3,0.3,0.2,0.8-0.1,1.1c-0.4,0.5-0.9,1-1.3,1.6
		c-0.8,1.3-1.2,2.8-1.3,4.3c0,0.2,0,0.4,0,0.5c-0.1,0.4-0.5,0.6-0.9,0.6s-0.7-0.3-0.7-0.7C6.8,13.7,6.8,13.5,6.8,13.3z"/>
	<path class="st2" d="M25.1,13.4c0,0.1,0,0.3,0,0.4c-0.1,0.5-0.4,0.8-0.9,0.8c-0.4,0-0.8-0.4-0.8-0.8c0-0.8-0.1-1.6-0.3-2.4
		c-0.4-1.3-1.1-2.5-2-3.5c-0.1-0.2-0.3-0.3-0.4-0.5c-0.2-0.4,0-0.8,0.3-1s0.8-0.2,1,0.1c0.4,0.4,0.7,0.8,1,1.2
		C24.4,9.3,25,11.2,25.1,13.4z"/>
</g>
<path class="st2" d="M12.9,23c0.3,1.4,1.5,2.5,3.1,2.5s2.8-1.1,3.1-2.5H12.9z"/>
</svg>
