<svg width="22" height="20" viewBox="0 0 22 20" fill="none" xmlns="http://www.w3.org/2000/svg">
<path d="M1 1H7C8.06087 1 9.07828 1.42143 9.82843 2.17157C10.5786 2.92172 11 3.93913 11 5V19C11 18.2044 10.6839 17.4413 10.1213 16.8787C9.55871 16.3161 8.79565 16 8 16H1V1Z" stroke="#fafafa" stroke-width="2" stroke-linecap="round" stroke-linejoin="round"/>
<path d="M21 1H15C13.9391 1 12.9217 1.42143 12.1716 2.17157C11.4214 2.92172 11 3.93913 11 5V19C11 18.2044 11.3161 17.4413 11.8787 16.8787C12.4413 16.3161 13.2044 16 14 16H21V1Z" stroke="#fafafa" stroke-width="2" stroke-linecap="round" stroke-linejoin="round"/>
</svg>
