<?xml version="1.0" encoding="utf-8"?>
<!-- Generator: Adobe Illustrator 25.3.1, SVG Export Plug-In . SVG Version: 6.00 Build 0)  -->
<svg version="1.1" id="Camada_1" xmlns="http://www.w3.org/2000/svg" xmlns:xlink="http://www.w3.org/1999/xlink" x="0px" y="0px"
	 viewBox="0 0 32 32" style="enable-background:new 0 0 32 32;" xml:space="preserve">
<style type="text/css">
	.st0{fill:#9BCDE8;}
	.st1{fill:#3082A9;}
</style>
<path class="st0" d="M22.7,11.3H9.3c-0.6,0-1-0.4-1-1V8.6c0-0.6,0.4-1,1-1h13.3c0.6,0,1,0.4,1,1v1.7C23.7,10.9,23.2,11.3,22.7,11.3z
	"/>
<path class="st1" d="M11.4,19.9l3.7,3.9c0.5,0.5,1.3,0.5,1.8,0l3.7-3.9c0.7-0.8,0.2-2.1-0.9-2.1h-2v-4c0-0.5-0.4-1-1-1h-1.4
	c-0.5,0-1,0.4-1,1v4h-2C11.3,17.8,10.7,19.1,11.4,19.9z"/>
</svg>
