<?xml version="1.0" encoding="utf-8"?>
<!-- Generator: Adobe Illustrator 25.3.1, SVG Export Plug-In . SVG Version: 6.00 Build 0)  -->
<svg version="1.1" id="Camada_1" xmlns="http://www.w3.org/2000/svg" xmlns:xlink="http://www.w3.org/1999/xlink" x="0px" y="0px"
	 viewBox="0 0 32 32" style="enable-background:new 0 0 32 32;" xml:space="preserve">
<style type="text/css">
	.st0{clip-path:url(#SVGID_2_);}
	.st1{fill:#FFFFFF;}
	.st2{fill:#3082A9;}
	.st3{clip-path:url(#SVGID_4_);}
	.st4{fill:#9BCDE8;}
</style>
<g>
	<defs>
		<rect id="SVGID_1_" width="32" height="32"/>
	</defs>
	<clipPath id="SVGID_2_">
		<use xlink:href="#SVGID_1_"  style="overflow:visible;"/>
	</clipPath>
	<g class="st0">
		<path class="st1" d="M16,32c8.8,0,16-7.2,16-16S24.8,0,16,0S0,7.2,0,16S7.2,32,16,32"/>
	</g>
</g>
<path class="st2" d="M11.3,23.1l-1.7,0.5l-0.8-0.8l0.4-1.7L11.3,23.1z M8.8,19.1l-1.6,6.1l6.1-1.6L8.8,19.1z"/>
<rect x="10.2" y="13" transform="matrix(0.7072 -0.707 0.707 0.7072 -6.6604 16.217)" class="st2" width="12.2" height="6.3"/>
<g>
	<defs>
		<rect id="SVGID_3_" width="32" height="32"/>
	</defs>
	<clipPath id="SVGID_4_">
		<use xlink:href="#SVGID_3_"  style="overflow:visible;"/>
	</clipPath>
	<g class="st3">
		<path class="st4" d="M24.8,10.9l-3.2-3.2c-0.3-0.3-0.9-0.3-1.3,0c0,0,0,0,0,0l-1,1l4.5,4.5l1-1C25.1,11.8,25.1,11.2,24.8,10.9"/>
	</g>
</g>
</svg>
