<?xml version="1.0" encoding="utf-8"?>
<!-- Generator: Adobe Illustrator 25.3.1, SVG Export Plug-In . SVG Version: 6.00 Build 0)  -->
<svg version="1.1" id="Camada_1" xmlns="http://www.w3.org/2000/svg" xmlns:xlink="http://www.w3.org/1999/xlink" x="0px" y="0px"
	 viewBox="0 0 108.4 106.6" style="enable-background:new 0 0 108.4 106.6;" xml:space="preserve">
<style type="text/css">
	.st0{fill:#3082A9;}
	.st1{fill:#9BCDE8;}
</style>
<g>
	<g>
		<g>
			<g>
				<path class="st0" d="M67.2,13.2c-8.7,0-15.9,7.2-15.9,15.9S58.4,45,67.2,45s15.9-7.2,15.9-15.9l0,0
					C83.1,20.3,75.9,13.4,67.2,13.2"/>
			</g>
			<g>
				<path class="st0" d="M67.2,49.8C50.5,49.8,37,63.4,37,80c0,3.1,1.7,7.4,9.9,10.3c6.6,2.1,13.4,3.3,20.2,3.1
					c15.1,0,30.2-4.1,30.2-13.4C97.4,63.4,83.8,49.8,67.2,49.8"/>
			</g>
		</g>
	</g>
</g>
<path class="st1" d="M46.2,42.2v-5.4h-6.8C39,34.3,38,32,36.7,30l4.3-4.3l-3.9-3.9l-4.3,4.3c-1.9-1.4-4.3-2.5-6.8-2.9v-6.6h-5.4v6.6
	c-2.5,0.4-4.8,1.4-6.8,2.9l-4.3-4.3l-3.9,3.9L10,30c-1.4,1.9-2.3,4.3-2.7,6.8H0.5v5.4h6.8c0.4,2.5,1.4,4.8,2.9,6.8l-4.5,4.5l3.9,3.9
	l4.5-4.5c1.9,1.4,4.3,2.3,6.8,2.7v6.8h5.4v-6.8c2.5-0.4,4.8-1.4,6.8-2.7l4.5,4.5l3.9-3.9L36.9,49c1.4-1.9,2.5-4.3,2.9-6.8H46.2z
	 M23.4,48.1c-4.8,0-8.5-3.9-8.5-8.7s3.9-8.5,8.5-8.5s8.7,3.9,8.7,8.5S28,48.1,23.4,48.1z"/>
</svg>
