<svg width="18" height="22" viewBox="0 0 18 22" fill="none" xmlns="http://www.w3.org/2000/svg">
<path d="M11.5 1H3C2.46957 1 1.96086 1.21071 1.58579 1.58579C1.21071 1.96086 1 2.46957 1 3V19C1 19.5304 1.21071 20.0391 1.58579 20.4142C1.96086 20.7893 2.46957 21 3 21H15C15.5304 21 16.0391 20.7893 16.4142 20.4142C16.7893 20.0391 17 19.5304 17 19V6.5L11.5 1Z" stroke="#0064C8" stroke-width="2" stroke-linecap="round" stroke-linejoin="round"/>
<path d="M11 1V7H17" stroke="#0064C8" stroke-width="2" stroke-linecap="round" stroke-linejoin="round"/>
<path d="M4.99976 12H6.99976" stroke="#0064C8" stroke-width="2" stroke-linecap="round" stroke-linejoin="round"/>
<path d="M4.99976 16H6.99976" stroke="#0064C8" stroke-width="2" stroke-linecap="round" stroke-linejoin="round"/>
<path d="M11 12H13" stroke="#0064C8" stroke-width="2" stroke-linecap="round" stroke-linejoin="round"/>
<path d="M11 16H13" stroke="#0064C8" stroke-width="2" stroke-linecap="round" stroke-linejoin="round"/>
</svg>
