<svg width="22" height="22" viewBox="0 0 22 22" fill="none" xmlns="http://www.w3.org/2000/svg">
<path d="M18.7778 1H3.22222C1.99492 1 1 1.99492 1 3.22222V18.7778C1 20.0051 1.99492 21 3.22222 21H18.7778C20.0051 21 21 20.0051 21 18.7778V3.22222C21 1.99492 20.0051 1 18.7778 1Z" stroke="#0064C8" stroke-width="2" stroke-linecap="round" stroke-linejoin="round"/>
<path d="M7.66668 9.8889C8.89398 9.8889 9.8889 8.89398 9.8889 7.66668C9.8889 6.43938 8.89398 5.44446 7.66668 5.44446C6.43938 5.44446 5.44446 6.43938 5.44446 7.66668C5.44446 8.89398 6.43938 9.8889 7.66668 9.8889Z" stroke="#0064C8" stroke-width="2" stroke-linecap="round" stroke-linejoin="round"/>
<path d="M21 14.3333L17.5711 10.9044C17.1544 10.4878 16.5893 10.2538 16 10.2538C15.4108 10.2538 14.8456 10.4878 14.4289 10.9044L4.33334 21" stroke="#0064C8" stroke-width="2" stroke-linecap="round" stroke-linejoin="round"/>
</svg>
