<?xml version="1.0" encoding="utf-8"?>
<!-- Generator: Adobe Illustrator 25.3.1, SVG Export Plug-In . SVG Version: 6.00 Build 0)  -->
<svg version="1.1" id="Camada_1" xmlns="http://www.w3.org/2000/svg" xmlns:xlink="http://www.w3.org/1999/xlink" x="0px" y="0px"
	 viewBox="0 0 108.4 106.6" style="enable-background:new 0 0 108.4 106.6;" xml:space="preserve">
<style type="text/css">
	.st0{fill:#3082A9;}
	.st1{fill:#FFFFFF;}
</style>
<path class="st0" d="M75.5,93.4H32.9c-4.9,0-8.9-4-8.9-8.9V58.7c0-4.9,4-8.9,8.9-8.9h42.6c4.9,0,8.9,4,8.9,8.9v25.9
	C84.3,89.4,80.3,93.4,75.5,93.4z"/>
<g>
	<path class="st0" d="M77.6,45.1h-8v-3.7c0-9.9-6.7-18-15-18h-0.8c-8.3,0-15,8.1-15,18v3.7h-8v-3.7c0-14.3,10.3-26,23-26h0.8
		c12.7,0,23,11.7,23,26V45.1z"/>
</g>
<path class="st1" d="M60.5,68c0-3.5-2.8-6.3-6.3-6.3s-6.3,2.8-6.3,6.3c0,2.4,1.3,4.4,3.3,5.5v3.8c0,1.7,1.4,3,3,3c1.7,0,3-1.4,3-3
	v-3.8C59.2,72.5,60.5,70.4,60.5,68z"/>
</svg>
