<?xml version="1.0" encoding="utf-8"?>
<!-- Generator: Adobe Illustrator 25.4.1, SVG Export Plug-In . SVG Version: 6.00 Build 0)  -->
<svg version="1.1" id="Camada_1" xmlns="http://www.w3.org/2000/svg" xmlns:xlink="http://www.w3.org/1999/xlink" x="0px" y="0px"
	 viewBox="0 0 32 32" style="enable-background:new 0 0 32 32;" xml:space="preserve">
<style type="text/css">
	.st0{fill:#FFFFFF;}
	.st1{fill:#3082A9;}
	.st2{fill:#9BCDE8;}
</style>
<g>
	<path class="st0" d="M13,19.6c0,0.1,0,0.2,0,0.2c0,1.9,0,3.8,0,5.8c0,0.5,0.2,0.8,0.8,0.8c3.9,0,7.9,0,11.8,0
		c0.6,0,0.8-0.2,0.8-0.8c0-3.9,0-7.9,0-11.8c0-0.5-0.2-0.8-0.8-0.8c-1.9,0-3.8,0-5.8,0c-0.1,0-0.2,0-0.2,0c0,0.1,0,0.2,0,0.3
		c0,1.8,0,3.7,0,5.5c0,0.6-0.2,0.8-0.8,0.8c-1.8,0-3.7,0-5.5,0C13.2,19.6,13.1,19.6,13,19.6z M19,12.4c0-0.1,0-0.2,0-0.2
		c0-1.9,0-3.8,0-5.8c0-0.5-0.2-0.7-0.7-0.7c-4,0-7.9,0-11.9,0c-0.5,0-0.7,0.2-0.7,0.7c0,4,0,7.9,0,11.9c0,0.5,0.2,0.7,0.7,0.7
		c1.9,0,3.9,0,5.8,0c0.1,0,0.1,0,0.2,0c0-0.1,0-0.2,0-0.3c0-1.8,0-3.7,0-5.5c0-0.6,0.2-0.8,0.8-0.8c1.8,0,3.7,0,5.5,0
		C18.8,12.4,18.9,12.4,19,12.4z M18.4,18.4c0-1.6,0-3.2,0-4.7c-1.6,0-3.2,0-4.7,0c0,1.6,0,3.2,0,4.7C15.2,18.4,16.8,18.4,18.4,18.4z
		"/>
	<path class="st1" d="M13,19.6c0.1,0,0.2,0,0.3,0c1.8,0,3.7,0,5.5,0c0.6,0,0.8-0.2,0.8-0.8c0-1.8,0-3.7,0-5.5c0-0.1,0-0.2,0-0.3
		c0.1,0,0.2,0,0.2,0c1.9,0,3.8,0,5.8,0c0.5,0,0.8,0.2,0.8,0.8c0,3.9,0,7.9,0,11.8c0,0.6-0.2,0.8-0.8,0.8c-3.9,0-7.9,0-11.8,0
		c-0.5,0-0.8-0.2-0.8-0.8c0-1.9,0-3.8,0-5.8C13,19.8,13,19.7,13,19.6z"/>
	<path class="st1" d="M19,12.4c-0.1,0-0.2,0-0.3,0c-1.8,0-3.7,0-5.5,0c-0.6,0-0.8,0.2-0.8,0.8c0,1.8,0,3.7,0,5.5c0,0.1,0,0.2,0,0.3
		c-0.1,0-0.1,0-0.2,0c-1.9,0-3.9,0-5.8,0c-0.5,0-0.7-0.2-0.7-0.7c0-4,0-7.9,0-11.9c0-0.5,0.2-0.7,0.7-0.7c4,0,7.9,0,11.9,0
		c0.5,0,0.7,0.2,0.7,0.7c0,1.9,0,3.8,0,5.8C19,12.2,19,12.3,19,12.4z"/>
	<path class="st2" d="M18.4,18.4c-1.6,0-3.2,0-4.7,0c0-1.6,0-3.1,0-4.7c1.6,0,3.2,0,4.7,0C18.4,15.2,18.4,16.8,18.4,18.4z"/>
</g>
</svg>
