<?xml version="1.0" encoding="utf-8"?>
<!-- Generator: Adobe Illustrator 25.3.1, SVG Export Plug-In . SVG Version: 6.00 Build 0)  -->
<svg version="1.1" id="Camada_1" xmlns="http://www.w3.org/2000/svg" xmlns:xlink="http://www.w3.org/1999/xlink" x="0px" y="0px"
	 viewBox="0 0 32 32" style="enable-background:new 0 0 32 32;" xml:space="preserve">
<style type="text/css">
	.st0{fill:#FFFFFF;}
</style>
<g>
	<path class="st0" d="M15.5,6.9c2.5,0,4.2,0.6,5.8,1.6c2.9,1.9,5.2,4.4,7,7.3c0.3,0.5,0.4,1,0.1,1.5c-2.1,3.4-4.7,6.3-8.3,8.1
		c-3.2,1.6-6.3,1.2-9.3-0.7c-3-1.8-5.2-4.4-7.1-7.3c-0.3-0.5-0.4-1.1,0-1.6c2.1-3.2,4.5-6,7.9-7.8C13,7.3,14.5,6.9,15.5,6.9z
		 M16.2,23.6c0.8,0,2.2-0.4,3.2-1c2.4-1.4,4.2-3.4,5.8-5.6c0.1-0.2,0.2-0.3,0-0.5c-1.6-2.3-3.4-4.3-5.9-5.7
		c-2.3-1.3-4.6-1.3-6.9,0.1c-2.3,1.4-4.1,3.4-5.7,5.6c-0.2,0.2-0.1,0.4,0.1,0.6c1.3,1.8,2.8,3.5,4.6,4.8
		C12.8,22.9,14.3,23.6,16.2,23.6z"/>
	<path class="st0" d="M11.8,16.7c0-2.3,1.9-4.2,4.2-4.2c2.3,0,4.2,1.9,4.2,4.2c0,2.3-1.9,4.2-4.2,4.2C13.6,20.9,11.8,19,11.8,16.7z
		 M17.3,16.7c0-0.7-0.6-1.3-1.3-1.4c-0.7,0-1.3,0.6-1.4,1.3c0,0.7,0.6,1.4,1.4,1.4C16.7,18.1,17.3,17.4,17.3,16.7z"/>
</g>
</svg>
