<?xml version="1.0" encoding="utf-8"?>
<!-- Generator: Adobe Illustrator 25.3.1, SVG Export Plug-In . SVG Version: 6.00 Build 0)  -->
<svg version="1.1" id="Camada_1" xmlns="http://www.w3.org/2000/svg" xmlns:xlink="http://www.w3.org/1999/xlink" x="0px" y="0px"
	 viewBox="0 0 363.7 363.7" style="enable-background:new 0 0 363.7 363.7;" xml:space="preserve">
<style type="text/css">
	.st0{fill:#9BCDE8;}
	.st1{clip-path:url(#SVGID_4_);}
	.st2{fill:#3082A9;}
</style>
<g>
	<defs>
		<rect id="SVGID_1_" width="363.7" height="363.7"/>
	</defs>
	<clipPath id="SVGID_2_">
		<use xlink:href="#SVGID_1_"  style="overflow:visible;"/>
	</clipPath>
</g>
<polygon class="st0" points="104.9,130.8 132.1,301.7 231.5,301.7 258.8,130.8 "/>
<g>
	<defs>
		<rect id="SVGID_3_" width="363.7" height="363.7"/>
	</defs>
	<clipPath id="SVGID_4_">
		<use xlink:href="#SVGID_3_"  style="overflow:visible;"/>
	</clipPath>
	<g class="st1">
		<path class="st2" d="M153.5,301.7l-5.3-87.1c0-5,4-9,9-9s9,4,9,9l5.3,87.1H153.5z"/>
		<path class="st2" d="M210.2,301.7l5.3-87.1c0-5-4-9-9-9s-9,4-9,9l-5.3,87.1H210.2z"/>
		<path class="st2" d="M262.3,96.8h-64V85.9c0,0,0,0,0,0c0-1.5-1.2-2.8-2.8-2.8h-27.4c0,0,0,0,0,0c-1.5,0-2.8,1.3-2.8,2.8v10.9h-64
			c-2.1,0-3.8,1.8-3.8,3.9v15.2c0,2.1,1.7,3.9,3.8,3.9v0h160.9c2.1,0,3.8-1.8,3.8-3.9v-15.2C266.1,98.6,264.4,96.9,262.3,96.8z"/>
	</g>
</g>
</svg>
