<?xml version="1.0" encoding="utf-8"?>
<!-- Generator: Adobe Illustrator 25.3.1, SVG Export Plug-In . SVG Version: 6.00 Build 0)  -->
<svg version="1.1" id="Camada_1" xmlns="http://www.w3.org/2000/svg" xmlns:xlink="http://www.w3.org/1999/xlink" x="0px" y="0px"
	 viewBox="0 0 32 32" style="enable-background:new 0 0 32 32;" xml:space="preserve">
<style type="text/css">
	.st0{fill:#9BCDE8;}
	.st1{fill:#3082A9;}
</style>
<path class="st0" d="M9.3,20.5h13.3c0.6,0,1,0.4,1,1v1.7c0,0.6-0.4,1-1,1H9.3c-0.6,0-1-0.4-1-1v-1.7C8.3,20.9,8.8,20.5,9.3,20.5z"/>
<path class="st1" d="M20.6,11.9L16.9,8c-0.5-0.5-1.3-0.5-1.8,0l-3.7,3.9c-0.7,0.8-0.2,2.1,0.9,2.1h2v4c0,0.5,0.4,1,1,1h1.4
	c0.5,0,1-0.4,1-1v-4h2C20.7,14,21.3,12.7,20.6,11.9z"/>
</svg>
