<svg width="875" height="495" viewBox="0 0 875 495" fill="none" xmlns="http://www.w3.org/2000/svg">
<path d="M327.841 78.2345C328.509 76.4445 329.198 74.6237 330.319 73.0806C331.45 71.5375 333.095 70.2722 334.987 70.0356C336.889 69.799 338.986 70.8277 339.603 72.6383C339.871 68.5645 340.457 64.3776 342.493 60.8388C344.528 57.3 348.343 54.5122 352.415 54.7694C356.26 55.006 359.55 57.8658 361.381 61.2503C363.211 64.6451 363.838 68.5337 364.434 72.3399C365.894 70.55 368.969 71.1158 370.49 72.844C372.012 74.5826 372.393 77.0001 372.722 79.2941L327.306 79.7673L327.841 78.2345Z" fill="#E5EFF9"/>
<path d="M670.072 172.66C671.214 169.615 672.375 166.519 674.298 163.896C676.221 161.272 679.018 159.112 682.246 158.721C685.475 158.33 689.053 160.069 690.102 163.145C690.564 156.201 691.551 149.082 695.016 143.064C698.492 137.036 704.97 132.304 711.91 132.725C718.449 133.127 724.053 137.992 727.168 143.764C730.284 149.535 731.353 156.16 732.371 162.63C734.849 159.585 740.083 160.542 742.674 163.494C745.265 166.447 745.913 170.572 746.468 174.461L669.167 175.263L670.072 172.66Z" fill="#E5EFF9"/>
<path d="M117.606 96.3913C118.748 93.3463 119.91 90.2498 121.832 87.6266C123.755 85.0033 126.552 82.843 129.78 82.4521C133.009 82.0612 136.587 83.7997 137.636 86.8756C138.099 79.9317 139.086 72.813 142.551 66.795C146.026 60.7667 152.504 56.0346 159.444 56.4563C165.983 56.8575 171.587 61.7234 174.703 67.4945C177.818 73.2656 178.887 79.8906 179.905 86.3612C182.383 83.3162 187.617 84.2729 190.208 87.2254C192.799 90.1778 193.447 94.303 194.002 98.1915L116.702 98.9939L117.606 96.3913Z" fill="#E5EFF9"/>
<path d="M592.768 99.8582C593.488 97.9448 594.218 96.0108 595.421 94.3545C596.624 92.7086 598.382 91.3507 600.408 91.1038C602.433 90.8569 604.675 91.9473 605.343 93.8813C605.631 89.5298 606.248 85.0549 608.428 81.2795C610.608 77.4938 614.669 74.5311 619.029 74.7883C623.131 75.0352 626.648 78.0905 628.601 81.7116C630.555 85.3327 631.223 89.4887 631.871 93.5521C633.423 91.6387 636.714 92.2457 638.338 94.0974C639.963 95.9491 640.374 98.5414 640.724 100.979L592.213 101.484L592.768 99.8582Z" fill="#E5EFF9"/>
<path d="M270.725 131.717C271.445 129.804 272.175 127.87 273.378 126.214C274.581 124.568 276.339 123.21 278.365 122.963C280.39 122.716 282.632 123.806 283.3 125.74C283.588 121.389 284.205 116.914 286.385 113.139C288.565 109.353 292.626 106.39 296.986 106.647C301.088 106.894 304.605 109.95 306.558 113.571C308.512 117.192 309.18 121.348 309.828 125.411C311.38 123.498 314.671 124.105 316.295 125.956C317.92 127.808 318.331 130.401 318.681 132.839L270.17 133.343L270.725 131.717Z" fill="#E5EFF9"/>
<path d="M364.445 122.017C365.925 118.066 367.427 114.065 369.915 110.67C372.403 107.265 376.033 104.477 380.207 103.973C384.392 103.458 389.019 105.722 390.386 109.703C390.983 100.712 392.258 91.4944 396.751 83.6967C401.244 75.899 409.634 69.7678 418.621 70.313C427.093 70.8274 434.342 77.1232 438.373 84.602C442.403 92.0705 443.791 100.65 445.107 109.034C448.315 105.094 455.101 106.329 458.453 110.155C461.805 113.982 462.659 119.321 463.368 124.362L363.283 125.401L364.445 122.017Z" fill="#E5EFF9"/>
<path d="M619.644 355.824C619.87 354.425 621.546 353.674 622.934 353.921C624.322 354.178 625.463 355.135 626.533 356.061C626.625 354.116 625.545 352.347 624.743 350.578C623.941 348.808 623.438 346.607 624.558 345.023C625.957 343.047 629 343.253 631.18 344.302C634.614 345.959 637.246 349.199 638.151 352.892C639.251 347.255 642.089 341.978 646.181 337.955C647.868 336.299 650.315 334.766 652.454 335.774C654.685 336.824 654.962 340.033 653.893 342.245C652.824 344.457 650.839 346.082 649.369 348.057C644.752 354.24 646.233 364.074 652.454 368.632L621.731 368.529C623.612 366.79 624.198 362.202 622.584 360.217C621.412 358.807 619.356 357.635 619.644 355.824Z" fill="#FFC599"/>
<path d="M616.456 329.623C616.456 330.765 617.381 331.681 618.513 331.681C619.654 331.681 620.569 330.755 620.569 329.623C620.569 328.481 619.644 327.566 618.513 327.566C617.381 327.566 616.456 328.492 616.456 329.623Z" fill="#FFC599"/>
<path d="M678.067 276.675L678.406 276.922C679.568 278.424 680.021 280.409 679.743 282.271C679.568 283.454 677.954 283.701 677.429 282.631C676.493 280.749 676.648 278.269 678.067 276.675Z" fill="#FFC599"/>
<path d="M668.506 298.463L668.783 298.782C669.596 300.489 669.637 302.526 668.969 304.296C668.547 305.407 666.922 305.314 666.634 304.162C666.12 302.115 666.788 299.728 668.506 298.463Z" fill="#FFC599"/>
<path d="M160.998 312.577C160.998 312.577 161.954 305.819 162.252 294.801C162.273 293.423 162.304 291.982 162.335 290.48C162.355 288.978 162.294 287.415 162.273 285.8C162.263 282.559 162.037 279.103 161.841 275.471C161.317 268.209 160.412 260.246 158.952 251.965C157.441 243.694 155.507 235.907 153.472 228.911C152.392 225.434 151.395 222.122 150.274 219.077C149.729 217.554 149.246 216.063 148.701 214.664C148.156 213.265 147.621 211.917 147.128 210.641C143.015 200.416 139.766 194.418 139.766 194.418C139.755 194.418 139.796 194.521 139.879 194.717C139.971 194.933 140.095 195.211 140.249 195.56C140.599 196.332 141.092 197.412 141.719 198.78C142.038 199.48 142.398 200.262 142.789 201.105C143.159 201.969 143.549 202.905 143.981 203.903C144.814 205.92 145.842 208.193 146.788 210.775C147.282 212.061 147.796 213.409 148.331 214.808C148.865 216.207 149.338 217.698 149.873 219.221C150.973 222.266 151.94 225.578 153.009 229.045C155.014 236.03 156.926 243.797 158.428 252.047C159.888 260.308 160.803 268.25 161.348 275.492C161.553 279.123 161.8 282.57 161.821 285.8C161.851 287.415 161.923 288.978 161.913 290.48C161.903 291.982 161.882 293.423 161.872 294.791C161.882 297.537 161.718 300.027 161.636 302.208C161.584 303.298 161.543 304.317 161.502 305.253C161.43 306.179 161.368 307.033 161.307 307.804C161.204 309.306 161.111 310.489 161.049 311.343C161.029 311.723 161.008 312.022 160.998 312.269C160.988 312.464 160.988 312.567 160.998 312.577Z" fill="#E7E7E7"/>
<path d="M138.919 202.803C141.202 210.477 144.101 217.935 147.741 224.941C148.728 226.833 150.209 228.963 152.162 228.665C153.509 228.459 154.517 227.06 154.805 225.578C155.093 224.097 154.815 222.554 154.466 221.093C153.057 215.199 150.528 209.726 148.029 204.305C147.145 202.401 146.209 200.416 144.616 199.212C143.022 198.019 140.575 197.937 139.392 199.634C139.392 199.644 138.333 200.838 138.919 202.803Z" fill="#E7E7E7"/>
<path d="M148.585 321.126C144.586 312.711 139.105 296.766 140.586 288.762C150.066 292.322 159.258 305.068 166.826 313.894C157.952 293.659 149.069 273.434 140.195 253.199C158.24 264.474 168.697 284.38 178.321 303.35C173.242 288.423 170.167 272.807 169.222 257.067C179.236 265.133 186.31 276.778 188.84 289.39C185.961 262.592 183.071 235.794 180.192 208.995C192.397 220.332 198.618 236.966 200.499 253.518C202.381 270.071 200.345 286.797 198.299 303.339C202.916 294.719 207.522 286.098 212.139 277.477C213.187 294.451 210 309.995 201.291 324.593L139.99 324.624C124.536 307.907 113.442 292.877 103.406 272.437C124.412 280.749 137.244 301.601 148.585 321.126Z" fill="#E7E7E7"/>
<path d="M191.513 317.7C191.523 317.7 191.544 317.608 191.585 317.422C191.626 317.206 191.678 316.939 191.739 316.599C191.863 315.838 192.048 314.779 192.274 313.431C192.387 312.742 192.51 311.97 192.644 311.137C192.747 310.293 192.87 309.378 192.994 308.401C193.23 306.436 193.549 304.203 193.734 301.714C193.847 300.469 193.96 299.173 194.073 297.815C194.186 296.457 194.227 295.037 194.32 293.577C194.515 290.645 194.536 287.517 194.598 284.215C194.598 277.621 194.31 270.369 193.559 262.787C192.757 255.216 191.575 248.045 190.238 241.595C189.508 238.375 188.86 235.31 188.079 232.481C187.698 231.061 187.369 229.683 186.989 228.376C186.598 227.07 186.228 225.825 185.868 224.621C185.19 222.225 184.418 220.105 183.791 218.223C183.472 217.287 183.174 216.423 182.897 215.61C182.599 214.818 182.321 214.098 182.074 213.439C181.581 212.174 181.19 211.166 180.912 210.446C180.789 210.127 180.676 209.88 180.594 209.674C180.522 209.499 180.48 209.417 180.47 209.417C180.46 209.417 180.491 209.51 180.542 209.695C180.614 209.9 180.696 210.168 180.809 210.487C181.066 211.217 181.426 212.225 181.879 213.511C182.115 214.17 182.372 214.9 182.66 215.692C182.928 216.505 183.205 217.379 183.514 218.315C184.11 220.198 184.861 222.327 185.519 224.724C185.868 225.918 186.228 227.173 186.608 228.479C186.979 229.786 187.297 231.164 187.668 232.573C188.428 235.402 189.066 238.458 189.775 241.678C191.081 248.128 192.253 255.277 193.045 262.828C193.796 270.389 194.094 277.621 194.125 284.195C194.084 287.487 194.073 290.614 193.898 293.535C193.827 294.996 193.785 296.406 193.693 297.764C193.59 299.121 193.487 300.418 193.384 301.662C193.23 304.152 192.932 306.384 192.726 308.349C192.613 309.326 192.51 310.242 192.418 311.085C192.305 311.919 192.192 312.69 192.089 313.38C191.904 314.727 191.76 315.797 191.657 316.558C191.616 316.898 191.585 317.165 191.554 317.392C191.503 317.597 191.503 317.7 191.513 317.7Z" fill="#E7E7E7"/>
<path d="M185.221 316.003C185.241 316.003 185.252 315.787 185.262 315.376C185.272 314.913 185.272 314.316 185.283 313.586C185.293 312.804 185.283 311.857 185.231 310.746C185.19 309.646 185.159 308.38 185.036 306.991C184.861 304.214 184.491 300.912 183.946 297.27C183.36 293.628 182.558 289.657 181.478 285.543C180.368 281.438 179.082 277.591 177.766 274.144C177.067 272.437 176.44 270.801 175.741 269.32C175.401 268.579 175.073 267.859 174.754 267.159C174.414 266.48 174.085 265.832 173.777 265.205C173.17 263.95 172.543 262.859 172.008 261.892C171.484 260.915 170.991 260.102 170.569 259.444C170.178 258.827 169.86 258.323 169.613 257.932C169.387 257.592 169.263 257.417 169.243 257.428C169.222 257.438 169.325 257.633 169.52 257.993C169.746 258.405 170.034 258.919 170.394 259.557C170.785 260.226 171.248 261.059 171.751 262.036C172.265 263.014 172.862 264.114 173.448 265.38C173.746 266.007 174.065 266.666 174.394 267.345C174.702 268.044 175.021 268.764 175.35 269.505C176.029 270.986 176.635 272.622 177.324 274.33C178.61 277.765 179.874 281.603 180.974 285.687C182.054 289.781 182.856 293.741 183.473 297.352C184.049 300.973 184.46 304.255 184.676 307.033C184.82 308.411 184.871 309.666 184.943 310.767C185.025 311.868 185.067 312.814 185.087 313.596C185.118 314.326 185.149 314.923 185.169 315.386C185.18 315.787 185.2 316.003 185.221 316.003Z" fill="#E7E7E7"/>
<path d="M140.565 253.827C140.555 253.837 140.699 254.043 140.997 254.434C141.326 254.856 141.758 255.411 142.303 256.1C143.455 257.53 145.079 259.629 147.043 262.262C149.007 264.886 151.259 268.085 153.654 271.706C156.03 275.337 158.538 279.391 160.996 283.752C163.433 288.124 165.592 292.383 167.463 296.292C169.304 300.222 170.856 303.802 172.08 306.847C173.303 309.892 174.26 312.371 174.877 314.1C175.185 314.923 175.432 315.581 175.617 316.085C175.792 316.538 175.894 316.774 175.905 316.764C175.925 316.754 175.853 316.517 175.709 316.054C175.545 315.54 175.329 314.871 175.062 314.038C174.506 312.289 173.602 309.779 172.419 306.713C171.247 303.648 169.715 300.037 167.895 296.087C166.055 292.147 163.895 287.877 161.448 283.495C158.981 279.123 156.451 275.06 154.055 271.439C151.629 267.828 149.346 264.649 147.341 262.046C145.336 259.433 143.671 257.366 142.468 255.977C141.892 255.318 141.429 254.784 141.08 254.372C140.761 254.002 140.576 253.817 140.565 253.827Z" fill="#E7E7E7"/>
<path d="M142.776 290.995C142.652 291.067 146.446 297.887 151.248 306.22C156.06 314.552 160.06 321.249 160.193 321.177C160.317 321.105 156.523 314.285 151.721 305.952C146.909 297.62 142.899 290.923 142.776 290.995Z" fill="#E7E7E7"/>
<path d="M105.483 276.459C105.37 276.551 113.627 287.116 123.919 300.057C134.222 312.999 142.663 323.409 142.776 323.317C142.889 323.224 134.633 312.659 124.341 299.718C114.048 286.777 105.607 276.366 105.483 276.459Z" fill="#E7E7E7"/>
<path d="M194.25 322.463C194.281 322.484 194.651 321.959 195.298 320.982C195.946 320.015 196.841 318.575 197.89 316.764C199.987 313.153 202.64 308.01 205.005 302.084C207.359 296.148 208.984 290.593 209.94 286.53C210.423 284.493 210.763 282.837 210.958 281.695C211.164 280.543 211.256 279.905 211.215 279.895C211.174 279.884 211.02 280.512 210.752 281.643C210.495 282.775 210.094 284.421 209.57 286.437C208.521 290.47 206.856 295.984 204.511 301.889C202.157 307.783 199.576 312.937 197.561 316.579C196.553 318.4 195.72 319.871 195.124 320.869C194.538 321.877 194.219 322.443 194.25 322.463Z" fill="#E7E7E7"/>
<path d="M738.292 314.14C738.292 314.14 737.459 308.266 737.202 298.689C737.181 297.496 737.161 296.241 737.13 294.934C737.109 293.628 737.161 292.27 737.181 290.86C737.192 288.042 737.387 285.038 737.552 281.88C738.014 275.563 738.796 268.64 740.06 261.439C741.376 254.248 743.052 247.479 744.821 241.389C745.767 238.365 746.62 235.484 747.597 232.841C748.07 231.514 748.492 230.217 748.965 229.004C749.438 227.79 749.9 226.617 750.332 225.506C753.91 216.618 756.728 211.402 756.728 211.402C756.738 211.402 756.707 211.495 756.635 211.659C756.553 211.844 756.45 212.091 756.316 212.39C756.008 213.058 755.586 213.994 755.041 215.198C754.764 215.805 754.445 216.484 754.106 217.214C753.787 217.965 753.437 218.778 753.067 219.652C752.337 221.412 751.453 223.376 750.63 225.629C750.198 226.751 749.756 227.913 749.283 229.137C748.821 230.361 748.409 231.647 747.936 232.974C746.98 235.618 746.137 238.499 745.201 241.523C743.464 247.603 741.798 254.351 740.482 261.532C739.217 268.712 738.426 275.625 737.942 281.921C737.757 285.079 737.552 288.073 737.531 290.881C737.51 292.29 737.449 293.638 737.449 294.944C737.459 296.251 737.48 297.496 737.49 298.699C737.48 301.086 737.624 303.246 737.696 305.149C737.737 306.096 737.778 306.981 737.819 307.793C737.881 308.606 737.942 309.347 737.983 310.015C738.076 311.322 738.148 312.35 738.199 313.091C738.22 313.42 738.23 313.688 738.24 313.894C738.302 314.048 738.302 314.14 738.292 314.14Z" fill="#E7E7E7"/>
<path d="M757.477 218.685C755.493 225.362 752.974 231.843 749.807 237.933C748.953 239.579 747.658 241.43 745.961 241.173C744.789 240.998 743.915 239.774 743.658 238.488C743.401 237.202 743.648 235.865 743.956 234.589C745.19 229.466 747.38 224.703 749.56 219.992C750.321 218.336 751.143 216.607 752.531 215.568C753.919 214.529 756.048 214.468 757.076 215.939C757.076 215.939 757.991 216.967 757.477 218.685Z" fill="#E7E7E7"/>
<path d="M749.078 321.589C752.553 314.274 757.324 300.407 756.028 293.443C747.782 296.539 739.793 307.619 733.202 315.303C740.924 297.712 748.646 280.121 756.357 262.519C740.667 272.323 731.578 289.637 723.208 306.137C727.629 293.155 730.303 279.576 731.125 265.883C722.416 272.899 716.268 283.022 714.057 293.988C716.566 270.687 719.075 247.377 721.584 224.076C710.972 233.942 705.564 248.395 703.919 262.797C702.284 277.199 704.053 291.735 705.831 306.117C701.821 298.617 697.811 291.118 693.791 283.629C692.876 298.391 695.652 311.908 703.22 324.603L756.532 324.634C769.971 310.098 779.626 297.023 788.345 279.246C770.104 286.468 758.948 304.604 749.078 321.589Z" fill="#E7E7E7"/>
<path d="M711.752 318.605C711.742 318.605 711.721 318.523 711.691 318.369C711.66 318.184 711.608 317.947 711.557 317.659C711.444 316.99 711.29 316.075 711.094 314.902C711.002 314.295 710.889 313.637 710.776 312.906C710.683 312.176 710.58 311.373 710.467 310.53C710.261 308.822 709.984 306.878 709.819 304.718C709.727 303.637 709.624 302.506 709.521 301.323C709.418 300.14 709.387 298.916 709.315 297.64C709.141 295.099 709.13 292.373 709.079 289.503C709.079 283.763 709.326 277.456 709.984 270.873C710.673 264.289 711.711 258.055 712.873 252.438C713.5 249.64 714.076 246.975 714.755 244.517C715.084 243.282 715.372 242.089 715.711 240.947C716.05 239.816 716.379 238.725 716.688 237.686C717.284 235.598 717.952 233.756 718.497 232.121C718.775 231.308 719.032 230.547 719.279 229.847C719.536 229.158 719.783 228.53 719.998 227.965C720.43 226.864 720.77 225.99 721.006 225.362C721.119 225.084 721.212 224.868 721.284 224.693C721.345 224.539 721.387 224.467 721.397 224.467C721.407 224.467 721.387 224.549 721.335 224.704C721.273 224.889 721.201 225.115 721.109 225.393C720.883 226.031 720.574 226.905 720.184 228.026C719.978 228.603 719.752 229.23 719.505 229.919C719.279 230.619 719.032 231.38 718.765 232.203C718.24 233.839 717.592 235.69 717.027 237.779C716.729 238.818 716.41 239.908 716.081 241.04C715.752 242.171 715.474 243.375 715.156 244.609C714.487 247.068 713.942 249.732 713.325 252.52C712.194 258.127 711.177 264.34 710.477 270.914C709.83 277.487 709.562 283.773 709.542 289.492C709.583 292.352 709.583 295.068 709.737 297.619C709.799 298.895 709.83 300.119 709.922 301.302C710.015 302.475 710.107 303.607 710.189 304.687C710.323 306.847 710.59 308.791 710.765 310.499C710.858 311.353 710.95 312.145 711.033 312.886C711.135 313.616 711.228 314.274 711.31 314.881C711.464 316.054 711.598 316.98 711.68 317.649C711.711 317.947 711.742 318.184 711.763 318.369C711.752 318.513 711.752 318.605 711.752 318.605Z" fill="#E7E7E7"/>
<path d="M717.222 317.134C717.202 317.134 717.192 316.949 717.181 316.589C717.181 316.178 717.171 315.663 717.161 315.026C717.15 314.347 717.161 313.524 717.202 312.557C717.243 311.6 717.264 310.499 717.366 309.296C717.51 306.878 717.839 304.008 718.323 300.839C718.837 297.681 719.526 294.214 720.472 290.645C721.438 287.075 722.559 283.722 723.7 280.728C724.307 279.247 724.852 277.827 725.458 276.531C725.756 275.883 726.034 275.255 726.312 274.658C726.61 274.072 726.887 273.496 727.165 272.961C727.689 271.871 728.245 270.924 728.707 270.081C729.17 269.237 729.592 268.527 729.962 267.951C730.301 267.416 730.579 266.974 730.795 266.634C730.99 266.336 731.103 266.182 731.113 266.192C731.124 266.202 731.041 266.367 730.877 266.686C730.682 267.036 730.425 267.488 730.116 268.044C729.777 268.63 729.376 269.35 728.934 270.204C728.491 271.058 727.967 272.015 727.463 273.105C727.206 273.65 726.929 274.216 726.641 274.813C726.373 275.42 726.096 276.047 725.818 276.695C725.232 277.981 724.697 279.411 724.101 280.893C722.991 283.886 721.88 287.219 720.924 290.779C719.988 294.338 719.289 297.784 718.754 300.922C718.261 304.07 717.901 306.929 717.706 309.337C717.582 310.54 717.531 311.631 717.469 312.587C717.397 313.544 717.366 314.367 717.346 315.046C717.315 315.684 717.294 316.198 717.274 316.599C717.253 316.939 717.233 317.134 717.222 317.134Z" fill="#E7E7E7"/>
<path d="M756.047 263.054C756.058 263.064 755.934 263.25 755.677 263.579C755.389 263.949 755.009 264.422 754.546 265.029C753.549 266.274 752.13 268.105 750.423 270.389C748.716 272.673 746.763 275.45 744.675 278.598C742.609 281.756 740.429 285.285 738.29 289.071C736.172 292.877 734.29 296.57 732.666 299.975C731.072 303.39 729.715 306.507 728.656 309.161C727.587 311.805 726.764 313.966 726.219 315.467C725.952 316.177 725.736 316.753 725.571 317.196C725.417 317.587 725.335 317.792 725.314 317.782C725.304 317.782 725.355 317.566 725.479 317.165C725.623 316.723 725.808 316.136 726.044 315.416C726.528 313.894 727.309 311.713 728.337 309.048C729.355 306.374 730.692 303.236 732.265 299.8C733.869 296.374 735.74 292.661 737.869 288.844C740.018 285.038 742.208 281.509 744.295 278.362C746.403 275.224 748.387 272.457 750.135 270.193C751.873 267.92 753.333 266.13 754.371 264.916C754.865 264.34 755.266 263.877 755.574 263.527C755.883 263.208 756.037 263.044 756.047 263.054Z" fill="#E7E7E7"/>
<path d="M754.134 295.387C754.247 295.448 750.946 301.384 746.762 308.626C742.577 315.879 739.102 321.701 738.988 321.629C738.875 321.568 742.176 315.642 746.361 308.39C750.535 301.147 754.021 295.315 754.134 295.387Z" fill="#E7E7E7"/>
<path d="M786.552 282.734C786.654 282.816 779.478 292.002 770.522 303.257C761.566 314.511 754.225 323.564 754.122 323.492C754.019 323.409 761.196 314.223 770.162 302.969C779.107 291.714 786.459 282.651 786.552 282.734Z" fill="#E7E7E7"/>
<path d="M709.367 322.751C709.336 322.771 709.017 322.308 708.452 321.465C707.886 320.621 707.115 319.366 706.2 317.802C704.37 314.665 702.067 310.19 700.01 305.036C697.964 299.882 696.556 295.047 695.723 291.508C695.301 289.739 695.003 288.299 694.839 287.301C694.664 286.303 694.581 285.747 694.612 285.737C694.643 285.727 694.787 286.272 695.013 287.26C695.24 288.247 695.579 289.677 696.042 291.426C696.957 294.934 698.396 299.728 700.442 304.861C702.488 309.994 704.74 314.469 706.488 317.638C707.362 319.222 708.092 320.498 708.606 321.372C709.12 322.236 709.388 322.73 709.367 322.751Z" fill="#E7E7E7"/>
<path d="M487.42 484.455C487.42 488.015 505.619 490.895 528.065 490.895C550.511 490.895 568.71 488.015 568.71 484.455C568.71 480.896 550.511 478.016 528.065 478.016C505.619 478.016 487.42 480.896 487.42 484.455Z" fill="#E7E7E7"/>
<path d="M329.682 488.776C329.682 491.029 341.187 492.85 355.387 492.85C369.586 492.85 381.092 491.029 381.092 488.776C381.092 486.523 369.586 484.702 355.387 484.702C341.198 484.702 329.682 486.523 329.682 488.776Z" fill="#E7E7E7"/>
<path d="M221.526 495C207.33 495 195.821 493.176 195.821 490.926C195.821 488.676 207.33 486.853 221.526 486.853C235.723 486.853 247.231 488.676 247.231 490.926C247.231 493.176 235.723 495 221.526 495Z" fill="#E7E7E7"/>
<path d="M628.417 466.525C621.648 466.525 616.16 465.576 616.16 464.406C616.16 463.235 621.648 462.286 628.417 462.286C635.186 462.286 640.673 463.235 640.673 464.406C640.673 465.576 635.186 466.525 628.417 466.525Z" fill="#E7E7E7"/>
<path d="M649.156 474.22C645.034 474.22 641.692 473.285 641.692 472.132C641.692 470.978 645.034 470.043 649.156 470.043C653.279 470.043 656.621 470.978 656.621 472.132C656.621 473.285 653.279 474.22 649.156 474.22Z" fill="#E7E7E7"/>
<path d="M416.185 466.258C416.185 467.43 421.676 468.377 428.441 468.377C435.207 468.377 440.697 467.43 440.697 466.258C440.697 465.085 435.207 464.138 428.441 464.138C421.665 464.138 416.185 465.085 416.185 466.258Z" fill="#E7E7E7"/>
<path d="M134.582 474.251C134.582 475.423 140.073 476.37 146.839 476.37C153.604 476.37 159.095 475.423 159.095 474.251C159.095 473.078 153.604 472.131 146.839 472.131C140.073 472.131 134.582 473.078 134.582 474.251Z" fill="#E7E7E7"/>
<path d="M441.717 473.983C441.717 475.135 445.059 476.072 449.182 476.072C453.305 476.072 456.646 475.135 456.646 473.983C456.646 472.831 453.305 471.895 449.182 471.895C445.059 471.895 441.717 472.831 441.717 473.983Z" fill="#E7E7E7"/>
<path d="M660.92 485.021C660.92 486.75 669.731 488.138 680.599 488.138C691.468 488.138 700.279 486.739 700.279 485.021C700.279 483.293 691.468 481.904 680.599 481.904C669.731 481.904 660.92 483.293 660.92 485.021Z" fill="#E7E7E7"/>
<path d="M142.919 432.711C142.919 432.855 288.769 432.979 468.634 432.979C648.567 432.979 794.378 432.855 794.378 432.711C794.378 432.567 648.567 432.444 468.634 432.444C288.769 432.444 142.919 432.557 142.919 432.711Z" fill="#404040"/>
<path d="M85.5661 324.52C85.5661 324.665 246.531 324.788 445.046 324.788C643.634 324.788 804.558 324.665 804.558 324.52C804.558 324.376 643.623 324.253 445.046 324.253C246.531 324.253 85.5661 324.376 85.5661 324.52Z" fill="#404040"/>
<path d="M413.329 335.518C413.329 335.662 435.425 335.785 462.672 335.785C489.93 335.785 512.016 335.662 512.016 335.518C512.016 335.373 489.93 335.25 462.672 335.25C435.425 335.25 413.329 335.373 413.329 335.518Z" fill="#404040"/>
<path d="M366.842 346.494C366.842 346.638 388.938 346.762 416.186 346.762C443.443 346.762 465.529 346.638 465.529 346.494C465.529 346.35 443.443 346.227 416.186 346.227C388.938 346.227 366.842 346.34 366.842 346.494Z" fill="#404040"/>
<path d="M28.7899 387.067C28.7899 387.211 66.7754 387.334 113.617 387.334C160.475 387.334 198.443 387.211 198.443 387.067C198.443 386.923 160.475 386.799 113.617 386.799C66.7754 386.799 28.7899 386.913 28.7899 387.067Z" fill="#404040"/>
<path d="M0.000371097 379.866C0.000371097 380.01 31.3097 380.133 69.9181 380.133C108.541 380.133 139.836 380.01 139.836 379.866C139.836 379.722 108.541 379.598 69.9181 379.598C31.3097 379.598 0.000371097 379.711 0.000371097 379.866Z" fill="#404040"/>
<path d="M603.073 368.18C603.073 368.324 618.29 368.447 637.055 368.447C655.83 368.447 671.037 368.324 671.037 368.18C671.037 368.036 655.83 367.912 637.055 367.912C618.29 367.912 603.073 368.036 603.073 368.18Z" fill="#404040"/>
<path d="M222.103 424.1C222.103 424.244 284.936 424.368 362.442 424.368C439.969 424.368 502.792 424.244 502.792 424.1C502.792 423.956 439.969 423.833 362.442 423.833C284.947 423.833 222.103 423.946 222.103 424.1Z" fill="#404040"/>
<path d="M568.729 482.82L577.314 471.412L575.237 458.357L540.566 443.575L512.99 449.726L501.546 459.664L512.301 484.6L537.266 486.184L568.729 482.82Z" fill="#9F9F9F"/>
<path d="M577.314 471.412L540.865 479.189L537.945 486.184L568.729 482.82L577.314 471.412Z" fill="#E7E7E7"/>
<path d="M540.803 479.189C540.803 479.189 522.789 469.817 516.136 470.506L515.324 484.785L537.883 486.184L540.803 479.189Z" fill="#CFCFCF"/>
<path d="M515.387 484.785L516.199 470.506L501.547 459.663L512.302 484.6L515.387 484.785Z" fill="#E7E7E7"/>
<path d="M568.729 482.82C568.729 482.82 568.533 482.82 568.153 482.82L566.508 482.974L560.225 483.592L537.245 485.906L512.28 484.26L512.517 484.425C509.227 476.761 505.566 468.326 501.793 459.489L501.71 459.828L511.067 451.722L513.165 449.901L513.021 449.973L540.587 443.801H540.412L575.145 458.522L575.021 458.357C575.844 463.377 576.553 467.729 577.15 471.401V471.278L570.908 479.816L569.274 482.049L568.852 482.625C568.811 482.676 568.77 482.748 568.729 482.82C568.729 482.82 568.729 482.82 568.883 482.645L569.325 482.1L571.001 479.981L577.438 471.556V471.494V471.422C576.862 467.749 576.183 463.398 575.412 458.368V458.254H575.309L540.659 443.41H540.576H540.484L512.918 449.551H512.836V449.613L510.748 451.424L501.392 459.53L501.227 459.684L501.309 459.88L512.085 484.806L512.157 484.96H512.321L537.296 486.503L560.338 483.931L566.59 483.201L568.204 483.005C568.379 482.954 568.564 482.892 568.729 482.82Z" fill="#404040"/>
<path d="M750.307 40.0901C750.317 40.1312 751.006 39.8432 752.302 39.5552C753.597 39.2671 755.53 39.0202 757.885 39.3391C760.219 39.6477 762.985 40.5942 765.401 42.5796C767.817 44.5342 769.884 47.4969 770.706 51.0151C770.717 51.046 770.727 51.0768 770.727 51.1077L770.881 51.7146L771.107 51.1385C772.454 47.7952 774.86 45.1514 777.462 43.4643C780.073 41.7463 782.88 41.0365 785.225 40.8719C787.579 40.7073 789.492 41.0468 790.767 41.376C792.042 41.7155 792.72 42.0138 792.741 41.9726C792.751 41.9624 792.576 41.8801 792.258 41.736C791.939 41.592 791.456 41.4068 790.808 41.2217C789.533 40.8411 787.6 40.4501 785.204 40.5839C782.819 40.7073 779.94 41.4069 777.256 43.1454C774.583 44.8531 772.115 47.5586 770.727 50.9842L771.118 51.0151C771.107 50.9842 771.097 50.9534 771.097 50.9225C770.244 47.3117 768.115 44.277 765.627 42.2915C763.129 40.265 760.291 39.3288 757.905 39.0511C755.51 38.763 753.546 39.0614 752.25 39.4008C751.602 39.5654 751.109 39.73 750.78 39.8638C750.471 40.0078 750.307 40.0798 750.307 40.0901Z" fill="#404040"/>
<path d="M694.52 12.5418C694.53 12.5727 694.911 12.4287 695.63 12.2846C696.34 12.1406 697.399 12.0172 698.684 12.192C699.959 12.3669 701.46 12.8916 702.776 13.982C704.092 15.0519 705.213 16.667 705.655 18.5701L705.666 18.6216L705.82 19.2285L706.046 18.6524C706.776 16.8316 708.082 15.3914 709.501 14.4655C710.92 13.5294 712.452 13.1282 713.727 13.0356C715.012 12.9327 716.061 13.1076 716.76 13.2825C717.459 13.4574 717.84 13.6117 717.85 13.5808C717.86 13.5705 717.768 13.5191 717.593 13.4368C717.418 13.3545 717.151 13.2413 716.801 13.1385C716.102 12.9122 715.033 12.6961 713.706 12.7578C712.39 12.8196 710.786 13.2002 709.295 14.1569C707.804 15.1033 706.437 16.6053 705.666 18.5084L706.056 18.5393L706.046 18.4878C705.573 16.4818 704.391 14.7947 703.003 13.694C701.614 12.5727 700.031 12.0583 698.715 11.9143C697.389 11.76 696.299 11.9349 695.589 12.1303C695.229 12.2229 694.962 12.3258 694.787 12.4081C694.602 12.4801 694.51 12.5315 694.52 12.5418Z" fill="#404040"/>
<path d="M730.999 0.000774132C730.978 0.0213485 731.379 0.44312 732.068 1.21466C732.757 1.99649 733.703 3.17952 734.69 4.75346C736.664 7.87049 738.649 12.8289 738.577 18.5177C738.577 18.5795 738.577 18.6412 738.577 18.6926L738.978 18.7235C739.399 15.9459 740.325 13.3947 741.497 11.2653C742.659 9.12553 744.036 7.39727 745.332 6.0908C746.627 4.78432 747.8 3.85847 748.653 3.2721C749.496 2.68573 749.99 2.3874 749.969 2.35654C749.959 2.34625 749.835 2.40798 749.589 2.53143C749.352 2.66516 748.982 2.84004 748.56 3.13837C747.676 3.68359 746.463 4.57858 745.126 5.88505C743.79 7.18124 742.371 8.91978 741.168 11.0801C739.965 13.2301 739.008 15.8225 738.577 18.6618L738.978 18.6926C738.978 18.6412 738.978 18.5795 738.978 18.5177C739.05 12.726 736.983 7.6956 734.926 4.58887C733.898 3.01492 732.911 1.85247 732.181 1.1015C731.832 0.710591 731.513 0.453411 731.318 0.257954C731.122 0.0830718 731.009 -0.00951307 730.999 0.000774132Z" fill="#404040"/>
<path d="M439.36 312.577C439.371 312.577 439.371 312.474 439.36 312.258C439.35 312.022 439.33 311.713 439.309 311.343C439.247 310.499 439.165 309.316 439.052 307.804C438.99 307.032 438.929 306.178 438.857 305.253C438.815 304.316 438.764 303.298 438.723 302.208C438.641 300.027 438.476 297.537 438.486 294.79C438.476 293.412 438.456 291.972 438.445 290.48C438.435 288.978 438.507 287.415 438.538 285.799C438.569 282.569 438.805 279.123 439.011 275.492C439.566 268.249 440.481 260.297 441.931 252.047C443.442 243.797 445.355 236.03 447.35 229.045C448.419 225.568 449.385 222.255 450.486 219.221C451.02 217.698 451.493 216.207 452.028 214.807C452.563 213.408 453.077 212.061 453.57 210.775C454.516 208.193 455.534 205.919 456.377 203.903C456.799 202.895 457.2 201.969 457.57 201.105C457.961 200.261 458.32 199.48 458.639 198.78C459.266 197.401 459.76 196.321 460.11 195.56C460.264 195.21 460.387 194.933 460.48 194.717C460.562 194.521 460.593 194.429 460.593 194.418C460.593 194.418 457.344 200.416 453.231 210.641C452.727 211.927 452.203 213.264 451.658 214.663C451.113 216.062 450.629 217.554 450.085 219.077C448.964 222.122 447.977 225.434 446.887 228.911C444.851 235.907 442.928 243.684 441.407 251.965C439.946 260.246 439.042 268.208 438.517 275.471C438.322 279.113 438.096 282.559 438.085 285.799C438.065 287.415 438.003 288.978 438.024 290.48C438.055 291.982 438.075 293.422 438.106 294.801C438.404 305.829 439.36 312.577 439.36 312.577Z" fill="#CFCFCF"/>
<path d="M493.973 175.14C493.962 175.13 493.88 175.222 493.716 175.407C493.531 175.613 493.294 175.891 492.996 176.23C492.369 176.961 491.433 178.031 490.312 179.471C488.03 182.32 484.842 186.569 481.367 192.104C477.881 197.638 474.118 204.479 470.602 212.38C467.054 220.27 463.805 229.23 461.08 238.828C455.631 258.055 453.215 276.037 451.827 289.019C451.477 292.27 451.199 295.212 450.85 297.774C450.5 300.346 450.079 302.537 449.637 304.306C449.194 306.076 448.752 307.423 448.434 308.328C448.279 308.76 448.146 309.1 448.053 309.357C447.971 309.594 447.93 309.707 447.94 309.717C447.94 309.717 448.896 307.917 449.842 304.368C450.325 302.598 450.768 300.397 451.148 297.835C451.528 295.264 451.837 292.322 452.207 289.081C453.698 276.119 456.166 258.178 461.605 238.993C464.33 229.415 467.548 220.476 471.054 212.596C474.54 204.705 478.251 197.864 481.696 192.32C485.12 186.764 488.246 182.495 490.477 179.615C491.577 178.154 492.482 177.074 493.078 176.313C493.366 175.953 493.582 175.665 493.757 175.459C493.911 175.243 493.983 175.14 493.973 175.14Z" fill="#CFCFCF"/>
<path d="M460.409 201.454C458.126 209.129 455.227 216.587 451.587 223.592C450.6 225.485 449.119 227.615 447.166 227.316C445.819 227.111 444.811 225.712 444.523 224.23C444.235 222.749 444.513 221.206 444.863 219.745C446.271 213.851 448.801 208.378 451.299 202.956C452.183 201.053 453.119 199.068 454.713 197.864C456.306 196.671 458.754 196.589 459.936 198.286C459.946 198.296 460.995 199.49 460.409 201.454Z" fill="#66A2DE"/>
<path d="M492.426 182.598C488.797 189.738 484.612 196.558 479.78 202.792C478.474 204.479 476.633 206.3 474.762 205.662C473.477 205.22 472.736 203.666 472.706 202.154C472.685 200.642 473.24 199.181 473.847 197.803C476.294 192.258 479.759 187.33 483.193 182.444C484.396 180.726 485.681 178.946 487.471 178.051C489.249 177.156 491.676 177.527 492.529 179.409C492.529 179.409 493.352 180.767 492.426 182.598Z" fill="#66A2DE"/>
<path d="M465.56 321.012C469.56 312.598 475.04 296.652 473.559 288.649C464.079 292.208 454.887 304.954 447.32 313.781C456.193 293.546 465.077 273.321 473.95 253.086C455.905 264.361 445.448 284.267 435.824 303.236C440.914 288.309 443.978 272.693 444.924 256.954C434.909 265.019 427.835 276.664 425.306 289.276C428.185 262.478 431.074 235.68 433.953 208.882C421.748 220.218 415.528 236.853 413.646 253.405C411.764 269.957 413.8 286.684 415.846 303.226C411.23 294.605 406.623 285.985 402.007 277.364C400.958 294.338 404.145 309.882 412.854 324.479L474.156 324.51C489.61 307.793 500.704 292.764 510.739 272.323C489.733 280.635 476.901 301.487 465.56 321.012Z" fill="#404040"/>
<path d="M422.633 317.587C422.644 317.587 422.633 317.484 422.613 317.298C422.582 317.082 422.551 316.805 422.51 316.465C422.407 315.694 422.263 314.634 422.078 313.286C421.975 312.597 421.872 311.826 421.749 310.992C421.656 310.149 421.554 309.233 421.441 308.256C421.235 306.291 420.937 304.059 420.782 301.569C420.69 300.325 420.587 299.028 420.474 297.67C420.371 296.313 420.34 294.903 420.268 293.442C420.094 290.521 420.094 287.394 420.042 284.102C420.073 277.518 420.371 270.286 421.122 262.735C421.914 255.184 423.086 248.035 424.391 241.585C425.101 238.375 425.738 235.309 426.499 232.48C426.869 231.061 427.188 229.682 427.558 228.386C427.939 227.08 428.299 225.835 428.648 224.631C429.306 222.234 430.047 220.105 430.653 218.222C430.962 217.286 431.239 216.412 431.507 215.599C431.795 214.807 432.052 214.077 432.288 213.418C432.74 212.132 433.1 211.124 433.357 210.394C433.471 210.075 433.553 209.807 433.625 209.602C433.686 209.427 433.707 209.324 433.697 209.324C433.686 209.324 433.645 209.406 433.573 209.581C433.491 209.787 433.388 210.034 433.255 210.353C432.977 211.073 432.586 212.071 432.093 213.346C431.846 214.005 431.568 214.725 431.27 215.517C430.993 216.319 430.694 217.194 430.376 218.13C429.748 220.012 428.977 222.132 428.299 224.528C427.939 225.722 427.569 226.977 427.178 228.283C426.797 229.59 426.458 230.968 426.088 232.388C425.307 235.217 424.649 238.282 423.929 241.502C422.602 247.963 421.41 255.123 420.608 262.694C419.857 270.276 419.569 277.528 419.569 284.122C419.631 287.424 419.651 290.552 419.847 293.484C419.929 294.944 419.98 296.364 420.094 297.722C420.207 299.08 420.32 300.376 420.433 301.621C420.618 304.11 420.937 306.343 421.173 308.307C421.297 309.285 421.42 310.2 421.523 311.044C421.656 311.877 421.78 312.638 421.893 313.338C422.119 314.686 422.294 315.745 422.428 316.506C422.489 316.846 422.541 317.113 422.582 317.329C422.602 317.494 422.623 317.587 422.633 317.587Z" fill="#CFCFCF"/>
<path d="M428.925 315.889C428.945 315.889 428.966 315.673 428.986 315.262C429.007 314.799 429.038 314.202 429.069 313.472C429.089 312.69 429.13 311.744 429.213 310.643C429.285 309.542 429.336 308.287 429.48 306.909C429.696 304.141 430.107 300.86 430.683 297.228C431.3 293.607 432.102 289.657 433.181 285.563C434.282 281.468 435.546 277.641 436.832 274.206C437.51 272.498 438.127 270.872 438.806 269.381C439.135 268.64 439.454 267.91 439.762 267.221C440.091 266.542 440.399 265.883 440.708 265.256C441.294 263.99 441.89 262.89 442.404 261.912C442.908 260.925 443.371 260.102 443.762 259.433C444.122 258.795 444.409 258.281 444.636 257.869C444.831 257.509 444.924 257.314 444.913 257.304C444.893 257.293 444.769 257.468 444.543 257.808C444.296 258.199 443.978 258.703 443.587 259.32C443.165 259.978 442.672 260.791 442.147 261.768C441.613 262.735 440.975 263.826 440.379 265.081C440.07 265.708 439.741 266.356 439.402 267.035C439.083 267.725 438.754 268.445 438.415 269.196C437.716 270.677 437.089 272.313 436.39 274.02C435.073 277.467 433.788 281.314 432.678 285.419C431.598 289.533 430.796 293.515 430.21 297.146C429.665 300.788 429.285 304.09 429.12 306.867C428.997 308.256 428.966 309.511 428.925 310.622C428.873 311.723 428.863 312.68 428.873 313.462C428.884 314.192 428.884 314.789 428.894 315.252C428.894 315.673 428.904 315.889 428.925 315.889Z" fill="#CFCFCF"/>
<path d="M473.58 253.714C473.569 253.703 473.394 253.889 473.065 254.249C472.716 254.65 472.253 255.185 471.677 255.854C470.474 257.242 468.798 259.31 466.804 261.923C464.799 264.526 462.516 267.704 460.09 271.315C457.694 274.936 455.164 279 452.697 283.372C450.25 287.754 448.101 292.034 446.25 295.963C444.43 299.914 442.908 303.524 441.726 306.59C440.543 309.656 439.649 312.166 439.083 313.915C438.816 314.748 438.6 315.416 438.436 315.931C438.292 316.394 438.23 316.641 438.24 316.641C438.261 316.651 438.353 316.414 438.528 315.962C438.713 315.458 438.96 314.799 439.268 313.976C439.885 312.248 440.842 309.769 442.065 306.724C443.289 303.679 444.841 300.089 446.682 296.169C448.543 292.25 450.702 288.001 453.149 283.629C455.607 279.267 458.115 275.214 460.491 271.583C462.886 267.972 465.138 264.773 467.102 262.139C469.055 259.505 470.68 257.407 471.842 255.977C472.387 255.288 472.819 254.732 473.148 254.31C473.446 253.93 473.59 253.724 473.58 253.714Z" fill="#CFCFCF"/>
<path d="M471.37 290.892C471.247 290.82 467.237 297.517 462.435 305.85C457.623 314.182 453.829 321.003 453.963 321.075C454.086 321.147 458.096 314.45 462.908 306.117C467.699 297.774 471.494 290.964 471.37 290.892Z" fill="#CFCFCF"/>
<path d="M508.649 276.345C508.536 276.253 500.094 286.674 489.792 299.605C479.489 312.546 471.233 323.111 471.356 323.204C471.469 323.296 479.911 312.885 490.213 299.944C500.516 287.003 508.772 276.438 508.649 276.345Z" fill="#CFCFCF"/>
<path d="M419.889 322.35C419.92 322.33 419.612 321.764 419.016 320.756C418.419 319.758 417.586 318.287 416.579 316.466C414.563 312.824 411.983 307.67 409.628 301.776C407.284 295.871 405.618 290.357 404.569 286.324C404.045 284.308 403.644 282.672 403.387 281.53C403.12 280.399 402.955 279.771 402.924 279.782C402.883 279.792 402.986 280.43 403.181 281.582C403.377 282.734 403.716 284.39 404.199 286.417C405.155 290.48 406.77 296.046 409.135 301.971C411.499 307.897 414.152 313.04 416.25 316.651C417.298 318.462 418.193 319.891 418.841 320.869C419.489 321.846 419.859 322.371 419.889 322.35Z" fill="#CFCFCF"/>
<path d="M743.111 354.034C743.1 354.034 743.049 354.137 742.946 354.343C742.833 354.579 742.689 354.888 742.514 355.279C742.124 356.133 741.579 357.336 740.89 358.879C739.491 362.017 737.517 366.574 735.152 372.242C730.402 383.558 724.12 399.318 717.447 416.817C710.784 434.326 704.985 450.271 700.944 461.864C698.919 467.656 697.335 472.368 696.256 475.629C695.741 477.234 695.33 478.499 695.042 479.394C694.919 479.805 694.816 480.124 694.744 480.381C694.682 480.608 694.652 480.721 694.662 480.721C694.672 480.721 694.713 480.618 694.795 480.402C694.888 480.155 695.001 479.836 695.145 479.435C695.454 478.55 695.896 477.306 696.451 475.711C697.602 472.44 699.258 467.769 701.294 462.008C705.417 450.446 711.278 434.531 717.94 417.033C724.613 399.534 730.844 383.764 735.502 372.417C737.816 366.739 739.749 362.161 741.075 358.992C741.733 357.439 742.247 356.215 742.607 355.351C742.771 354.949 742.895 354.641 742.998 354.394C743.08 354.157 743.121 354.044 743.111 354.034Z" fill="#CFCFCF"/>
<path d="M728.82 387.262L729.992 387.745C732.172 388.64 734.67 387.601 735.575 385.41L744.222 364.321C745.117 362.13 744.078 359.641 741.888 358.735L740.716 358.252C738.526 357.357 736.038 358.396 735.133 360.587L726.486 381.676C725.591 383.867 726.64 386.367 728.82 387.262Z" fill="#66A2DE"/>
<path d="M699.548 329.766C699.538 329.766 699.517 329.9 699.476 330.147C699.435 330.424 699.394 330.805 699.332 331.278C699.209 332.307 699.034 333.778 698.818 335.65C698.427 339.457 697.944 344.971 697.512 351.791C696.617 365.432 695.99 384.319 695.548 405.171C695.136 426.034 694.972 444.911 694.828 458.583C694.756 465.393 694.705 470.917 694.663 474.764C694.643 476.647 694.633 478.128 694.622 479.167C694.622 479.651 694.622 480.031 694.622 480.309C694.622 480.566 694.633 480.7 694.643 480.7C694.653 480.7 694.663 480.566 694.674 480.309C694.684 480.021 694.705 479.651 694.725 479.167C694.756 478.128 694.807 476.657 694.869 474.764C694.951 470.917 695.064 465.393 695.208 458.583C695.435 444.89 695.743 426.023 696.083 405.171C696.525 384.319 697.09 365.452 697.882 351.812C698.263 344.991 698.684 339.477 699.013 335.671C699.188 333.788 699.332 332.317 699.425 331.289C699.466 330.805 699.497 330.435 699.517 330.147C699.558 329.9 699.558 329.766 699.548 329.766Z" fill="#CFCFCF"/>
<path d="M695.579 365.72L696.844 365.833C699.198 366.049 701.275 364.321 701.501 361.965L703.619 339.272C703.835 336.916 702.108 334.838 699.764 334.612L698.499 334.498C696.144 334.282 694.067 336.011 693.841 338.356L691.723 361.05C691.497 363.416 693.224 365.494 695.579 365.72Z" fill="#66A2DE"/>
<path d="M690.767 475.444C687.024 459.786 686.048 443.481 687.898 427.495C695.846 441.136 699.62 457.173 698.602 472.923C705.059 463.263 713.593 453.666 725.058 451.793C714.776 460.836 706.529 472.666 699.548 484.455H684.577C681.554 476.801 678.531 469.137 675.509 461.484C681.873 464.405 687.292 469.364 690.767 475.444Z" fill="#404040"/>
<path d="M250.438 346.762C250.685 347.595 246.078 376.677 240.505 387.334C234.932 397.992 223.55 410.357 220.887 410.357C218.224 410.357 213.237 414.04 213.237 414.04L186.463 402.878L189.887 396.305C189.887 396.305 187.46 390.493 192.55 383.466C197.64 376.44 205.865 373.529 206.112 368.931C206.359 364.332 205.145 355.393 204.179 346.772C203.212 338.162 203.932 315.869 203.449 314.172C202.966 312.474 247.281 317.567 247.281 317.567L250.438 346.762Z" fill="#404040"/>
<path d="M247.333 364.846L242.696 355.372L222.296 337.03L249.862 351.658L247.333 364.846Z" fill="#101010"/>
<path d="M266.16 286.273C267.405 288.135 316.954 348.87 318.198 357.553C319.432 366.225 328.727 373.045 322.537 395.358C322.537 395.358 325.241 401.386 324.645 405.995C324.048 410.604 322.845 411.571 323.092 413.505C323.339 415.439 322.125 421.014 322.125 421.014C322.125 421.014 289.429 422.712 289.429 421.014C289.429 419.317 288.462 413.741 288.462 413.741C288.462 413.741 281.193 407.199 283.372 403.084C285.552 398.969 290.878 393.877 288.462 390.965C286.036 388.054 281.686 388.785 280.473 386.604C279.26 384.423 281.439 381.995 279.26 380.061C277.08 378.127 269.327 378.127 268.124 375.699C266.911 373.271 260.135 362.614 257.225 359.466C254.315 356.318 249.473 354.014 249.473 354.014C249.473 354.014 225.577 341.083 219.686 331.845C215.131 324.695 196.438 314.645 191.348 303.977C186.259 293.319 182.629 274.175 182.629 274.175L263.518 271.747L266.16 286.273Z" fill="#404040"/>
<path d="M326.837 416.23C323.691 435.087 319.619 452.482 321.079 470.084C321.079 470.084 320.544 472.861 328.256 475.474C336.533 478.283 345.19 481.163 343.895 488.436L292.721 488.395L287.457 417.742L326.837 416.23Z" fill="#FF6E00"/>
<path d="M343.908 488.438V485.711H292.539L292.745 488.387L343.908 488.438Z" fill="#FF6E00"/>
<path d="M220.677 413.004C211.042 429.515 201.059 444.328 196.185 461.312C196.185 461.312 195.65 463.555 201.922 468.74C208.667 474.305 215.731 480.076 211.937 486.413L163.169 468.359L183.322 400.443L220.677 413.004Z" fill="#FF6E00"/>
<path d="M211.932 486.4L212.898 483.859L163.935 465.774L163.175 468.346L211.932 486.4Z" fill="#FF6E00"/>
<path d="M213.968 328.348C213.938 328.379 214.359 328.821 215.12 329.603C215.881 330.395 217.032 331.496 218.472 332.823C221.351 335.487 225.495 339.016 230.337 342.554C235.18 346.083 239.807 348.953 243.221 350.887C244.928 351.854 246.326 352.605 247.313 353.099C248.29 353.592 248.845 353.85 248.866 353.819C248.886 353.788 248.362 353.469 247.416 352.914C246.46 352.368 245.092 351.566 243.416 350.558C240.054 348.552 235.489 345.641 230.656 342.122C225.834 338.594 221.67 335.137 218.729 332.545C217.259 331.249 216.076 330.189 215.264 329.448C214.452 328.718 213.989 328.327 213.968 328.348Z" fill="#404040"/>
<path d="M291.831 387.355C291.831 387.396 292.232 387.468 292.952 387.571C293.682 387.674 294.731 387.808 296.037 387.952C297.384 388.096 298.926 388.26 300.622 388.445C301.486 388.538 302.391 388.631 303.327 388.723C304.242 388.847 305.342 388.775 305.897 389.392C306.175 389.711 306.247 390.133 306.01 390.4C305.774 390.688 305.321 390.832 304.869 390.986C303.985 391.295 303.121 391.593 302.298 391.881C300.694 392.457 299.234 392.972 297.949 393.435C296.715 393.887 295.718 394.258 295.039 394.525C294.35 394.793 293.98 394.957 293.991 394.998C294.001 395.029 294.402 394.937 295.101 394.731C295.81 394.525 296.818 394.206 298.073 393.805C299.358 393.383 300.838 392.9 302.453 392.365C303.275 392.087 304.139 391.799 305.033 391.501C305.465 391.346 306 391.233 306.411 390.76C306.607 390.524 306.72 390.184 306.668 389.865C306.627 389.557 306.483 389.279 306.288 389.052C305.877 388.59 305.301 388.435 304.807 388.363C304.303 388.291 303.83 388.26 303.357 388.219C302.422 388.137 301.517 388.055 300.643 387.972C298.946 387.828 297.394 387.705 296.047 387.592C294.741 387.489 293.682 387.417 292.942 387.376C292.243 387.324 291.842 387.324 291.831 387.355Z" fill="#404040"/>
<path d="M290.814 372.13C290.814 372.171 291.009 372.171 291.276 372.315C291.534 372.47 291.832 372.83 291.914 373.375C292.017 373.91 291.77 374.527 291.215 375.021C290.67 375.525 289.899 375.885 289.086 376.296C285.837 377.87 283.092 378.971 283.154 379.136C283.185 379.208 283.894 379.002 285.015 378.59C286.135 378.189 287.678 377.582 289.323 376.78C290.135 376.368 290.947 375.977 291.554 375.381C291.852 375.093 292.099 374.743 292.233 374.373C292.377 373.992 292.366 373.611 292.294 373.292C292.14 372.644 291.719 372.243 291.369 372.12C291.009 372.017 290.814 372.099 290.814 372.13Z" fill="#404040"/>
<path d="M192.684 396.099C192.592 396.202 194.813 398.269 198.041 400.131C201.26 402.014 204.159 402.909 204.2 402.786C204.262 402.631 201.486 401.52 198.309 399.668C195.131 397.837 192.787 395.975 192.684 396.099Z" fill="#404040"/>
<path d="M288.213 417.96C288.213 418.001 288.758 417.98 289.724 417.929C290.794 417.857 292.171 417.764 293.816 417.661C297.271 417.425 302.052 417.126 307.327 416.9C312.612 416.663 317.393 416.55 320.858 416.478C322.514 416.437 323.891 416.406 324.961 416.385C325.927 416.354 326.462 416.324 326.462 416.282C326.462 416.241 325.927 416.21 324.961 416.169C323.994 416.128 322.586 416.108 320.858 416.097C317.393 416.077 312.602 416.138 307.306 416.365C302.022 416.601 297.24 416.962 293.786 417.291C292.058 417.456 290.66 417.61 289.704 417.733C288.747 417.836 288.213 417.919 288.213 417.96Z" fill="#404040"/>
<path d="M184.044 400.625C184.034 400.656 184.517 400.893 185.401 401.294C186.286 401.695 187.581 402.25 189.195 402.909C192.414 404.226 196.897 405.954 201.925 407.672C206.942 409.39 211.548 410.779 214.9 411.715C216.576 412.178 217.934 412.538 218.88 412.764C219.826 412.99 220.35 413.103 220.36 413.073C220.37 413.042 219.867 412.857 218.931 412.569C217.903 412.25 216.587 411.848 215.003 411.355C211.682 410.336 207.107 408.886 202.099 407.168C197.092 405.45 192.588 403.783 189.339 402.559C187.787 401.973 186.491 401.489 185.494 401.109C184.568 400.769 184.065 400.594 184.044 400.625Z" fill="#404040"/>
<path d="M283.154 307.753C283.154 307.753 232.001 332.761 203.654 333.615L204.209 328.358L282.27 304.399L283.154 307.753Z" fill="#101010"/>
<path d="M295.125 215.291C295.125 215.291 300.421 204.377 302.724 202.659C305.027 200.941 313.798 198.019 316.594 196.62C319.391 195.221 320.553 197.484 319 200.097C318.599 200.766 317.849 201.506 316.954 202.237C320.8 201.815 325.57 201.476 326.434 202.031C326.434 202.031 330.393 205.035 327.545 207.987C325.971 209.623 323.987 209.325 323 209.294C322.907 209.356 322.805 209.397 322.702 209.448C323.288 209.767 323.709 210.137 323.812 210.58C323.812 210.58 323.946 213.872 319.73 215.322C319.73 215.322 321.098 217.482 316.748 218.943C316.748 218.943 317.838 222.914 313.366 222.852C311.638 222.832 310.353 222.204 309.428 221.392C309.407 221.402 309.387 221.412 309.356 221.422C303.423 223.367 301.038 223.243 301.038 223.243L296.112 216.351L295.125 215.291Z" fill="#FFBF9D"/>
<path d="M302.672 226.237L297.531 210.611L265.852 223.264L244.424 210.405L225.546 224.344C225.546 224.344 257.914 255.596 263.076 255.823C268.248 256.049 281.954 251.554 282.632 251.78C283.311 251.996 302.672 226.237 302.672 226.237Z" fill="#FF6E00"/>
<path d="M564.246 79.4072C564.246 79.4072 564.02 79.3352 563.557 79.222C563.084 79.1089 562.406 78.9443 561.521 78.7385C559.712 78.3167 557.069 77.6995 553.666 76.9074C546.808 75.3334 536.875 73.06 524.516 70.2207H524.496H524.475C512.61 70.447 498.266 70.7248 482.288 71.0334H482.247L482.206 71.054C470.196 75.9815 456.943 81.4132 443.021 87.1329L442.99 87.1432L442.97 87.1637C438.003 90.6717 432.78 94.3545 427.464 98.099C416.987 105.506 406.818 112.676 397.194 119.476L397.173 119.496L397.153 119.517C382.491 135.925 369.268 150.739 358.4 162.898L358.369 162.929L358.359 162.97C354.225 177.527 350.873 189.336 348.55 197.525C347.408 201.609 346.514 204.777 345.907 206.948C345.609 208.018 345.393 208.841 345.229 209.407C345.085 209.962 345.013 210.25 345.013 210.25C345.013 210.25 345.116 209.972 345.28 209.427C345.445 208.861 345.691 208.049 346.01 206.989C346.648 204.819 347.573 201.66 348.755 197.597C351.12 189.419 354.534 177.629 358.739 163.094L358.698 163.176C369.587 151.037 382.84 136.254 397.533 119.867L397.492 119.908C407.126 113.108 417.295 105.938 427.773 98.5414C433.078 94.7968 438.312 91.1037 443.278 87.5958L443.227 87.6267C457.148 81.8967 470.392 76.4445 482.401 71.5066L482.319 71.5272C498.287 71.1774 512.641 70.8585 524.506 70.6013H524.465C536.834 73.3686 546.787 75.5906 553.656 77.1234C557.069 77.8744 559.722 78.4608 561.542 78.862C562.426 79.0471 563.115 79.2014 563.588 79.294C564.01 79.366 564.246 79.4072 564.246 79.4072Z" fill="#404040"/>
<path d="M358.976 195.508C358.976 195.508 360.055 191.455 354.883 188.667C349.712 185.89 345.866 189.902 345.866 189.902L358.976 195.508Z" fill="#404040"/>
<path d="M357.566 193.76C357.433 193.708 354.852 199.274 354.852 199.274L346.318 194.819L348.395 189.84L357.566 193.76Z" fill="#404040"/>
<path d="M344.252 193.266L357.3 199.572L349.784 213.84L337.373 206.948L344.252 193.266Z" fill="#404040"/>
<path d="M343.624 212.842C343.624 212.842 347.388 212.76 347.408 215.157C347.429 217.554 343.511 217.348 339.018 218.233C334.525 219.118 328.232 220.146 321.693 225.856L319.564 222.296C319.575 222.296 333.928 211.145 343.624 212.842Z" fill="#404040"/>
<path d="M344.261 216.073C344.261 216.073 345.228 219.395 341.269 221C337.311 222.605 335.419 220.002 334.329 218.038C333.229 216.062 332.55 211.803 331.244 209.623C329.938 207.442 330.103 204.026 327.43 200.971C324.746 197.905 320.633 196.98 320.633 196.98L322.196 193.924C322.196 193.924 327.954 196.332 330.638 199.809C333.321 203.286 333.424 204.757 335.121 206.032C336.817 207.308 340.025 205.302 340.025 205.302C340.025 205.302 347.624 211.783 347.593 211.793C347.562 211.803 344.261 216.073 344.261 216.073Z" fill="#404040"/>
<path d="M269.337 267.642C269.337 267.642 330.752 177.65 346.751 156.685C368.631 128.014 391.046 102.07 434.251 77.8847C434.251 77.8847 466.948 62.4847 489.064 61.7955C489.064 61.7955 531.046 57.66 564.452 74.6957L563.722 76.5885C531.611 59.8101 490.082 64.3673 490.082 64.3673C468.747 66.147 438.96 81.1046 438.96 81.1046C398.5 101.165 373.782 132.283 351.46 160.614C338.988 176.446 274.622 276.551 274.622 276.551" fill="#404040"/>
<path d="M562.784 78.965C562.928 79.0062 563.257 78.2346 563.525 77.2471C563.792 76.2595 563.895 75.4262 563.751 75.3954C563.607 75.3542 563.278 76.1258 563.01 77.1133C562.743 78.1009 562.65 78.9239 562.784 78.965Z" fill="#404040"/>
<path d="M524.474 71.5785C524.618 71.5785 524.711 69.6445 524.67 67.2579C524.629 64.8712 524.474 62.9475 524.33 62.9475C524.186 62.9475 524.094 64.8815 524.135 67.2681C524.166 69.6548 524.32 71.5785 524.474 71.5785Z" fill="#404040"/>
<path d="M482.576 72.165C482.72 72.1239 482.308 70.447 481.661 68.441C481.013 66.4247 480.375 64.8302 480.241 64.8714C480.097 64.9125 480.509 66.5893 481.157 68.5954C481.794 70.6219 482.432 72.2165 482.576 72.165Z" fill="#404040"/>
<path d="M443.105 87.8635C443.218 87.7915 442.066 85.9089 440.164 83.9852C438.271 82.0512 436.42 80.8682 436.338 80.9813C436.246 81.1048 437.922 82.4627 439.783 84.3658C441.655 86.2484 442.981 87.9561 443.105 87.8635Z" fill="#404040"/>
<path d="M390.19 113.55C390.098 113.664 391.764 115.186 393.902 116.945C396.051 118.704 397.861 120.042 397.953 119.929C398.046 119.815 396.38 118.293 394.242 116.534C392.103 114.764 390.293 113.437 390.19 113.55Z" fill="#404040"/>
<path d="M351.336 157.271C351.213 157.395 352.858 159.01 355.058 160.79C357.248 162.569 359.12 163.896 359.212 163.783C359.305 163.67 357.588 162.158 355.398 160.378C353.208 158.598 351.429 157.179 351.336 157.271Z" fill="#404040"/>
<path d="M567.207 78.5535C567.207 78.5535 567.526 78.7181 568.143 79.0061C568.78 79.3044 569.705 79.7262 570.908 80.2817C572.142 80.8167 573.613 81.5882 575.361 82.4729C577.129 83.3267 579.083 84.4583 581.314 85.6928C585.715 88.2543 591 91.5668 596.757 95.9491C602.505 100.331 608.726 105.773 614.916 112.45C618.041 115.752 621.074 119.445 624.097 123.375C627.069 127.356 629.989 131.625 632.724 136.224C635.459 140.812 638.06 145.75 639.592 151.222C640.343 153.959 640.806 156.819 640.785 159.73C640.744 162.631 640.209 165.583 639.119 168.351C638.019 171.107 636.364 173.731 634.061 175.726C632.909 176.714 631.644 177.588 630.226 178.206C629.547 178.576 628.786 178.761 628.077 179.039C627.326 179.214 626.586 179.45 625.815 179.553C622.74 180.037 619.532 179.79 616.437 179.018C613.332 178.267 610.299 177.105 607.358 175.685C604.407 174.286 601.569 172.589 598.691 170.922C595.832 169.215 592.963 167.476 590.074 165.696C584.306 162.158 578.455 158.537 572.338 155.214C566.22 151.901 559.958 148.969 553.48 146.881C547.013 144.783 540.33 143.702 533.739 143.713C530.438 143.754 527.179 144.227 524.053 145.081C520.938 145.945 517.925 147.19 515.293 149C512.671 150.79 510.368 153.084 508.826 155.81C507.283 158.537 506.471 161.612 506.42 164.657C506.348 167.713 506.975 170.717 508.075 173.463C509.175 176.22 510.707 178.741 512.537 180.963C516.198 185.448 521.185 188.39 526.202 190.252C531.261 192.114 536.443 192.958 541.399 193.348C546.376 193.739 551.157 193.636 555.712 193.513C564.811 193.204 573.078 192.937 580.234 194.017C587.391 195.025 593.282 197.412 597.559 200.138C601.868 202.854 604.51 205.909 606.052 208.08C606.782 209.201 607.327 210.065 607.626 210.682C607.944 211.289 608.129 211.598 608.129 211.598C608.129 211.598 607.985 211.279 607.677 210.662C607.389 210.034 606.865 209.15 606.145 208.018C604.634 205.817 602.001 202.72 597.683 199.963C593.395 197.196 587.483 194.768 580.286 193.719C573.099 192.608 564.801 192.855 555.712 193.132C551.157 193.246 546.386 193.328 541.44 192.927C536.505 192.525 531.364 191.682 526.367 189.82C521.39 187.968 516.496 185.067 512.908 180.644C511.108 178.463 509.597 175.973 508.527 173.268C507.448 170.573 506.841 167.63 506.913 164.647C506.975 161.674 507.756 158.681 509.268 156.037C510.769 153.383 513.01 151.15 515.581 149.401C518.162 147.632 521.113 146.408 524.187 145.554C527.272 144.711 530.49 144.248 533.749 144.206C540.268 144.196 546.91 145.276 553.326 147.354C559.752 149.422 565.994 152.344 572.091 155.646C578.198 158.958 584.039 162.569 589.807 166.108C592.686 167.877 595.565 169.626 598.433 171.334C601.312 173.011 604.161 174.708 607.142 176.117C610.104 177.547 613.168 178.72 616.324 179.481C619.47 180.263 622.74 180.51 625.897 180.016C626.688 179.913 627.46 179.677 628.231 179.492C628.971 179.193 629.753 179.008 630.441 178.627C631.891 177.99 633.207 177.095 634.39 176.066C636.765 174.008 638.451 171.313 639.572 168.495C640.693 165.655 641.227 162.651 641.268 159.689C641.279 156.716 640.806 153.815 640.045 151.047C638.492 145.503 635.86 140.544 633.104 135.946C630.359 131.337 627.419 127.058 624.426 123.077C621.383 119.137 618.329 115.443 615.183 112.141C608.952 105.465 602.711 100.033 596.932 95.6611C591.144 91.289 585.828 87.9971 581.406 85.4665C579.165 84.2423 577.201 83.121 575.422 82.2877C573.664 81.4236 572.183 80.6623 570.95 80.1377C569.726 79.6028 568.801 79.1913 568.153 78.9032C567.536 78.6872 567.207 78.5535 567.207 78.5535Z" fill="#404040"/>
<path d="M231.851 104.251C231.851 104.251 231.419 113.211 216.304 117.912L212.777 109.754L231.851 104.251Z" fill="#101010"/>
<path d="M190.904 99.5808L192.107 99.5088C204.189 98.7475 214.831 107.389 216.558 119.373C218.172 130.525 219.807 142.859 220.116 148.877C220.743 161.335 208.425 164.061 208.425 164.061L210.42 178.947L180.159 179.924L174.062 125.854C172.14 112.995 178 101.155 190.904 99.5808Z" fill="#FFBF9D"/>
<path d="M208.439 164.06C208.439 164.06 200.615 165.016 191.916 160.294C191.916 160.294 196.512 169.213 208.851 167.3L208.439 164.06Z" fill="#FF9A6C"/>
<path d="M213.871 131.438C213.963 132.374 213.244 133.228 212.267 133.341C211.29 133.454 210.426 132.796 210.333 131.849C210.241 130.913 210.961 130.059 211.927 129.946C212.915 129.833 213.778 130.502 213.871 131.438Z" fill="#404040"/>
<path d="M196.762 133.057C196.855 133.993 196.135 134.847 195.158 134.96C194.181 135.073 193.318 134.415 193.225 133.468C193.132 132.532 193.852 131.678 194.819 131.565C195.796 131.452 196.67 132.121 196.762 133.057Z" fill="#404040"/>
<path d="M203.346 140.923C203.325 140.81 204.508 140.532 206.421 140.162C206.904 140.079 207.367 139.956 207.418 139.616C207.511 139.256 207.274 138.742 206.997 138.186C206.462 137.034 205.907 135.82 205.32 134.555C202.976 129.391 201.259 125.122 201.464 125.029C201.67 124.937 203.737 129.051 206.081 134.226C206.647 135.501 207.192 136.715 207.706 137.878C207.922 138.423 208.282 139.03 208.076 139.781C207.963 140.151 207.624 140.439 207.315 140.542C207.007 140.655 206.729 140.676 206.493 140.707C204.559 140.954 203.356 141.036 203.346 140.923Z" fill="#404040"/>
<path d="M196.697 119.715C196.471 120.219 194.805 119.797 192.78 119.859C190.754 119.879 189.078 120.363 188.862 119.869C188.77 119.632 189.099 119.18 189.798 118.737C190.497 118.305 191.577 117.934 192.78 117.914C193.993 117.893 195.062 118.222 195.762 118.624C196.471 119.035 196.79 119.478 196.697 119.715Z" fill="#404040"/>
<path d="M213.873 117.738C213.492 118.201 211.888 117.851 209.997 117.944C208.094 117.985 206.511 118.458 206.11 118.026C205.935 117.82 206.161 117.367 206.84 116.904C207.508 116.452 208.639 116.04 209.945 115.988C211.251 115.937 212.403 116.266 213.091 116.668C213.791 117.09 214.037 117.522 213.873 117.738Z" fill="#404040"/>
<path d="M176.828 137.84C176.633 135.926 174.874 134.507 172.972 134.815C170.669 135.186 168.171 136.667 168.623 141.45C169.435 149.948 177.784 147.376 177.784 147.139C177.784 146.964 177.198 141.389 176.828 137.84Z" fill="#FFBF9D"/>
<path d="M175.637 144.114C175.596 144.094 175.504 144.228 175.257 144.372C175.02 144.505 174.609 144.618 174.157 144.495C173.231 144.248 172.336 142.901 172.151 141.368C172.059 140.596 172.151 139.845 172.367 139.207C172.563 138.559 172.923 138.086 173.375 137.963C173.817 137.819 174.157 138.055 174.29 138.282C174.424 138.508 174.393 138.683 174.434 138.693C174.465 138.714 174.599 138.528 174.506 138.189C174.455 138.024 174.331 137.829 174.126 137.685C173.91 137.541 173.601 137.479 173.283 137.551C172.635 137.654 172.1 138.312 171.863 139.012C171.586 139.711 171.473 140.565 171.575 141.429C171.791 143.137 172.82 144.649 174.085 144.896C174.702 144.999 175.175 144.762 175.411 144.546C175.637 144.32 175.668 144.125 175.637 144.114Z" fill="#FF9A6C"/>
<path d="M197.193 145.489C197.345 145.778 199.182 144.69 201.431 145.493C203.68 146.296 204.633 148.384 204.895 148.25C205.022 148.205 204.999 147.604 204.528 146.761C204.073 145.935 203.112 144.893 201.744 144.397C200.367 143.904 199.053 144.128 198.262 144.51C197.437 144.891 197.106 145.363 197.193 145.489Z" fill="#404040"/>
<path d="M215.008 113.746C215.008 113.746 211.234 106.154 207.358 104.58C202.669 102.667 201.024 107.779 196.613 106.843C192.202 105.907 187.73 104.066 183.504 107.697C178.887 111.668 181.324 114.106 181.365 119.651C181.56 142.118 177.879 148.712 176.049 138.24C175.854 137.088 172.584 136.378 171.803 131.522C170.785 125.226 170.055 117.562 171.186 112.974C172.142 109.117 174.126 106.36 177.818 103.232C183.637 98.2945 192.028 97.667 197.755 97.8831C203.502 98.0785 214.905 103.953 215.008 113.746Z" fill="#707070"/>
<path d="M281.674 306.847C281.674 306.847 205.639 333.862 195.377 329.243C185.116 324.624 186.072 305.706 180.571 289.853C175.07 274 162.094 239.672 162.31 223.603C162.526 207.535 166.711 189.491 166.927 187.948C167.143 186.405 201.403 164.606 209.32 165.707C217.237 166.808 233.369 191.908 233.369 191.908C233.369 191.908 248.546 237.028 254.047 246.05C259.547 255.072 269.449 264.814 275.382 279.288C282.014 295.429 283.217 304.862 281.674 306.847Z" fill="#FF8B33"/>
<path d="M160.984 154.545C162.043 154.196 167.904 152.087 174.371 152.755C180.839 153.424 207.089 161.829 209.762 165.985C211.942 169.359 172.356 197.278 165.662 194.439C158.979 191.59 153.9 187.804 153.9 181.549C153.9 175.295 148.933 158.557 160.984 154.545Z" fill="#FF8B33"/>
<path d="M166.054 194.213C164.964 196.743 164.429 199.521 164.501 202.278C164.522 203.07 164.625 203.934 165.17 204.51C165.756 205.117 166.722 205.22 167.524 204.983C168.337 204.747 169.026 204.222 169.684 203.708C174.927 199.593 179.688 194.922 184.438 190.262C188.561 186.219 191.903 181.343 194.885 176.601C194.885 176.601 186.721 185.17 175.709 190.859C172.408 192.536 169.18 193.719 166.054 194.213Z" fill="#FF6E00"/>
<path d="M165.663 194.439C165.663 194.46 165.796 194.47 166.043 194.46C166.29 194.45 166.67 194.47 167.133 194.357C167.606 194.275 168.171 194.162 168.819 193.956C169.477 193.781 170.197 193.513 170.989 193.215C174.166 192.022 178.361 189.892 182.72 187.115C187.06 184.306 190.699 181.313 193.044 178.854C194.195 177.609 195.11 176.581 195.635 175.789C196.19 175.017 196.478 174.585 196.447 174.554C196.354 174.482 195.172 176.221 192.776 178.587C190.391 180.953 186.741 183.874 182.433 186.662C178.104 189.419 173.96 191.59 170.855 192.855C170.074 193.174 169.374 193.462 168.737 193.658C168.11 193.894 167.554 194.028 167.102 194.141C166.65 194.285 166.29 194.295 166.043 194.336C165.796 194.388 165.663 194.419 165.663 194.439Z" fill="#404040"/>
<path d="M170.096 172.599C170.096 172.568 169.551 172.589 168.574 172.733C167.597 172.867 166.199 173.124 164.502 173.576C162.806 174.039 160.811 174.708 158.693 175.696C158.168 175.942 157.634 176.2 157.089 176.488C156.554 176.776 155.917 177.156 155.67 177.897C155.557 178.247 155.546 178.658 155.752 179.029C155.958 179.399 156.359 179.605 156.719 179.666C157.459 179.79 158.107 179.615 158.775 179.553C164.122 178.843 168.718 176.981 171.782 175.274C173.324 174.42 174.507 173.638 175.298 173.052C176.09 172.465 176.501 172.116 176.481 172.085C176.46 172.054 175.997 172.352 175.185 172.877C174.363 173.401 173.149 174.132 171.607 174.934C168.522 176.529 163.978 178.319 158.703 179.018C158.045 179.08 157.366 179.245 156.821 179.142C156.256 179.07 155.999 178.566 156.174 178.051C156.318 177.557 156.821 177.208 157.336 176.93C157.86 176.652 158.395 176.385 158.909 176.138C160.986 175.15 162.939 174.44 164.605 173.936C166.271 173.432 167.648 173.124 168.615 172.928C169.571 172.733 170.106 172.64 170.096 172.599Z" fill="#404040"/>
<path d="M234.408 261.841C234.408 261.83 234.326 261.861 234.172 261.923C233.997 262.005 233.781 262.098 233.514 262.211C232.897 262.499 232.054 262.89 230.995 263.373C228.815 264.402 225.689 265.935 221.874 267.931C218.06 269.916 213.556 272.375 208.641 275.255C206.184 276.695 203.624 278.238 200.992 279.874C200.334 280.286 199.676 280.707 199.007 281.119C198.339 281.561 197.681 282.076 197.177 282.775C196.93 283.125 196.725 283.526 196.663 283.989C196.591 284.442 196.694 284.935 196.93 285.326C197.167 285.738 197.568 286.036 198 286.19C198.431 286.345 198.874 286.386 199.305 286.376C200.169 286.345 200.992 286.129 201.773 285.82C202.524 285.501 203.264 285.182 204.004 284.874C205.475 284.236 206.914 283.598 208.323 282.94C211.14 281.643 213.834 280.337 216.363 279.03C221.432 276.428 225.884 273.866 229.555 271.624C233.226 269.371 236.125 267.437 238.11 266.069C239.107 265.39 239.858 264.834 240.372 264.464C240.608 264.289 240.793 264.145 240.948 264.032C241.081 263.929 241.143 263.877 241.133 263.867C241.122 263.857 241.05 263.898 240.917 263.98C240.752 264.083 240.557 264.207 240.31 264.371C239.745 264.742 238.973 265.246 237.997 265.894C235.992 267.21 233.051 269.093 229.37 271.305C225.679 273.506 221.216 276.027 216.147 278.598C213.618 279.895 210.924 281.191 208.117 282.477C206.719 283.125 205.269 283.752 203.809 284.39C202.328 284.987 200.879 285.82 199.305 285.851C198.545 285.882 197.742 285.676 197.403 285.069C197.023 284.462 197.187 283.701 197.629 283.104C198.514 281.88 200.005 281.191 201.29 280.337C203.912 278.691 206.462 277.148 208.909 275.697C213.803 272.807 218.286 270.317 222.07 268.291C225.864 266.254 228.959 264.68 231.108 263.589C232.146 263.065 232.969 262.643 233.575 262.334C233.832 262.201 234.038 262.087 234.213 261.995C234.336 261.892 234.408 261.851 234.408 261.841Z" fill="#404040"/>
<path d="M307.4 225.311C307.4 225.311 314.196 222.245 317.744 221.484C321.291 220.723 323.43 217.729 325.291 218.5C327.152 219.262 327.069 220.64 326.627 221.103C326.185 221.566 333.814 220.723 334.442 223.932C335.059 227.152 331.511 227.378 331.511 227.378C331.511 227.378 333.465 230.135 332.488 231.822C331.511 233.51 331.336 233.962 331.336 233.962C331.336 233.962 333.115 235.948 331.162 238.015C329.208 240.083 329.208 240.083 329.208 240.083C329.208 240.083 330.092 241.534 327.697 242.994C325.301 244.445 306.475 243.529 306.475 243.529L307.4 225.311Z" fill="#FFBF9D"/>
<path d="M307.698 223.932C308.171 224.94 308.5 244.825 308.5 244.825C308.5 244.825 290.99 247.983 280.029 247.438C267.917 246.841 259.177 247.839 259.177 247.839C259.177 247.839 248.155 246.934 241.595 241.636C235.035 236.328 200.508 212.225 197.218 204.901C193.938 197.576 195.274 173.535 199.675 168.947C204.086 164.359 208.775 165.603 213.463 166.879C218.152 168.144 239.477 193.153 242.767 194.665C246.047 196.177 249.563 197.442 251.435 204.006C251.435 204.006 256.123 205.271 258.468 209.057C260.812 212.842 261.285 215.116 261.285 215.116C261.285 215.116 266.909 212.842 269.49 214.108C272.071 215.373 274.415 217.646 274.415 217.646L307.698 223.932Z" fill="#FF8B33"/>
<path d="M251.044 216.052C250.972 216.031 250.561 217.235 249.954 219.19C249.646 220.218 249.296 221.381 248.916 222.636C248.741 223.294 248.474 223.932 248.381 224.745C248.35 225.136 248.391 225.619 248.689 226C248.967 226.38 249.502 226.566 249.944 226.514C250.838 226.401 251.517 225.887 252.062 225.372C252.607 224.868 253.121 224.364 253.584 223.86C254.509 222.852 255.249 221.875 255.825 221.01C256.401 220.157 256.802 219.426 257.059 218.912C257.316 218.397 257.429 218.099 257.398 218.079C257.326 218.037 256.72 219.159 255.517 220.794C254.91 221.607 254.149 222.554 253.224 223.521C252.761 224.004 252.257 224.498 251.712 224.981C251.198 225.465 250.561 225.897 249.892 225.979C249.214 226.061 248.803 225.465 248.895 224.786C248.957 224.117 249.224 223.428 249.378 222.78C249.718 221.515 250.026 220.342 250.304 219.303C250.838 217.307 251.116 216.062 251.044 216.052Z" fill="#404040"/>
<path d="M236.629 215.147C236.649 215.209 237.4 215.013 238.521 214.478C239.641 213.943 241.122 213.028 242.52 211.721C243.908 210.415 244.926 208.995 245.533 207.915C246.14 206.825 246.386 206.094 246.325 206.063C246.171 205.981 244.885 208.8 242.15 211.33C239.446 213.892 236.547 214.993 236.629 215.147Z" fill="#404040"/>
<path d="M268.699 234.27C268.689 234.26 268.555 234.548 268.802 235.001C269.028 235.443 269.687 235.916 270.591 235.906C271.538 235.927 272.453 235.093 272.926 234.096C273.43 233.077 273.697 231.904 274.006 230.68C274.571 228.211 274.736 225.917 274.715 224.271C274.695 222.615 274.53 221.607 274.468 221.607C274.386 221.617 274.417 222.625 274.335 224.261C274.263 225.886 274.036 228.139 273.491 230.567C273.193 231.771 272.926 232.943 272.494 233.89C272.062 234.826 271.332 235.515 270.581 235.546C269.82 235.608 269.224 235.248 268.987 234.908C268.72 234.548 268.751 234.27 268.699 234.27Z" fill="#404040"/>
<path d="M222.296 227.173C222.296 227.173 222.491 227.348 222.892 227.656C223.303 227.975 223.9 228.428 224.671 229.024C226.254 230.228 228.557 231.977 231.508 234.219C234.49 236.462 238.12 239.209 242.325 242.377C244.474 243.951 247.086 245.124 249.913 246.081C252.761 246.996 255.856 247.696 259.157 248.045H259.177H259.198C266.128 247.366 273.85 247.346 282.147 247.747C286.312 247.757 290.62 247.459 295.021 246.986C299.432 246.513 303.935 245.885 308.541 245.093L308.768 245.052L308.757 244.825C308.5 238.118 308.243 231.113 307.966 223.932L307.955 223.716L307.75 223.675C304.747 223.109 301.55 222.502 298.321 221.895C290.137 220.352 282.147 218.84 274.456 217.39L274.59 217.462C273.665 216.597 272.698 215.816 271.67 215.116C271.156 214.766 270.632 214.437 270.087 214.139C269.562 213.83 268.904 213.594 268.287 213.532C267.023 213.398 265.799 213.583 264.627 213.84C263.444 214.108 262.303 214.458 261.193 214.89L261.532 215.075C261.182 213.707 260.627 212.493 260.021 211.299C259.393 210.116 258.776 208.964 257.944 207.915C257.1 206.886 256.082 206.043 254.982 205.364C253.882 204.685 252.731 204.15 251.507 203.78L251.672 203.944C250.952 201.485 249.821 199.099 247.939 197.412C247.014 196.558 245.944 195.93 244.865 195.395C244.32 195.128 243.785 194.881 243.24 194.634C242.963 194.511 242.716 194.387 242.49 194.243C242.263 194.079 242.027 193.914 241.811 193.719C240.053 192.217 238.469 190.571 236.917 189.007C235.385 187.413 233.884 185.869 232.434 184.368C226.645 178.35 221.627 173.021 217.021 169.091C215.849 168.145 214.749 167.178 213.402 166.746C212.106 166.396 210.872 166.087 209.711 165.881C208.549 165.676 207.449 165.593 206.441 165.635C205.433 165.686 204.539 165.892 203.757 166.149C202.215 166.715 201.207 167.507 200.57 168.052C199.953 168.628 199.665 168.957 199.665 168.957C199.665 168.957 199.758 168.896 199.912 168.752C200.076 168.608 200.302 168.381 200.621 168.114C201.269 167.589 202.287 166.828 203.809 166.293C204.58 166.046 205.464 165.861 206.451 165.82C207.438 165.789 208.518 165.881 209.669 166.097C210.821 166.303 212.034 166.632 213.33 166.992C214.564 167.404 215.674 168.371 216.826 169.317C221.381 173.257 226.367 178.617 232.136 184.656C233.585 186.168 235.066 187.721 236.598 189.316C238.151 190.9 239.724 192.546 241.513 194.079C241.739 194.274 241.976 194.449 242.222 194.634C242.49 194.809 242.767 194.953 243.035 195.066C243.569 195.313 244.114 195.56 244.639 195.817C245.698 196.352 246.726 196.959 247.6 197.772C249.389 199.377 250.489 201.681 251.188 204.088L251.219 204.212L251.353 204.253C253.646 204.983 255.928 206.279 257.532 208.234C258.314 209.211 258.941 210.384 259.548 211.536C260.134 212.699 260.689 213.933 261.008 215.188L261.08 215.476L261.347 215.373C262.426 214.962 263.558 214.602 264.699 214.355C265.84 214.098 267.033 213.923 268.184 214.056C269.315 214.17 270.333 214.91 271.341 215.558C272.338 216.248 273.295 217.019 274.189 217.852L274.251 217.904L274.323 217.914C282.024 219.375 290.013 220.877 298.187 222.43C301.416 223.037 304.614 223.644 307.616 224.21L307.4 223.953C307.678 231.133 307.945 238.139 308.202 244.846L308.418 244.579C303.832 245.371 299.329 246.009 294.938 246.492C290.548 246.976 286.26 247.284 282.127 247.274C273.84 246.903 266.087 246.945 259.126 247.644H259.167C252.669 246.914 246.767 245.134 242.49 242.12C238.264 238.982 234.614 236.277 231.622 234.044C228.64 231.843 226.316 230.115 224.712 228.932C223.931 228.356 223.324 227.924 222.902 227.615C222.512 227.317 222.296 227.173 222.296 227.173Z" fill="#404040"/>
<path d="M256.174 231.174C256.976 226.36 258.961 221.761 261.912 217.873C262.334 222.636 261.12 227.861 258.56 231.904C258.128 232.594 257.315 233.345 256.606 232.933C256.05 232.614 256.071 231.812 256.174 231.174Z" fill="#FF6E00"/>
<path d="M215.277 112.158C215.277 112.158 213.098 109.946 207.977 109.02C198.477 107.313 185.418 107.765 173.039 123.175L171.085 127.013C171.085 127.013 170.273 119.678 170.643 116.118C170.89 113.742 170.643 99.4634 187.835 95.0502C186.827 95.3177 210.774 90.5135 215.277 112.158Z" fill="#404040"/>
<path d="M213.425 105.063C199.544 105.074 186.476 108.283 177.325 118.21C184.091 114.497 194.105 112.1 201.817 112.388C209.528 112.676 217.435 113.334 224.807 111.03C228.129 109.991 231.707 107.728 231.851 104.251L213.425 105.063Z" fill="#404040"/>
<path d="M175.895 116.812C175.916 116.843 176.409 116.544 177.273 115.978C177.705 115.69 178.229 115.351 178.867 114.991C179.494 114.61 180.203 114.178 181.015 113.746C182.609 112.831 184.594 111.884 186.815 110.907C189.056 109.971 191.565 109.035 194.248 108.222C199.636 106.617 204.674 105.815 208.335 105.465C209.25 105.352 210.083 105.321 210.813 105.259C211.543 105.197 212.17 105.167 212.684 105.156C213.712 105.115 214.288 105.074 214.288 105.033C214.288 104.992 213.723 104.971 212.684 104.951C212.17 104.93 211.533 104.93 210.803 104.971C210.073 105.002 209.229 105.012 208.304 105.095C204.613 105.341 199.523 106.092 194.094 107.718C191.39 108.541 188.861 109.497 186.619 110.464C184.388 111.483 182.414 112.47 180.83 113.427C180.018 113.88 179.319 114.343 178.712 114.744C178.095 115.135 177.571 115.505 177.16 115.814C176.317 116.421 175.874 116.781 175.895 116.812Z" fill="#101010"/>
<path d="M239.652 240.011C234.707 239.373 230.974 235.402 226.697 232.851C221.515 229.755 215.181 228.582 210.678 224.56C205.989 220.373 204.179 216.68 202.586 210.6C213.114 222.564 225.288 230.341 238.655 239.023" fill="#FF6E00"/>
<path d="M248.648 224.045C249.882 220.455 251.115 216.865 252.75 213.439C253.151 212.596 253.593 211.752 254.251 211.094C254.909 210.435 255.845 209.983 256.77 210.106C257.696 210.229 259.886 210.6 259.547 214.087C258.025 218.459 255.341 222.42 251.845 225.444C251.362 225.866 250.838 226.278 250.211 226.422C249.583 226.566 248.833 226.36 248.535 225.794C248.257 225.259 248.452 224.611 248.648 224.045Z" fill="#FF6E00"/>
<path d="M762.104 398.033C762.104 398.177 787.377 398.3 818.542 398.3C849.717 398.3 874.99 398.177 874.99 398.033C874.99 397.889 849.727 397.765 818.542 397.765C787.377 397.765 762.104 397.889 762.104 398.033Z" fill="#404040"/>
<path d="M829.266 406.006C829.266 406.15 839.506 406.273 852.133 406.273C864.759 406.273 875 406.15 875 406.006C875 405.862 864.769 405.738 852.133 405.738C839.506 405.738 829.266 405.851 829.266 406.006Z" fill="#404040"/>
</svg>
