<svg width="1124" height="635" viewBox="0 0 1124 635" fill="none" xmlns="http://www.w3.org/2000/svg">
<path d="M702.773 100.361C701.915 98.0649 701.031 95.7291 699.592 93.7496C698.14 91.7701 696.028 90.1469 693.599 89.8433C691.157 89.5398 688.465 90.8595 687.673 93.1821C687.33 87.9562 686.577 82.5851 683.964 78.0455C681.35 73.5058 676.453 69.9295 671.226 70.2594C666.29 70.5629 662.066 74.2316 659.716 78.5733C657.367 82.9283 656.562 87.9166 655.796 92.7994C653.922 90.5032 649.975 91.229 648.022 93.4461C646.068 95.6763 645.58 98.7775 645.157 101.72L703.459 102.327L702.773 100.361Z" fill="#E5EFF9"/>
<path d="M263.438 221.493C261.973 217.587 260.482 213.615 258.013 210.25C255.545 206.885 251.955 204.113 247.81 203.612C243.666 203.11 239.072 205.341 237.726 209.286C237.132 200.379 235.865 191.247 231.416 183.527C226.955 175.793 218.639 169.723 209.73 170.264C201.335 170.778 194.141 177.021 190.142 184.424C186.142 191.827 184.769 200.326 183.463 208.627C180.282 204.72 173.563 205.948 170.237 209.735C166.911 213.523 166.079 218.815 165.366 223.803L264.6 224.832L263.438 221.493Z" fill="#E5EFF9"/>
<path d="M972.663 123.653C971.198 119.747 969.706 115.775 967.238 112.41C964.77 109.044 961.18 106.273 957.035 105.772C952.89 105.27 948.297 107.5 946.95 111.446C946.356 102.538 945.089 93.4062 940.641 85.6862C936.18 77.9529 927.864 71.8824 918.954 72.4234C910.559 72.9381 903.366 79.1802 899.366 86.5835C895.367 93.9869 893.994 102.486 892.687 110.786C889.506 106.88 882.788 108.107 879.461 111.895C876.135 115.682 875.304 120.974 874.591 125.963L973.825 126.992L972.663 123.653Z" fill="#E5EFF9"/>
<path d="M362.676 128.101C361.752 125.646 360.815 123.165 359.27 121.041C357.726 118.929 355.469 117.187 352.868 116.87C350.268 116.554 347.391 117.953 346.533 120.433C346.163 114.851 345.371 109.111 342.573 104.268C339.775 99.4111 334.561 95.6105 328.964 95.9404C323.698 96.2571 319.183 100.177 316.675 104.822C314.168 109.467 313.31 114.798 312.478 120.011C310.485 117.557 306.261 118.335 304.176 120.711C302.09 123.086 301.562 126.412 301.113 129.539L363.388 130.186L362.676 128.101Z" fill="#E5EFF9"/>
<path d="M776.097 168.97C775.173 166.516 774.235 164.035 772.691 161.91C771.147 159.799 768.89 158.057 766.289 157.74C763.689 157.423 760.812 158.822 759.954 161.303C759.584 155.721 758.792 149.98 755.994 145.137C753.195 140.281 747.982 136.48 742.385 136.81C737.118 137.127 732.604 141.046 730.096 145.691C727.588 150.337 726.731 155.668 725.899 160.881C723.906 158.426 719.682 159.205 717.596 161.58C715.511 163.956 714.983 167.281 714.534 170.409L776.809 171.056L776.097 168.97Z" fill="#E5EFF9"/>
<path d="M655.783 156.526C653.883 151.458 651.955 146.325 648.761 141.97C645.567 137.602 640.907 134.026 635.548 133.379C630.176 132.719 624.237 135.622 622.481 140.73C621.715 129.196 620.079 117.371 614.311 107.368C608.542 97.3651 597.772 89.4999 586.235 90.1993C575.359 90.8591 566.053 98.9355 560.879 108.53C555.705 118.11 553.923 129.116 552.233 139.872C548.115 134.817 539.403 136.401 535.1 141.31C530.797 146.219 529.702 153.068 528.791 159.535L657.275 160.868L655.783 156.526Z" fill="#E5EFF9"/>
<path d="M328.173 456.461C327.883 454.667 325.731 453.703 323.95 454.02C322.168 454.35 320.702 455.577 319.33 456.765C319.211 454.271 320.597 452.001 321.626 449.731C322.656 447.461 323.303 444.637 321.864 442.605C320.069 440.071 316.162 440.335 313.364 441.681C308.955 443.806 305.576 447.963 304.414 452.7C303.002 445.469 299.359 438.699 294.105 433.539C291.941 431.414 288.799 429.448 286.054 430.741C283.19 432.087 282.833 436.204 284.206 439.042C285.579 441.879 288.126 443.964 290.014 446.498C295.94 454.429 294.039 467.045 286.054 472.891L325.494 472.759C323.078 470.529 322.326 464.643 324.398 462.096C325.903 460.288 328.543 458.784 328.173 456.461Z" fill="#99C1E9"/>
<path d="M332.265 422.85C332.265 424.315 331.077 425.489 329.625 425.489C328.159 425.489 326.984 424.301 326.984 422.85C326.984 421.385 328.172 420.21 329.625 420.21C331.077 420.21 332.265 421.398 332.265 422.85Z" fill="#99C1E9"/>
<path d="M253.174 354.926L252.738 355.243C251.246 357.17 250.665 359.717 251.022 362.105C251.246 363.623 253.319 363.94 253.992 362.567C255.193 360.152 254.995 356.972 253.174 354.926Z" fill="#99C1E9"/>
<path d="M265.449 382.877L265.093 383.286C264.05 385.476 263.997 388.089 264.855 390.359C265.396 391.784 267.482 391.666 267.852 390.188C268.512 387.562 267.654 384.5 265.449 382.877Z" fill="#99C1E9"/>
<path d="M916.96 400.983C916.96 400.983 915.733 392.312 915.35 378.179C915.324 376.41 915.284 374.563 915.245 372.636C915.218 370.709 915.297 368.703 915.324 366.632C915.337 362.475 915.627 358.04 915.878 353.382C916.551 344.065 917.713 333.851 919.587 323.227C921.527 312.617 924.009 302.627 926.623 293.654C928.008 289.193 929.289 284.944 930.728 281.038C931.427 279.084 932.048 277.171 932.747 275.376C933.447 273.581 934.133 271.853 934.767 270.216C940.046 257.099 944.217 249.405 944.217 249.405C944.231 249.405 944.178 249.537 944.072 249.788C943.953 250.065 943.795 250.421 943.597 250.87C943.148 251.86 942.515 253.245 941.71 255C941.3 255.898 940.838 256.901 940.337 257.983C939.862 259.091 939.36 260.292 938.806 261.572C937.736 264.159 936.417 267.075 935.202 270.388C934.569 272.037 933.909 273.766 933.222 275.561C932.536 277.356 931.929 279.269 931.242 281.222C929.83 285.129 928.589 289.378 927.217 293.825C924.643 302.786 922.187 312.749 920.26 323.333C918.386 333.93 917.211 344.118 916.512 353.408C916.248 358.067 915.931 362.488 915.905 366.632C915.865 368.703 915.773 370.709 915.786 372.636C915.799 374.563 915.825 376.41 915.839 378.165C915.825 381.689 916.037 384.883 916.142 387.68C916.208 389.079 916.261 390.386 916.314 391.587C916.406 392.774 916.485 393.87 916.565 394.859C916.697 396.786 916.815 398.304 916.895 399.399C916.921 399.887 916.947 400.27 916.96 400.587C916.974 400.837 916.974 400.969 916.96 400.983Z" fill="#E7E7E7"/>
<path d="M945.301 260.16C942.371 270.005 938.648 279.573 933.976 288.56C932.709 290.988 930.808 293.72 928.3 293.337C926.571 293.073 925.277 291.278 924.908 289.378C924.538 287.478 924.895 285.498 925.343 283.624C927.152 276.063 930.399 269.042 933.606 262.087C934.741 259.646 935.942 257.099 937.988 255.555C940.034 254.024 943.176 253.918 944.694 256.096C944.694 256.109 946.053 257.64 945.301 260.16Z" fill="#E7E7E7"/>
<path d="M932.894 411.949C938.028 401.154 945.063 380.699 943.163 370.432C930.993 374.998 919.192 391.349 909.478 402.672C920.869 376.714 932.273 350.769 943.664 324.811C920.499 339.275 907.075 364.81 894.721 389.145C901.241 369.997 905.188 349.964 906.402 329.773C893.546 340.119 884.465 355.058 881.218 371.237C884.913 336.86 888.622 302.482 892.318 268.105C876.651 282.648 868.665 303.987 866.249 325.22C863.834 346.454 866.447 367.912 869.074 389.132C863.147 378.073 857.234 367.014 851.307 355.955C849.961 377.73 854.053 397.67 865.233 416.396L943.928 416.436C963.767 394.991 978.009 375.711 990.892 349.489C963.926 360.152 947.453 386.902 932.894 411.949Z" fill="#E7E7E7"/>
<path d="M877.786 407.555C877.773 407.555 877.746 407.436 877.694 407.198C877.641 406.921 877.575 406.578 877.496 406.143C877.337 405.166 877.1 403.807 876.809 402.078C876.664 401.194 876.506 400.204 876.334 399.135C876.202 398.053 876.044 396.879 875.885 395.625C875.582 393.104 875.173 390.241 874.935 387.047C874.79 385.45 874.645 383.787 874.499 382.045C874.354 380.303 874.301 378.482 874.183 376.608C873.932 372.847 873.905 368.836 873.826 364.599C873.826 356.14 874.196 346.837 875.159 337.111C876.189 327.398 877.707 318.2 879.423 309.925C880.36 305.795 881.192 301.862 882.195 298.233C882.683 296.412 883.105 294.644 883.594 292.968C884.095 291.292 884.571 289.695 885.033 288.151C885.904 285.076 886.894 282.357 887.699 279.942C888.108 278.741 888.491 277.633 888.847 276.59C889.23 275.574 889.586 274.65 889.903 273.806C890.537 272.183 891.038 270.889 891.395 269.966C891.553 269.557 891.698 269.24 891.804 268.976C891.896 268.752 891.949 268.646 891.962 268.646C891.975 268.646 891.936 268.765 891.87 269.002C891.777 269.266 891.672 269.609 891.527 270.018C891.197 270.955 890.735 272.249 890.154 273.898C889.85 274.743 889.52 275.68 889.151 276.696C888.808 277.739 888.451 278.86 888.055 280.061C887.29 282.476 886.326 285.208 885.481 288.283C885.033 289.814 884.571 291.424 884.082 293.1C883.607 294.776 883.198 296.544 882.723 298.352C881.746 301.981 880.928 305.9 880.017 310.031C878.34 318.305 876.836 327.477 875.819 337.163C874.856 346.863 874.473 356.14 874.433 364.573C874.486 368.796 874.499 372.808 874.724 376.556C874.816 378.43 874.869 380.238 874.988 381.979C875.12 383.721 875.252 385.384 875.384 386.981C875.582 390.175 875.964 393.038 876.228 395.559C876.374 396.813 876.506 397.987 876.624 399.069C876.77 400.138 876.915 401.128 877.047 402.012C877.284 403.741 877.469 405.113 877.601 406.09C877.654 406.525 877.694 406.868 877.733 407.159C877.799 407.423 877.799 407.555 877.786 407.555Z" fill="#E7E7E7"/>
<path d="M885.863 405.377C885.837 405.377 885.824 405.1 885.81 404.572C885.797 403.978 885.797 403.213 885.784 402.276C885.771 401.273 885.784 400.059 885.85 398.634C885.903 397.222 885.942 395.599 886.101 393.817C886.325 390.254 886.8 386.018 887.5 381.346C888.252 376.674 889.282 371.581 890.668 366.302C892.093 361.036 893.743 356.101 895.433 351.68C896.33 349.489 897.135 347.391 898.033 345.491C898.469 344.54 898.891 343.617 899.3 342.719C899.736 341.848 900.158 341.017 900.554 340.212C901.333 338.602 902.138 337.203 902.824 335.963C903.498 334.709 904.131 333.666 904.672 332.822C905.174 332.03 905.583 331.383 905.9 330.882C906.19 330.446 906.349 330.222 906.375 330.235C906.402 330.248 906.27 330.499 906.019 330.961C905.728 331.489 905.359 332.149 904.897 332.967C904.395 333.825 903.801 334.894 903.154 336.147C902.494 337.401 901.729 338.813 900.977 340.436C900.594 341.241 900.185 342.086 899.762 342.957C899.366 343.854 898.957 344.778 898.535 345.728C897.663 347.628 896.885 349.727 896 351.917C894.35 356.325 892.727 361.247 891.314 366.487C889.929 371.739 888.899 376.82 888.107 381.452C887.368 386.097 886.84 390.307 886.563 393.87C886.378 395.638 886.312 397.248 886.22 398.66C886.114 400.072 886.061 401.286 886.035 402.289C885.995 403.226 885.955 403.992 885.929 404.585C885.916 405.1 885.889 405.377 885.863 405.377Z" fill="#E7E7E7"/>
<path d="M943.187 325.616C943.201 325.629 943.016 325.893 942.633 326.395C942.211 326.936 941.656 327.648 940.957 328.532C939.478 330.367 937.393 333.059 934.872 336.437C932.351 339.802 929.46 343.907 926.385 348.552C923.335 353.21 920.115 358.41 916.96 364.005C913.832 369.614 911.06 375.077 908.658 380.092C906.295 385.133 904.302 389.726 902.731 393.632C901.16 397.538 899.933 400.719 899.141 402.936C898.745 403.991 898.428 404.836 898.19 405.483C897.966 406.063 897.834 406.367 897.821 406.354C897.794 406.34 897.887 406.037 898.072 405.443C898.283 404.783 898.56 403.925 898.903 402.856C899.616 400.613 900.778 397.393 902.295 393.46C903.8 389.528 905.767 384.896 908.103 379.828C910.466 374.774 913.238 369.297 916.379 363.675C919.547 358.067 922.794 352.854 925.87 348.209C928.985 343.577 931.915 339.499 934.489 336.16C937.063 332.808 939.201 330.156 940.746 328.374C941.485 327.53 942.079 326.843 942.528 326.315C942.937 325.84 943.174 325.603 943.187 325.616Z" fill="#E7E7E7"/>
<path d="M940.353 373.296C940.511 373.389 935.641 382.138 929.477 392.827C923.299 403.517 918.165 412.108 917.993 412.015C917.835 411.923 922.705 403.174 928.869 392.484C935.047 381.795 940.195 373.204 940.353 373.296Z" fill="#E7E7E7"/>
<path d="M988.226 354.649C988.371 354.768 977.772 368.321 964.559 384.922C951.333 401.524 940.496 414.879 940.351 414.76C940.206 414.641 950.805 401.088 964.018 384.487C977.23 367.885 988.067 354.53 988.226 354.649Z" fill="#E7E7E7"/>
<path d="M874.273 413.664C874.233 413.691 873.758 413.018 872.927 411.764C872.095 410.524 870.947 408.676 869.6 406.353C866.908 401.721 863.502 395.123 860.466 387.522C857.444 379.907 855.358 372.781 854.13 367.568C853.51 364.955 853.075 362.831 852.824 361.366C852.56 359.888 852.441 359.07 852.494 359.056C852.547 359.043 852.745 359.848 853.088 361.3C853.418 362.751 853.932 364.863 854.606 367.449C855.952 372.623 858.09 379.696 861.1 387.271C864.122 394.833 867.436 401.444 870.023 406.116C871.316 408.452 872.385 410.339 873.151 411.619C873.903 412.912 874.312 413.638 874.273 413.664Z" fill="#E7E7E7"/>
<path d="M175.863 402.988C175.863 402.988 176.932 395.453 177.262 383.167C177.288 381.636 177.314 380.026 177.354 378.35C177.38 376.674 177.314 374.932 177.288 373.124C177.275 369.508 177.024 365.655 176.813 361.603C176.219 353.501 175.216 344.619 173.592 335.381C171.903 326.157 169.751 317.474 167.481 309.661C166.266 305.781 165.171 302.086 163.917 298.695C163.31 296.992 162.769 295.329 162.161 293.772C161.554 292.215 160.96 290.711 160.406 289.285C155.812 277.883 152.196 271.193 152.196 271.193C152.183 271.193 152.222 271.311 152.315 271.523C152.42 271.76 152.552 272.077 152.724 272.46C153.12 273.317 153.661 274.518 154.361 276.062C154.717 276.841 155.126 277.712 155.562 278.649C155.971 279.612 156.42 280.655 156.895 281.776C157.832 284.033 158.967 286.554 160.023 289.444C160.578 290.882 161.145 292.373 161.752 293.944C162.346 295.514 162.874 297.164 163.481 298.866C164.709 302.258 165.791 305.953 166.992 309.833C169.223 317.632 171.361 326.289 173.051 335.5C174.675 344.712 175.691 353.58 176.311 361.656C176.549 365.708 176.813 369.548 176.839 373.151C176.866 374.958 176.945 376.687 176.945 378.363C176.932 380.039 176.905 381.636 176.892 383.18C176.905 386.242 176.72 389.013 176.628 391.454C176.575 392.668 176.522 393.803 176.47 394.846C176.39 395.888 176.311 396.839 176.259 397.696C176.14 399.372 176.047 400.692 175.981 401.642C175.955 402.065 175.942 402.408 175.929 402.672C175.849 402.87 175.849 402.988 175.863 402.988Z" fill="#E7E7E7"/>
<path d="M151.232 280.536C153.78 289.101 157.014 297.414 161.079 305.227C162.175 307.338 163.838 309.714 166.016 309.384C167.521 309.16 168.643 307.589 168.973 305.94C169.303 304.29 168.986 302.574 168.59 300.938C167.006 294.366 164.194 288.256 161.396 282.212C160.419 280.087 159.363 277.87 157.581 276.537C155.799 275.204 153.067 275.125 151.747 277.012C151.747 277.012 150.573 278.332 151.232 280.536Z" fill="#E7E7E7"/>
<path d="M162.015 412.543C157.554 403.16 151.429 385.371 153.092 376.437C163.678 380.409 173.934 394.622 182.395 404.48C172.482 381.913 162.57 359.347 152.67 336.767C172.812 349.344 184.481 371.554 195.225 392.721C189.549 376.067 186.118 358.647 185.062 341.083C196.242 350.083 204.135 363.068 206.973 377.136C203.752 347.246 200.531 317.342 197.311 287.451C210.933 300.107 217.876 318.648 219.987 337.124C222.086 355.599 219.816 374.246 217.532 392.695C222.68 383.075 227.828 373.454 232.989 363.847C234.164 382.784 230.6 400.125 220.885 416.41L152.446 416.449C135.194 397.802 122.8 381.029 111.606 358.225C135.022 367.489 149.344 390.755 162.015 412.543Z" fill="#E7E7E7"/>
<path d="M209.93 408.716C209.944 408.716 209.97 408.61 210.01 408.412C210.049 408.175 210.115 407.871 210.181 407.502C210.326 406.644 210.524 405.469 210.775 403.965C210.894 403.186 211.039 402.342 211.184 401.405C211.303 400.468 211.435 399.438 211.58 398.356C211.844 396.166 212.201 393.671 212.412 390.9C212.531 389.514 212.663 388.063 212.795 386.545C212.927 385.028 212.966 383.457 213.059 381.821C213.283 378.561 213.296 375.064 213.362 371.382C213.362 364.018 213.045 355.929 212.201 347.483C211.316 339.037 209.983 331.04 208.492 323.834C207.686 320.245 206.947 316.827 206.076 313.673C205.654 312.089 205.284 310.558 204.849 309.094C204.413 307.642 203.991 306.243 203.595 304.91C202.829 302.231 201.971 299.869 201.271 297.771C200.915 296.728 200.585 295.752 200.268 294.854C199.938 293.97 199.622 293.165 199.344 292.439C198.79 291.027 198.354 289.906 198.051 289.101C197.906 288.744 197.787 288.467 197.694 288.243C197.615 288.045 197.562 287.952 197.549 287.952C197.536 287.952 197.562 288.058 197.628 288.256C197.708 288.493 197.8 288.784 197.919 289.14C198.209 289.958 198.605 291.08 199.107 292.518C199.371 293.257 199.661 294.062 199.978 294.947C200.268 295.844 200.585 296.821 200.928 297.876C201.601 299.975 202.433 302.35 203.159 305.029C203.542 306.362 203.951 307.761 204.373 309.212C204.796 310.664 205.152 312.208 205.561 313.792C206.419 316.946 207.119 320.364 207.911 323.94C209.363 331.132 210.669 339.103 211.567 347.536C212.399 355.968 212.742 364.032 212.768 371.369C212.715 375.038 212.715 378.522 212.517 381.794C212.438 383.431 212.399 385.001 212.28 386.519C212.161 388.023 212.042 389.475 211.937 390.86C211.765 393.632 211.422 396.126 211.197 398.317C211.079 399.412 210.96 400.428 210.854 401.378C210.722 402.315 210.603 403.16 210.498 403.938C210.3 405.443 210.128 406.631 210.023 407.488C209.983 407.871 209.944 408.175 209.917 408.412C209.93 408.597 209.93 408.716 209.93 408.716Z" fill="#E7E7E7"/>
<path d="M202.91 406.829C202.936 406.829 202.949 406.591 202.963 406.129C202.963 405.602 202.976 404.942 202.989 404.124C203.002 403.253 202.989 402.197 202.936 400.956C202.883 399.729 202.857 398.317 202.725 396.773C202.54 393.672 202.118 389.99 201.497 385.925C200.837 381.874 199.953 377.427 198.739 372.847C197.498 368.268 196.059 363.966 194.594 360.126C193.815 358.225 193.116 356.404 192.337 354.741C191.954 353.91 191.598 353.105 191.241 352.34C190.859 351.587 190.502 350.848 190.146 350.162C189.473 348.763 188.76 347.549 188.166 346.467C187.572 345.385 187.031 344.474 186.556 343.735C186.12 343.049 185.764 342.482 185.486 342.046C185.236 341.663 185.09 341.465 185.077 341.479C185.064 341.492 185.17 341.703 185.381 342.112C185.632 342.561 185.962 343.141 186.358 343.854C186.793 344.606 187.308 345.53 187.876 346.625C188.443 347.721 189.116 348.948 189.763 350.347C190.093 351.046 190.449 351.772 190.819 352.538C191.162 353.316 191.519 354.121 191.875 354.953C192.627 356.602 193.314 358.436 194.079 360.337C195.505 364.177 196.93 368.453 198.158 373.019C199.359 377.585 200.257 382.006 200.943 386.031C201.577 390.069 202.039 393.738 202.289 396.826C202.448 398.37 202.514 399.769 202.593 400.996C202.685 402.223 202.725 403.279 202.751 404.15C202.791 404.968 202.817 405.628 202.844 406.143C202.87 406.578 202.897 406.829 202.91 406.829Z" fill="#E7E7E7"/>
<path d="M153.066 337.453C153.053 337.466 153.211 337.704 153.541 338.126C153.911 338.601 154.399 339.208 154.993 339.987C156.274 341.584 158.095 343.933 160.286 346.862C162.477 349.792 164.985 353.355 167.665 357.393C170.318 361.445 173.116 365.971 175.862 370.828C178.581 375.711 180.996 380.448 183.082 384.816C185.128 389.198 186.87 393.196 188.23 396.601C189.602 399.992 190.658 402.764 191.358 404.691C191.701 405.601 191.978 406.34 192.189 406.908C192.387 407.409 192.493 407.673 192.519 407.66C192.533 407.66 192.467 407.383 192.308 406.868C192.123 406.301 191.886 405.548 191.582 404.625C190.962 402.671 189.959 399.874 188.639 396.456C187.332 393.025 185.616 389 183.597 384.592C181.537 380.197 179.135 375.433 176.403 370.537C173.644 365.655 170.833 361.128 168.153 357.09C165.447 353.065 162.9 349.515 160.656 346.612C158.425 343.695 156.551 341.399 155.218 339.842C154.584 339.103 154.069 338.509 153.673 338.06C153.277 337.651 153.079 337.44 153.066 337.453Z" fill="#E7E7E7"/>
<path d="M155.523 378.931C155.378 379.01 159.615 386.624 164.987 395.915C170.359 405.219 174.821 412.688 174.966 412.596C175.111 412.516 170.874 404.915 165.502 395.611C160.143 386.321 155.668 378.838 155.523 378.931Z" fill="#E7E7E7"/>
<path d="M113.906 362.699C113.774 362.804 122.987 374.589 134.484 389.026C145.98 403.463 155.405 415.077 155.537 414.984C155.669 414.879 146.456 403.094 134.946 388.657C123.462 374.219 114.024 362.593 113.906 362.699Z" fill="#E7E7E7"/>
<path d="M212.993 414.034C213.032 414.06 213.441 413.466 214.167 412.384C214.893 411.302 215.883 409.692 217.058 407.686C219.408 403.661 222.364 397.921 225.004 391.309C227.631 384.697 229.439 378.495 230.508 373.955C231.05 371.685 231.432 369.838 231.644 368.558C231.868 367.278 231.974 366.565 231.934 366.552C231.894 366.539 231.71 367.238 231.419 368.505C231.129 369.772 230.693 371.606 230.099 373.85C228.924 378.35 227.076 384.499 224.45 391.085C221.823 397.67 218.932 403.41 216.688 407.475C215.567 409.507 214.629 411.144 213.969 412.265C213.309 413.374 212.966 414.007 212.993 414.034Z" fill="#E7E7E7"/>
<path d="M497.916 621.473C497.916 626.039 474.553 629.734 445.738 629.734C416.924 629.734 393.561 626.039 393.561 621.473C393.561 616.907 416.924 613.212 445.738 613.212C474.553 613.212 497.916 616.907 497.916 621.473Z" fill="#E7E7E7"/>
<path d="M700.411 627.016C700.411 629.906 685.64 632.242 667.412 632.242C649.183 632.242 634.413 629.906 634.413 627.016C634.413 624.126 649.183 621.79 667.412 621.79C685.627 621.79 700.411 624.126 700.411 627.016Z" fill="#E7E7E7"/>
<path d="M839.256 635C857.48 635 872.254 632.66 872.254 629.774C872.254 626.888 857.48 624.548 839.256 624.548C821.031 624.548 806.257 626.888 806.257 629.774C806.257 632.66 821.031 635 839.256 635Z" fill="#E7E7E7"/>
<path d="M316.913 598.471C325.602 598.471 332.646 597.254 332.646 595.753C332.646 594.251 325.602 593.034 316.913 593.034C308.223 593.034 301.179 594.251 301.179 595.753C301.179 597.254 308.223 598.471 316.913 598.471Z" fill="#E7E7E7"/>
<path d="M290.288 608.342C295.58 608.342 299.871 607.143 299.871 605.664C299.871 604.184 295.58 602.985 290.288 602.985C284.995 602.985 280.705 604.184 280.705 605.664C280.705 607.143 284.995 608.342 290.288 608.342Z" fill="#E7E7E7"/>
<path d="M589.363 598.128C589.363 599.633 582.315 600.847 573.629 600.847C564.944 600.847 557.896 599.633 557.896 598.128C557.896 596.624 564.944 595.41 573.629 595.41C582.328 595.41 589.363 596.624 589.363 598.128Z" fill="#E7E7E7"/>
<path d="M950.869 608.382C950.869 609.887 943.82 611.101 935.135 611.101C926.45 611.101 919.401 609.887 919.401 608.382C919.401 606.878 926.45 605.664 935.135 605.664C943.82 605.664 950.869 606.878 950.869 608.382Z" fill="#E7E7E7"/>
<path d="M556.588 608.039C556.588 609.517 552.298 610.718 547.005 610.718C541.712 610.718 537.422 609.517 537.422 608.039C537.422 606.561 541.712 605.36 547.005 605.36C552.298 605.36 556.588 606.561 556.588 608.039Z" fill="#E7E7E7"/>
<path d="M275.188 622.199C275.188 624.416 263.876 626.198 249.924 626.198C235.972 626.198 224.66 624.403 224.66 622.199C224.66 619.982 235.972 618.2 249.924 618.2C263.876 618.2 275.188 619.982 275.188 622.199Z" fill="#E7E7E7"/>
<path d="M940.167 555.094C940.167 555.279 752.933 555.437 522.032 555.437C291.044 555.437 103.86 555.279 103.86 555.094C103.86 554.909 291.044 554.751 522.032 554.751C752.933 554.751 940.167 554.896 940.167 555.094Z" fill="#404040"/>
<path d="M1013.79 416.304C1013.79 416.488 807.154 416.647 552.311 416.647C297.376 416.647 90.791 416.488 90.791 416.304C90.791 416.119 297.389 415.96 552.311 415.96C807.154 415.96 1013.79 416.119 1013.79 416.304Z" fill="#404040"/>
<path d="M593.031 430.412C593.031 430.596 564.666 430.755 529.687 430.755C494.695 430.755 466.343 430.596 466.343 430.412C466.343 430.227 494.695 430.068 529.687 430.068C564.666 430.068 593.031 430.227 593.031 430.412Z" fill="#404040"/>
<path d="M652.707 444.492C652.707 444.677 624.342 444.835 589.363 444.835C554.371 444.835 526.019 444.677 526.019 444.492C526.019 444.307 554.371 444.149 589.363 444.149C624.342 444.149 652.707 444.294 652.707 444.492Z" fill="#404040"/>
<path d="M1086.68 496.54C1086.68 496.725 1037.92 496.883 977.784 496.883C917.63 496.883 868.889 496.725 868.889 496.54C868.889 496.355 917.63 496.197 977.784 496.197C1037.92 496.197 1086.68 496.342 1086.68 496.54Z" fill="#404040"/>
<path d="M1123.64 487.303C1123.64 487.488 1083.45 487.646 1033.88 487.646C984.3 487.646 944.126 487.488 944.126 487.303C944.126 487.118 984.3 486.959 1033.88 486.959C1083.45 486.959 1123.64 487.105 1123.64 487.303Z" fill="#404040"/>
<path d="M349.448 472.311C349.448 472.496 329.913 472.654 305.824 472.654C281.721 472.654 262.199 472.496 262.199 472.311C262.199 472.126 281.721 471.968 305.824 471.968C329.913 471.968 349.448 472.126 349.448 472.311Z" fill="#404040"/>
<path d="M838.516 544.048C838.516 544.233 757.853 544.392 658.356 544.392C558.831 544.392 478.183 544.233 478.183 544.048C478.183 543.863 558.831 543.705 658.356 543.705C757.84 543.705 838.516 543.85 838.516 544.048Z" fill="#404040"/>
<path d="M393.536 619.375L382.515 604.74L385.181 587.993L429.69 569.03L465.091 576.921L479.782 589.669L465.975 621.658L433.927 623.691L393.536 619.375Z" fill="#9F9F9F"/>
<path d="M382.515 604.74L429.307 614.717L433.055 623.69L393.536 619.375L382.515 604.74Z" fill="#E7E7E7"/>
<path d="M429.387 614.717C429.387 614.717 452.512 602.694 461.052 603.578L462.095 621.896L433.135 623.69L429.387 614.717Z" fill="#CFCFCF"/>
<path d="M462.014 621.896L460.972 603.579L479.781 589.669L465.974 621.658L462.014 621.896Z" fill="#E7E7E7"/>
<path d="M393.536 619.375C393.536 619.375 393.787 619.375 394.276 619.375L396.388 619.573L404.452 620.365L433.953 623.334L466.002 621.223L465.698 621.434C469.922 611.602 474.621 600.781 479.465 589.445L479.571 589.881L467.559 579.482L464.866 577.146L465.051 577.238L429.663 569.32H429.888L385.3 588.205L385.458 587.993C384.402 594.433 383.492 600.016 382.726 604.727V604.569L390.738 615.522L392.837 618.385L393.378 619.125C393.431 619.19 393.484 619.283 393.536 619.375C393.536 619.375 393.536 619.375 393.338 619.151L392.771 618.452L390.619 615.733L382.356 604.925V604.846V604.753C383.096 600.042 383.967 594.46 384.957 588.007V587.861H385.089L429.571 568.819H429.677H429.795L465.183 576.697H465.289V576.776L467.968 579.099L479.98 589.498L480.191 589.696L480.085 589.947L466.252 621.922L466.16 622.12H465.949L433.887 624.1L404.307 620.801L396.282 619.864L394.21 619.613C393.985 619.547 393.748 619.468 393.536 619.375Z" fill="#404040"/>
<path d="M160.433 51.4285C160.42 51.4813 159.535 51.1118 157.872 50.7423C156.209 50.3727 153.728 50.056 150.705 50.4651C147.709 50.861 144.158 52.0751 141.056 54.6221C137.954 57.1295 135.301 60.9301 134.245 65.4434C134.232 65.483 134.219 65.5226 134.219 65.5622L134.021 66.3408L133.73 65.6018C132.001 61.3128 128.912 57.9213 125.573 55.757C122.22 53.5532 118.617 52.6426 115.607 52.4314C112.585 52.2203 110.13 52.6558 108.493 53.0781C106.856 53.5136 105.985 53.8963 105.959 53.8435C105.945 53.8303 106.17 53.7247 106.579 53.54C106.988 53.3552 107.608 53.1177 108.44 52.8801C110.077 52.3918 112.558 51.8904 115.634 52.0619C118.696 52.2203 122.392 53.1177 125.837 55.3479C129.269 57.5386 132.437 61.0093 134.219 65.4038L133.717 65.4434C133.73 65.4038 133.743 65.3642 133.743 65.3246C134.839 60.6926 137.571 56.7995 140.766 54.2526C143.973 51.6528 147.616 50.4519 150.678 50.0956C153.754 49.7261 156.275 50.1088 157.938 50.5443C158.77 50.7555 159.403 50.9666 159.826 51.1382C160.222 51.3229 160.433 51.4153 160.433 51.4285Z" fill="#404040"/>
<path d="M232.058 16.0883C232.045 16.1279 231.556 15.9431 230.633 15.7584C229.722 15.5736 228.362 15.4153 226.712 15.6396C225.076 15.864 223.148 16.537 221.459 17.9358C219.769 19.3083 218.331 21.3802 217.763 23.8216L217.75 23.8876L217.552 24.6662L217.261 23.9272C216.324 21.5913 214.648 19.7438 212.826 18.5561C211.005 17.3552 209.038 16.8405 207.401 16.7217C205.751 16.5898 204.405 16.8141 203.508 17.0385C202.61 17.2628 202.122 17.4608 202.108 17.4212C202.095 17.408 202.214 17.342 202.438 17.2364C202.663 17.1308 203.006 16.9857 203.455 16.8537C204.352 16.5634 205.725 16.2863 207.428 16.3654C209.117 16.4446 211.176 16.9329 213.09 18.1602C215.004 19.3743 216.76 21.301 217.75 23.7424L217.248 23.782L217.261 23.716C217.869 21.1426 219.387 18.9784 221.168 17.5663C222.95 16.1279 224.983 15.4681 226.673 15.2833C228.375 15.0853 229.775 15.3097 230.685 15.5604C231.147 15.6792 231.49 15.8112 231.715 15.9167C231.952 16.0091 232.071 16.0751 232.058 16.0883Z" fill="#404040"/>
<path d="M185.219 0.000993079C185.245 0.0273865 184.731 0.568448 183.846 1.5582C182.962 2.56115 181.748 4.07878 180.48 6.09788C177.946 10.0965 175.399 16.4573 175.491 23.7551C175.491 23.8343 175.491 23.9135 175.491 23.9794L174.976 24.019C174.435 20.4559 173.247 17.1831 171.742 14.4514C170.251 11.7065 168.482 9.48944 166.819 7.81345C165.156 6.13747 163.651 4.94976 162.556 4.19755C161.473 3.44533 160.84 3.06263 160.866 3.02304C160.879 3.00984 161.038 3.08903 161.354 3.24739C161.658 3.41894 162.133 3.64329 162.674 4.02599C163.81 4.72542 165.367 5.87353 167.083 7.54952C168.799 9.2123 170.62 11.4426 172.165 14.2139C173.709 16.972 174.937 20.2976 175.491 23.9398L174.976 23.9794C174.976 23.9135 174.976 23.8343 174.976 23.7551C174.884 16.3253 177.537 9.87214 180.177 5.88673C181.497 3.86763 182.764 2.3764 183.701 1.41304C184.15 0.911567 184.559 0.581649 184.81 0.330911C185.061 0.106567 185.206 -0.0122036 185.219 0.000993079Z" fill="#404040"/>
<path d="M559.61 400.982C559.597 400.982 559.597 400.85 559.61 400.573C559.624 400.27 559.65 399.874 559.676 399.399C559.756 398.316 559.861 396.799 560.006 394.859C560.086 393.869 560.165 392.774 560.257 391.586C560.31 390.385 560.376 389.079 560.429 387.68C560.534 384.882 560.746 381.689 560.732 378.165C560.746 376.397 560.772 374.549 560.785 372.636C560.798 370.709 560.706 368.703 560.666 366.631C560.627 362.487 560.323 358.066 560.059 353.408C559.346 344.117 558.172 333.916 556.311 323.333C554.37 312.749 551.915 302.785 549.354 293.825C547.982 289.364 546.741 285.115 545.329 281.222C544.642 279.269 544.035 277.355 543.349 275.56C542.662 273.766 542.002 272.037 541.369 270.387C540.154 267.075 538.848 264.158 537.765 261.572C537.224 260.279 536.709 259.091 536.234 257.982C535.733 256.9 535.271 255.897 534.861 255C534.056 253.232 533.423 251.846 532.974 250.869C532.776 250.421 532.617 250.064 532.499 249.787C532.393 249.536 532.354 249.418 532.354 249.405C532.354 249.405 536.525 257.098 541.804 270.216C542.451 271.865 543.124 273.581 543.824 275.376C544.523 277.17 545.144 279.084 545.843 281.037C547.282 284.943 548.549 289.193 549.948 293.653C552.562 302.627 555.03 312.604 556.984 323.227C558.858 333.85 560.02 344.065 560.693 353.382C560.944 358.053 561.234 362.474 561.247 366.631C561.274 368.703 561.353 370.709 561.326 372.636C561.287 374.562 561.26 376.41 561.221 378.178C560.838 392.325 559.61 400.982 559.61 400.982Z" fill="#CFCFCF"/>
<path d="M489.506 224.674C489.519 224.661 489.625 224.78 489.836 225.017C490.074 225.281 490.377 225.637 490.76 226.073C491.565 227.01 492.766 228.382 494.205 230.23C497.135 233.885 501.227 239.336 505.689 246.435C510.163 253.535 514.994 262.311 519.509 272.446C524.062 282.568 528.233 294.062 531.731 306.375C538.727 331.04 541.829 354.108 543.611 370.762C544.06 374.932 544.416 378.706 544.865 381.992C545.314 385.291 545.855 388.102 546.422 390.372C546.99 392.642 547.557 394.371 547.967 395.532C548.165 396.086 548.336 396.522 548.455 396.852C548.561 397.155 548.613 397.3 548.6 397.314C548.6 397.314 547.373 395.004 546.158 390.451C545.538 388.182 544.97 385.357 544.482 382.071C543.994 378.772 543.598 374.998 543.122 370.841C541.209 354.213 538.041 331.198 531.058 306.586C527.56 294.3 523.429 282.832 518.928 272.723C514.453 262.601 509.688 253.826 505.266 246.713C500.871 239.586 496.858 234.11 493.994 230.415C492.582 228.541 491.42 227.155 490.655 226.179C490.285 225.717 490.008 225.347 489.783 225.083C489.585 224.806 489.493 224.674 489.506 224.674Z" fill="#CFCFCF"/>
<path d="M532.592 258.431C535.522 268.276 539.244 277.844 543.917 286.831C545.184 289.259 547.085 291.991 549.593 291.608C551.322 291.344 552.615 289.549 552.985 287.649C553.354 285.748 552.998 283.769 552.549 281.895C550.741 274.333 547.494 267.313 544.286 260.358C543.151 257.917 541.95 255.37 539.904 253.826C537.858 252.295 534.717 252.189 533.199 254.367C533.186 254.38 531.839 255.911 532.592 258.431Z" fill="#FFA866"/>
<path d="M491.488 234.242C496.148 243.4 501.52 252.15 507.724 260.147C509.4 262.311 511.763 264.647 514.165 263.829C515.815 263.262 516.765 261.269 516.805 259.329C516.831 257.389 516.119 255.515 515.34 253.747C512.198 246.634 507.75 240.312 503.341 234.044C501.797 231.84 500.147 229.557 497.85 228.409C495.567 227.261 492.452 227.736 491.356 230.151C491.356 230.151 490.3 231.893 491.488 234.242Z" fill="#FFA866"/>
<path d="M525.978 411.804C520.843 401.009 513.808 380.554 515.709 370.287C527.879 374.853 539.679 391.203 549.394 402.526C538.003 376.568 526.598 350.624 515.207 324.666C538.372 339.129 551.796 364.665 564.151 389C557.617 369.851 553.684 349.819 552.469 329.628C565.326 339.974 574.407 354.912 577.654 371.092C573.958 336.714 570.249 302.337 566.553 267.959C582.221 282.502 590.207 303.841 592.622 325.075C595.038 346.308 592.424 367.766 589.798 388.986C595.724 377.928 601.638 366.869 607.564 355.81C608.91 377.584 604.819 397.525 593.639 416.251L514.943 416.29C495.104 394.846 480.862 375.565 467.979 349.343C494.946 360.006 511.419 386.756 525.978 411.804Z" fill="#404040"/>
<path d="M581.085 407.409C581.072 407.409 581.085 407.277 581.111 407.039C581.151 406.762 581.19 406.406 581.243 405.971C581.375 404.981 581.56 403.622 581.798 401.893C581.93 401.009 582.062 400.019 582.22 398.95C582.339 397.868 582.471 396.693 582.616 395.44C582.88 392.919 583.263 390.055 583.461 386.862C583.58 385.265 583.711 383.602 583.857 381.86C583.989 380.118 584.028 378.31 584.121 376.436C584.345 372.688 584.345 368.677 584.411 364.454C584.371 356.008 583.989 346.73 583.025 337.044C582.009 327.358 580.504 318.186 578.828 309.912C577.917 305.794 577.099 301.862 576.122 298.232C575.647 296.411 575.237 294.643 574.762 292.98C574.274 291.304 573.812 289.707 573.363 288.163C572.518 285.089 571.568 282.357 570.789 279.942C570.393 278.741 570.037 277.619 569.694 276.577C569.324 275.56 568.994 274.624 568.69 273.779C568.11 272.129 567.648 270.836 567.318 269.899C567.173 269.49 567.067 269.147 566.975 268.883C566.895 268.659 566.869 268.527 566.882 268.527C566.895 268.527 566.948 268.632 567.041 268.857C567.146 269.12 567.278 269.437 567.45 269.846C567.806 270.77 568.308 272.05 568.941 273.687C569.258 274.531 569.614 275.455 569.997 276.471C570.354 277.5 570.736 278.622 571.146 279.823C571.951 282.238 572.941 284.957 573.812 288.031C574.274 289.562 574.749 291.172 575.251 292.848C575.739 294.524 576.175 296.293 576.65 298.114C577.653 301.743 578.498 305.675 579.422 309.806C581.124 318.094 582.656 327.278 583.685 336.991C584.649 346.717 585.018 356.021 585.018 364.48C584.939 368.716 584.913 372.728 584.662 376.489C584.556 378.363 584.49 380.184 584.345 381.926C584.2 383.668 584.055 385.331 583.909 386.928C583.672 390.121 583.263 392.985 582.959 395.506C582.801 396.759 582.642 397.934 582.51 399.016C582.339 400.085 582.18 401.061 582.035 401.959C581.745 403.687 581.52 405.047 581.349 406.023C581.27 406.459 581.204 406.802 581.151 407.079C581.124 407.29 581.098 407.409 581.085 407.409Z" fill="#CFCFCF"/>
<path d="M573.008 405.232C572.981 405.232 572.955 404.954 572.928 404.427C572.902 403.833 572.862 403.067 572.823 402.13C572.796 401.127 572.744 399.913 572.638 398.501C572.546 397.089 572.48 395.479 572.295 393.711C572.018 390.161 571.49 385.951 570.751 381.293C569.959 376.647 568.929 371.58 567.543 366.328C566.131 361.075 564.507 356.166 562.857 351.758C561.986 349.568 561.194 347.483 560.323 345.569C559.901 344.619 559.491 343.682 559.095 342.798C558.673 341.927 558.277 341.082 557.881 340.277C557.129 338.654 556.363 337.242 555.703 335.988C555.056 334.721 554.462 333.666 553.961 332.808C553.499 331.99 553.129 331.33 552.839 330.802C552.588 330.34 552.469 330.089 552.482 330.076C552.509 330.063 552.667 330.287 552.958 330.723C553.274 331.224 553.684 331.871 554.185 332.663C554.726 333.507 555.36 334.55 556.033 335.804C556.719 337.044 557.538 338.443 558.303 340.053C558.699 340.858 559.122 341.689 559.557 342.56C559.967 343.445 560.389 344.368 560.824 345.332C561.722 347.232 562.527 349.33 563.425 351.521C565.114 355.942 566.764 360.877 568.19 366.143C569.576 371.422 570.605 376.529 571.358 381.187C572.057 385.859 572.546 390.095 572.757 393.658C572.915 395.44 572.955 397.05 573.008 398.475C573.074 399.887 573.087 401.114 573.074 402.117C573.06 403.054 573.06 403.82 573.047 404.413C573.047 404.954 573.034 405.232 573.008 405.232Z" fill="#CFCFCF"/>
<path d="M515.683 325.471C515.696 325.458 515.921 325.695 516.343 326.157C516.792 326.672 517.386 327.358 518.125 328.216C519.67 329.997 521.821 332.65 524.382 336.002C526.956 339.34 529.886 343.418 533.001 348.05C536.076 352.696 539.324 357.908 542.491 363.517C545.633 369.139 548.392 374.629 550.768 379.67C553.104 384.737 555.057 389.369 556.575 393.302C558.093 397.235 559.242 400.455 559.968 402.698C560.311 403.767 560.588 404.625 560.799 405.285C560.984 405.878 561.063 406.195 561.05 406.195C561.024 406.208 560.905 405.905 560.68 405.324C560.443 404.677 560.126 403.833 559.73 402.777C558.938 400.56 557.71 397.38 556.14 393.473C554.569 389.567 552.576 384.962 550.213 379.934C547.824 374.906 545.052 369.455 541.911 363.847C538.756 358.251 535.535 353.052 532.486 348.393C529.411 343.761 526.52 339.657 523.999 336.279C521.491 332.9 519.406 330.208 517.914 328.374C517.214 327.49 516.66 326.777 516.238 326.236C515.855 325.748 515.67 325.484 515.683 325.471Z" fill="#CFCFCF"/>
<path d="M518.52 373.164C518.679 373.071 523.827 381.663 529.991 392.352C536.168 403.041 541.039 411.791 540.867 411.883C540.709 411.975 535.561 403.384 529.384 392.695C523.233 381.992 518.362 373.256 518.52 373.164Z" fill="#CFCFCF"/>
<path d="M470.66 354.503C470.805 354.385 481.642 367.753 494.868 384.341C508.094 400.943 518.693 414.496 518.535 414.615C518.389 414.733 507.553 401.378 494.327 384.777C481.101 368.175 470.502 354.622 470.66 354.503Z" fill="#CFCFCF"/>
<path d="M584.61 413.519C584.571 413.493 584.967 412.767 585.732 411.474C586.498 410.194 587.567 408.307 588.86 405.971C591.447 401.299 594.761 394.688 597.783 387.126C600.793 379.551 602.931 372.478 604.277 367.304C604.951 364.718 605.465 362.62 605.795 361.155C606.138 359.703 606.35 358.898 606.389 358.911C606.442 358.924 606.31 359.743 606.059 361.221C605.809 362.699 605.373 364.823 604.753 367.423C603.525 372.636 601.453 379.775 598.417 387.377C595.381 394.978 591.975 401.576 589.283 406.208C587.936 408.531 586.788 410.365 585.956 411.619C585.125 412.873 584.65 413.546 584.61 413.519Z" fill="#CFCFCF"/>
<path d="M169.672 454.165C169.685 454.165 169.751 454.297 169.883 454.561C170.028 454.865 170.213 455.261 170.437 455.762C170.939 456.857 171.639 458.401 172.523 460.381C174.318 464.406 176.852 470.252 179.888 477.524C185.986 492.04 194.051 512.257 202.618 534.705C211.171 557.166 218.616 577.621 223.803 592.493C226.403 599.923 228.436 605.967 229.822 610.151C230.482 612.209 231.01 613.832 231.38 614.981C231.538 615.508 231.67 615.918 231.762 616.247C231.842 616.538 231.881 616.683 231.868 616.683C231.855 616.683 231.802 616.551 231.696 616.274C231.578 615.957 231.432 615.548 231.248 615.033C230.852 613.898 230.284 612.302 229.571 610.256C228.093 606.06 225.968 600.068 223.354 592.678C218.061 577.845 210.538 557.43 201.984 534.982C193.418 512.534 185.419 492.304 179.44 477.748C176.47 470.463 173.988 464.591 172.285 460.526C171.441 458.533 170.781 456.963 170.319 455.854C170.108 455.34 169.949 454.944 169.817 454.627C169.712 454.324 169.659 454.178 169.672 454.165Z" fill="#CFCFCF"/>
<path d="M188.019 496.791L186.514 497.411C183.716 498.559 180.508 497.226 179.347 494.415L168.246 467.362C167.098 464.551 168.431 461.357 171.242 460.196L172.747 459.576C175.558 458.428 178.753 459.761 179.914 462.572L191.015 489.625C192.163 492.436 190.817 495.643 188.019 496.791Z" fill="#FFA866"/>
<path d="M225.598 423.034C225.611 423.034 225.638 423.206 225.691 423.522C225.743 423.879 225.796 424.367 225.875 424.974C226.034 426.294 226.258 428.181 226.535 430.583C227.037 435.465 227.658 442.539 228.212 451.288C229.361 468.787 230.166 493.016 230.733 519.766C231.261 546.529 231.473 570.745 231.658 588.284C231.75 597.02 231.816 604.106 231.869 609.042C231.895 611.457 231.908 613.357 231.922 614.69C231.922 615.31 231.922 615.799 231.922 616.155C231.922 616.485 231.908 616.657 231.895 616.657C231.882 616.657 231.869 616.485 231.856 616.155C231.842 615.786 231.816 615.31 231.79 614.69C231.75 613.357 231.684 611.47 231.605 609.042C231.499 604.106 231.354 597.02 231.169 588.284C230.879 570.719 230.483 546.516 230.047 519.766C229.479 493.016 228.753 468.814 227.737 451.315C227.248 442.565 226.707 435.492 226.285 430.609C226.06 428.194 225.875 426.307 225.757 424.987C225.704 424.367 225.664 423.892 225.638 423.522C225.585 423.206 225.585 423.034 225.598 423.034Z" fill="#CFCFCF"/>
<path d="M230.693 469.157L229.07 469.302C226.047 469.579 223.381 467.362 223.09 464.34L220.371 435.228C220.094 432.206 222.311 429.54 225.321 429.25L226.944 429.105C229.967 428.828 232.633 431.045 232.924 434.053L235.643 463.165C235.933 466.201 233.716 468.866 230.693 469.157Z" fill="#FFA866"/>
<path d="M236.87 609.913C241.675 589.828 242.928 568.911 240.553 548.403C230.349 565.902 225.505 586.476 226.812 606.68C218.523 594.288 207.567 581.976 192.85 579.574C206.049 591.174 216.635 606.35 225.598 621.473H244.816C248.697 611.655 252.577 601.823 256.458 592.005C248.287 595.753 241.331 602.114 236.87 609.913Z" fill="#404040"/>
<path d="M802.138 444.836C801.821 445.905 807.735 483.212 814.889 496.883C822.043 510.555 836.655 526.418 840.073 526.418C843.492 526.418 849.894 531.142 849.894 531.142L884.265 516.824L879.87 508.391C879.87 508.391 882.985 500.935 876.451 491.922C869.918 482.908 859.358 479.173 859.041 473.275C858.724 467.376 860.282 455.908 861.523 444.849C862.763 433.803 861.839 405.206 862.46 403.028C863.08 400.851 806.19 407.383 806.19 407.383L802.138 444.836Z" fill="#404040"/>
<path d="M806.125 468.035L812.078 455.881L838.266 432.351L802.878 451.117L806.125 468.035Z" fill="#101010"/>
<path d="M781.957 367.239C780.359 369.627 716.751 447.541 715.154 458.679C713.57 469.803 701.638 478.553 709.584 507.177C709.584 507.177 706.112 514.91 706.878 520.822C707.643 526.734 709.188 527.975 708.871 530.456C708.554 532.937 710.112 540.089 710.112 540.089C710.112 540.089 752.086 542.267 752.086 540.089C752.086 537.912 753.327 530.759 753.327 530.759C753.327 530.759 762.659 522.366 759.861 517.087C757.062 511.809 750.225 505.276 753.327 501.542C756.442 497.807 762.025 498.744 763.583 495.946C765.14 493.148 762.342 490.034 765.14 487.553C767.939 485.072 777.891 485.072 779.435 481.958C780.993 478.843 789.691 465.171 793.427 461.133C797.162 457.095 803.379 454.139 803.379 454.139C803.379 454.139 834.055 437.551 841.618 425.7C847.466 416.528 871.462 403.635 877.996 389.95C884.53 376.278 889.189 351.719 889.189 351.719L785.349 348.605L781.957 367.239Z" fill="#404040"/>
<path d="M704.043 533.951C708.082 558.141 713.309 580.456 711.434 603.036C711.434 603.036 712.121 606.599 702.221 609.951C691.596 613.554 680.482 617.249 682.145 626.579L747.839 626.526L754.597 535.891L704.043 533.951Z" fill="#0064C8"/>
<path d="M682.145 626.582V623.083H748.089L747.825 626.516L682.145 626.582Z" fill="#0064C8"/>
<path d="M840.362 529.812C852.73 550.993 865.547 569.996 871.803 591.784C871.803 591.784 872.49 594.661 864.438 601.312C855.779 608.451 846.711 615.855 851.582 623.984L914.187 600.824L888.316 513.699L840.362 529.812Z" fill="#0064C8"/>
<path d="M851.572 623.968L850.331 620.708L913.187 597.509L914.164 600.808L851.572 623.968Z" fill="#0064C8"/>
<path d="M848.958 421.213C848.998 421.253 848.456 421.82 847.48 422.823C846.503 423.839 845.025 425.251 843.177 426.954C839.481 430.372 834.161 434.898 827.944 439.438C821.727 443.964 815.788 447.646 811.405 450.127C809.214 451.368 807.419 452.331 806.152 452.964C804.898 453.598 804.185 453.928 804.159 453.888C804.133 453.849 804.806 453.44 806.02 452.727C807.248 452.028 809.003 450.998 811.155 449.705C815.471 447.132 821.331 443.397 827.535 438.884C833.726 434.357 839.072 429.923 842.847 426.597C844.734 424.935 846.252 423.575 847.295 422.625C848.338 421.688 848.932 421.187 848.958 421.213Z" fill="#404040"/>
<path d="M748.999 496.91C748.999 496.963 748.485 497.055 747.561 497.187C746.623 497.319 745.277 497.49 743.601 497.675C741.872 497.86 739.892 498.071 737.714 498.309C736.605 498.427 735.443 498.546 734.242 498.665C733.067 498.823 731.655 498.731 730.942 499.523C730.586 499.932 730.494 500.473 730.797 500.816C731.101 501.186 731.682 501.37 732.262 501.568C733.397 501.964 734.506 502.347 735.562 502.716C737.621 503.455 739.496 504.115 741.146 504.709C742.729 505.29 744.01 505.765 744.881 506.108C745.765 506.451 746.241 506.662 746.227 506.715C746.214 506.755 745.699 506.636 744.802 506.372C743.891 506.108 742.598 505.699 740.987 505.184C739.337 504.643 737.437 504.023 735.364 503.337C734.308 502.98 733.199 502.611 732.051 502.228C731.497 502.03 730.81 501.885 730.282 501.278C730.032 500.974 729.886 500.539 729.952 500.13C730.005 499.734 730.19 499.378 730.441 499.087C730.969 498.493 731.708 498.295 732.342 498.203C732.988 498.111 733.595 498.071 734.203 498.018C735.404 497.913 736.565 497.807 737.687 497.702C739.865 497.517 741.858 497.358 743.588 497.213C745.264 497.081 746.623 496.989 747.574 496.936C748.471 496.87 748.986 496.87 748.999 496.91Z" fill="#404040"/>
<path d="M750.306 477.379C750.306 477.431 750.056 477.431 749.712 477.616C749.382 477.814 749 478.276 748.894 478.975C748.762 479.662 749.079 480.453 749.792 481.087C750.491 481.733 751.481 482.195 752.524 482.723C756.695 484.742 760.219 486.154 760.14 486.366C760.1 486.458 759.19 486.194 757.751 485.666C756.312 485.151 754.332 484.373 752.22 483.343C751.178 482.816 750.135 482.314 749.356 481.549C748.973 481.179 748.657 480.731 748.485 480.255C748.3 479.767 748.313 479.279 748.406 478.87C748.604 478.038 749.145 477.524 749.594 477.365C750.056 477.233 750.306 477.339 750.306 477.379Z" fill="#404040"/>
<path d="M876.281 508.127C876.4 508.259 873.549 510.911 869.404 513.3C865.272 515.715 861.55 516.863 861.497 516.704C861.418 516.507 864.982 515.081 869.061 512.706C873.139 510.357 876.149 507.968 876.281 508.127Z" fill="#404040"/>
<path d="M753.645 536.171C753.645 536.224 752.945 536.197 751.705 536.131C750.332 536.039 748.563 535.92 746.451 535.788C742.016 535.484 735.879 535.101 729.107 534.811C722.323 534.507 716.185 534.362 711.737 534.27C709.612 534.217 707.843 534.177 706.47 534.151C705.229 534.111 704.543 534.072 704.543 534.019C704.543 533.966 705.229 533.927 706.47 533.874C707.711 533.821 709.519 533.795 711.737 533.781C716.185 533.755 722.336 533.834 729.134 534.125C735.918 534.428 742.056 534.89 746.491 535.313C748.708 535.524 750.504 535.722 751.731 535.88C752.959 536.012 753.645 536.118 753.645 536.171Z" fill="#404040"/>
<path d="M887.37 513.933C887.383 513.973 886.763 514.276 885.627 514.791C884.492 515.306 882.829 516.018 880.757 516.863C876.625 518.552 870.87 520.769 864.416 522.973C857.975 525.177 852.061 526.958 847.758 528.159C845.607 528.753 843.864 529.215 842.65 529.505C841.436 529.796 840.762 529.941 840.749 529.901C840.736 529.862 841.383 529.624 842.584 529.255C843.904 528.845 845.593 528.331 847.626 527.697C851.89 526.391 857.763 524.53 864.192 522.326C870.62 520.122 876.401 517.985 880.572 516.414C882.565 515.662 884.228 515.042 885.509 514.553C886.697 514.118 887.343 513.894 887.37 513.933Z" fill="#404040"/>
<path d="M760.139 394.794C760.139 394.794 825.806 426.875 862.197 427.97L861.484 421.227L761.274 390.491L760.139 394.794Z" fill="#101010"/>
<path d="M744.774 276.181C744.774 276.181 737.976 262.18 735.02 259.976C732.063 257.772 720.804 254.024 717.213 252.229C713.623 250.434 712.132 253.338 714.125 256.69C714.64 257.547 715.603 258.498 716.751 259.435C711.815 258.894 705.69 258.458 704.582 259.171C704.582 259.171 699.5 263.024 703.156 266.812C705.176 268.91 707.723 268.527 708.99 268.488C709.109 268.567 709.241 268.62 709.373 268.685C708.621 269.095 708.079 269.57 707.947 270.137C707.947 270.137 707.776 274.36 713.188 276.221C713.188 276.221 711.432 278.992 717.015 280.866C717.015 280.866 715.616 285.96 721.358 285.881C723.576 285.854 725.226 285.049 726.414 284.007C726.44 284.02 726.466 284.033 726.506 284.046C734.122 286.541 737.184 286.382 737.184 286.382L743.507 277.54L744.774 276.181Z" fill="#FFBF9D"/>
<path d="M735.086 290.223L741.686 270.177L782.353 286.409L809.861 269.913L834.095 287.794C834.095 287.794 792.543 327.886 785.917 328.176C779.278 328.467 761.683 322.7 760.812 322.99C759.941 323.267 735.086 290.223 735.086 290.223Z" fill="#0064C8"/>
<path d="M399.292 101.865C399.292 101.865 399.582 101.773 400.176 101.628C400.784 101.483 401.655 101.271 402.79 101.007C405.113 100.466 408.505 99.6746 412.874 98.6584C421.678 96.6393 434.429 93.7229 450.295 90.0806H450.321H450.348C465.58 90.3709 483.993 90.7272 504.505 91.1231H504.558L504.611 91.1495C520.028 97.4707 537.042 104.439 554.914 111.776L554.954 111.789L554.98 111.816C561.355 116.316 568.061 121.04 574.885 125.844C588.335 135.345 601.389 144.543 613.744 153.266L613.77 153.293L613.797 153.319C632.619 174.368 649.594 193.371 663.546 208.97L663.585 209.009L663.599 209.062C668.905 227.736 673.208 242.885 676.191 253.39C677.656 258.629 678.804 262.694 679.583 265.478C679.966 266.851 680.243 267.906 680.454 268.632C680.639 269.345 680.732 269.714 680.732 269.714C680.732 269.714 680.599 269.358 680.388 268.659C680.177 267.933 679.86 266.89 679.451 265.531C678.633 262.747 677.445 258.695 675.927 253.482C672.891 242.991 668.509 227.868 663.11 209.221L663.163 209.326C649.185 193.754 632.171 174.79 613.308 153.768L613.361 153.821C600.993 145.098 587.939 135.9 574.489 126.411C567.678 121.608 560.959 116.87 554.584 112.37L554.65 112.409C536.778 105.059 519.777 98.0646 504.36 91.7302L504.466 91.7566C483.967 91.3079 465.54 90.8988 450.308 90.5688H450.361C434.482 94.1188 421.705 96.9693 412.887 98.9356C408.505 99.8989 405.1 100.651 402.763 101.166C401.628 101.403 400.744 101.601 400.137 101.72C399.596 101.812 399.292 101.865 399.292 101.865Z" fill="#404040"/>
<path d="M662.805 250.803C662.805 250.803 661.419 245.604 668.058 242.028C674.698 238.464 679.634 243.611 679.634 243.611L662.805 250.803Z" fill="#404040"/>
<path d="M664.613 248.56C664.785 248.494 668.098 255.634 668.098 255.634L679.054 249.919L676.387 243.532L664.613 248.56Z" fill="#404040"/>
<path d="M681.706 247.927L664.956 256.016L674.605 274.32L690.537 265.478L681.706 247.927Z" fill="#404040"/>
<path d="M682.511 273.04C682.511 273.04 677.68 272.934 677.653 276.009C677.627 279.084 682.656 278.82 688.424 279.955C694.192 281.09 702.27 282.41 710.665 289.734L713.398 285.168C713.384 285.168 694.958 270.863 682.511 273.04Z" fill="#404040"/>
<path d="M681.693 277.184C681.693 277.184 680.452 281.446 685.534 283.505C690.616 285.564 693.044 282.225 694.443 279.704C695.856 277.171 696.727 271.707 698.403 268.909C700.08 266.112 699.868 261.73 703.3 257.811C706.745 253.878 712.025 252.691 712.025 252.691L710.019 248.771C710.019 248.771 702.627 251.859 699.182 256.32C695.737 260.78 695.605 262.667 693.427 264.304C691.249 265.94 687.131 263.367 687.131 263.367C687.131 263.367 677.377 271.681 677.416 271.694C677.456 271.707 681.693 277.184 681.693 277.184Z" fill="#404040"/>
<path d="M777.878 343.339C777.878 343.339 699.038 227.894 678.499 200.999C650.411 164.22 621.636 130.938 566.172 99.9124C566.172 99.9124 524.197 80.1569 495.805 79.2727C495.805 79.2727 441.912 73.9676 399.026 95.8214L399.964 98.2496C441.186 76.7258 494.498 82.5719 494.498 82.5719C521.887 84.8549 560.126 104.043 560.126 104.043C612.066 129.777 643.798 169.697 672.454 206.04C688.465 226.35 771.094 354.768 771.094 354.768" fill="#404040"/>
<path d="M401.166 101.298C400.982 101.351 400.559 100.361 400.216 99.0945C399.873 97.8276 399.741 96.7586 399.925 96.7191C400.11 96.6663 400.533 97.656 400.876 98.9229C401.219 100.19 401.338 101.246 401.166 101.298Z" fill="#404040"/>
<path d="M450.347 91.8225C450.163 91.8225 450.044 89.3416 450.097 86.2799C450.149 83.2183 450.347 80.7505 450.532 80.7505C450.717 80.7505 450.836 83.2315 450.783 86.2931C450.743 89.3548 450.545 91.8225 450.347 91.8225Z" fill="#404040"/>
<path d="M504.135 92.575C503.95 92.5222 504.478 90.3712 505.309 87.7978C506.141 85.2112 506.96 83.1657 507.131 83.2185C507.316 83.2713 506.788 85.4224 505.956 87.9957C505.138 90.5955 504.319 92.641 504.135 92.575Z" fill="#404040"/>
<path d="M554.807 112.713C554.661 112.621 556.14 110.206 558.582 107.738C561.011 105.257 563.387 103.74 563.493 103.885C563.612 104.043 561.46 105.785 559.071 108.227C556.668 110.642 554.965 112.832 554.807 112.713Z" fill="#404040"/>
<path d="M622.733 145.665C622.852 145.811 620.714 147.764 617.968 150.02C615.209 152.277 612.886 153.993 612.767 153.847C612.649 153.702 614.787 151.749 617.532 149.492C620.278 147.223 622.601 145.52 622.733 145.665Z" fill="#404040"/>
<path d="M672.612 201.752C672.771 201.91 670.659 203.982 667.834 206.265C665.023 208.548 662.62 210.25 662.502 210.105C662.383 209.96 664.587 208.02 667.399 205.737C670.21 203.454 672.494 201.633 672.612 201.752Z" fill="#404040"/>
<path d="M395.49 100.77C395.49 100.77 395.081 100.981 394.289 101.351C393.471 101.734 392.283 102.275 390.738 102.987C389.154 103.674 387.267 104.663 385.023 105.798C382.753 106.894 380.245 108.345 377.38 109.929C371.731 113.215 364.947 117.464 357.555 123.086C350.176 128.708 342.191 135.689 334.245 144.253C330.232 148.49 326.338 153.227 322.457 158.268C318.643 163.376 314.894 168.852 311.383 174.751C307.872 180.637 304.533 186.971 302.566 193.992C301.602 197.502 301.008 201.171 301.035 204.906C301.087 208.627 301.774 212.415 303.173 215.964C304.585 219.501 306.71 222.866 309.667 225.427C311.145 226.693 312.769 227.815 314.591 228.607C315.462 229.082 316.438 229.32 317.349 229.676C318.313 229.9 319.263 230.204 320.253 230.336C324.2 230.956 328.318 230.639 332.291 229.649C336.277 228.686 340.171 227.195 343.946 225.374C347.734 223.579 351.377 221.402 355.073 219.264C358.743 217.073 362.425 214.843 366.135 212.56C373.539 208.02 381.05 203.375 388.904 199.112C396.757 194.863 404.796 191.102 413.112 188.423C421.414 185.731 429.994 184.345 438.455 184.358C442.692 184.411 446.876 185.018 450.888 186.113C454.888 187.222 458.755 188.819 462.134 191.141C465.5 193.438 468.457 196.381 470.437 199.878C472.417 203.375 473.46 207.321 473.526 211.227C473.618 215.146 472.813 219 471.4 222.523C469.988 226.06 468.021 229.293 465.672 232.144C460.973 237.897 454.571 241.672 448.13 244.06C441.636 246.449 434.983 247.531 428.621 248.033C422.232 248.534 416.095 248.402 410.247 248.244C398.566 247.848 387.953 247.505 378.766 248.89C369.58 250.184 362.016 253.245 356.525 256.742C350.995 260.226 347.602 264.146 345.623 266.93C344.685 268.369 343.986 269.477 343.603 270.269C343.194 271.048 342.956 271.444 342.956 271.444C342.956 271.444 343.141 271.034 343.537 270.243C343.907 269.438 344.58 268.303 345.504 266.851C347.444 264.027 350.823 260.055 356.367 256.518C361.871 252.968 369.461 249.854 378.7 248.508C387.927 247.082 398.579 247.399 410.247 247.755C416.095 247.901 422.219 248.006 428.568 247.491C434.904 246.977 441.504 245.895 447.919 243.506C454.307 241.131 460.59 237.409 465.197 231.735C467.507 228.937 469.447 225.743 470.82 222.273C472.206 218.815 472.984 215.041 472.892 211.214C472.813 207.4 471.81 203.56 469.869 200.168C467.942 196.763 465.065 193.9 461.765 191.656C458.452 189.386 454.663 187.816 450.717 186.721C446.757 185.638 442.626 185.045 438.441 184.992C430.073 184.979 421.546 186.364 413.31 189.03C405.06 191.683 397.048 195.43 389.22 199.667C381.38 203.916 373.883 208.548 366.478 213.088C362.782 215.357 359.086 217.601 355.403 219.792C351.707 221.943 348.051 224.12 344.223 225.928C340.422 227.762 336.488 229.267 332.436 230.243C328.397 231.246 324.2 231.563 320.148 230.93C319.131 230.798 318.141 230.494 317.151 230.257C316.201 229.874 315.198 229.636 314.313 229.148C312.452 228.33 310.763 227.182 309.245 225.862C306.196 223.223 304.031 219.765 302.592 216.149C301.153 212.507 300.467 208.653 300.414 204.853C300.401 201.039 301.008 197.318 301.985 193.768C303.978 186.655 307.357 180.294 310.895 174.395C314.419 168.483 318.194 162.993 322.035 157.886C325.942 152.831 329.862 148.094 333.901 143.858C341.9 135.293 349.912 128.325 357.33 122.716C364.762 117.108 371.586 112.885 377.262 109.638C380.139 108.068 382.66 106.63 384.944 105.561C387.201 104.452 389.102 103.476 390.686 102.803C392.256 102.116 393.444 101.588 394.276 101.219C395.068 100.942 395.49 100.77 395.49 100.77Z" fill="#404040"/>
<path d="M826.003 133.736C826.003 133.736 826.557 145.23 845.961 151.261L850.488 140.796L826.003 133.736Z" fill="#101010"/>
<path d="M878.563 127.744L877.018 127.652C861.509 126.675 847.848 137.761 845.63 153.135C843.558 167.44 841.459 183.263 841.063 190.983C840.258 206.964 856.071 210.461 856.071 210.461L853.51 229.557L892.356 230.811L900.184 161.449C902.652 144.953 895.128 129.763 878.563 127.744Z" fill="#FFBF9D"/>
<path d="M856.057 210.461C856.057 210.461 866.102 211.689 877.269 205.631C877.269 205.631 871.369 217.073 855.529 214.618L856.057 210.461Z" fill="#FF9A6C"/>
<path d="M849.085 168.613C848.966 169.814 849.89 170.909 851.144 171.055C852.398 171.2 853.507 170.355 853.626 169.141C853.745 167.94 852.82 166.845 851.58 166.7C850.312 166.554 849.203 167.412 849.085 168.613Z" fill="#404040"/>
<path d="M871.051 170.686C870.932 171.887 871.857 172.982 873.111 173.127C874.365 173.272 875.474 172.428 875.593 171.214C875.711 170.013 874.787 168.918 873.546 168.772C872.292 168.627 871.17 169.485 871.051 170.686Z" fill="#404040"/>
<path d="M862.594 180.779C862.62 180.634 861.102 180.278 858.646 179.803C858.026 179.697 857.432 179.539 857.366 179.103C857.247 178.641 857.551 177.982 857.907 177.269C858.594 175.791 859.307 174.234 860.059 172.611C863.069 165.986 865.274 160.509 865.009 160.39C864.745 160.272 862.092 165.55 859.082 172.188C858.356 173.825 857.656 175.382 856.996 176.873C856.719 177.573 856.257 178.351 856.521 179.314C856.666 179.79 857.102 180.159 857.498 180.291C857.894 180.436 858.25 180.463 858.554 180.502C861.036 180.819 862.58 180.924 862.594 180.779Z" fill="#404040"/>
<path d="M871.134 153.571C871.425 154.218 873.563 153.676 876.163 153.755C878.764 153.782 880.915 154.402 881.192 153.769C881.311 153.465 880.889 152.884 879.991 152.317C879.094 151.762 877.708 151.287 876.163 151.26C874.606 151.234 873.233 151.656 872.335 152.171C871.425 152.699 871.016 153.267 871.134 153.571Z" fill="#404040"/>
<path d="M849.085 151.038C849.574 151.632 851.633 151.183 854.062 151.302C856.504 151.355 858.536 151.962 859.051 151.408C859.275 151.144 858.985 150.563 858.114 149.969C857.256 149.388 855.804 148.86 854.128 148.794C852.451 148.728 850.973 149.15 850.089 149.665C849.191 150.206 848.874 150.761 849.085 151.038Z" fill="#404040"/>
<path d="M896.637 176.823C896.888 174.369 899.145 172.547 901.587 172.943C904.543 173.418 907.751 175.319 907.17 181.455C906.127 192.356 895.409 189.057 895.409 188.753C895.409 188.529 896.162 181.376 896.637 176.823Z" fill="#FFBF9D"/>
<path d="M898.162 184.874C898.215 184.847 898.334 185.019 898.651 185.204C898.954 185.375 899.482 185.52 900.063 185.362C901.251 185.045 902.4 183.317 902.638 181.35C902.756 180.36 902.638 179.397 902.36 178.579C902.109 177.748 901.647 177.14 901.067 176.982C900.499 176.797 900.063 177.101 899.892 177.391C899.72 177.682 899.76 177.906 899.707 177.919C899.667 177.945 899.496 177.708 899.614 177.272C899.68 177.061 899.839 176.811 900.103 176.626C900.38 176.441 900.776 176.362 901.185 176.454C902.017 176.586 902.703 177.431 903.007 178.328C903.364 179.226 903.509 180.321 903.377 181.429C903.1 183.62 901.779 185.56 900.156 185.877C899.364 186.009 898.756 185.705 898.453 185.428C898.162 185.138 898.123 184.887 898.162 184.874Z" fill="#FF9A6C"/>
<path d="M861.645 188.569C861.737 188.16 864.377 188.899 866.899 187.157C869.42 185.415 869.909 182.512 870.278 182.591C870.45 182.604 870.622 183.356 870.318 184.557C870.028 185.732 869.183 187.342 867.651 188.411C866.107 189.48 864.404 189.638 863.295 189.427C862.146 189.229 861.579 188.754 861.645 188.569Z" fill="#404040"/>
<path d="M847.623 145.916C847.623 145.916 852.467 136.177 857.443 134.158C863.462 131.703 865.574 138.262 871.237 137.061C876.9 135.86 882.641 133.498 888.066 138.157C893.993 143.25 890.865 146.378 890.812 153.491C890.561 182.313 895.286 190.772 897.636 177.338C897.887 175.86 902.084 174.949 903.087 168.72C904.394 160.644 905.331 150.812 903.879 144.926C902.652 139.978 900.104 136.441 895.366 132.429C887.895 126.095 877.124 125.29 869.772 125.567C862.393 125.818 847.755 133.353 847.623 145.916Z" fill="#707070"/>
<path d="M762.04 393.632C762.04 393.632 859.65 428.287 872.823 422.361C885.996 416.436 884.769 392.167 891.83 371.831C898.892 351.495 915.55 307.457 915.273 286.844C914.996 266.231 909.623 243.084 909.346 241.104C909.069 239.125 865.088 211.161 854.925 212.573C844.761 213.985 824.051 246.185 824.051 246.185C824.051 246.185 804.569 304.066 797.507 315.639C790.445 327.213 777.734 339.71 770.118 358.278C761.604 378.984 760.06 391.085 762.04 393.632Z" fill="#3383D3"/>
<path d="M916.975 198.255C915.615 197.806 908.092 195.101 899.789 195.958C891.487 196.816 857.788 207.598 854.356 212.929C851.558 217.258 902.376 253.074 910.969 249.432C919.549 245.776 926.069 240.92 926.069 232.896C926.069 224.872 932.445 203.401 916.975 198.255Z" fill="#3383D3"/>
<path d="M910.466 249.141C911.866 252.387 912.552 255.95 912.46 259.487C912.433 260.503 912.301 261.612 911.602 262.351C910.849 263.129 909.608 263.261 908.579 262.958C907.536 262.654 906.652 261.981 905.807 261.321C899.075 256.043 892.964 250.051 886.866 244.073C881.573 238.887 877.283 232.632 873.455 226.548C873.455 226.548 883.935 237.541 898.072 244.839C902.309 246.99 906.454 248.507 910.466 249.141Z" fill="#0064C8"/>
<path d="M910.968 249.432C910.968 249.458 910.797 249.471 910.48 249.458C910.163 249.445 909.675 249.471 909.081 249.326C908.474 249.221 907.748 249.075 906.916 248.811C906.071 248.587 905.147 248.244 904.131 247.861C900.052 246.331 894.667 243.599 889.07 240.036C883.5 236.433 878.828 232.593 875.818 229.439C874.34 227.842 873.165 226.522 872.492 225.506C871.779 224.516 871.41 223.962 871.449 223.922C871.568 223.83 873.086 226.06 876.161 229.096C879.224 232.131 883.909 235.879 889.44 239.455C894.997 242.992 900.316 245.776 904.303 247.399C905.306 247.809 906.203 248.178 907.022 248.429C907.827 248.732 908.54 248.904 909.12 249.049C909.701 249.234 910.163 249.247 910.48 249.3C910.797 249.366 910.968 249.405 910.968 249.432Z" fill="#404040"/>
<path d="M905.279 221.415C905.279 221.375 905.978 221.402 907.232 221.586C908.486 221.758 910.282 222.088 912.459 222.669C914.637 223.262 917.198 224.12 919.917 225.387C920.59 225.704 921.277 226.034 921.976 226.403C922.663 226.773 923.481 227.261 923.798 228.211C923.943 228.66 923.956 229.188 923.692 229.663C923.428 230.138 922.913 230.402 922.451 230.481C921.501 230.639 920.67 230.415 919.812 230.336C912.948 229.425 907.048 227.037 903.114 224.846C901.134 223.751 899.616 222.748 898.6 221.995C897.584 221.243 897.056 220.795 897.082 220.755C897.108 220.715 897.702 221.098 898.745 221.771C899.801 222.444 901.359 223.381 903.339 224.41C907.298 226.456 913.133 228.752 919.904 229.65C920.749 229.729 921.62 229.94 922.319 229.808C923.045 229.716 923.375 229.069 923.151 228.409C922.966 227.776 922.319 227.327 921.659 226.971C920.986 226.614 920.3 226.271 919.64 225.955C916.974 224.688 914.466 223.777 912.327 223.13C910.189 222.484 908.42 222.088 907.18 221.837C905.952 221.586 905.266 221.468 905.279 221.415Z" fill="#404040"/>
<path d="M822.718 335.896C822.718 335.883 822.823 335.923 823.021 336.002C823.246 336.107 823.523 336.226 823.866 336.371C824.658 336.741 825.741 337.242 827.1 337.863C829.898 339.182 833.911 341.149 838.808 343.709C843.705 346.256 849.486 349.41 855.796 353.105C858.951 354.952 862.237 356.932 865.616 359.03C866.461 359.558 867.306 360.099 868.164 360.627C869.022 361.194 869.866 361.854 870.513 362.752C870.83 363.2 871.094 363.715 871.173 364.309C871.266 364.89 871.134 365.523 870.83 366.024C870.526 366.552 870.012 366.935 869.457 367.133C868.903 367.331 868.335 367.384 867.781 367.37C866.672 367.331 865.616 367.054 864.613 366.658C863.65 366.249 862.699 365.84 861.749 365.444C859.861 364.626 858.013 363.807 856.205 362.963C852.588 361.3 849.13 359.624 845.883 357.948C839.376 354.609 833.66 351.323 828.948 348.446C824.236 345.556 820.514 343.075 817.966 341.32C816.686 340.449 815.722 339.737 815.062 339.261C814.759 339.037 814.521 338.852 814.323 338.707C814.151 338.575 814.072 338.509 814.085 338.496C814.099 338.483 814.191 338.536 814.363 338.641C814.574 338.773 814.825 338.932 815.141 339.143C815.867 339.618 816.857 340.264 818.111 341.096C820.685 342.785 824.46 345.2 829.186 348.037C833.924 350.861 839.653 354.095 846.16 357.394C849.407 359.057 852.866 360.719 856.469 362.369C858.264 363.2 860.125 364.005 862 364.824C863.9 365.589 865.761 366.658 867.781 366.697C868.758 366.737 869.787 366.473 870.223 365.694C870.711 364.916 870.5 363.939 869.932 363.174C868.797 361.604 866.883 360.719 865.233 359.624C861.868 357.513 858.594 355.533 855.453 353.672C849.17 349.964 843.415 346.77 838.557 344.171C833.687 341.558 829.714 339.539 826.955 338.14C825.622 337.467 824.566 336.926 823.787 336.53C823.457 336.358 823.193 336.213 822.969 336.094C822.81 335.962 822.718 335.909 822.718 335.896Z" fill="#404040"/>
<path d="M729.014 289.035C729.014 289.035 720.289 285.102 715.735 284.126C711.182 283.149 708.436 279.309 706.047 280.299C703.658 281.275 703.764 283.043 704.331 283.637C704.899 284.231 695.105 283.149 694.3 287.266C693.508 291.397 698.061 291.687 698.061 291.687C698.061 291.687 695.553 295.224 696.807 297.388C698.061 299.553 698.286 300.133 698.286 300.133C698.286 300.133 696.002 302.68 698.51 305.333C701.018 307.985 701.018 307.985 701.018 307.985C701.018 307.985 699.883 309.846 702.958 311.72C706.034 313.581 730.202 312.406 730.202 312.406L729.014 289.035Z" fill="#FFBF9D"/>
<path d="M728.631 287.266C728.024 288.559 727.602 314.069 727.602 314.069C727.602 314.069 750.08 318.12 764.151 317.421C779.7 316.655 790.92 317.935 790.92 317.935C790.92 317.935 805.069 316.774 813.491 309.978C821.912 303.168 866.236 272.248 870.46 262.852C874.67 253.456 872.954 222.615 867.305 216.73C861.642 210.844 855.623 212.441 849.604 214.077C843.586 215.7 816.21 247.782 811.986 249.721C807.775 251.661 803.261 253.285 800.859 261.704C800.859 261.704 794.84 263.327 791.83 268.184C788.821 273.04 788.214 275.957 788.214 275.957C788.214 275.957 780.994 273.04 777.68 274.663C774.367 276.286 771.358 279.203 771.358 279.203L728.631 287.266Z" fill="#3383D3"/>
<path d="M801.36 277.157C801.452 277.131 801.98 278.675 802.759 281.182C803.155 282.502 803.604 283.993 804.092 285.603C804.317 286.448 804.66 287.266 804.779 288.309C804.818 288.81 804.765 289.43 804.383 289.919C804.026 290.407 803.34 290.644 802.772 290.578C801.624 290.433 800.753 289.773 800.053 289.114C799.354 288.467 798.694 287.82 798.1 287.174C796.912 285.88 795.961 284.627 795.222 283.518C794.483 282.423 793.968 281.486 793.638 280.826C793.308 280.166 793.163 279.783 793.203 279.757C793.295 279.704 794.074 281.143 795.618 283.241C796.397 284.284 797.374 285.498 798.562 286.738C799.156 287.358 799.802 287.992 800.502 288.612C801.162 289.232 801.98 289.787 802.838 289.892C803.71 289.998 804.237 289.232 804.119 288.361C804.039 287.504 803.696 286.619 803.498 285.788C803.063 284.165 802.667 282.66 802.31 281.327C801.624 278.767 801.268 277.171 801.36 277.157Z" fill="#404040"/>
<path d="M819.866 275.997C819.84 276.076 818.876 275.825 817.437 275.139C815.999 274.453 814.098 273.278 812.303 271.602C810.521 269.926 809.214 268.105 808.435 266.719C807.657 265.32 807.34 264.383 807.419 264.344C807.617 264.238 809.267 267.854 812.778 271.101C816.249 274.387 819.972 275.799 819.866 275.997Z" fill="#404040"/>
<path d="M778.697 300.529C778.71 300.516 778.881 300.885 778.565 301.466C778.274 302.034 777.429 302.641 776.268 302.627C775.053 302.654 773.878 301.585 773.271 300.305C772.624 298.998 772.281 297.494 771.885 295.923C771.159 292.756 770.947 289.813 770.974 287.702C771 285.577 771.211 284.284 771.291 284.284C771.396 284.297 771.357 285.59 771.462 287.689C771.555 289.774 771.845 292.664 772.545 295.778C772.928 297.322 773.271 298.827 773.825 300.041C774.38 301.242 775.317 302.126 776.281 302.166C777.258 302.245 778.023 301.783 778.327 301.347C778.67 300.885 778.631 300.529 778.697 300.529Z" fill="#404040"/>
<path d="M838.265 291.423C838.265 291.423 838.015 291.648 837.5 292.044C836.972 292.453 836.206 293.033 835.216 293.799C833.184 295.343 830.227 297.586 826.439 300.463C822.611 303.34 817.951 306.863 812.553 310.928C809.794 312.947 806.442 314.452 802.812 315.679C799.155 316.853 795.182 317.751 790.945 318.199H790.919H790.892C781.996 317.328 772.083 317.302 761.431 317.817C756.086 317.83 750.555 317.447 744.906 316.84C739.243 316.233 733.462 315.428 727.548 314.412L727.258 314.359L727.271 314.069C727.601 305.465 727.931 296.478 728.287 287.266L728.301 286.989L728.565 286.936C732.419 286.211 736.524 285.432 740.668 284.653C751.175 282.674 761.431 280.734 771.305 278.873L771.133 278.966C772.321 277.857 773.562 276.854 774.882 275.957C775.542 275.508 776.215 275.086 776.914 274.703C777.587 274.307 778.432 274.004 779.224 273.924C780.848 273.753 782.418 273.99 783.923 274.32C785.441 274.663 786.906 275.112 788.332 275.666L787.896 275.904C788.345 274.149 789.058 272.592 789.837 271.061C790.642 269.543 791.434 268.065 792.503 266.719C793.585 265.399 794.892 264.317 796.304 263.446C797.717 262.575 799.195 261.889 800.766 261.414L800.555 261.625C801.479 258.471 802.93 255.409 805.346 253.245C806.534 252.15 807.907 251.345 809.293 250.659C809.992 250.316 810.679 249.999 811.378 249.682C811.735 249.524 812.051 249.365 812.342 249.181C812.632 248.969 812.936 248.758 813.213 248.508C815.47 246.581 817.503 244.469 819.496 242.463C821.463 240.418 823.39 238.438 825.251 236.512C832.682 228.792 839.123 221.956 845.037 216.915C846.542 215.7 847.954 214.46 849.683 213.906C851.346 213.457 852.93 213.061 854.422 212.797C855.913 212.533 857.326 212.428 858.619 212.48C859.913 212.546 861.061 212.81 862.064 213.14C864.044 213.866 865.338 214.882 866.156 215.582C866.948 216.321 867.318 216.743 867.318 216.743C867.318 216.743 867.199 216.664 867.001 216.479C866.79 216.294 866.499 216.004 866.09 215.661C865.258 214.988 863.952 214.011 861.998 213.325C861.008 213.008 859.873 212.771 858.606 212.718C857.339 212.678 855.953 212.797 854.474 213.074C852.996 213.338 851.439 213.761 849.775 214.222C848.192 214.75 846.766 215.991 845.288 217.205C839.44 222.259 833.038 229.135 825.634 236.881C823.772 238.821 821.872 240.814 819.905 242.859C817.912 244.892 815.892 247.003 813.596 248.969C813.305 249.22 813.002 249.445 812.685 249.682C812.342 249.906 811.985 250.091 811.642 250.236C810.956 250.553 810.256 250.87 809.583 251.2C808.223 251.886 806.904 252.665 805.782 253.707C803.485 255.766 802.073 258.722 801.175 261.81L801.135 261.968L800.964 262.021C798.02 262.958 795.09 264.621 793.031 267.128C792.028 268.382 791.223 269.886 790.444 271.364C789.691 272.856 788.979 274.439 788.569 276.049L788.477 276.419L788.134 276.287C786.748 275.759 785.296 275.297 783.831 274.98C782.366 274.65 780.834 274.426 779.356 274.597C777.904 274.743 776.597 275.693 775.304 276.524C774.024 277.408 772.796 278.398 771.648 279.467L771.569 279.533L771.476 279.546C761.59 281.42 751.334 283.347 740.84 285.34C736.695 286.118 732.59 286.897 728.736 287.623L729.013 287.293C728.657 296.504 728.314 305.491 727.984 314.095L727.707 313.752C733.594 314.768 739.375 315.587 745.011 316.207C750.647 316.827 756.151 317.223 761.458 317.21C772.096 316.735 782.049 316.787 790.985 317.685H790.932C799.274 316.748 806.851 314.465 812.342 310.598C817.767 306.573 822.452 303.102 826.294 300.239C830.121 297.415 833.105 295.198 835.164 293.68C836.167 292.941 836.946 292.387 837.487 291.991C837.988 291.608 838.265 291.423 838.265 291.423Z" fill="#404040"/>
<path d="M794.774 296.557C793.745 290.38 791.197 284.482 787.408 279.493C786.867 285.603 788.425 292.307 791.712 297.493C792.266 298.378 793.309 299.341 794.22 298.813C794.933 298.404 794.906 297.375 794.774 296.557Z" fill="#0064C8"/>
<path d="M847.289 143.882C847.289 143.882 850.087 141.045 856.661 139.857C868.857 137.667 885.62 138.247 901.513 158.016L904.02 162.938C904.02 162.938 905.063 153.529 904.588 148.963C904.271 145.914 904.588 127.597 882.518 121.936C883.812 122.279 853.07 116.116 847.289 143.882Z" fill="#404040"/>
<path d="M849.656 134.778C867.476 134.791 884.252 138.909 896 151.644C887.315 146.88 874.458 143.805 864.559 144.174C854.659 144.544 844.509 145.388 835.045 142.432C830.781 141.099 826.188 138.196 826.003 133.736L849.656 134.778Z" fill="#404040"/>
<path d="M897.834 149.849C897.807 149.888 897.174 149.506 896.065 148.78C895.511 148.41 894.837 147.975 894.019 147.513C893.214 147.025 892.303 146.471 891.26 145.916C889.214 144.742 886.667 143.528 883.816 142.274C880.938 141.073 877.718 139.872 874.273 138.83C867.356 136.771 860.888 135.742 856.189 135.293C855.015 135.148 853.945 135.108 853.008 135.029C852.071 134.95 851.266 134.91 850.606 134.897C849.286 134.844 848.547 134.791 848.547 134.739C848.547 134.686 849.273 134.659 850.606 134.633C851.266 134.607 852.084 134.607 853.021 134.659C853.959 134.699 855.041 134.712 856.229 134.818C860.968 135.135 867.501 136.098 874.471 138.183C877.942 139.239 881.189 140.466 884.067 141.707C886.931 143.013 889.465 144.28 891.498 145.507C892.541 146.088 893.438 146.682 894.217 147.196C895.009 147.698 895.682 148.173 896.21 148.569C897.293 149.347 897.86 149.809 897.834 149.849Z" fill="#101010"/>
<path d="M815.985 307.893C822.334 307.074 827.126 301.98 832.617 298.708C839.269 294.735 847.4 293.231 853.182 288.071C859.2 282.7 861.524 277.962 863.569 270.163C850.053 285.511 834.425 295.488 817.266 306.626" fill="#0064C8"/>
<path d="M804.436 287.411C802.852 282.806 801.268 278.2 799.17 273.805C798.655 272.723 798.087 271.641 797.243 270.797C796.398 269.952 795.197 269.371 794.009 269.53C792.821 269.688 790.009 270.163 790.445 274.637C792.398 280.245 795.843 285.326 800.331 289.206C800.952 289.747 801.625 290.275 802.43 290.46C803.235 290.644 804.199 290.381 804.582 289.655C804.938 288.969 804.687 288.137 804.436 287.411Z" fill="#0064C8"/>
<path d="M343.033 314.108C342.109 309.16 340.221 304.33 340.34 299.302L332.592 312.736C336.67 316.933 339.337 322.475 340.089 328.282C343.679 324.771 343.957 319.057 343.033 314.108Z" fill="#404040"/>
<path d="M310.97 278.979C308.027 280.364 305.228 282.054 302.641 284.02C302.074 284.442 301.506 284.904 301.203 285.551C300.899 286.184 300.952 287.055 301.506 287.491C301.942 287.847 302.562 287.834 303.13 287.781C304.766 287.636 306.364 287.214 307.868 286.554" fill="#404040"/>
<path d="M302.061 295.461C293.284 297.942 287.159 306.111 285.931 314.649C284.704 323.188 285.496 335.751 290.881 341.148C292.531 330.565 294.722 327.912 298.352 323.412" fill="#404040"/>
<path d="M348.537 257.217C348.537 257.217 348.273 254.578 343.258 255.634C338.242 256.689 312.028 268.593 301.178 295.58C290.328 322.567 298.195 339.644 312.331 350.439C329.675 363.675 356.418 359.228 356.418 359.228L353.896 352.247C353.896 352.247 325.834 344.355 330.573 321.644C330.573 321.644 330.942 315.481 338.083 303.498C345.224 291.515 351.455 282.357 354.108 274.149C356.338 267.233 356.523 252.559 348.762 265.927C348.392 266.534 349.356 256.597 348.537 257.217Z" fill="#0064C8"/>
<path d="M339.14 287.821C334.388 297.032 325.967 302.984 323.789 313.105C321.611 323.241 322.984 334.669 329.835 342.442C334.692 347.945 341.754 351.046 348.868 352.814C350.637 353.25 352.525 353.606 354.293 353.369L353.884 352.247C353.884 352.247 325.822 344.355 330.561 321.644C330.561 321.644 330.93 315.481 338.071 303.498C345.212 291.516 351.442 282.357 354.095 274.149C356.326 267.234 356.511 252.559 348.749 265.927C348.631 266.138 348.657 265.122 348.723 263.723L343.021 273.304C341.873 274.175 342.942 280.444 339.14 287.821Z" fill="#3383D3"/>
<path d="M323.286 309.279C318.02 315.283 312.331 320.918 306.259 326.118C310.601 326.843 315.248 325.471 318.482 322.475C321.715 319.48 323.682 313.66 323.286 309.279Z" fill="#404040"/>
<path d="M335.878 263.275L334.848 263.354C331.733 263.948 330.07 268.237 331.958 270.784C333.845 273.331 338.439 272.961 339.904 270.15C341.369 267.339 339.046 263.367 335.878 263.275Z" fill="white"/>
<path d="M336.037 264.568L335.298 264.621C333.067 265.043 331.866 268.118 333.226 269.952C334.585 271.774 337.872 271.523 338.928 269.504C339.971 267.498 338.308 264.647 336.037 264.568Z" fill="#404040"/>
<path d="M339.217 285.762C339.243 285.789 338.992 286.079 338.451 286.501C337.91 286.924 337.039 287.438 335.877 287.861C333.594 288.705 329.805 288.916 326.519 286.818C323.258 284.667 321.912 281.117 321.767 278.689C321.674 277.448 321.793 276.445 321.952 275.786C322.11 275.113 322.268 274.769 322.308 274.783C322.453 274.809 321.938 276.274 322.242 278.636C322.506 280.945 323.866 284.245 326.888 286.237C329.937 288.19 333.501 288.085 335.732 287.399C338.002 286.712 339.137 285.643 339.217 285.762Z" fill="#404040"/>
<path d="M336.975 290.051C337.002 290.077 336.751 290.368 336.21 290.79C335.669 291.212 334.797 291.727 333.636 292.149C331.352 292.994 327.564 293.205 324.277 291.107C321.017 288.956 319.671 285.406 319.526 282.978C319.433 281.737 319.552 280.734 319.71 280.074C319.869 279.401 320.027 279.058 320.067 279.071C320.212 279.098 319.697 280.563 320.001 282.925C320.265 285.234 321.624 288.533 324.647 290.526C327.696 292.479 331.26 292.374 333.477 291.687C335.761 291.001 336.896 289.932 336.975 290.051Z" fill="#404040"/>
<path d="M329.911 296.847C329.938 296.874 329.753 297.098 329.344 297.441C328.935 297.771 328.275 298.18 327.377 298.51C325.622 299.17 322.691 299.355 320.157 297.718C317.636 296.055 316.606 293.31 316.501 291.437C316.435 290.486 316.54 289.708 316.672 289.206C316.804 288.692 316.936 288.428 316.976 288.441C317.108 288.467 316.738 289.589 316.976 291.384C317.2 293.139 318.23 295.633 320.513 297.138C322.823 298.616 325.516 298.55 327.219 298.035C328.948 297.547 329.832 296.742 329.911 296.847Z" fill="#404040"/>
<path d="M342.439 274.175C342.439 274.175 341.448 264.422 342.095 260.463C342.742 256.504 346.095 255.515 347.231 255.699C348.775 255.963 349.211 258.669 349.211 258.669C349.211 258.669 349.25 262.958 348.749 265.914L342.439 274.175Z" fill="#404040"/>
<path d="M337.674 359.65C345.448 357.75 351.639 351.613 355.427 344.566C359.215 337.519 360.918 329.575 362.489 321.736C365.974 324.072 368.059 328.084 368.943 332.188C369.841 336.292 370.409 341.901 370.237 346.097C378.038 343.709 385.562 341.439 393.692 342.099C392.821 345.121 390.775 347.668 388.465 349.779C382.948 354.807 375.754 357.737 368.429 359.109C361.09 360.495 353.566 360.416 346.108 360.086" fill="#404040"/>
<path d="M303.263 332.517C300.161 324.428 300.306 315.388 302.075 306.916C306.867 283.848 324.079 263.789 346.082 255.422C345.37 255.343 344.446 255.383 343.258 255.633C338.229 256.689 312.028 268.593 301.178 295.58C290.328 322.567 298.195 339.644 312.331 350.439C315.657 352.986 319.34 354.873 323.115 356.272C314.905 349.62 306.985 342.283 303.263 332.517Z" fill="#3383D3"/>
<path d="M328.028 307.444C327.513 305.412 326.655 303.036 324.609 302.575C322.972 302.205 321.402 303.3 320.069 304.33C318.181 305.808 316.28 307.286 314.393 308.751C313.363 309.556 312.202 310.4 310.895 310.308C309.205 310.189 308.044 308.566 307.397 306.995C305.998 303.644 305.76 299.83 306.737 296.333C304.718 301.242 304.335 306.547 304.757 309.213C305.179 311.878 307.093 314.742 309.786 314.623C311.832 314.531 313.35 312.789 314.776 311.311C316.835 309.173 319.197 307.325 321.758 305.847C322.339 305.517 323.038 305.188 323.659 305.451C324.411 305.768 324.596 306.718 324.979 307.431C325.942 309.199 328.45 309.582 330.298 308.803C332.146 308.025 333.492 306.415 334.76 304.858C332.872 306.428 330.47 307.339 328.028 307.444Z" fill="#99C1E9"/>
<path d="M306.802 318.516C306.749 318.318 306.683 318.173 306.525 318.028C306.38 317.883 306.34 318.213 306.142 318.305C305.522 319.11 305.073 320.06 304.848 321.05C304.782 321.34 304.756 321.683 304.98 321.868C305.284 322.119 305.746 321.855 305.997 321.565C306.723 320.707 307.119 319.572 306.802 318.516Z" fill="#99C1E9"/>
<path d="M329.175 333.455C329.082 334.379 328.211 335.078 327.3 335.236C326.39 335.395 325.452 335.091 324.621 334.695C323.512 334.154 322.166 333.428 321.189 334.167C320.423 334.735 320.41 335.857 320.239 336.794C319.816 339.037 317.902 340.924 315.645 341.32C313.388 341.716 310.959 340.581 309.798 338.615C310.484 341.571 313.811 344.435 316.477 344.632C318.338 344.778 320.067 343.445 320.965 341.808C321.862 340.172 322.1 338.272 322.324 336.411C323.803 336.846 325.373 337.282 326.865 336.899C328.356 336.477 329.65 334.92 329.175 333.455Z" fill="#99C1E9"/>
<path d="M305.614 356.496C304.333 367.925 305.389 369.258 307.844 372.306C309.376 374.206 310.88 374.061 311.712 374.193C312.821 374.365 313.837 373.375 314.101 372.28C314.365 371.184 314.075 370.049 313.784 368.967C316.569 370.445 319.526 371.95 322.681 371.884C325.835 371.818 329.188 369.561 329.28 366.407C325.862 367.859 321.915 368.057 318.364 366.948C314.814 365.84 311.686 363.438 309.692 360.297C309.362 362.184 309.046 364.058 308.716 365.945C307.079 363.042 306.01 359.809 305.614 356.496Z" fill="#99C1E9"/>
<path d="M145.292 510.608C145.292 510.793 112.848 510.951 72.8402 510.951C32.8193 510.951 0.375 510.793 0.375 510.608C0.375 510.423 32.8061 510.265 72.8402 510.265C112.848 510.265 145.292 510.423 145.292 510.608Z" fill="#404040"/>
<path d="M59.0736 520.835C59.0736 521.02 45.9269 521.179 29.718 521.179C13.509 521.179 0.362305 521.02 0.362305 520.835C0.362305 520.651 13.4958 520.492 29.718 520.492C45.9269 520.492 59.0736 520.637 59.0736 520.835Z" fill="#404040"/>
</svg>
