<svg width="88" height="88" viewBox="0 0 88 88" fill="none" xmlns="http://www.w3.org/2000/svg">
<rect width="88" height="88" rx="44" fill="white"/>
<path d="M52.334 27.333H35.6673C31.0649 27.333 27.334 31.064 27.334 35.6663V52.333C27.334 56.9354 31.0649 60.6663 35.6673 60.6663H52.334C56.9364 60.6663 60.6673 56.9354 60.6673 52.333V35.6663C60.6673 31.064 56.9364 27.333 52.334 27.333Z" stroke="#FF6E00" stroke-width="4" stroke-linecap="round" stroke-linejoin="round"/>
<path d="M50.6675 42.9495C50.8732 44.3366 50.6362 45.7532 49.9904 46.9979C49.3446 48.2425 48.3227 49.2519 47.0702 49.8823C45.8177 50.5128 44.3982 50.7322 43.0138 50.5094C41.6294 50.2866 40.3504 49.633 39.3589 48.6415C38.3673 47.6499 37.7137 46.371 37.4909 44.9865C37.2682 43.6021 37.4876 42.1827 38.118 40.9301C38.7485 39.6776 39.7578 38.6558 41.0025 38.0099C42.2471 37.3641 43.6637 37.1272 45.0508 37.3329C46.4657 37.5427 47.7756 38.202 48.787 39.2134C49.7984 40.2248 50.4577 41.5347 50.6675 42.9495Z" stroke="#FF6E00" stroke-width="4" stroke-linecap="round" stroke-linejoin="round"/>
<path d="M53.166 34.833H53.1827" stroke="#FF6E00" stroke-width="4" stroke-linecap="round" stroke-linejoin="round"/>
</svg>
