<svg width="88" height="88" viewBox="0 0 88 88" fill="none" xmlns="http://www.w3.org/2000/svg">
<rect width="88" height="88" rx="44" fill="white"/>
<path d="M50.666 37.333C53.3182 37.333 55.8617 38.3866 57.7371 40.2619C59.6125 42.1373 60.666 44.6808 60.666 47.333V58.9997H53.9994V47.333C53.9994 46.449 53.6482 45.6011 53.023 44.976C52.3979 44.3509 51.5501 43.9997 50.666 43.9997C49.782 43.9997 48.9341 44.3509 48.309 44.976C47.6839 45.6011 47.3327 46.449 47.3327 47.333V58.9997H40.666V47.333C40.666 44.6808 41.7196 42.1373 43.5949 40.2619C45.4703 38.3866 48.0139 37.333 50.666 37.333Z" stroke="#FF6E00" stroke-width="4" stroke-linecap="round" stroke-linejoin="round"/>
<path d="M34.0007 39H27.334V59H34.0007V39Z" stroke="#FF6E00" stroke-width="4" stroke-linecap="round" stroke-linejoin="round"/>
<path d="M30.6673 33.9997C32.5083 33.9997 34.0007 32.5073 34.0007 30.6663C34.0007 28.8254 32.5083 27.333 30.6673 27.333C28.8264 27.333 27.334 28.8254 27.334 30.6663C27.334 32.5073 28.8264 33.9997 30.6673 33.9997Z" stroke="#FF6E00" stroke-width="4" stroke-linecap="round" stroke-linejoin="round"/>
</svg>
