<svg width="156" height="50" viewBox="0 0 156 50" fill="none" xmlns="http://www.w3.org/2000/svg">
<path d="M77.4858 21.6324C77.6702 21.1629 77.8457 20.7497 78.0752 20.3637C79.0696 18.6772 80.5612 17.7335 82.4735 17.4377C83.7873 17.2346 85.0787 17.3023 86.298 17.8802C88.1451 18.7562 89.1192 20.2643 89.3712 22.2691C89.4454 22.8606 89.4522 23.4566 89.3217 24.0436C89.1912 24.6374 88.8762 24.9286 88.2756 25.0054C88.0258 25.037 87.7739 25.0528 87.5241 25.055C86.0416 25.0708 84.5567 25.0257 83.0741 25.1115C82.478 25.1453 81.8908 25.2244 81.3711 25.5472C81.2676 25.6104 81.2136 25.5901 81.1619 25.4908C81.0066 25.1995 80.9076 24.8925 80.9346 24.5606C80.9594 24.2378 81.1843 24.0797 81.4633 23.9781C81.9538 23.7975 82.4712 23.8043 82.9819 23.7998C84.1878 23.7908 85.3914 23.7975 86.5972 23.7975C86.6692 23.7975 86.7412 23.7998 86.8132 23.7975C87.3892 23.7727 87.5916 23.5695 87.5849 22.9938C87.5736 22.1472 87.4207 21.3254 87.0292 20.5668C86.208 18.9752 84.73 18.4447 83.1866 18.6004C81.704 18.7517 80.5814 19.5148 79.9042 20.8152C78.6421 23.2399 78.5139 25.7097 79.9447 28.1254C80.5837 29.2046 81.5218 29.9744 82.7974 30.1505C84.7794 30.4237 86.4375 29.8412 87.5939 28.1164C87.8459 27.7394 87.8796 27.7349 88.2193 28.0442C88.7278 28.5047 88.8088 29.0375 88.451 29.6448C88.0978 30.2476 87.5421 30.6088 86.919 30.8685C85.6029 31.4148 84.2193 31.5141 82.8177 31.4284C82.0325 31.3809 81.2743 31.189 80.5634 30.8459C79.0583 30.1167 78.0909 28.9133 77.506 27.3714C77.4813 27.3036 77.4565 27.2359 77.4318 27.1659C77.3373 27.1953 77.3328 27.2856 77.299 27.3511C76.1742 29.5635 74.3676 30.7894 71.9199 31.0829C71.0537 31.1868 70.1966 31.1258 69.3642 30.8549C68.966 30.7262 68.597 30.5411 68.318 30.216C68.0166 29.8661 67.8861 29.4597 68.0391 29.0127C68.1965 28.5521 68.5677 28.3264 69.0222 28.2202C69.1212 28.1977 69.2022 28.1909 69.2404 28.3354C69.4631 29.1978 70.1021 29.5793 70.9165 29.6629C72.7275 29.848 74.1044 29.1052 74.9525 27.5136C75.9672 25.6104 75.9739 23.635 75.0425 21.6957C74.3721 20.3004 73.1752 19.5351 71.6859 19.2439C70.2438 18.9617 68.8242 19.0791 67.4429 19.5961C67.4339 19.5983 67.4249 19.6006 67.4181 19.6051C66.5452 19.9505 66.5227 19.9799 66.5227 20.9032C66.5227 25.773 66.5227 30.6427 66.5227 35.5124C66.5227 35.6298 66.5295 35.7472 66.534 35.8646C66.5587 36.9912 67.3101 37.4992 68.2775 37.5691C68.5992 37.5917 68.9255 37.5895 69.2472 37.5759C69.4316 37.5691 69.4834 37.6324 69.4654 37.8039C69.4429 38.0252 69.5576 38.3164 69.4226 38.4541C69.2854 38.5941 68.9975 38.4948 68.7747 38.4948C66.5272 38.497 64.2775 38.4925 62.03 38.5015C61.805 38.5015 61.7465 38.4406 61.751 38.2171C61.7645 37.5759 61.7555 37.5782 62.3989 37.5759C62.6486 37.5737 62.9006 37.5962 63.1504 37.5308C63.922 37.3321 64.3382 36.8061 64.3382 36.0114C64.3382 31.25 64.3382 26.4886 64.3382 21.7273C64.3382 21.4293 64.3405 21.1313 64.3382 20.8355C64.3315 19.7293 63.7173 19.1152 62.6149 19.1084C62.3809 19.1061 62.147 19.1039 61.913 19.1107C61.7983 19.1129 61.7443 19.0723 61.7555 18.9549C61.7555 18.9459 61.7555 18.9368 61.7555 18.9278C61.7173 18.1895 61.7173 18.1737 62.4619 18.1941C64.6239 18.2528 66.7679 18.0518 68.9142 17.7967C70.3203 17.6296 71.7309 17.6477 73.1212 17.9751C75.1595 18.4492 76.6736 19.5757 77.4858 21.6324Z" fill="#0064C8"/>
<path d="M128.591 19.8286C129.187 18.7517 130.008 18.0361 131.133 17.7426C132.121 17.4852 133.102 17.5687 134.004 18.0835C134.951 18.6253 135.381 19.9551 134.971 20.9665C134.71 21.6122 134.105 21.9147 133.523 21.6889C133.214 21.5693 133.167 21.4541 133.302 21.1561C133.482 20.7588 133.55 20.3479 133.451 19.9189C133.28 19.1739 132.679 18.7495 131.846 18.7675C130.951 18.7879 130.303 19.2484 129.792 19.937C129.108 20.8581 128.791 21.926 128.668 23.048C128.515 24.45 128.627 25.8588 128.6 27.263C128.589 27.902 128.623 28.5454 128.573 29.182C128.479 30.4283 127.948 31.0107 126.701 31.0898C125.457 31.1688 124.202 31.1913 122.955 31.0649C121.975 30.9656 121.403 30.3492 121.315 29.3649C121.228 28.3941 121.291 27.4188 121.277 26.4458C121.27 25.8859 121.277 25.3282 121.275 24.7684C121.275 24.6735 121.304 24.5697 121.14 24.5719C119.588 24.59 118.026 24.4952 116.501 24.8948C116.001 25.0257 115.529 25.2131 115.115 25.5314C114.294 26.1636 113.959 27.3059 114.271 28.3851C114.553 29.3536 115.405 30.058 116.44 30.1438C117.563 30.2364 118.539 29.918 119.284 29.0353C119.39 28.9111 119.457 28.9269 119.565 29.0082C120.078 29.3897 120.107 30.1009 119.617 30.5863C119.291 30.9091 118.877 31.0604 118.44 31.1462C117.093 31.4103 115.758 31.4194 114.476 30.8527C113.072 30.2318 112.244 29.1956 112.224 27.604C112.202 25.9514 112.96 24.809 114.458 24.1475C115.493 23.6915 116.593 23.5334 117.707 23.4431C118.811 23.3551 119.916 23.3799 121.023 23.3844C121.225 23.3844 121.284 23.3325 121.275 23.1293C121.243 22.3911 121.313 21.6528 121.21 20.9146C121.027 19.6209 120.276 18.8353 118.996 18.6163C118.305 18.4989 117.615 18.5169 116.937 18.6976C115.68 19.0317 114.881 19.9844 114.717 21.3232C114.661 21.7792 114.638 21.7928 114.202 21.6302C113.529 21.3796 113.198 20.6978 113.353 19.9009C113.482 19.2439 113.862 18.7585 114.386 18.3747C115.156 17.8171 116.035 17.5552 116.962 17.4265C118.015 17.2798 119.059 17.3046 120.094 17.5462C121.765 17.939 122.787 19.0633 123.043 20.7656C123.12 21.2758 123.149 21.786 123.151 22.3007C123.151 24.3665 123.151 26.43 123.151 28.4957C123.151 28.8953 123.203 29.2859 123.363 29.6561C123.561 30.1144 123.916 30.356 124.411 30.3741C124.762 30.3854 125.113 30.3808 125.464 30.3741C125.986 30.365 126.346 30.1077 126.548 29.6291C126.713 29.2407 126.755 28.8276 126.755 28.4122C126.76 25.7707 126.76 23.127 126.755 20.4856C126.755 20.2892 126.737 20.0883 126.704 19.8941C126.571 19.131 126.125 18.7811 125.277 18.7585C124.715 18.7427 124.692 18.7156 124.757 18.1557C124.769 18.0677 124.789 18.027 124.883 18.0293C125.612 18.0428 126.344 17.9774 127.068 18.0586C127.927 18.1557 128.409 18.6637 128.544 19.5306C128.562 19.6074 128.571 19.6841 128.591 19.8286Z" fill="#0064C8"/>
<path d="M95.045 17.44C96.1879 17.4806 97.225 17.5619 98.1902 18.0225C99.2476 18.5304 99.765 19.3861 99.6818 20.5059C99.6278 21.2283 99.1328 21.7702 98.4489 21.8763C98.2757 21.9034 98.2127 21.8718 98.2127 21.6844C98.2149 21.3322 98.1587 20.9868 98.0664 20.6436C97.8145 19.7022 97.2273 19.079 96.2846 18.8397C95.0968 18.5395 93.9246 18.6185 92.82 19.1716C91.5467 19.8105 91.3307 21.2577 92.3341 22.2759C92.9325 22.8809 93.6952 23.197 94.4691 23.4973C95.531 23.9104 96.6333 24.2129 97.675 24.6803C98.3274 24.9715 98.9551 25.3079 99.4455 25.8407C100.568 27.0621 100.417 29.0714 99.1283 30.2589C98.3904 30.9384 97.495 31.2974 96.5231 31.4667C94.6536 31.7896 92.8358 31.6315 91.1125 30.7759C90.649 30.5456 90.2328 30.2476 89.9313 29.8164C89.3037 28.9246 89.7829 27.8793 90.865 27.7687C90.9842 27.7574 91.0517 27.7755 91.1102 27.9042C91.8526 29.5252 93.153 30.2747 94.8988 30.3221C95.7492 30.3447 96.5658 30.2183 97.306 29.7712C98.5231 29.0353 98.6829 27.7055 97.6772 26.7009C97.1755 26.1997 96.5456 25.9129 95.9022 25.6578C94.8268 25.2311 93.7019 24.9376 92.6355 24.4793C92.0304 24.2197 91.4499 23.9194 90.955 23.4747C89.4701 22.1427 89.5151 19.946 91.0517 18.6727C91.9584 17.9209 93.036 17.6093 94.1811 17.4919C94.4961 17.4581 94.82 17.4513 95.045 17.44Z" fill="#0064C8"/>
<path d="M106.908 31.451C103.497 31.5255 101.221 29.1256 100.598 26.159C100.22 24.3552 100.418 22.6055 101.236 20.9507C102.404 18.5982 104.343 17.44 106.942 17.3746C108.013 17.3475 109.079 17.3904 110.118 17.7019C111.734 18.185 112.157 19.5013 111.871 20.9055C111.736 21.5693 111.216 21.9711 110.553 22.0298C110.393 22.0434 110.334 22.0117 110.334 21.8334C110.337 21.348 110.307 20.8626 110.204 20.384C110.026 19.5554 109.549 19.0113 108.719 18.8217C106.87 18.3995 105.219 18.7088 103.916 20.2011C103.196 21.0274 102.764 22.0005 102.566 23.0728C102.226 24.9151 102.449 26.667 103.518 28.2428C105.061 30.5185 107.637 30.6156 109.347 29.5365C109.977 29.1391 110.442 28.5792 110.811 27.9403C110.919 27.7552 110.998 27.7326 111.178 27.85C111.876 28.3038 112.04 28.9337 111.619 29.6584C111.201 30.3786 110.521 30.7511 109.77 31.0175C108.847 31.3471 107.882 31.4374 106.908 31.451Z" fill="#0064C8"/>
<path d="M155.953 22.023C155.707 20.1469 154.823 18.8804 153.14 17.9863C152 17.3813 150.769 17.2458 149.503 17.3813C147.374 17.607 145.653 18.5462 144.645 20.4765C143.345 22.9667 143.264 25.5381 144.447 28.1186C144.495 28.2225 144.564 28.3038 144.465 28.4324C143.73 29.3965 142.852 30.1392 141.588 30.2318C140.22 30.3311 139.156 29.8028 138.683 28.4302C138.477 27.8274 138.38 27.2043 138.378 26.5721C138.369 24.1474 138.375 21.7205 138.369 19.2958C138.369 19.0994 138.427 19.0587 138.612 19.061C139.529 19.0677 140.445 19.0723 141.363 19.0519C141.817 19.0429 142.256 18.9278 142.598 18.5914C143.098 18.097 142.906 17.3361 142.238 17.1352C142.155 17.1104 142.065 17.0584 142.013 17.1871C141.889 17.4987 141.606 17.6093 141.325 17.7019C140.441 17.9886 139.525 18.0112 138.607 18.0337C138.418 18.0383 138.366 17.9908 138.371 17.7989C138.382 17.1059 138.369 16.4105 138.38 15.7174C138.384 15.5232 138.326 15.4691 138.139 15.4849C137.952 15.5007 137.761 15.5029 137.572 15.4849C137.331 15.46 137.201 15.512 137.23 15.7942C137.246 15.9341 137.203 16.0809 137.178 16.2231C137.01 17.2594 136.398 17.8509 135.356 17.9818C135.113 18.0134 134.868 18.0315 134.596 18.0586C134.839 18.2234 135.1 18.3543 135.201 18.5869C135.417 19.0881 135.806 19.1219 136.247 19.07C136.467 19.0429 136.533 19.1174 136.533 19.3454C136.524 21.9056 136.528 24.4658 136.526 27.0282C136.526 27.3623 136.539 27.6942 136.589 28.0261C136.821 29.5793 137.619 30.6811 139.142 31.1597C140.245 31.5051 141.372 31.5322 142.495 31.2522C143.631 30.97 144.567 30.3672 145.305 29.419C145.368 29.4913 145.415 29.5545 145.469 29.6109C146.029 30.1979 146.677 30.663 147.431 30.9633C149.163 31.6541 150.929 31.5683 152.699 31.1484C153.487 30.961 154.22 30.6404 154.776 30.0196C155.338 29.3919 155.523 28.6582 154.807 28.0328C154.465 27.7326 154.456 27.7303 154.2 28.1096C154.139 28.1999 154.076 28.2857 154.016 28.376C152.555 30.523 148.558 31.1958 146.668 28.3173C146.096 27.4481 146.153 27.7642 146.641 26.9198C146.681 26.8498 146.733 26.7866 146.778 26.7189C147.482 25.6917 148.432 25.1498 149.696 25.1069C151.188 25.0573 152.679 25.0753 154.171 25.0573C154.412 25.055 154.657 25.0369 154.895 25.0053C155.442 24.9331 155.842 24.6509 155.964 24.0933C156.018 23.8878 156.009 22.1268 155.953 22.023ZM153.611 23.7682C153.217 23.7975 152.821 23.7862 152.425 23.7907C151.57 23.7975 150.715 23.7772 149.865 23.8133C148.148 23.8878 146.753 24.5945 145.721 26.0597C145.581 25.4772 145.543 24.9218 145.565 24.3642C145.617 23.0976 145.876 21.883 146.522 20.7768C147.599 18.93 149.647 18.1218 151.608 18.781C152.954 19.2326 153.665 20.2575 154.016 21.5737C154.151 22.0794 154.205 22.601 154.189 23.127C154.175 23.5221 154.002 23.7388 153.611 23.7682Z" fill="#0064C8"/>
<path d="M151.388 22.9193C151.028 22.9193 150.645 22.8403 150.306 22.6123C149.444 22.0366 149.512 20.761 150.441 20.2688C150.994 19.9753 151.579 19.9663 152.164 20.1718C152.807 20.3975 153.174 20.9913 153.098 21.6437C153.014 22.3414 152.49 22.82 151.728 22.8967C151.626 22.908 151.527 22.9103 151.388 22.9193Z" fill="#0064C8"/>
<path d="M23.4761 50C23.6203 49.9052 23.7645 49.9413 23.9087 50C23.7645 50 23.6203 50 23.4761 50Z" fill="#0064C8"/>
<path d="M35.7192 43.8208C35.7237 42.8613 36.4729 42.1208 37.4358 42.1275C38.3897 42.1321 39.1321 42.8906 39.1276 43.8524C39.1231 44.8006 38.3537 45.5614 37.4043 45.5524C36.4572 45.5456 35.717 44.7848 35.7192 43.8208Z" fill="#0064C8"/>
<path d="M1.73011 16.0632C2.68626 16.0654 3.43317 16.8217 3.42417 17.7812C3.41743 18.7407 2.66601 19.4835 1.70761 19.4812C0.76272 19.479 0.00455363 18.7114 0.00905313 17.7587C0.0135526 16.8037 0.769469 16.0609 1.73011 16.0632Z" fill="#0064C8"/>
<path d="M0 32.1533C0 31.1983 0.755916 30.4397 1.70531 30.4397C2.65471 30.4397 3.40612 31.2006 3.40837 32.16C3.41062 33.1105 2.64796 33.8736 1.69856 33.8736C0.749167 33.8736 0 33.1128 0 32.1533Z" fill="#0064C8"/>
<path d="M22.1196 1.69775C22.1219 0.733739 22.8621 -0.00225246 23.8317 5.1799e-06C24.7833 5.1799e-06 25.5325 0.758573 25.528 1.71807C25.5235 2.6708 24.7653 3.42259 23.8114 3.41808C22.8508 3.41356 22.1174 2.66854 22.1196 1.69775Z" fill="#0064C8"/>
<path d="M8.46363 6.12953C8.46588 5.16777 9.2128 4.42501 10.1757 4.42952C11.1296 4.43178 11.8743 5.18809 11.872 6.14759C11.8698 7.10257 11.1183 7.84759 10.1577 7.84534C9.20155 7.84308 8.46138 7.09354 8.46363 6.12953Z" fill="#0064C8"/>
<path d="M39.1727 6.18589C39.1682 7.12507 38.3763 7.90622 37.4471 7.89041C36.5 7.87461 35.7531 7.10475 35.7576 6.15203C35.7621 5.20608 36.5405 4.43622 37.4809 4.44751C38.419 4.4588 39.1772 5.23543 39.1727 6.18589Z" fill="#0064C8"/>
<path d="M11.8271 43.8276C11.8226 44.7826 11.0644 45.5254 10.1038 45.5164C9.15213 45.5073 8.41646 44.751 8.41871 43.7847C8.42096 42.8365 9.19037 42.0847 10.1443 42.0938C11.0982 42.1028 11.8316 42.8591 11.8271 43.8276Z" fill="#0064C8"/>
<path d="M45.8904 16.1015C46.8353 16.1038 47.5935 16.8714 47.5912 17.8241C47.589 18.7746 46.8263 19.5354 45.8769 19.5331C44.9342 19.5309 44.1716 18.761 44.1738 17.8105C44.1783 16.8601 44.9432 16.0992 45.8904 16.1015Z" fill="#0064C8"/>
<path d="M47.5733 32.2143C47.5688 33.1715 46.8152 33.9211 45.859 33.9188C44.9141 33.9166 44.1537 33.1467 44.1582 32.1962C44.1605 31.248 44.9276 30.4895 45.8793 30.494C46.8309 30.4985 47.5778 31.2548 47.5733 32.2143Z" fill="#0064C8"/>
<path d="M9.53662 9.75078C10.594 8.61067 13.4602 6.65556 14.7808 6.16113C14.783 6.24015 14.7245 6.2695 14.6885 6.31014C13.7639 7.32608 13.2262 8.51811 13.0665 9.88173C13.0552 9.98784 13.0732 10.1075 12.8955 10.0601C11.8134 9.77336 10.7087 9.68305 9.53662 9.75078Z" fill="#0064C8"/>
<path d="M3.14966 27.7352C3.44438 28.2409 3.77509 28.7195 4.17779 29.1439C4.74248 29.7377 5.39491 30.2073 6.14408 30.5392C6.27681 30.5979 6.3578 30.6362 6.24756 30.801C5.9371 31.2639 5.68963 31.7651 5.46915 32.2775C5.25542 32.781 5.08219 33.3003 4.93146 33.8895C3.99781 31.905 3.41738 29.8686 3.14966 27.7352Z" fill="#0064C8"/>
<path d="M8.69971 39.4071C8.81444 39.3643 8.88869 39.4365 8.96518 39.4704C10.1665 40.0054 11.4129 40.1499 12.6998 39.888C12.9112 39.8451 12.999 39.8451 13.0147 40.116C13.071 41.1094 13.2914 42.0734 13.6424 43.0058C13.6672 43.0736 13.6897 43.1413 13.7077 43.209C13.7122 43.2248 13.7009 43.2429 13.6964 43.2745C11.8359 42.245 10.1823 40.9536 8.69971 39.4071Z" fill="#0064C8"/>
<path d="M42.0995 34.9867C42.1198 34.6142 42.1445 34.323 42.149 34.0295C42.167 32.9142 41.8835 31.8757 41.3346 30.9094C41.2469 30.7536 41.2289 30.6927 41.4268 30.6137C42.383 30.2321 43.2649 29.7151 44.0658 29.0672C44.1175 29.0243 44.1625 28.9611 44.2638 28.9633C43.8588 31.0607 43.1479 33.0429 42.0995 34.9867Z" fill="#0064C8"/>
<path d="M44.3718 22.1768C43.7058 20.9238 42.7137 20.0208 41.4336 19.427C41.3414 19.3841 41.2154 19.3728 41.3189 19.2103C41.9285 18.2575 42.3605 17.2258 42.6575 16.0812C43.5574 18.0205 44.1513 19.9982 44.428 22.0707C44.4348 22.1181 44.4775 22.1881 44.3718 22.1768Z" fill="#0064C8"/>
<path d="M26.3897 45.7218C24.2277 45.9972 22.1219 45.9227 20.0049 45.5435C20.1534 45.4328 20.3221 45.4441 20.4706 45.408C21.7057 45.1055 22.7473 44.4778 23.6 43.5364C23.7125 43.4122 23.771 43.3739 23.8992 43.5296C24.5764 44.3582 25.3728 45.0558 26.2727 45.6338C26.2997 45.6473 26.3244 45.6699 26.3897 45.7218Z" fill="#0064C8"/>
<path d="M38.0005 40.2583C37.5708 40.7347 37.0601 41.1185 36.5607 41.5113C35.483 42.3602 34.3222 43.0759 33.0983 43.6922C32.9971 43.7441 32.8913 43.787 32.7563 43.848C34.1399 41.9335 34.1399 41.9335 34.5651 39.8858C35.6135 40.168 36.6822 40.2786 37.7643 40.247C37.8453 40.2312 37.924 40.2154 38.0005 40.2583Z" fill="#0064C8"/>
<path d="M23.8317 6.60588C23.4447 6.13629 23.0442 5.71185 22.6078 5.32128C22.1781 4.93974 21.7169 4.60109 21.1792 4.24664C23.3435 3.98701 25.4312 4.04346 27.5167 4.45209C26.0544 4.75687 24.8283 5.45674 23.8317 6.60588Z" fill="#0064C8"/>
<path d="M5.45787 15.3248C5.34538 16.6862 5.60185 17.9663 6.30152 19.1493C6.35552 19.2396 6.35102 19.2802 6.24303 19.3231C5.2014 19.7363 4.2475 20.3029 3.37685 21.0231C3.29586 20.2623 4.52647 16.711 5.40387 15.1533C5.53211 15.1758 5.46237 15.2594 5.45787 15.3248Z" fill="#0064C8"/>
<path d="M38.7969 10.5274C38.3379 10.3829 37.8992 10.2158 37.438 10.1029C37.1118 10.0239 36.7811 9.99683 36.4526 9.96748C35.8947 9.92007 35.3413 9.97651 34.7946 10.0962C34.6821 10.121 34.6011 10.1526 34.5921 9.972C34.5629 9.41436 34.4796 8.86349 34.3559 8.31715C34.2321 7.77757 34.0679 7.24928 33.8362 6.66681C35.7237 7.71887 37.3638 8.98315 38.7969 10.5274Z" fill="#0064C8"/>
<path d="M44.6935 35.0837C44.4978 34.9279 44.2548 34.9799 44.0703 35.2282C43.7756 35.6278 43.4449 35.9958 43.0849 36.3367C41.9015 37.4587 40.5157 38.1947 38.9206 38.5356C38.8194 38.565 38.8126 38.5627 38.8126 38.486C39.4336 38.0909 39.9645 37.5965 40.3875 36.9914C41.7081 35.1085 41.7261 32.6003 40.419 30.6136C40.2885 30.4149 40.3245 30.3652 40.5292 30.2952C41.1591 30.0808 41.7643 29.7986 42.3245 29.4396C45.2784 27.55 46.8802 24.8701 47.0062 21.3369C47.0175 21.0209 46.8577 20.8357 46.6103 20.8357C46.356 20.8357 46.2031 21.0163 46.2008 21.3324C46.1806 23.1837 45.6046 24.8498 44.5338 26.3489C44.4303 26.4956 44.3178 26.6356 44.203 26.7756C44.0951 26.9065 43.9803 27.033 43.8678 27.1594C44.0681 26.5521 44.212 25.9515 44.248 25.3284C44.383 22.9331 42.9882 20.7499 40.7227 19.8085C40.311 19.6369 40.311 19.6369 40.5674 19.2509C42.743 15.9502 42.698 11.5523 40.4617 8.38483C40.266 8.1094 40.041 8.0349 39.8295 8.17939C39.6203 8.32162 39.6046 8.57222 39.7935 8.84313C40.8959 10.4235 41.4066 12.1844 41.3729 14.1057C41.3684 14.3766 41.3346 14.6453 41.3166 14.9162C40.9477 13.6451 40.2997 12.5863 39.2513 11.8052C37.7485 10.6854 36.0747 10.3987 34.2704 10.8773C34.0432 10.9382 33.9959 10.8908 34.0004 10.6741C34.0117 10.2948 33.9644 9.91777 33.9037 9.54526C33.3817 6.30103 31.7079 3.86729 28.826 2.28243C28.385 2.04086 27.9171 1.85122 27.4357 1.69996C27.1882 1.6232 26.9902 1.72479 26.9137 1.94604C26.8372 2.16503 26.9362 2.3637 27.1724 2.46304C27.2219 2.48336 27.2737 2.49916 27.3254 2.51722C29.2984 3.21935 30.8148 4.48589 31.9127 6.26265C31.9644 6.34618 32.0341 6.42746 32.0454 6.55389C29.5639 4.42493 25.7753 4.89452 23.8293 7.57208C23.8158 7.56079 23.7978 7.55402 23.7866 7.54048C23.7528 7.49984 23.7191 7.45694 23.6853 7.41405C22.7022 6.13622 21.4873 5.1406 20.0227 4.46557C17.8022 3.4406 15.5142 3.27353 13.1677 3.97566C12.8618 4.06822 12.7358 4.26238 12.8055 4.5062C12.8753 4.74777 13.098 4.84485 13.3927 4.75229C14.8303 4.30527 16.2859 4.23755 17.7572 4.54684C18.4007 4.6823 19.0261 4.87872 19.6133 5.19479C19.2983 5.19479 18.9878 5.20382 18.6774 5.23317C15.8877 5.48828 13.6942 7.84526 13.6492 10.656C13.6469 10.8434 13.6267 10.9089 13.413 10.8434C12.1418 10.4619 10.8415 10.3377 9.52089 10.4912C6.79644 10.8095 4.58269 12.0445 2.90213 14.2231C2.69515 14.4918 2.6974 14.7288 2.89763 14.8891C3.1091 15.0584 3.32958 14.9975 3.5523 14.704C3.56805 14.6814 3.5838 14.6611 3.6018 14.6385C4.86841 13.0062 6.51297 11.9609 8.51075 11.4665C8.5625 11.453 8.61424 11.4327 8.66599 11.4259C8.71998 11.4191 8.77397 11.4236 8.87296 11.4236C7.46462 12.3312 6.58722 13.5548 6.29925 15.169C6.01353 16.7697 6.38699 18.2327 7.29814 19.5624C7.25989 19.5895 7.24639 19.6031 7.23064 19.6098C7.17215 19.6324 7.11366 19.655 7.05516 19.6753C4.96065 20.4452 3.29133 21.7568 2.08322 23.6397C1.10232 25.1681 0.598381 26.8478 0.589382 28.6697C0.587132 28.9565 0.728866 29.119 0.96959 29.1303C1.21706 29.1416 1.38354 28.9655 1.39704 28.6788C1.39704 28.6607 1.39704 28.6427 1.39704 28.6246C1.41954 26.6334 2.08322 24.8701 3.29808 23.3101C3.41507 23.1588 3.51856 22.9873 3.75478 22.845C3.1676 24.4118 3.18559 25.9132 3.89202 27.3716C4.59844 28.83 5.75706 29.7895 7.27339 30.3201C7.26664 30.3427 7.26664 30.363 7.25764 30.3765C7.23514 30.4149 7.20815 30.451 7.1834 30.4894C5.64007 32.7899 5.10238 35.3027 5.61532 38.0299C5.8628 39.3394 6.38924 40.5359 7.15865 41.6218C7.33188 41.8657 7.52311 41.9244 7.73009 41.8115C7.97756 41.676 8.00006 41.4187 7.79308 41.1161C6.52647 39.2761 6.04503 37.242 6.27675 35.0182C6.36674 35.0634 6.35774 35.1424 6.37574 35.2079C6.6997 36.4022 7.33413 37.4001 8.32177 38.1473C9.82911 39.2874 11.5119 39.5584 13.3252 39.0978C13.5232 39.0481 13.6064 39.0256 13.5997 39.2829C13.5839 39.9241 13.6717 40.5607 13.8269 41.1839C14.6796 44.6132 16.7178 46.9973 20.043 48.2345C20.3647 48.3541 20.5919 48.2774 20.6752 48.0381C20.7674 47.7717 20.6437 47.5798 20.3039 47.4646C18.8326 46.9612 17.5952 46.11 16.5761 44.9383C16.1847 44.489 15.8359 44.0059 15.5705 43.4596C16.8483 44.4732 18.2814 44.9225 19.9012 44.7013C21.5143 44.4823 22.7809 43.665 23.7686 42.3759C24.1623 42.8997 24.5695 43.3828 25.0442 43.8005C27.7754 46.2026 30.8845 46.9928 34.4099 45.9949C34.7428 45.9001 34.8666 45.7104 34.7811 45.4576C34.6956 45.2002 34.5021 45.128 34.1624 45.2318C32.5201 45.7353 30.871 45.742 29.222 45.277C28.781 45.1528 28.3446 45.0083 27.9418 44.7645C29.5729 44.857 31.0015 44.3829 32.1871 43.2541C33.3727 42.1253 33.9329 40.712 33.9644 39.0662C35.537 39.5516 37.1163 39.6825 38.7204 39.389C41.1861 38.9375 43.1929 37.7251 44.716 35.7226C44.905 35.4698 44.8937 35.244 44.6935 35.0837ZM43.4449 24.992C43.4449 27.1571 41.9285 29.11 39.8273 29.6586C39.69 29.6947 39.5866 29.6721 39.4786 29.5976C38.2165 28.7307 37.4088 27.5409 37.1411 26.0396C36.7316 23.7323 37.5258 21.8675 39.3526 20.4248C39.5123 20.2984 39.6563 20.2849 39.8475 20.339C41.969 20.9328 43.4449 22.8405 43.4449 24.992ZM33.717 12.1009C33.7664 11.9384 33.8452 11.8458 34.0072 11.7848C34.5854 11.5681 35.1793 11.453 36.0949 11.4507C37.7598 11.5252 39.2873 12.3651 40.1332 14.1734C40.9836 15.9908 40.6934 17.7292 39.5011 19.3254C39.3998 19.4631 39.2716 19.4811 39.1231 19.4789C36.9993 19.4608 35.3413 18.5668 34.2299 16.7517C33.339 15.2977 33.2198 13.7264 33.717 12.1009ZM24.313 8.29679C25.3299 6.67354 27.3547 5.74791 29.1837 6.07752C31.15 6.42972 32.6776 7.91524 33.078 9.8681C33.159 10.2654 33.1905 10.6673 33.1905 11.0759C33.1905 11.2746 33.105 11.3965 32.9633 11.5026C32.1241 12.1348 31.1815 12.4983 30.1399 12.6066C29.9531 12.6269 29.7641 12.6292 29.5752 12.6382C27.1454 12.6315 24.9812 11.0172 24.259 8.67607C24.2095 8.52932 24.2365 8.42096 24.313 8.29679ZM18.3939 6.07752C20.2117 5.7321 22.3625 6.70515 23.2939 8.28776C23.3569 8.39386 23.3524 8.48643 23.3209 8.59254C22.9969 9.75071 22.3535 10.6967 21.4153 11.4372C19.4265 13.0107 16.6616 13.0446 14.6278 11.532C14.4186 11.3762 14.4186 11.3762 14.4186 10.884C14.4186 8.51352 16.0677 6.52002 18.3939 6.07752ZM7.00567 16.1805C7.00792 13.7106 8.89096 11.6674 11.3409 11.4575C12.0901 11.3943 12.8078 11.4981 13.5142 11.7374C13.6739 11.7916 13.7684 11.8797 13.8224 12.04C14.4276 13.8461 14.2139 15.5528 13.1272 17.1084C12.0159 18.7023 10.441 19.4721 8.504 19.506C8.31952 19.5082 8.20704 19.4428 8.09905 19.3028C7.38138 18.3862 7.00567 17.3499 7.00567 16.1805ZM4.14624 24.9717C4.14624 22.8089 5.68507 20.8357 7.76833 20.312C7.92132 20.2736 8.02931 20.3232 8.14179 20.4C9.25092 21.1676 9.98434 22.2106 10.351 23.502C10.9945 25.7709 10.1058 28.2318 8.18004 29.5909C8.0698 29.6676 7.97306 29.697 7.83583 29.6631C5.69632 29.1393 4.14624 27.1729 4.14624 24.9717ZM13.8674 37.89C13.8224 38.039 13.7459 38.127 13.5952 38.188C10.6705 39.3416 7.48712 37.5287 7.03942 34.4177C6.83919 33.0338 7.22165 31.7785 8.0743 30.6678C8.20929 30.4939 8.37802 30.4962 8.5535 30.4962C10.0091 30.4984 11.2869 30.9861 12.3556 31.9749C13.5434 33.0767 14.1374 34.4561 14.1531 36.0816C14.1666 36.7024 14.0496 37.3007 13.8674 37.89ZM23.2579 41.7054C22.268 43.148 20.9046 43.9021 19.5795 43.9472C16.7898 43.9472 14.7471 42.1388 14.4591 39.7931C14.4321 39.5696 14.4366 39.3439 14.4006 39.1226C14.3421 38.7501 14.5198 38.5311 14.8123 38.3302C17.9125 36.199 22.169 37.6642 23.3209 41.2584C23.3794 41.4299 23.3591 41.5609 23.2579 41.7054ZM21.4873 37.5739C20.4862 36.9169 19.3815 36.5828 18.1847 36.5128C18.6009 36.3322 19.0396 36.2328 19.4783 36.1516C21.1341 35.84 22.7674 35.9348 24.3782 36.436C24.6752 36.5286 24.8912 36.4338 24.9654 36.1854C25.0352 35.9506 24.9002 35.7452 24.601 35.6594C21.2196 34.666 18.0654 35.183 15.1228 37.0998C15.0845 37.1246 15.0485 37.1517 15.0125 37.1765C14.9675 37.2036 14.9203 37.2578 14.8685 37.2194C14.8236 37.1856 14.8483 37.1269 14.855 37.0727C15.2083 34.6299 14.4186 32.6297 12.5221 31.0651C12.5108 31.0561 12.5018 31.0403 12.4883 31.0267C12.5806 30.9816 12.6593 31.0335 12.7403 31.0606C14.6908 31.7559 16.2949 32.9231 17.5413 34.5825C17.7235 34.8241 17.9395 34.8918 18.1374 34.7654C18.3647 34.6231 18.3917 34.3748 18.1982 34.1107C17.6245 33.3295 16.9563 32.6364 16.1937 32.0427C14.2566 30.5391 12.0586 29.7624 9.61313 29.6767C9.55914 29.6744 9.50514 29.6721 9.45115 29.6654C9.43765 29.6631 9.42415 29.6473 9.39041 29.6247C9.84035 29.1574 10.2521 28.663 10.5603 28.0918C11.3432 26.6446 11.5524 25.1207 11.1812 23.5156C11.1722 23.4727 11.1677 23.4275 11.161 23.3824C11.1475 23.3327 11.107 23.2717 11.2082 23.2762C12.4321 25.0079 13.0755 26.9336 13.107 29.0581C13.1115 29.2861 13.1565 29.4757 13.3972 29.5435C13.6964 29.627 13.9169 29.4419 13.9169 29.1055C13.9147 28.0715 13.7617 27.0578 13.4625 26.0712C12.7673 23.7865 11.4669 21.9171 9.59513 20.4429C9.52764 20.3887 9.43765 20.3571 9.3994 20.2578C11.9079 19.8266 13.6424 18.4404 14.5963 16.0337C14.6436 16.2775 14.6121 16.4943 14.6031 16.7065C14.5918 16.9232 14.5693 17.1377 14.5423 17.3522C14.3264 19.0545 13.7347 20.6122 12.7425 22.012C12.5648 22.2626 12.5873 22.4838 12.7898 22.6306C13.0035 22.7863 13.224 22.7344 13.4062 22.4748C14.5648 20.8335 15.215 19.0093 15.3815 17.0068C15.5007 15.5619 15.3342 14.1486 14.9135 12.7624C14.9068 12.7376 14.9068 12.7127 14.9045 12.6721C17.161 13.7896 19.3545 13.7061 21.5076 12.3876C21.5391 12.5073 21.4423 12.5682 21.3883 12.636C20.1622 14.2073 18.6211 15.3451 16.7426 16.0157C16.6998 16.0315 16.6571 16.045 16.6166 16.0608C16.3129 16.1669 16.1914 16.3543 16.2701 16.5981C16.3534 16.851 16.5694 16.9323 16.8888 16.8239C17.8045 16.5123 18.6639 16.0902 19.4625 15.5461C21.4468 14.1892 22.8439 12.3696 23.6876 10.1164C23.7281 10.0103 23.7686 9.90423 23.8136 9.78683C25.4289 12.3357 26.8552 13.2636 29.4694 13.4397C29.0442 13.6271 28.6438 13.7084 28.2478 13.7896C26.5493 14.1328 24.8732 14.0538 23.2174 13.5368C22.8687 13.4284 22.6144 13.5729 22.6077 13.8777C22.6032 14.0967 22.7134 14.2254 22.9204 14.2908C24.1758 14.6904 25.4581 14.862 26.772 14.7875C28.916 14.6679 30.862 13.9815 32.6258 12.7579C32.6461 12.7443 32.6708 12.7331 32.7271 12.7037C32.3671 15.1961 33.1073 17.2619 35.0106 18.8942C34.8553 18.919 34.8531 18.919 34.7181 18.8671C32.8351 18.1649 31.2737 17.0226 30.0589 15.4129C29.9779 15.3045 29.9036 15.1871 29.7596 15.1555C29.5864 15.1194 29.4357 15.1668 29.3299 15.3135C29.2107 15.4806 29.2242 15.6477 29.3457 15.8125C29.7664 16.3882 30.2366 16.921 30.7675 17.3996C32.5966 19.0499 34.7383 19.9936 37.1838 20.2397C37.5123 20.2736 37.843 20.2871 38.2187 20.3142C36.4482 22.1226 35.8587 24.247 36.4392 26.6898C36.3357 26.7079 36.3222 26.6288 36.2929 26.5859C35.1275 24.8769 34.4976 22.9918 34.4729 20.9125C34.4684 20.5851 34.3334 20.4113 34.0769 20.4045C33.8114 20.3977 33.6562 20.5829 33.6652 20.917C33.7619 24.4412 35.2243 27.2813 37.9397 29.4938C38.0027 29.5457 38.0657 29.5954 38.1287 29.6473C38.1422 29.6586 38.1467 29.6767 38.1715 29.715C35.6765 30.144 33.9464 31.5279 32.979 33.9413C32.979 33.6659 32.97 33.4492 32.9813 33.2324C32.9925 33.0067 33.015 32.7832 33.0443 32.5597C33.267 30.8868 33.8519 29.3561 34.8261 27.9744C35.0128 27.7103 34.9948 27.4822 34.7878 27.3332C34.5809 27.182 34.3424 27.2497 34.1534 27.5229C32.6416 29.7083 32.0004 32.1285 32.2029 34.7789C32.2681 35.6255 32.4413 36.4473 32.6888 37.3007C30.3918 36.1651 28.1803 36.2599 26.0228 37.5897C26.3828 37.0321 26.8237 36.5534 27.2984 36.1087C28.3558 35.1153 29.5707 34.3838 30.943 33.912C31.0892 33.8623 31.24 33.8172 31.2962 33.6501C31.348 33.4943 31.3367 33.3476 31.222 33.2212C31.0892 33.0721 30.9273 33.0631 30.7518 33.1218C30.0949 33.3431 29.4627 33.6185 28.8597 33.9617C26.457 35.332 24.8214 37.3278 23.7618 40.204C23.2264 39.1181 22.4862 38.2286 21.4873 37.5739ZM29.0442 43.9156C28.8417 43.9495 28.6325 43.9495 28.403 43.9675C26.6797 43.9088 25.3096 43.1616 24.3175 41.7167C24.2455 41.6128 24.2253 41.5157 24.2635 41.3893C24.8102 39.5764 25.9688 38.3144 27.7371 37.671C29.5932 36.9959 31.3412 37.3097 32.9565 38.4318C33.1095 38.5379 33.1568 38.6643 33.1635 38.8359C33.2738 41.3848 31.5594 43.5025 29.0442 43.9156ZM35.33 38.5176C34.8981 38.4905 34.4819 38.3776 34.0724 38.2354C33.9127 38.1812 33.8249 38.0864 33.7687 37.9283C33.5437 37.321 33.4537 36.6934 33.4515 36.05C33.4537 33.1918 35.5842 30.8123 38.4369 30.5142C39.4943 30.4036 39.2963 30.2817 39.8565 31.2209C40.8509 32.8848 40.8959 34.6209 39.8678 36.2825C38.8374 37.9487 37.2626 38.6372 35.33 38.5176Z" fill="#FF6E00"/>
<path d="M16.3107 41.509C15.7617 41.4909 15.359 41.0394 15.3815 40.4637C15.4018 39.9445 15.8562 39.5358 16.3917 39.5561C16.9293 39.5742 17.341 40.0235 17.323 40.5743C17.3073 41.1117 16.8573 41.5271 16.3107 41.509Z" fill="#0064C8"/>
<path d="M39.8745 27.2881C39.8723 26.7373 40.2907 26.3038 40.8329 26.297C41.3661 26.2902 41.8116 26.7327 41.8183 27.2701C41.8228 27.8119 41.3931 28.2499 40.8487 28.2521C40.2952 28.2589 39.8768 27.8435 39.8745 27.2881Z" fill="#0064C8"/>
<path d="M20.7068 8.99218C20.1511 8.99443 19.7304 8.58354 19.7259 8.02816C19.7214 7.4931 20.1623 7.04609 20.6978 7.04383C21.2332 7.04157 21.6854 7.48859 21.6854 8.01913C21.6854 8.55871 21.2534 8.98992 20.7068 8.99218Z" fill="#0064C8"/>
<path d="M36.2614 35.9213C36.7991 35.9259 37.2108 36.3458 37.213 36.8854C37.2153 37.4407 36.7653 37.8832 36.2187 37.8697C35.6765 37.8561 35.258 37.4137 35.2693 36.8673C35.2783 36.3142 35.699 35.9146 36.2614 35.9213Z" fill="#0064C8"/>
<path d="M30.2681 9.44375C30.2681 8.88837 30.682 8.46619 31.2332 8.46619C31.7799 8.46619 32.2096 8.89062 32.2096 9.43697C32.2119 9.98106 31.7799 10.4168 31.2377 10.4168C30.6865 10.4168 30.2681 9.99913 30.2681 9.44375Z" fill="#0064C8"/>
<path d="M7.71652 22.7006C7.71427 23.2469 7.28232 23.6782 6.73788 23.6736C6.19794 23.6691 5.76824 23.2311 5.77274 22.687C5.77724 22.1475 6.22269 21.7027 6.75138 21.7095C7.29357 21.7163 7.71877 22.1542 7.71652 22.7006Z" fill="#0064C8"/>
<path d="M12.3129 13.0876C12.3129 13.6339 11.8832 14.0674 11.3433 14.0674C10.8078 14.0674 10.3691 13.6226 10.3691 13.083C10.3691 12.5389 10.7966 12.1123 11.3478 12.1123C11.899 12.11 12.3152 12.5299 12.3129 13.0876Z" fill="#0064C8"/>
<path d="M39.9061 16.8014C39.9016 17.3454 39.4629 17.7789 38.9229 17.7744C38.3853 17.7699 37.9421 17.3206 37.9488 16.7878C37.9556 16.2505 38.41 15.799 38.9342 15.808C39.4741 15.8193 39.9106 16.2663 39.9061 16.8014Z" fill="#0064C8"/>
<path d="M26.8777 42.9201C26.3332 42.9178 25.9013 42.4821 25.9058 41.9425C25.9103 41.4074 26.358 40.9672 26.8934 40.9717C27.4356 40.9762 27.8586 41.4074 27.8563 41.9583C27.8563 42.5092 27.4356 42.9223 26.8777 42.9201Z" fill="#0064C8"/>
<path d="M8.6502 34.1536C8.11026 34.1491 7.67156 33.7044 7.67606 33.1693C7.68056 32.6365 8.13276 32.1917 8.66595 32.1963C9.20139 32.2008 9.64234 32.65 9.63559 33.1851C9.62884 33.7337 9.19464 34.1582 8.6502 34.1536Z" fill="#0064C8"/>
<path d="M22.0633 48.2391C22.0678 47.2796 22.8169 46.539 23.7798 46.5458C24.7337 46.5503 25.4761 47.3089 25.4716 48.2707C25.4671 49.2189 24.6977 49.9797 23.7483 49.9707C22.7989 49.9616 22.0588 49.2008 22.0633 48.2391Z" fill="#0064C8"/>
</svg>
