<svg width="88" height="88" viewBox="0 0 88 88" fill="none" xmlns="http://www.w3.org/2000/svg">
<rect width="88" height="88" rx="44" fill="white"/>
<path d="M44.0007 55.6663C40.1673 55.6663 33.334 55.333 30.5007 54.6663C29.334 54.333 28.5007 53.4997 28.1673 52.333C27.6673 50.4997 27.334 46.6663 27.334 43.9997C27.334 41.333 27.6673 37.4997 28.1673 35.6663C28.5007 34.4997 29.334 33.6663 30.5007 33.333C33.334 32.6663 40.1673 32.333 44.0007 32.333C47.834 32.333 54.6673 32.6663 57.5007 33.333C58.6673 33.6663 59.5007 34.4997 59.834 35.6663C60.334 37.4997 60.6673 41.333 60.6673 43.9997C60.6673 46.6663 60.334 50.4997 59.834 52.333C59.5007 53.4997 58.6673 54.333 57.5007 54.6663C54.6673 55.333 47.834 55.6663 44.0007 55.6663Z" stroke="#FF6E00" stroke-width="4" stroke-linecap="round" stroke-linejoin="round"/>
<path d="M40.666 49L48.9993 44L40.666 39V49Z" stroke="#FF6E00" stroke-width="4" stroke-linecap="round" stroke-linejoin="round"/>
</svg>
