<?xml version="1.0" encoding="UTF-8"?>
<!DOCTYPE svg PUBLIC "-//W3C//DTD SVG 1.1//EN" "http://www.w3.org/Graphics/SVG/1.1/DTD/svg11.dtd">
<svg xmlns="http://www.w3.org/2000/svg" version="1.1" width="742px" height="203px" style="shape-rendering:geometricPrecision; text-rendering:geometricPrecision; image-rendering:optimizeQuality; fill-rule:evenodd; clip-rule:evenodd" xmlns:xlink="http://www.w3.org/1999/xlink">
<g><path style="opacity:1" fill="#fcfcfd" d="M -0.5,-0.5 C 246.833,-0.5 494.167,-0.5 741.5,-0.5C 741.5,5.16667 741.5,10.8333 741.5,16.5C 709.996,16.1685 678.662,16.5018 647.5,17.5C 647.5,18.5 647.5,19.5 647.5,20.5C 651.605,20.2338 655.605,20.7338 659.5,22C 661.049,23.214 662.215,24.714 663,26.5C 663.667,56.8333 663.667,87.1667 663,117.5C 662.31,120.196 660.81,122.363 658.5,124C 654.914,125.108 651.247,125.608 647.5,125.5C 647.5,126.5 647.5,127.5 647.5,128.5C 661.5,128.5 675.5,128.5 689.5,128.5C 690.497,111.008 690.83,93.3412 690.5,75.5C 694.167,75.5 697.833,75.5 701.5,75.5C 709.487,77.8237 713.82,83.157 714.5,91.5C 715.209,92.404 716.209,92.7373 717.5,92.5C 717.5,78.5 717.5,64.5 717.5,50.5C 716.209,50.2627 715.209,50.596 714.5,51.5C 713.693,60.3019 709.026,65.6352 700.5,67.5C 697.167,67.5 693.833,67.5 690.5,67.5C 690.5,52.8333 690.5,38.1667 690.5,23.5C 703.241,23.0589 715.908,23.5589 728.5,25C 734.6,28.7719 738.6,33.9386 740.5,40.5C 740.833,40.5 741.167,40.5 741.5,40.5C 741.5,94.5 741.5,148.5 741.5,202.5C 704.167,202.5 666.833,202.5 629.5,202.5C 633.548,195.878 636.548,188.711 638.5,181C 638.167,180.5 637.833,180 637.5,179.5C 635.206,183.181 633.373,187.181 632,191.5C 630.731,187.859 629.564,184.192 628.5,180.5C 627.5,179.167 626.5,179.167 625.5,180.5C 627.468,185.571 629.135,190.737 630.5,196C 629.733,198.583 628.399,200.749 626.5,202.5C 417.5,202.5 208.5,202.5 -0.5,202.5C -0.5,198.167 -0.5,193.833 -0.5,189.5C 2.38795,195.646 7.05462,197.146 13.5,194C 14.1905,192.933 14.6905,191.766 15,190.5C 15.4994,185.177 15.666,179.844 15.5,174.5C 14.791,173.596 13.791,173.263 12.5,173.5C 12.5,178.5 12.5,183.5 12.5,188.5C 10.9987,193.579 8.16535,194.579 4,191.5C 2.58995,185.621 2.08995,179.621 2.5,173.5C 1.5,173.5 0.5,173.5 -0.5,173.5C -0.5,115.5 -0.5,57.5 -0.5,-0.5 Z"/></g>
<g><path style="opacity:1" fill="#696768" d="M 151.5,4.5 C 140.482,4.38078 129.482,4.71412 118.5,5.5C 124.936,4.0126 131.602,3.34594 138.5,3.5C 143.013,3.50093 147.347,3.83426 151.5,4.5 Z"/></g>
<g><path style="opacity:1" fill="#383637" d="M 151.5,4.5 C 221.894,11.2315 267.894,48.2315 289.5,115.5C 287.05,115.702 284.717,115.369 282.5,114.5C 270.838,72.0298 244.838,41.8631 204.5,24C 164.58,7.7632 124.58,7.42987 84.5,23C 65.6922,31.8099 49.8589,44.3099 37,60.5C 25.293,77.4002 15.4596,95.4002 7.5,114.5C 5.95467,115.452 4.28801,115.785 2.5,115.5C 11.7911,85.4069 27.4578,59.2402 49.5,37C 69.2029,19.4851 92.2029,8.98514 118.5,5.5C 129.482,4.71412 140.482,4.38078 151.5,4.5 Z"/></g>
<g><path style="opacity:1" fill="#a2a2c6" d="M 622.5,17.5 C 629.313,16.5088 636.313,16.1755 643.5,16.5C 643.768,18.099 643.434,19.4324 642.5,20.5C 642.5,19.5 642.5,18.5 642.5,17.5C 635.833,17.5 629.167,17.5 622.5,17.5 Z"/></g>
<g><path style="opacity:1" fill="#3c3a3b" d="M 144.5,17.5 C 146.833,17.5 149.167,17.5 151.5,17.5C 151.5,27.8333 151.5,38.1667 151.5,48.5C 149.167,48.5 146.833,48.5 144.5,48.5C 143.213,38.1241 143.213,27.7908 144.5,17.5 Z"/></g>
<g><path style="opacity:1" fill="#3d3b89" d="M 306.5,17.5 C 319.833,17.5 333.167,17.5 346.5,17.5C 346.169,44.0053 346.502,70.3386 347.5,96.5C 347.324,116.09 356.991,124.59 376.5,122C 384.287,120.543 390.12,116.377 394,109.5C 396.278,103.721 397.611,97.7212 398,91.5C 398.5,66.8356 398.667,42.1689 398.5,17.5C 405.833,17.5 413.167,17.5 420.5,17.5C 420.5,18.5 420.5,19.5 420.5,20.5C 412.788,19.0343 407.621,22.0343 405,29.5C 404.667,52.8333 404.333,76.1667 404,99.5C 401.216,116.95 391.05,127.117 373.5,130C 353.577,134.828 337.41,129.328 325,113.5C 323.512,109.213 322.178,104.88 321,100.5C 320.667,75.5 320.333,50.5 320,25.5C 319.167,23.3333 317.667,21.8333 315.5,21C 312.518,20.502 309.518,20.3354 306.5,20.5C 306.5,19.5 306.5,18.5 306.5,17.5 Z"/></g>
<g><path style="opacity:1" fill="#3c3b89" d="M 425.5,17.5 C 456.5,17.5 487.5,17.5 518.5,17.5C 518.5,25.1667 518.5,32.8333 518.5,40.5C 516.6,33.9386 512.6,28.7719 506.5,25C 493.908,23.5589 481.241,23.0589 468.5,23.5C 467.504,38.324 467.171,53.324 467.5,68.5C 471.702,68.8168 475.702,68.4834 479.5,67.5C 487.471,65.1894 491.805,59.856 492.5,51.5C 493.83,57.7983 494.497,64.4649 494.5,71.5C 494.497,78.5351 493.83,85.2017 492.5,91.5C 491.82,83.157 487.487,77.8237 479.5,75.5C 475.702,74.5166 471.702,74.1832 467.5,74.5C 467.5,90.5 467.5,106.5 467.5,122.5C 480.011,122.829 492.345,122.495 504.5,121.5C 514.098,119.901 519.098,114.234 519.5,104.5C 520.5,104.5 521.5,104.5 522.5,104.5C 522.5,112.5 522.5,120.5 522.5,128.5C 490.167,128.5 457.833,128.5 425.5,128.5C 425.5,127.5 425.5,126.5 425.5,125.5C 431.164,126.112 435.998,124.446 440,120.5C 441.137,104.217 441.637,87.8841 441.5,71.5C 441.333,56.5 441.167,41.5 441,26.5C 440.215,24.714 439.049,23.214 437.5,22C 433.605,20.7338 429.605,20.2338 425.5,20.5C 425.5,19.5 425.5,18.5 425.5,17.5 Z"/></g>
<g><path style="opacity:1" fill="#3d3c89" d="M 620.5,83.5 C 620.783,84.2891 621.283,84.9558 622,85.5C 622.5,62.8358 622.667,40.1691 622.5,17.5C 629.167,17.5 635.833,17.5 642.5,17.5C 642.5,18.5 642.5,19.5 642.5,20.5C 635.794,19.5587 631.294,22.2254 629,28.5C 628.5,62.4984 628.333,96.4984 628.5,130.5C 625.737,130.256 623.571,128.923 622,126.5C 599.065,97.6197 575.898,68.953 552.5,40.5C 552.217,39.7109 551.717,39.0442 551,38.5C 550.5,68.4981 550.333,98.4981 550.5,128.5C 543.167,128.5 535.833,128.5 528.5,128.5C 528.5,127.5 528.5,126.5 528.5,125.5C 535.789,125.924 540.956,122.924 544,116.5C 544.667,87.5 544.667,58.5 544,29.5C 540.699,23.2669 535.533,20.2669 528.5,20.5C 528.5,19.5 528.5,18.5 528.5,17.5C 541.837,17.3334 555.171,17.5001 568.5,18C 585.697,40.0205 603.031,61.8539 620.5,83.5 Z"/></g>
<g><path style="opacity:1" fill="#3c3a88" d="M 647.5,17.5 C 678.5,17.5 709.5,17.5 740.5,17.5C 740.5,25.1667 740.5,32.8333 740.5,40.5C 738.6,33.9386 734.6,28.7719 728.5,25C 715.908,23.5589 703.241,23.0589 690.5,23.5C 689.504,38.324 689.171,53.324 689.5,68.5C 693.371,68.815 697.038,68.4816 700.5,67.5C 709.026,65.6352 713.693,60.3019 714.5,51.5C 715.83,57.7983 716.497,64.4649 716.5,71.5C 716.497,78.5351 715.83,85.2017 714.5,91.5C 713.82,83.157 709.487,77.8237 701.5,75.5C 697.702,74.5166 693.702,74.1832 689.5,74.5C 689.5,92.5 689.5,110.5 689.5,128.5C 675.5,128.5 661.5,128.5 647.5,128.5C 647.5,127.5 647.5,126.5 647.5,125.5C 651.247,125.608 654.914,125.108 658.5,124C 660.81,122.363 662.31,120.196 663,117.5C 663.667,87.1667 663.667,56.8333 663,26.5C 662.215,24.714 661.049,23.214 659.5,22C 655.605,20.7338 651.605,20.2338 647.5,20.5C 647.5,19.5 647.5,18.5 647.5,17.5 Z"/></g>
<g><path style="opacity:1" fill="#353334" d="M 165.5,32.5 C 164.523,35.2869 164.19,38.2869 164.5,41.5C 162.167,41.5 159.833,41.5 157.5,41.5C 154.928,34.4098 156.762,28.7431 163,24.5C 163.973,22.6079 164.64,20.6079 165,18.5C 171.333,15.8333 173.667,17.8333 172,24.5C 170.622,26.2134 168.955,27.5467 167,28.5C 166.209,29.745 165.709,31.0783 165.5,32.5 Z"/></g>
<g><path style="opacity:1" fill="#6765a2" d="M 306.5,17.5 C 319.99,16.5043 333.656,16.171 347.5,16.5C 347.5,43.1667 347.5,69.8333 347.5,96.5C 346.502,70.3386 346.169,44.0053 346.5,17.5C 333.167,17.5 319.833,17.5 306.5,17.5 Z"/></g>
<g><path style="opacity:1" fill="#817faf" d="M 647.5,17.5 C 678.662,16.5018 709.996,16.1685 741.5,16.5C 741.5,24.5 741.5,32.5 741.5,40.5C 741.167,40.5 740.833,40.5 740.5,40.5C 740.5,32.8333 740.5,25.1667 740.5,17.5C 709.5,17.5 678.5,17.5 647.5,17.5 Z"/></g>
<g><path style="opacity:1" fill="#3c3a3b" d="M 102.5,21.5 C 107.867,21.0323 110.534,23.5323 110.5,29C 110.048,32.4094 108.881,35.576 107,38.5C 106.262,42.7097 106.428,46.8764 107.5,51C 105.559,54.6525 103.059,55.1525 100,52.5C 97.783,45.8978 98.4496,39.5645 102,33.5C 102.134,29.3873 102.301,25.3873 102.5,21.5 Z"/></g>
<g><path style="opacity:1" fill="#b5b4d2" d="M 690.5,23.5 C 690.5,38.1667 690.5,52.8333 690.5,67.5C 693.833,67.5 697.167,67.5 700.5,67.5C 697.038,68.4816 693.371,68.815 689.5,68.5C 689.171,53.324 689.504,38.324 690.5,23.5 Z"/></g>
<g><path style="opacity:1" fill="#bcbcd5" d="M 468.5,23.5 C 468.5,38.1667 468.5,52.8333 468.5,67.5C 472.167,67.5 475.833,67.5 479.5,67.5C 475.702,68.4834 471.702,68.8168 467.5,68.5C 467.171,53.324 467.504,38.324 468.5,23.5 Z"/></g>
<g><path style="opacity:1" fill="#383637" d="M 81.5,31.5 C 86.4067,31.551 89.9067,33.8843 92,38.5C 92.4525,42.1775 92.2858,45.8441 91.5,49.5C 91.4812,52.1875 92.1478,54.6875 93.5,57C 89.8135,63.0327 86.6468,62.8661 84,56.5C 83.3307,52.3521 83.8307,48.3521 85.5,44.5C 84.809,40.118 82.809,36.4513 79.5,33.5C 80.2427,32.8182 80.9094,32.1515 81.5,31.5 Z"/></g>
<g><path style="opacity:1" fill="#383637" d="M 210.5,33.5 C 215.772,32.9975 217.272,34.9975 215,39.5C 213.421,41.0412 211.587,42.2078 209.5,43C 204.648,43.4123 200.481,45.2456 197,48.5C 195.991,50.0249 195.491,51.6916 195.5,53.5C 187.365,54.8687 185.532,52.2021 190,45.5C 194.314,40.4299 199.814,38.2632 206.5,39C 208.464,37.549 209.797,35.7157 210.5,33.5 Z"/></g>
<g><path style="opacity:1" fill="#9e9d9e" d="M 165.5,32.5 C 165.5,35.8333 165.5,39.1667 165.5,42.5C 162.615,42.8064 159.948,42.4731 157.5,41.5C 159.833,41.5 162.167,41.5 164.5,41.5C 164.19,38.2869 164.523,35.2869 165.5,32.5 Z"/></g>
<g><path style="opacity:1" fill="#8989b5" d="M 425.5,17.5 C 456.662,16.5018 487.996,16.1685 519.5,16.5C 519.826,24.6841 519.492,32.6841 518.5,40.5C 518.5,32.8333 518.5,25.1667 518.5,17.5C 487.5,17.5 456.5,17.5 425.5,17.5 Z"/></g>
<g><path style="opacity:1" fill="#d6d6e3" d="M 552.5,40.5 C 551.833,69.8333 551.167,99.1667 550.5,128.5C 550.333,98.4981 550.5,68.4981 551,38.5C 551.717,39.0442 552.217,39.7109 552.5,40.5 Z"/></g>
<g><path style="opacity:1" fill="#383637" d="M 63.5,40.5 C 71.7201,41.9021 75.8868,46.9021 76,55.5C 76.8372,57.8442 78.1706,59.8442 80,61.5C 80.727,70.129 78.0603,71.4623 72,65.5C 69.33,60.5306 67.6634,55.1973 67,49.5C 64.7664,47.3002 62.2664,45.4669 59.5,44C 60.7305,42.5952 62.0639,41.4286 63.5,40.5 Z"/></g>
<g><path style="opacity:1" fill="#373536" d="M 226.5,42.5 C 233.286,46.7481 232.619,50.2481 224.5,53C 219.833,53.3333 215.167,53.6667 210.5,54C 208.077,55.5707 206.744,57.7374 206.5,60.5C 198.407,59.1341 197.407,55.6341 203.5,50C 208.386,48.7758 213.386,48.1091 218.5,48C 222.07,47.3889 224.737,45.5555 226.5,42.5 Z"/></g>
<g><path style="opacity:1" fill="#6d6ca3" d="M 714.5,51.5 C 715.209,50.596 716.209,50.2627 717.5,50.5C 717.5,64.5 717.5,78.5 717.5,92.5C 716.209,92.7373 715.209,92.404 714.5,91.5C 715.83,85.2017 716.497,78.5351 716.5,71.5C 716.497,64.4649 715.83,57.7983 714.5,51.5 Z"/></g>
<g><path style="opacity:1" fill="#e2e2ed" d="M 622.5,17.5 C 622.667,40.1691 622.5,62.8358 622,85.5C 621.283,84.9558 620.783,84.2891 620.5,83.5C 621.167,61.5 621.833,39.5 622.5,17.5 Z"/></g>
<g><path style="opacity:1" fill="#393738" d="M 133.5,56.5 C 158.292,53.7587 181.625,58.2587 203.5,70C 215.697,78.8658 225.864,89.6991 234,102.5C 235.317,107.679 233.484,109.679 228.5,108.5C 211.33,75.57 183.996,60.2367 146.5,62.5C 111.122,62.0877 84.6221,77.0877 67,107.5C 65.8904,109.037 64.3904,109.703 62.5,109.5C 61.9579,105.456 62.7912,101.789 65,98.5C 82.0325,74.9066 104.866,60.9066 133.5,56.5 Z"/></g>
<g><path style="opacity:1" fill="#363536" d="M 239.5,56.5 C 246.025,59.0412 246.025,61.5412 239.5,64C 234.149,64.2632 228.816,64.2632 223.5,64C 221.65,66.0176 219.65,67.8509 217.5,69.5C 209.686,66.3407 209.686,62.8407 217.5,59C 222.687,58.3626 227.854,58.5292 233,59.5C 235.802,59.6801 237.969,58.6801 239.5,56.5 Z"/></g>
<g><path style="opacity:1" fill="#7474a5" d="M 492.5,51.5 C 493.209,50.596 494.209,50.2627 495.5,50.5C 495.5,64.5 495.5,78.5 495.5,92.5C 494.209,92.7373 493.209,92.404 492.5,91.5C 493.83,85.2017 494.497,78.5351 494.5,71.5C 494.497,64.4649 493.83,57.7983 492.5,51.5 Z"/></g>
<g><path style="opacity:1" fill="#383637" d="M 42.5,64.5 C 50.8425,65.344 55.3425,70.0106 56,78.5C 57.8551,80.3551 59.6884,82.1884 61.5,84C 58.2331,89.7957 54.3998,89.9623 50,84.5C 49.2402,76.5798 45.0735,71.5798 37.5,69.5C 38.8818,67.4514 40.5484,65.7847 42.5,64.5 Z"/></g>
<g><path style="opacity:1" fill="#383637" d="M 152.5,87.5 C 152.18,90.8984 152.513,94.2317 153.5,97.5C 154.107,97.3764 154.44,97.0431 154.5,96.5C 170.965,83.4084 189.299,80.075 209.5,86.5C 209.795,89.7341 209.129,92.7341 207.5,95.5C 183.21,85.3721 164.876,91.7054 152.5,114.5C 149.914,115.48 147.247,115.813 144.5,115.5C 144.809,103.956 139.809,95.4558 129.5,90C 121.02,86.4598 112.354,85.7932 103.5,88C 100.081,89.5857 97.0809,91.7524 94.5,94.5C 92.8705,91.1039 93.5371,88.2706 96.5,86C 109.641,79.955 122.641,80.2884 135.5,87C 138.194,90.5508 141.528,93.0508 145.5,94.5C 144.759,86.4927 144.259,78.4927 144,70.5C 146.833,69.1304 149.5,69.4637 152,71.5C 152.499,76.8229 152.666,82.1563 152.5,87.5 Z"/></g>
<g><path style="opacity:1" fill="#b5b4d2" d="M 701.5,75.5 C 697.833,75.5 694.167,75.5 690.5,75.5C 690.83,93.3412 690.497,111.008 689.5,128.5C 689.5,110.5 689.5,92.5 689.5,74.5C 693.702,74.1832 697.702,74.5166 701.5,75.5 Z"/></g>
<g><path style="opacity:1" fill="#b2b2cf" d="M 479.5,75.5 C 475.833,75.5 472.167,75.5 468.5,75.5C 468.5,90.8333 468.5,106.167 468.5,121.5C 480.5,121.5 492.5,121.5 504.5,121.5C 492.345,122.495 480.011,122.829 467.5,122.5C 467.5,106.5 467.5,90.5 467.5,74.5C 471.702,74.1832 475.702,74.5166 479.5,75.5 Z"/></g>
<g><path style="opacity:1" fill="#373536" d="M 31.5,81.5 C 32.8734,81.3433 34.2068,81.51 35.5,82C 42.7029,86.4337 50.0362,90.6003 57.5,94.5C 56.5,97.5 54.5,99.5 51.5,100.5C 44.7888,96.1443 37.7888,92.311 30.5,89C 29.5,88.1667 28.5,87.3333 27.5,86.5C 28.8569,84.8144 30.1902,83.1477 31.5,81.5 Z"/></g>
<g><path style="opacity:1" fill="#383637" d="M 258.5,84.5 C 259.833,84.5 261.167,84.5 262.5,84.5C 262.5,86.8333 262.5,89.1667 262.5,91.5C 255.198,93.3174 248.532,96.4841 242.5,101C 240.888,101.72 239.388,101.554 238,100.5C 237.654,98.7818 237.154,97.1151 236.5,95.5C 236.709,94.914 237.043,94.414 237.5,94C 244.896,91.4889 251.896,88.3223 258.5,84.5 Z"/></g>
<g><path style="opacity:1" fill="#393738" d="M 22.5,92.5 C 24.8568,92.3367 27.1902,92.5034 29.5,93C 32.8239,96.6255 36.1572,100.292 39.5,104C 42.0135,105.252 44.6802,105.752 47.5,105.5C 47.7394,107.467 47.4061,109.301 46.5,111C 40.9384,112.581 36.4384,111.081 33,106.5C 30.8942,100.692 26.7275,97.6924 20.5,97.5C 20.3915,95.4862 21.0582,93.8195 22.5,92.5 Z"/></g>
<g><path style="opacity:1" fill="#a2a0a1" d="M 152.5,87.5 C 153.167,90.5 153.833,93.5 154.5,96.5C 154.44,97.0431 154.107,97.3764 153.5,97.5C 152.513,94.2317 152.18,90.8984 152.5,87.5 Z"/></g>
<g><path style="opacity:1" fill="#3a393a" d="M 248.5,100.5 C 251.85,100.335 255.183,100.502 258.5,101C 263.115,103.941 267.782,104.108 272.5,101.5C 274.167,102.5 275.5,103.833 276.5,105.5C 273.86,107.491 270.86,108.491 267.5,108.5C 262.599,106.929 257.599,106.429 252.5,107C 251.315,108.353 249.981,109.52 248.5,110.5C 246.46,108.823 244.46,107.156 242.5,105.5C 244.162,103.348 246.162,101.682 248.5,100.5 Z"/></g>
<g><path style="opacity:1" fill="#929091" d="M 282.5,114.5 C 284.717,115.369 287.05,115.702 289.5,115.5C 288.551,116.152 287.385,116.486 286,116.5C 284.319,116.392 283.152,115.725 282.5,114.5 Z"/></g>
<g><path style="opacity:1" fill="#343233" d="M 174.5,123.5 C 174.5,124.833 174.5,126.167 174.5,127.5C 163.986,127.172 153.653,127.506 143.5,128.5C 138.489,128.666 133.489,128.499 128.5,128C 127.14,126.062 127.473,124.396 129.5,123C 144.545,122.199 159.545,122.366 174.5,123.5 Z"/></g>
<g><path style="opacity:1" fill="#585657" d="M 174.5,123.5 C 175.451,124.919 175.784,126.585 175.5,128.5C 164.833,128.5 154.167,128.5 143.5,128.5C 153.653,127.506 163.986,127.172 174.5,127.5C 174.5,126.167 174.5,124.833 174.5,123.5 Z"/></g>
<g><path style="opacity:1" fill="#8c8b8c" d="M 108.5,172.5 C 108.817,175.572 108.484,178.572 107.5,181.5C 106.893,181.376 106.56,181.043 106.5,180.5C 107.167,177.833 107.833,175.167 108.5,172.5 Z"/></g>
<g><path style="opacity:1" fill="#292728" d="M 272.5,172.5 C 273.823,175.938 274.49,179.771 274.5,184C 274.167,187.833 273.833,191.667 273.5,195.5C 272.503,187.862 272.169,180.196 272.5,172.5 Z"/></g>
<g><path style="opacity:1" fill="#393738" d="M 678.5,172.5 C 678.183,175.572 678.516,178.572 679.5,181.5C 680.107,181.376 680.44,181.043 680.5,180.5C 686.004,178.066 689.337,179.732 690.5,185.5C 690.5,186.833 690.5,188.167 690.5,189.5C 690.16,191.679 689.16,193.512 687.5,195C 683.746,194.914 680.079,195.08 676.5,195.5C 675.868,187.427 676.535,179.76 678.5,172.5 Z"/></g>
<g><path style="opacity:1" fill="#282627" d="M 669.5,173.5 C 673.5,174.167 673.5,174.833 669.5,175.5C 669.5,174.833 669.5,174.167 669.5,173.5 Z"/></g>
<g><path style="opacity:1" fill="#a5a4a4" d="M 669.5,173.5 C 670.568,172.566 671.901,172.232 673.5,172.5C 673.5,173.833 673.5,175.167 673.5,176.5C 671.901,176.768 670.568,176.434 669.5,175.5C 673.5,174.833 673.5,174.167 669.5,173.5 Z"/></g>
<g><path style="opacity:1" fill="#282627" d="M 708.5,173.5 C 712.5,174.167 712.5,174.833 708.5,175.5C 708.5,174.833 708.5,174.167 708.5,173.5 Z"/></g>
<g><path style="opacity:1" fill="#a7a7a7" d="M 708.5,173.5 C 709.568,172.566 710.901,172.232 712.5,172.5C 712.5,173.833 712.5,175.167 712.5,176.5C 710.901,176.768 709.568,176.434 708.5,175.5C 712.5,174.833 712.5,174.167 708.5,173.5 Z"/></g>
<g><path style="opacity:1" fill="#8f8d8e" d="M 235.5,172.5 C 235.817,175.572 235.484,178.572 234.5,181.5C 233.893,181.376 233.56,181.043 233.5,180.5C 234.167,177.833 234.833,175.167 235.5,172.5 Z"/></g>
<g><path style="opacity:1" fill="#737373" d="M 15.5,174.5 C 13.8616,178.913 12.8616,183.579 12.5,188.5C 12.5,183.5 12.5,178.5 12.5,173.5C 13.791,173.263 14.791,173.596 15.5,174.5 Z"/></g>
<g><path style="opacity:1" fill="#807f7f" d="M 34.5,172.5 C 35.8333,172.5 37.1667,172.5 38.5,172.5C 38.5,173.833 38.5,175.167 38.5,176.5C 37.1667,176.5 35.8333,176.5 34.5,176.5C 34.5,175.167 34.5,173.833 34.5,172.5 Z"/></g>
<g><path style="opacity:1" fill="#201e1f" d="M 35.5,173.5 C 37.337,173.639 37.6704,174.306 36.5,175.5C 35.7025,175.043 35.3691,174.376 35.5,173.5 Z"/></g>
<g><path style="opacity:1" fill="#515050" d="M 91.5,173.5 C 92.5,173.5 93.5,173.5 94.5,173.5C 94.5,174.5 94.5,175.5 94.5,176.5C 93.5,176.5 92.5,176.5 91.5,176.5C 91.5,175.5 91.5,174.5 91.5,173.5 Z"/></g>
<g><path style="opacity:1" fill="#7c7b7b" d="M 337.5,174.5 C 336.167,174.5 334.833,174.5 333.5,174.5C 333.5,181.5 333.5,188.5 333.5,195.5C 332.508,188.352 332.175,181.019 332.5,173.5C 334.415,173.216 336.081,173.549 337.5,174.5 Z"/></g>
<g><path style="opacity:1" fill="#807f80" d="M 346.5,174.5 C 346.5,174.167 346.5,173.833 346.5,173.5C 347.5,173.5 348.5,173.5 349.5,173.5C 349.825,181.019 349.492,188.352 348.5,195.5C 349.128,188.087 348.461,181.087 346.5,174.5 Z"/></g>
<g><path style="opacity:1" fill="#656464" d="M 427.5,174.5 C 424.167,174.5 420.833,174.5 417.5,174.5C 417.5,181.5 417.5,188.5 417.5,195.5C 416.508,188.352 416.175,181.019 416.5,173.5C 420.371,173.185 424.038,173.518 427.5,174.5 Z"/></g>
<g><path style="opacity:1" fill="#7e7d7d" d="M 478.5,172.5 C 479.833,172.5 481.167,172.5 482.5,172.5C 482.5,173.833 482.5,175.167 482.5,176.5C 481.167,176.5 479.833,176.5 478.5,176.5C 478.5,175.167 478.5,173.833 478.5,172.5 Z"/></g>
<g><path style="opacity:1" fill="#1d1b1b" d="M 479.5,173.5 C 481.337,173.639 481.67,174.306 480.5,175.5C 479.702,175.043 479.369,174.376 479.5,173.5 Z"/></g>
<g><path style="opacity:1" fill="#bdbcbd" d="M 660.5,174.5 C 657.5,174.5 654.5,174.5 651.5,174.5C 651.5,181.5 651.5,188.5 651.5,195.5C 650.508,188.352 650.175,181.019 650.5,173.5C 654.042,173.187 657.375,173.521 660.5,174.5 Z"/></g>
<g><path style="opacity:1" fill="#6e6c6d" d="M 678.5,172.5 C 679.167,175.167 679.833,177.833 680.5,180.5C 680.44,181.043 680.107,181.376 679.5,181.5C 678.516,178.572 678.183,175.572 678.5,172.5 Z"/></g>
<g><path style="opacity:1" fill="#353334" d="M 660.5,174.5 C 664.146,175.462 665.313,177.795 664,181.5C 663.167,183 662,184.167 660.5,185C 663.115,188.062 664.781,191.562 665.5,195.5C 664.325,195.719 663.325,195.386 662.5,194.5C 661.339,191.642 660.006,188.975 658.5,186.5C 657.081,185.549 655.415,185.216 653.5,185.5C 653.5,188.833 653.5,192.167 653.5,195.5C 652.833,195.5 652.167,195.5 651.5,195.5C 651.5,188.5 651.5,181.5 651.5,174.5C 654.5,174.5 657.5,174.5 660.5,174.5 Z"/></g>
<g><path style="opacity:1" fill="#343233" d="M 337.5,174.5 C 339.833,179.167 342.167,183.833 344.5,188.5C 344.783,189.289 345.283,189.956 346,190.5C 346.499,185.177 346.666,179.844 346.5,174.5C 348.461,181.087 349.128,188.087 348.5,195.5C 347.178,195.67 346.011,195.337 345,194.5C 342.233,189.965 339.733,185.299 337.5,180.5C 337.217,179.711 336.717,179.044 336,178.5C 335.501,184.157 335.334,189.824 335.5,195.5C 334.833,195.5 334.167,195.5 333.5,195.5C 333.5,188.5 333.5,181.5 333.5,174.5C 334.833,174.5 336.167,174.5 337.5,174.5 Z"/></g>
<g><path style="opacity:1" fill="#ecebeb" d="M 654.5,176.5 C 657.885,175.79 660.219,176.956 661.5,180C 660.219,183.044 657.885,184.21 654.5,183.5C 654.5,181.167 654.5,178.833 654.5,176.5 Z"/></g>
<g><path style="opacity:1" fill="#424041" d="M 381.5,175.5 C 382.5,175.5 383.5,175.5 384.5,175.5C 384.5,176.833 384.5,178.167 384.5,179.5C 385.833,179.5 387.167,179.5 388.5,179.5C 388.5,180.5 388.5,181.5 388.5,182.5C 387.167,182.5 385.833,182.5 384.5,182.5C 384.335,185.85 384.502,189.183 385,192.5C 389.418,194.7 388.918,195.534 383.5,195C 383,194.5 382.5,194 382,193.5C 381.501,189.514 381.334,185.514 381.5,181.5C 377.5,180.833 377.5,180.167 381.5,179.5C 381.5,178.167 381.5,176.833 381.5,175.5 Z"/></g>
<g><path style="opacity:1" fill="#3f3e3f" d="M 430.5,172.5 C 431.5,172.5 432.5,172.5 433.5,172.5C 433.5,180.167 433.5,187.833 433.5,195.5C 432.5,195.5 431.5,195.5 430.5,195.5C 430.5,187.833 430.5,180.167 430.5,172.5 Z"/></g>
<g><path style="opacity:1" fill="#696768" d="M 183.5,174.5 C 179.833,174.5 176.167,174.5 172.5,174.5C 172.5,181.167 172.5,187.833 172.5,194.5C 175.85,194.665 179.183,194.498 182.5,194C 179.635,193.817 176.969,193.317 174.5,192.5C 177.5,192.5 180.5,192.5 183.5,192.5C 183.5,193.5 183.5,194.5 183.5,195.5C 179.5,195.5 175.5,195.5 171.5,195.5C 171.5,188.167 171.5,180.833 171.5,173.5C 175.702,173.183 179.702,173.517 183.5,174.5 Z"/></g>
<g><path style="opacity:1" fill="#474546" d="M 199.5,175.5 C 200.5,175.5 201.5,175.5 202.5,175.5C 202.5,176.833 202.5,178.167 202.5,179.5C 203.833,179.5 205.167,179.5 206.5,179.5C 206.5,180.5 206.5,181.5 206.5,182.5C 205.167,182.5 203.833,182.5 202.5,182.5C 202.335,185.85 202.502,189.183 203,192.5C 204.205,193.071 205.372,193.738 206.5,194.5C 204.051,195.91 201.884,195.576 200,193.5C 199.501,189.848 199.335,186.182 199.5,182.5C 198.167,182.5 196.833,182.5 195.5,182.5C 195.5,181.5 195.5,180.5 195.5,179.5C 196.833,179.5 198.167,179.5 199.5,179.5C 199.5,178.167 199.5,176.833 199.5,175.5 Z"/></g>
<g><path style="opacity:1" fill="#3b393a" d="M 299.5,172.5 C 300.5,172.5 301.5,172.5 302.5,172.5C 302.5,180.167 302.5,187.833 302.5,195.5C 298.921,195.08 295.254,194.914 291.5,195C 286.288,189.963 286.288,184.963 291.5,180C 294.347,179.056 296.847,179.556 299,181.5C 299.498,178.518 299.665,175.518 299.5,172.5 Z"/></g>
<g><path style="opacity:1" fill="#bcbcbc" d="M 337.5,180.5 C 336.833,185.5 336.167,190.5 335.5,195.5C 335.334,189.824 335.501,184.157 336,178.5C 336.717,179.044 337.217,179.711 337.5,180.5 Z"/></g>
<g><path style="opacity:1" fill="#383637" d="M 453.5,179.5 C 456.009,180.675 458.509,180.675 461,179.5C 462.812,179.493 464.312,180.16 465.5,181.5C 468.703,178.878 471.87,178.878 475,181.5C 475.828,186.202 475.662,190.869 474.5,195.5C 473.673,191.541 473.173,187.541 473,183.5C 471,180.833 469,180.833 467,183.5C 466.501,187.486 466.334,191.486 466.5,195.5C 465.5,195.5 464.5,195.5 463.5,195.5C 463.666,191.486 463.499,187.486 463,183.5C 461.084,180.967 459.084,180.967 457,183.5C 456.501,187.486 456.334,191.486 456.5,195.5C 455.5,195.5 454.5,195.5 453.5,195.5C 453.5,190.167 453.5,184.833 453.5,179.5 Z"/></g>
<g><path style="opacity:1" fill="#383637" d="M 485.5,195.5 C 484.892,190.056 485.558,185.056 487.5,180.5C 488.078,181.547 488.744,181.38 489.5,180C 492.956,178.877 495.79,179.71 498,182.5C 498.499,186.821 498.666,191.154 498.5,195.5C 497.5,195.5 496.5,195.5 495.5,195.5C 495.666,191.486 495.499,187.486 495,183.5C 492.368,180.808 490.034,181.141 488,184.5C 488.094,188.633 487.26,192.299 485.5,195.5 Z"/></g>
<g><path style="opacity:1" fill="#393738" d="M 516.5,195.5 C 515.892,190.056 516.558,185.056 518.5,180.5C 519.078,181.547 519.744,181.38 520.5,180C 523.956,178.877 526.79,179.71 529,182.5C 529.499,186.821 529.666,191.154 529.5,195.5C 528.5,195.5 527.5,195.5 526.5,195.5C 526.666,191.486 526.499,187.486 526,183.5C 523.368,180.808 521.034,181.141 519,184.5C 519.094,188.633 518.26,192.299 516.5,195.5 Z"/></g>
<g><path style="opacity:1" fill="#373536" d="M 545.5,179.5 C 552.633,178.387 555.966,181.387 555.5,188.5C 551.774,188.177 548.107,188.511 544.5,189.5C 545.313,190.814 546.313,191.981 547.5,193C 549.995,193.157 552.328,193.324 554.5,193.5C 547.154,197.683 542.82,195.517 541.5,187C 541.667,185.833 541.833,184.667 542,183.5C 543.376,182.295 544.542,180.962 545.5,179.5 Z"/></g>
<g><path style="opacity:1" fill="#2c2a2b" d="M 37.5,180.5 C 38.1083,185.944 37.4417,190.944 35.5,195.5C 34.8917,190.056 35.5583,185.056 37.5,180.5 Z"/></g>
<g><path style="opacity:1" fill="#afafaf" d="M 87.5,179.5 C 88.404,180.209 88.7373,181.209 88.5,182.5C 86.5,182.5 84.5,182.5 82.5,182.5C 84.5313,182.028 86.1979,181.028 87.5,179.5 Z"/></g>
<g><path style="opacity:1" fill="#7d7c7d" d="M 94.5,180.5 C 92.5583,185.056 91.8917,190.056 92.5,195.5C 91.5119,190.36 91.1786,185.026 91.5,179.5C 92.791,179.263 93.791,179.596 94.5,180.5 Z"/></g>
<g><path style="opacity:1" fill="#737172" d="M 251.5,180.5 C 252.209,179.596 253.209,179.263 254.5,179.5C 254.821,185.026 254.488,190.36 253.5,195.5C 254.108,190.056 253.442,185.056 251.5,180.5 Z"/></g>
<g><path style="opacity:1" fill="#9b9a9a" d="M 449.5,195.5 C 449.827,190.456 449.494,185.456 448.5,180.5C 447.833,183.642 447.166,186.642 446.5,189.5C 446.5,186.167 446.5,182.833 446.5,179.5C 447.833,179.5 449.167,179.5 450.5,179.5C 450.821,185.026 450.488,190.36 449.5,195.5 Z"/></g>
<g><path style="opacity:1" fill="#2a2829" d="M 479.5,179.5 C 480.812,181.743 481.478,184.41 481.5,187.5C 481.167,190.167 480.833,192.833 480.5,195.5C 479.505,190.208 479.172,184.875 479.5,179.5 Z"/></g>
<g><path style="opacity:1" fill="#6a6a6a" d="M 487.5,180.5 C 485.558,185.056 484.892,190.056 485.5,195.5C 484.512,190.36 484.179,185.026 484.5,179.5C 485.791,179.263 486.791,179.596 487.5,180.5 Z"/></g>
<g><path style="opacity:1" fill="#6e6d6d" d="M 518.5,180.5 C 516.558,185.056 515.892,190.056 516.5,195.5C 515.512,190.36 515.179,185.026 515.5,179.5C 516.791,179.263 517.791,179.596 518.5,180.5 Z"/></g>
<g><path style="opacity:1" fill="#3e3c3d" d="M 568.5,173.5 C 582.244,172.399 587.411,178.399 584,191.5C 583.167,192.333 582.333,193.167 581.5,194C 577.3,195.367 572.967,195.867 568.5,195.5C 568.5,188.167 568.5,180.833 568.5,173.5 Z"/></g>
<g><path style="opacity:1" fill="#f8f8f8" d="M 571.5,176.5 C 582.117,176.616 585.117,181.449 580.5,191C 577.649,192.289 574.649,192.789 571.5,192.5C 571.5,187.167 571.5,181.833 571.5,176.5 Z"/></g>
<g><path style="opacity:1" fill="#676767" d="M 605.5,180.5 C 603.558,185.056 602.892,190.056 603.5,195.5C 602.512,190.36 602.179,185.026 602.5,179.5C 603.791,179.263 604.791,179.596 605.5,180.5 Z"/></g>
<g><path style="opacity:1" fill="#373536" d="M 622.5,179.5 C 621.198,181.028 619.531,182.028 617.5,182.5C 613.533,185.876 613.533,189.376 617.5,193C 619.235,193.651 620.902,193.485 622.5,192.5C 623.386,193.325 623.719,194.325 623.5,195.5C 612.818,195.653 609.818,190.82 614.5,181C 617.014,179.748 619.68,179.248 622.5,179.5 Z"/></g>
<g><path style="opacity:1" fill="#aaaaaa" d="M 622.5,179.5 C 623.404,180.209 623.737,181.209 623.5,182.5C 621.5,182.5 619.5,182.5 617.5,182.5C 619.531,182.028 621.198,181.028 622.5,179.5 Z"/></g>
<g><path style="opacity:1" fill="#636162" d="M 672.5,180.5 C 670.558,185.056 669.892,190.056 670.5,195.5C 669.512,190.36 669.179,185.026 669.5,179.5C 670.791,179.263 671.791,179.596 672.5,180.5 Z"/></g>
<g><path style="opacity:1" fill="#353334" d="M 672.5,180.5 C 673.108,185.944 672.442,190.944 670.5,195.5C 669.892,190.056 670.558,185.056 672.5,180.5 Z"/></g>
<g><path style="opacity:1" fill="#757474" d="M 37.5,180.5 C 35.5583,185.056 34.8917,190.056 35.5,195.5C 34.5119,190.36 34.1786,185.026 34.5,179.5C 35.791,179.263 36.791,179.596 37.5,180.5 Z"/></g>
<g><path style="opacity:1" fill="#3c3a3b" d="M 56.5,179.5 C 63.6699,178.339 67.0032,181.339 66.5,188.5C 63.1667,188.5 59.8333,188.5 56.5,188.5C 57.2375,193.337 59.9042,194.671 64.5,192.5C 65.3857,193.325 65.719,194.325 65.5,195.5C 58.0319,197.621 54.0319,194.954 53.5,187.5C 53.3996,184.376 54.3996,181.71 56.5,179.5 Z"/></g>
<g><path style="opacity:1" fill="#dcdcdc" d="M 58.5,181.5 C 61.8332,180.833 63.8332,182.167 64.5,185.5C 61.9135,186.48 59.2469,186.813 56.5,186.5C 56.3915,184.486 57.0582,182.82 58.5,181.5 Z"/></g>
<g><path style="opacity:1" fill="#2b292a" d="M 94.5,180.5 C 95.1083,185.944 94.4417,190.944 92.5,195.5C 91.8917,190.056 92.5583,185.056 94.5,180.5 Z"/></g>
<g><path style="opacity:1" fill="#f0f0f0" d="M 293.5,181.5 C 298.776,182.293 300.609,185.293 299,190.5C 296.525,194.405 293.858,194.405 291,190.5C 289.927,186.9 290.76,183.9 293.5,181.5 Z"/></g>
<g><path style="opacity:1" fill="#323031" d="M 368.5,179.5 C 369.75,179.577 370.583,180.244 371,181.5C 372.555,179.485 374.389,179.152 376.5,180.5C 373.874,181.293 372.04,182.96 371,185.5C 370.824,188.882 370.324,192.215 369.5,195.5C 368.505,190.208 368.172,184.875 368.5,179.5 Z"/></g>
<g><path style="opacity:1" fill="#3a3839" d="M 427.5,174.5 C 425.365,176.369 422.698,177.036 419.5,176.5C 419.5,178.5 419.5,180.5 419.5,182.5C 422.167,182.5 424.833,182.5 427.5,182.5C 427.5,183.5 427.5,184.5 427.5,185.5C 424.833,185.5 422.167,185.5 419.5,185.5C 420.069,189.329 419.402,192.663 417.5,195.5C 417.5,188.5 417.5,181.5 417.5,174.5C 420.833,174.5 424.167,174.5 427.5,174.5 Z"/></g>
<g><path style="opacity:1" fill="#dddddd" d="M 546.5,181.5 C 550.349,181.019 552.349,182.686 552.5,186.5C 549.753,186.813 547.086,186.48 544.5,185.5C 545.18,184.14 545.847,182.807 546.5,181.5 Z"/></g>
<g><path style="opacity:1" fill="#f3f3f3" d="M 681.5,181.5 C 683.722,181.178 685.556,181.845 687,183.5C 688.004,186.993 687.504,190.159 685.5,193C 682.783,194.033 680.949,193.2 680,190.5C 679.068,187.177 679.568,184.177 681.5,181.5 Z"/></g>
<g><path style="opacity:1" fill="#3f3d3e" d="M 139.5,172.5 C 140.5,172.5 141.5,172.5 142.5,172.5C 142.5,180.167 142.5,187.833 142.5,195.5C 140.876,195.64 139.71,194.973 139,193.5C 132.031,197.261 128.198,195.095 127.5,187C 128.741,179.629 132.575,177.795 139,181.5C 139.498,178.518 139.665,175.518 139.5,172.5 Z"/></g>
<g><path style="opacity:1" fill="#ededed" d="M 132.5,181.5 C 138.303,181.81 140.47,184.81 139,190.5C 136.142,194.405 133.475,194.405 131,190.5C 130.207,187.259 130.707,184.259 132.5,181.5 Z"/></g>
<g><path style="opacity:1" fill="#353334" d="M 183.5,174.5 C 181.012,176.388 178.012,177.055 174.5,176.5C 174.5,178.5 174.5,180.5 174.5,182.5C 177.167,182.5 179.833,182.5 182.5,182.5C 182.5,183.5 182.5,184.5 182.5,185.5C 179.833,185.5 177.167,185.5 174.5,185.5C 174.5,187.833 174.5,190.167 174.5,192.5C 176.969,193.317 179.635,193.817 182.5,194C 179.183,194.498 175.85,194.665 172.5,194.5C 172.5,187.833 172.5,181.167 172.5,174.5C 176.167,174.5 179.833,174.5 183.5,174.5 Z"/></g>
<g><path style="opacity:1" fill="#373536" d="M 235.5,172.5 C 236.823,175.938 237.49,179.771 237.5,184C 237.167,187.833 236.833,191.667 236.5,195.5C 235.346,193.144 234.013,192.977 232.5,195C 227.91,196.615 225.077,195.115 224,190.5C 222.11,181.892 225.277,178.559 233.5,180.5C 233.56,181.043 233.893,181.376 234.5,181.5C 235.484,178.572 235.817,175.572 235.5,172.5 Z"/></g>
<g><path style="opacity:1" fill="#f3f3f3" d="M 228.5,181.5 C 230.722,181.178 232.556,181.845 234,183.5C 235.004,186.993 234.504,190.159 232.5,193C 229.783,194.033 227.949,193.2 227,190.5C 226.068,187.177 226.568,184.177 228.5,181.5 Z"/></g>
<g><path style="opacity:1" fill="#323031" d="M 259.5,186.5 C 261.833,186.5 264.167,186.5 266.5,186.5C 266.737,185.209 266.404,184.209 265.5,183.5C 265.389,182.883 265.056,182.383 264.5,182C 262.005,181.843 259.672,181.676 257.5,181.5C 260.965,178.878 264.465,178.878 268,181.5C 268.828,186.202 268.662,190.869 267.5,195.5C 266.808,194.975 266.308,194.308 266,193.5C 263.447,195.729 260.614,196.062 257.5,194.5C 255.832,191.135 256.498,188.468 259.5,186.5 Z"/></g>
<g><path style="opacity:1" fill="#b8b7b7" d="M 346.5,173.5 C 346.5,173.833 346.5,174.167 346.5,174.5C 346.666,179.844 346.499,185.177 346,190.5C 345.283,189.956 344.783,189.289 344.5,188.5C 345.167,183.5 345.833,178.5 346.5,173.5 Z"/></g>
<g><path style="opacity:1" fill="#3f3e3f" d="M 393.5,179.5 C 400.633,178.387 403.966,181.387 403.5,188.5C 400.167,188.5 396.833,188.5 393.5,188.5C 393.297,190.39 393.963,191.89 395.5,193C 397.995,193.157 400.328,193.324 402.5,193.5C 402.291,194.086 401.957,194.586 401.5,195C 392.884,196.717 389.051,193.217 390,184.5C 390.997,182.677 392.164,181.01 393.5,179.5 Z"/></g>
<g><path style="opacity:1" fill="#dedede" d="M 394.5,181.5 C 398.349,181.019 400.349,182.686 400.5,186.5C 397.753,186.813 395.086,186.48 392.5,185.5C 393.18,184.14 393.847,182.807 394.5,181.5 Z"/></g>
<g><path style="opacity:1" fill="#312f30" d="M 591.5,186.5 C 593.5,186.5 595.5,186.5 597.5,186.5C 597.737,185.209 597.404,184.209 596.5,183.5C 596.389,182.883 596.056,182.383 595.5,182C 593.239,181.761 591.239,181.594 589.5,181.5C 590.527,179.976 592.027,179.309 594,179.5C 596.034,179.354 597.701,180.02 599,181.5C 599.828,186.202 599.662,190.869 598.5,195.5C 595.604,195.293 592.604,195.127 589.5,195C 587.604,193.192 587.104,191.025 588,188.5C 588.816,187.177 589.983,186.511 591.5,186.5 Z"/></g>
<g><path style="opacity:1" fill="#353334" d="M 18.5,179.5 C 21.1541,180.821 23.8208,180.821 26.5,179.5C 28.374,179.39 29.874,180.056 31,181.5C 31.8283,186.202 31.6616,190.869 30.5,195.5C 29.6735,191.541 29.1735,187.541 29,183.5C 26.6667,180.833 24.3333,180.833 22,183.5C 21.5012,187.486 21.3345,191.486 21.5,195.5C 20.5,195.5 19.5,195.5 18.5,195.5C 18.5,190.167 18.5,184.833 18.5,179.5 Z"/></g>
<g><path style="opacity:1" fill="#3b393a" d="M 355.5,179.5 C 363.658,178.823 367.158,182.49 366,190.5C 363.459,195.069 359.625,196.569 354.5,195C 348.974,189.357 349.308,184.19 355.5,179.5 Z"/></g>
<g><path style="opacity:1" fill="#eeeeee" d="M 356.5,181.5 C 362.303,181.81 364.47,184.81 363,190.5C 360,194.5 357,194.5 354,190.5C 352.927,186.9 353.76,183.9 356.5,181.5 Z"/></g>
<g><path style="opacity:1" fill="#3a3839" d="M 531.5,195.5 C 531.328,194.508 531.662,193.842 532.5,193.5C 534.665,193.884 536.332,193.217 537.5,191.5C 534.71,189.436 532.376,186.936 530.5,184C 532.191,179.706 535.191,178.54 539.5,180.5C 537.149,181.012 535.149,182.012 533.5,183.5C 535.177,185.76 537.343,187.427 540,188.5C 540.819,194.832 537.986,197.165 531.5,195.5 Z"/></g>
<g><path style="opacity:1" fill="#353334" d="M 108.5,172.5 C 109.823,175.938 110.49,179.771 110.5,184C 110.167,187.833 109.833,191.667 109.5,195.5C 108.346,193.144 107.013,192.977 105.5,195C 100.91,196.615 98.077,195.115 97,190.5C 95.1104,181.892 98.277,178.559 106.5,180.5C 106.56,181.043 106.893,181.376 107.5,181.5C 108.484,178.572 108.817,175.572 108.5,172.5 Z"/></g>
<g><path style="opacity:1" fill="#f3f3f3" d="M 101.5,181.5 C 103.722,181.178 105.556,181.845 107,183.5C 108.004,186.993 107.504,190.159 105.5,193C 102.783,194.033 100.949,193.2 100,190.5C 99.068,187.177 99.568,184.177 101.5,181.5 Z"/></g>
<g><path style="opacity:1" fill="#7c7b7c" d="M 265.5,183.5 C 266.404,184.209 266.737,185.209 266.5,186.5C 264.167,186.5 261.833,186.5 259.5,186.5C 261.844,186.06 263.844,185.06 265.5,183.5 Z"/></g>
<g><path style="opacity:1" fill="#7a7879" d="M 596.5,183.5 C 597.404,184.209 597.737,185.209 597.5,186.5C 595.5,186.5 593.5,186.5 591.5,186.5C 593.531,186.028 595.198,185.028 596.5,183.5 Z"/></g>
<g><path style="opacity:1" fill="#2e2c2d" d="M 715.5,179.5 C 716.75,179.577 717.583,180.244 718,181.5C 719.555,179.485 721.389,179.152 723.5,180.5C 720.874,181.293 719.04,182.96 718,185.5C 717.824,188.882 717.324,192.215 716.5,195.5C 715.505,190.208 715.172,184.875 715.5,179.5 Z"/></g>
<g><path style="opacity:1" fill="#302e2f" d="M 603.5,195.5 C 602.892,190.056 603.558,185.056 605.5,180.5C 607.132,179.671 609.132,179.671 611.5,180.5C 609.253,181.245 607.42,182.578 606,184.5C 606.094,188.633 605.26,192.299 603.5,195.5 Z"/></g>
<g><path style="opacity:1" fill="#737172" d="M 658.5,186.5 C 657.167,186.5 655.833,186.5 654.5,186.5C 654.81,189.713 654.477,192.713 653.5,195.5C 653.5,192.167 653.5,188.833 653.5,185.5C 655.415,185.216 657.081,185.549 658.5,186.5 Z"/></g>
<g><path style="opacity:1" fill="#909090" d="M 692.5,184.5 C 692.5,186.5 692.5,188.5 692.5,190.5C 691.833,190.167 691.167,189.833 690.5,189.5C 690.5,188.167 690.5,186.833 690.5,185.5C 691.167,185.167 691.833,184.833 692.5,184.5 Z"/></g>
<g><path style="opacity:1" fill="#3b3a3b" d="M 187.5,179.5 C 189.833,179.5 192.167,179.5 194.5,179.5C 194.578,182.487 193.411,183.153 191,181.5C 189.72,181.613 188.887,182.28 188.5,183.5C 190.53,185.607 192.697,187.607 195,189.5C 195.677,191.982 194.844,193.815 192.5,195C 190.19,195.497 187.857,195.663 185.5,195.5C 185.471,192.227 186.804,191.56 189.5,193.5C 191,193.547 192,192.881 192.5,191.5C 190.823,189.24 188.657,187.573 186,186.5C 185.167,183.829 185.667,181.496 187.5,179.5 Z"/></g>
<g><path style="opacity:1" fill="#9e9d9d" d="M 592.5,188.5 C 593.919,187.549 595.585,187.216 597.5,187.5C 597.768,189.099 597.434,190.432 596.5,191.5C 596.5,190.5 596.5,189.5 596.5,188.5C 595.167,188.5 593.833,188.5 592.5,188.5 Z"/></g>
<g><path style="opacity:1" fill="#3b3a3b" d="M 148.5,179.5 C 155.633,178.387 158.966,181.387 158.5,188.5C 154.774,188.177 151.107,188.511 147.5,189.5C 148.313,190.814 149.313,191.981 150.5,193C 152.995,193.157 155.328,193.324 157.5,193.5C 150.154,197.683 145.82,195.517 144.5,187C 144.667,185.833 144.833,184.667 145,183.5C 146.376,182.295 147.542,180.962 148.5,179.5 Z"/></g>
<g><path style="opacity:1" fill="#dddddd" d="M 149.5,181.5 C 153.349,181.019 155.349,182.686 155.5,186.5C 152.753,186.813 150.086,186.48 147.5,185.5C 148.18,184.14 148.847,182.807 149.5,181.5 Z"/></g>
<g><path style="opacity:1" fill="#f4f4f4" d="M 261.5,188.5 C 262.833,188.5 264.167,188.5 265.5,188.5C 265.5,189.5 265.5,190.5 265.5,191.5C 264.341,193.377 262.674,193.877 260.5,193C 258.957,190.955 259.29,189.455 261.5,188.5 Z"/></g>
<g><path style="opacity:1" fill="#969595" d="M 261.5,188.5 C 262.919,187.549 264.585,187.216 266.5,187.5C 266.768,189.099 266.434,190.432 265.5,191.5C 265.5,190.5 265.5,189.5 265.5,188.5C 264.167,188.5 262.833,188.5 261.5,188.5 Z"/></g>
<g><path style="opacity:1" fill="#3c3a3b" d="M 503.5,179.5 C 510.633,178.387 513.966,181.387 513.5,188.5C 509.774,188.177 506.107,188.511 502.5,189.5C 504.53,193.374 507.53,194.374 511.5,192.5C 512.711,193.274 512.711,194.107 511.5,195C 502.054,196.887 498.221,193.054 500,183.5C 501.376,182.295 502.542,180.962 503.5,179.5 Z"/></g>
<g><path style="opacity:1" fill="#dddddd" d="M 504.5,181.5 C 508.349,181.019 510.349,182.686 510.5,186.5C 507.833,186.5 505.167,186.5 502.5,186.5C 502.392,184.486 503.058,182.82 504.5,181.5 Z"/></g>
<g><path style="opacity:1" fill="#f4f4f4" d="M 592.5,188.5 C 593.833,188.5 595.167,188.5 596.5,188.5C 596.5,189.5 596.5,190.5 596.5,191.5C 595.341,193.377 593.674,193.877 591.5,193C 589.957,190.955 590.29,189.455 592.5,188.5 Z"/></g>
<g><path style="opacity:1" fill="#414041" d="M 708.5,179.5 C 709.5,179.5 710.5,179.5 711.5,179.5C 711.5,184.833 711.5,190.167 711.5,195.5C 710.5,195.5 709.5,195.5 708.5,195.5C 708.5,190.167 708.5,184.833 708.5,179.5 Z"/></g>
<g><path style="opacity:1" fill="#3f3d3e" d="M 115.5,179.5 C 122.912,178.413 126.246,181.58 125.5,189C 125.167,191.167 124.833,193.333 124.5,195.5C 123.676,193.252 122.676,193.086 121.5,195C 115.021,197.168 112.188,195.001 113,188.5C 115.642,185.971 118.808,184.971 122.5,185.5C 122.67,184.178 122.337,183.011 121.5,182C 119.432,181.313 117.432,181.48 115.5,182.5C 114.438,181.575 114.438,180.575 115.5,179.5 Z"/></g>
<g><path style="opacity:1" fill="#f2f1f2" d="M 116.5,188.5 C 118.5,188.5 120.5,188.5 122.5,188.5C 122.2,192.976 120.033,194.31 116,192.5C 115.421,191.072 115.588,189.738 116.5,188.5 Z"/></g>
<g><path style="opacity:1" fill="#3e3c3d" d="M 211.5,179.5 C 218.912,178.413 222.246,181.58 221.5,189C 221.167,191.167 220.833,193.333 220.5,195.5C 219.676,193.252 218.676,193.086 217.5,195C 211.021,197.168 208.188,195.001 209,188.5C 211.642,185.971 214.808,184.971 218.5,185.5C 218.67,184.178 218.337,183.011 217.5,182C 215.432,181.313 213.432,181.48 211.5,182.5C 210.438,181.575 210.438,180.575 211.5,179.5 Z"/></g>
<g><path style="opacity:1" fill="#f2f2f2" d="M 212.5,188.5 C 214.5,188.5 216.5,188.5 218.5,188.5C 218.2,192.976 216.033,194.31 212,192.5C 211.421,191.072 211.588,189.738 212.5,188.5 Z"/></g>
<g><path style="opacity:1" fill="#414041" d="M 69.5,179.5 C 72.1136,179.932 74.7803,180.265 77.5,180.5C 75.2908,181.063 73.7908,182.396 73,184.5C 72.5014,188.152 72.3347,191.818 72.5,195.5C 71.5,195.5 70.5,195.5 69.5,195.5C 69.5,190.167 69.5,184.833 69.5,179.5 Z"/></g>
<g><path style="opacity:1" fill="#383637" d="M 87.5,179.5 C 86.1979,181.028 84.5313,182.028 82.5,182.5C 82.281,183.675 82.6143,184.675 83.5,185.5C 88.7141,187.429 89.7141,190.596 86.5,195C 84.0982,195.814 81.7649,195.647 79.5,194.5C 81.0777,193.702 82.7444,193.202 84.5,193C 85.0219,192.439 85.3552,191.772 85.5,191C 83.7904,189.389 81.9571,187.889 80,186.5C 79.0036,180.666 81.5036,178.333 87.5,179.5 Z"/></g>
<g><path style="opacity:1" fill="#393738" d="M 446.5,189.5 C 447.166,186.642 447.833,183.642 448.5,180.5C 449.494,185.456 449.827,190.456 449.5,195.5C 448.25,195.423 447.417,194.756 447,193.5C 444.24,195.703 441.24,196.036 438,194.5C 436.612,189.628 436.112,184.628 436.5,179.5C 437.5,179.5 438.5,179.5 439.5,179.5C 439.334,183.514 439.501,187.514 440,191.5C 443.197,194.38 445.364,193.713 446.5,189.5 Z"/></g>
<g><path style="opacity:1" fill="#3d3b3c" d="M 629.5,202.5 C 628.5,202.5 627.5,202.5 626.5,202.5C 628.399,200.749 629.733,198.583 630.5,196C 629.135,190.737 627.468,185.571 625.5,180.5C 626.5,179.167 627.5,179.167 628.5,180.5C 629.564,184.192 630.731,187.859 632,191.5C 633.373,187.181 635.206,183.181 637.5,179.5C 637.833,180 638.167,180.5 638.5,181C 636.548,188.711 633.548,195.878 629.5,202.5 Z"/></g>
<g><path style="opacity:1" fill="#383637" d="M 727.5,179.5 C 736.152,178.986 739.652,182.986 738,191.5C 733.333,196.833 728.667,196.833 724,191.5C 722.593,186.643 723.76,182.643 727.5,179.5 Z"/></g>
<g><path style="opacity:1" fill="#f2f2f2" d="M 728.5,181.5 C 734.501,181.457 736.668,184.457 735,190.5C 733.695,193.306 731.528,194.14 728.5,193C 725.888,189.169 725.888,185.336 728.5,181.5 Z"/></g>
<g><path style="opacity:1" fill="#403f40" d="M 39.5,179.5 C 40.4959,179.414 41.3292,179.748 42,180.5C 43.5302,184.09 44.8635,187.757 46,191.5C 47.5302,187.91 48.8635,184.243 50,180.5C 51.1562,179.007 51.9896,179.174 52.5,181C 50.6277,185.618 48.9611,190.285 47.5,195C 46.2161,195.684 45.0495,195.517 44,194.5C 42.1898,189.571 40.6898,184.571 39.5,179.5 Z"/></g>
<g><path style="opacity:1" fill="#393738" d="M 692.5,190.5 C 692.5,188.5 692.5,186.5 692.5,184.5C 693.843,179.922 696.843,178.422 701.5,180C 704.821,181.812 706.155,184.645 705.5,188.5C 702.167,188.5 698.833,188.5 695.5,188.5C 696.238,193.337 698.904,194.671 703.5,192.5C 704.711,193.274 704.711,194.107 703.5,195C 700.833,195.667 698.167,195.667 695.5,195C 693.859,193.871 692.859,192.371 692.5,190.5 Z"/></g>
<g><path style="opacity:1" fill="#dddddd" d="M 696.5,181.5 C 700.349,181.019 702.349,182.686 702.5,186.5C 699.753,186.813 697.086,186.48 694.5,185.5C 695.18,184.14 695.847,182.807 696.5,181.5 Z"/></g>
<g><path style="opacity:1" fill="#373536" d="M -0.5,173.5 C 0.5,173.5 1.5,173.5 2.5,173.5C 2.08995,179.621 2.58995,185.621 4,191.5C 8.16535,194.579 10.9987,193.579 12.5,188.5C 12.8616,183.579 13.8616,178.913 15.5,174.5C 15.666,179.844 15.4994,185.177 15,190.5C 14.6905,191.766 14.1905,192.933 13.5,194C 7.05462,197.146 2.38795,195.646 -0.5,189.5C -0.5,184.167 -0.5,178.833 -0.5,173.5 Z"/></g>
<g><path style="opacity:1" fill="#909090" d="M 532.5,193.5 C 531.662,193.842 531.328,194.508 531.5,195.5C 530.224,194.614 530.224,193.614 531.5,192.5C 532.107,192.624 532.44,192.957 532.5,193.5 Z"/></g>
<g><path style="opacity:1" fill="#383637" d="M 251.5,180.5 C 253.442,185.056 254.108,190.056 253.5,195.5C 252.25,195.423 251.417,194.756 251,193.5C 247.87,196.122 244.703,196.122 241.5,193.5C 240.557,188.9 240.223,184.233 240.5,179.5C 241.5,179.5 242.5,179.5 243.5,179.5C 243.334,183.514 243.501,187.514 244,191.5C 246.84,194.371 249.174,194.037 251,190.5C 251.498,187.183 251.665,183.85 251.5,180.5 Z"/></g>
<g><path style="opacity:1" fill="#373536" d="M 308.5,179.5 C 316.656,178.821 320.156,182.488 319,190.5C 314.833,196.759 310.167,197.092 305,191.5C 303.593,186.643 304.76,182.643 308.5,179.5 Z"/></g>
<g><path style="opacity:1" fill="#f2f1f1" d="M 309.5,181.5 C 315.546,181.573 317.713,184.573 316,190.5C 313.822,194.065 311.156,194.399 308,191.5C 307.037,187.851 307.537,184.518 309.5,181.5 Z"/></g>
</svg>
