<?xml version="1.0" encoding="UTF-8"?>
<!DOCTYPE svg PUBLIC "-//W3C//DTD SVG 1.1//EN" "http://www.w3.org/Graphics/SVG/1.1/DTD/svg11.dtd">
<svg xmlns="http://www.w3.org/2000/svg" version="1.1" width="1042px" height="157px" style="shape-rendering:geometricPrecision; text-rendering:geometricPrecision; image-rendering:optimizeQuality; fill-rule:evenodd; clip-rule:evenodd" xmlns:xlink="http://www.w3.org/1999/xlink">
<g><path style="opacity:0.923" fill="#0ba682" d="M 402.5,-0.5 C 403.5,-0.5 404.5,-0.5 405.5,-0.5C 406.084,2.00339 406.751,4.50339 407.5,7C 407.095,7.94544 406.428,8.61211 405.5,9C 364.785,21.4053 324.119,33.9053 283.5,46.5C 277.167,46.5 270.833,46.5 264.5,46.5C 265.625,44.8712 266.959,43.3712 268.5,42C 313.372,28.0964 358.039,13.9297 402.5,-0.5 Z"/></g>
<g><path style="opacity:0.94" fill="#1d2a4f" d="M 30.5,14.5 C 34.625,17.4526 38.625,20.6193 42.5,24C 44.5571,25.7194 46.2237,27.7194 47.5,30C 42.6359,35.3648 37.3025,40.1981 31.5,44.5C 25.5365,39.8719 19.8698,34.8719 14.5,29.5C 19.8537,24.4783 25.187,19.4783 30.5,14.5 Z"/></g>
<g><path style="opacity:0.977" fill="#1d2a4f" d="M 371.5,20.5 C 379.167,20.5 386.833,20.5 394.5,20.5C 394.5,53.5 394.5,86.5 394.5,119.5C 386.833,119.5 379.167,119.5 371.5,119.5C 371.662,117.473 371.495,115.473 371,113.5C 359.174,122.614 346.674,123.781 333.5,117C 323.798,108.408 319.464,97.5743 320.5,84.5C 320.856,56.6411 334.856,44.1411 362.5,47C 365.512,47.7804 368.345,48.9471 371,50.5C 371.5,40.5056 371.666,30.5056 371.5,20.5 Z M 357.5,63.5 C 362.183,63.1856 366.683,63.8523 371,65.5C 371.832,76.848 371.666,88.1813 370.5,99.5C 354.332,107.417 345.665,102.417 344.5,84.5C 344.077,74.3107 348.41,67.3107 357.5,63.5 Z"/></g>
<g><path style="opacity:0.967" fill="#1d2a50" d="M 224.5,87.5 C 224.5,88.1667 224.167,88.5 223.5,88.5C 206.5,88.5 189.5,88.5 172.5,88.5C 173.388,95.89 177.388,100.723 184.5,103C 194.971,105.67 204.971,104.503 214.5,99.5C 217.193,98.4485 219.86,97.4485 222.5,96.5C 222.5,99.8333 222.5,103.167 222.5,106.5C 222.665,109.518 222.498,112.518 222,115.5C 218.41,117.523 214.576,118.856 210.5,119.5C 199.856,120.542 189.189,120.709 178.5,120C 173.709,118.765 169.042,117.265 164.5,115.5C 153.528,108.059 148.195,97.5594 148.5,84C 150.253,58.915 163.753,46.0816 189,45.5C 204.363,44.6697 215.363,51.0031 222,64.5C 223.977,72.0395 224.811,79.7061 224.5,87.5 Z M 185.5,60.5 C 195.048,60.3832 200.048,65.0499 200.5,74.5C 191.167,74.5 181.833,74.5 172.5,74.5C 173.436,66.5667 177.77,61.9001 185.5,60.5 Z"/></g>
<g><path style="opacity:0.962" fill="#1d2a50" d="M 124.5,115.5 C 118.341,118.332 111.841,119.998 105,120.5C 102.5,120.333 100,120.167 97.5,120C 93.8118,118.818 90.1452,117.652 86.5,116.5C 86.1936,119.385 86.5269,122.052 87.5,124.5C 87.5,134.5 87.5,144.5 87.5,154.5C 79.5,154.5 71.5,154.5 63.5,154.5C 63.5,144.5 63.5,134.5 63.5,124.5C 64.8333,121.5 64.8333,118.5 63.5,115.5C 63.5,92.8333 63.5,70.1667 63.5,47.5C 71.5,47.5 79.5,47.5 87.5,47.5C 87.2011,49.604 87.5344,51.604 88.5,53.5C 100.732,45.2219 113.399,44.3886 126.5,51C 133.685,57.54 137.519,65.7067 138,75.5C 140.24,91.2474 135.74,104.581 124.5,115.5 Z M 94.5,64.5 C 103.844,62.2514 110.011,65.5848 113,74.5C 113.877,81.2494 113.544,87.9161 112,94.5C 110.373,99.0622 107.206,101.895 102.5,103C 97.778,103.777 93.1113,103.61 88.5,102.5C 87.3341,90.8476 87.1675,79.1809 88,67.5C 90.294,66.5783 92.4606,65.5783 94.5,64.5 Z"/></g>
<g><path style="opacity:0.966" fill="#1d2b50" d="M 264.5,46.5 C 270.833,46.5 277.167,46.5 283.5,46.5C 288.852,47.6043 293.852,49.771 298.5,53C 300.969,55.4411 302.802,58.2744 304,61.5C 305.45,80.7787 305.95,100.112 305.5,119.5C 297.5,119.5 289.5,119.5 281.5,119.5C 281.662,117.473 281.495,115.473 281,113.5C 268.911,122.577 256.077,123.744 242.5,117C 235.908,111.404 232.908,104.237 233.5,95.5C 234.167,95.5 234.5,95.1667 234.5,94.5C 236.634,85.6969 241.968,79.6969 250.5,76.5C 261.012,74.0905 271.679,72.5905 282.5,72C 281.785,67.8958 279.452,65.2292 275.5,64C 271.249,62.8054 266.915,62.3054 262.5,62.5C 255.635,62.3471 249.302,64.0137 243.5,67.5C 242.5,67.5 241.5,67.5 240.5,67.5C 240.19,61.2424 240.524,55.0758 241.5,49C 249.077,47.2925 256.743,46.4591 264.5,46.5 Z M 277.5,86.5 C 278.833,86.5 280.167,86.5 281.5,86.5C 285.236,98.5778 280.903,104.911 268.5,105.5C 260.055,105.255 256.889,101.255 259,93.5C 260.109,91.1853 261.943,89.6853 264.5,89C 268.988,88.2398 273.322,87.4065 277.5,86.5 Z"/></g>
<g><path style="opacity:0.782" fill="#1c294f" d="M 947.5,46.5 C 951.193,46.1857 953.527,47.8523 954.5,51.5C 951.167,51.5 947.833,51.5 944.5,51.5C 945.763,49.9713 946.763,48.3046 947.5,46.5 Z"/></g>
<g><path style="opacity:0.941" fill="#1d2a50" d="M 43.5,115.5 C 42.596,116.209 42.2627,117.209 42.5,118.5C 35.1667,118.5 27.8333,118.5 20.5,118.5C 20.7373,117.209 20.404,116.209 19.5,115.5C 19.5,92.8333 19.5,70.1667 19.5,47.5C 27.5,47.5 35.5,47.5 43.5,47.5C 43.5,70.1667 43.5,92.8333 43.5,115.5 Z"/></g>
<g><path style="opacity:0.791" fill="#1d2a4f" d="M 431.5,47.5 C 436.5,47.5 441.5,47.5 446.5,47.5C 446.5,48.8333 446.5,50.1667 446.5,51.5C 442.833,51.5 439.167,51.5 435.5,51.5C 435.5,53.8333 435.5,56.1667 435.5,58.5C 438.833,58.5 442.167,58.5 445.5,58.5C 445.5,59.8333 445.5,61.1667 445.5,62.5C 442.167,62.5 438.833,62.5 435.5,62.5C 435.5,66.1667 435.5,69.8333 435.5,73.5C 434.167,73.5 432.833,73.5 431.5,73.5C 431.5,64.8333 431.5,56.1667 431.5,47.5 Z"/></g>
<g><path style="opacity:0.77" fill="#1d2a4f" d="M 492.5,47.5 C 493.833,47.5 495.167,47.5 496.5,47.5C 496.5,56.1667 496.5,64.8333 496.5,73.5C 484.943,76.7785 480.109,72.4452 482,60.5C 482.936,54.7882 486.103,52.7882 491.5,54.5C 492.474,52.2573 492.808,49.924 492.5,47.5 Z M 487.5,57.5 C 491.158,57.9345 492.825,60.1012 492.5,64C 492.74,67.0255 491.573,69.1922 489,70.5C 486.427,69.1922 485.26,67.0255 485.5,64C 485.482,61.5897 486.149,59.423 487.5,57.5 Z"/></g>
<g><path style="opacity:0.773" fill="#1d294f" d="M 534.5,47.5 C 536.881,48.4196 539.214,48.4196 541.5,47.5C 542.614,48.723 542.781,50.0563 542,51.5C 538.847,51.6912 535.681,52.0245 532.5,52.5C 532.392,50.4862 533.058,48.8195 534.5,47.5 Z"/></g>
<g><path style="opacity:0.813" fill="#1d2a4f" d="M 573.5,47.5 C 574.833,47.5 576.167,47.5 577.5,47.5C 577.5,56.1667 577.5,64.8333 577.5,73.5C 576.167,73.5 574.833,73.5 573.5,73.5C 573.5,64.8333 573.5,56.1667 573.5,47.5 Z"/></g>
<g><path style="opacity:0.911" fill="#1d2a4f" d="M 615.5,47.5 C 616.468,49.6074 616.802,51.9407 616.5,54.5C 617.5,54.5 618.5,54.5 619.5,54.5C 619.5,55.5 619.5,56.5 619.5,57.5C 618.5,57.5 617.5,57.5 616.5,57.5C 616.334,61.5138 616.501,65.5138 617,69.5C 618.892,70.6174 619.725,72.2841 619.5,74.5C 617.278,74.822 615.444,74.1554 614,72.5C 614.011,66.8231 613.177,61.3231 611.5,56C 612.756,53.0312 614.09,50.1979 615.5,47.5 Z"/></g>
<g><path style="opacity:0.859" fill="#1d2b4f" d="M 621.5,47.5 C 622.5,47.5 623.5,47.5 624.5,47.5C 624.5,48.8333 624.5,50.1667 624.5,51.5C 623.5,51.5 622.5,51.5 621.5,51.5C 621.5,50.1667 621.5,48.8333 621.5,47.5 Z"/></g>
<g><path style="opacity:0.774" fill="#1d2a4f" d="M 630.5,47.5 C 632.061,50.0177 633.394,52.851 634.5,56C 631.643,61.9039 631.976,67.5706 635.5,73C 633.191,75.051 631.024,74.8843 629,72.5C 629.011,66.8231 628.177,61.3231 626.5,56C 627.893,53.1197 629.226,50.2864 630.5,47.5 Z"/></g>
<g><path style="opacity:0.744" fill="#1d2a4f" d="M 655.5,47.5 C 657.061,50.0177 658.394,52.851 659.5,56C 656.609,61.8158 656.942,67.3158 660.5,72.5C 658.515,74.9326 656.348,74.9326 654,72.5C 654.011,66.8231 653.177,61.3231 651.5,56C 652.893,53.1197 654.226,50.2864 655.5,47.5 Z"/></g>
<g><path style="opacity:0.826" fill="#1d2a4f" d="M 696.5,47.5 C 697.5,47.5 698.5,47.5 699.5,47.5C 699.5,56.1667 699.5,64.8333 699.5,73.5C 687.349,75.8396 682.849,70.8396 686,58.5C 687.994,54.2503 691.161,52.917 695.5,54.5C 696.474,52.2573 696.808,49.924 696.5,47.5 Z M 691.5,57.5 C 692.822,57.33 693.989,57.6634 695,58.5C 697,62.1667 697,65.8333 695,69.5C 693.062,70.8602 691.396,70.5268 690,68.5C 689.013,64.5252 689.513,60.8585 691.5,57.5 Z"/></g>
<g><path style="opacity:0.808" fill="#1d2a4f" d="M 728.5,47.5 C 733.179,47.3342 737.845,47.5008 742.5,48C 746.5,52.6667 746.5,57.3333 742.5,62C 739.312,63.3158 735.978,63.8158 732.5,63.5C 732.5,66.8333 732.5,70.1667 732.5,73.5C 731.167,73.5 729.833,73.5 728.5,73.5C 728.5,64.8333 728.5,56.1667 728.5,47.5 Z M 732.5,51.5 C 735.247,51.1866 737.914,51.52 740.5,52.5C 742.218,55.4728 741.551,57.6395 738.5,59C 736.527,59.4955 734.527,59.6621 732.5,59.5C 732.5,56.8333 732.5,54.1667 732.5,51.5 Z"/></g>
<g><path style="opacity:0.645" fill="#1d2a4f" d="M 812.5,47.5 C 813.833,47.5 815.167,47.5 816.5,47.5C 816.5,48.8333 816.5,50.1667 816.5,51.5C 815.167,51.5 813.833,51.5 812.5,51.5C 812.5,50.1667 812.5,48.8333 812.5,47.5 Z"/></g>
<g><path style="opacity:0.782" fill="#1d2a50" d="M 874.5,47.5 C 880.167,47.5 885.833,47.5 891.5,47.5C 891.5,48.8333 891.5,50.1667 891.5,51.5C 887.167,51.5 882.833,51.5 878.5,51.5C 878.5,53.5 878.5,55.5 878.5,57.5C 882.5,57.5 886.5,57.5 890.5,57.5C 890.5,59.1667 890.5,60.8333 890.5,62.5C 886.5,62.5 882.5,62.5 878.5,62.5C 878.5,64.8333 878.5,67.1667 878.5,69.5C 882.833,69.5 887.167,69.5 891.5,69.5C 891.5,70.8333 891.5,72.1667 891.5,73.5C 885.833,73.5 880.167,73.5 874.5,73.5C 874.5,64.8333 874.5,56.1667 874.5,47.5 Z"/></g>
<g><path style="opacity:0.859" fill="#1d2b4f" d="M 984.5,47.5 C 985.5,47.5 986.5,47.5 987.5,47.5C 987.5,48.8333 987.5,50.1667 987.5,51.5C 986.5,51.5 985.5,51.5 984.5,51.5C 984.5,50.1667 984.5,48.8333 984.5,47.5 Z"/></g>
<g><path style="opacity:0.745" fill="#1d2a4f" d="M 471.5,53.5 C 474.961,53.1459 477.461,54.4792 479,57.5C 479.499,62.8229 479.666,68.1563 479.5,73.5C 478.167,73.5 476.833,73.5 475.5,73.5C 475.666,68.4889 475.499,63.4889 475,58.5C 472.546,56.987 470.879,57.6537 470,60.5C 469.501,64.8206 469.334,69.1539 469.5,73.5C 468.167,73.5 466.833,73.5 465.5,73.5C 465.5,67.1667 465.5,60.8333 465.5,54.5C 467.735,54.7947 469.735,54.4614 471.5,53.5 Z"/></g>
<g><path style="opacity:0.819" fill="#1d2a4f" d="M 503.5,53.5 C 506.602,53.154 509.435,53.8207 512,55.5C 512.211,61.2182 512.711,66.8848 513.5,72.5C 511.994,73.7472 510.494,73.7472 509,72.5C 505.304,75.4251 501.971,75.0917 499,71.5C 498.289,69.1009 498.456,66.7676 499.5,64.5C 502.675,62.8679 506.008,61.5346 509.5,60.5C 507.338,56.8695 505.005,56.7028 502.5,60C 501.056,60.7805 499.723,60.6139 498.5,59.5C 499.497,56.845 501.164,54.845 503.5,53.5 Z M 508.5,64.5 C 509.325,66.1252 508.992,67.7918 507.5,69.5C 503.692,71.2642 502.359,70.2642 503.5,66.5C 505.336,65.9724 507.003,65.3058 508.5,64.5 Z"/></g>
<g><path style="opacity:0.797" fill="#1c294f" d="M 520.5,53.5 C 525.333,52.7498 528.333,54.7498 529.5,59.5C 528.672,60.4147 527.672,61.0814 526.5,61.5C 525.298,57.2642 523.132,56.5975 520,59.5C 518,62.5 518,65.5 520,68.5C 523.208,71.4868 525.041,70.8202 525.5,66.5C 526.833,66.5 528.167,66.5 529.5,66.5C 529.238,69.691 527.905,72.3577 525.5,74.5C 527.209,79.7995 525.209,82.1328 519.5,81.5C 519.561,79.4078 520.561,77.9078 522.5,77C 515.917,72.5139 513.75,66.3473 516,58.5C 517.025,56.313 518.525,54.6464 520.5,53.5 Z"/></g>
<g><path style="opacity:0.8" fill="#1d2a4f" d="M 535.5,53.5 C 538.862,53.0695 541.695,54.0695 544,56.5C 544.191,62.0829 544.691,67.5829 545.5,73C 543.888,73.7203 542.388,73.5536 541,72.5C 532.557,76.2757 529.224,73.609 531,64.5C 533.8,62.5053 536.967,61.5053 540.5,61.5C 540.915,59.0523 539.915,57.7189 537.5,57.5C 535.573,59.2934 533.239,60.2934 530.5,60.5C 530.492,56.8129 532.159,54.4796 535.5,53.5 Z M 536.5,65.5 C 537.833,65.5 539.167,65.5 540.5,65.5C 539.617,70.7995 537.284,71.6329 533.5,68C 534.571,67.1482 535.571,66.3149 536.5,65.5 Z"/></g>
<g><path style="opacity:0.816" fill="#1c294f" d="M 551.5,53.5 C 558.561,53.3938 562.228,56.8938 562.5,64C 561.717,73.1307 557.217,75.964 549,72.5C 545.139,65.3673 545.972,59.034 551.5,53.5 Z M 552.5,57.5 C 556.345,57.8482 558.345,60.0149 558.5,64C 558.204,65.8882 557.704,67.7216 557,69.5C 554.224,71.1397 552.224,70.473 551,67.5C 550.153,63.9277 550.653,60.5943 552.5,57.5 Z"/></g>
<g><path style="opacity:0.745" fill="#1d2a4f" d="M 586.5,53.5 C 589.961,53.1459 592.461,54.4792 594,57.5C 594.499,62.8229 594.666,68.1563 594.5,73.5C 593.167,73.5 591.833,73.5 590.5,73.5C 590.666,68.4889 590.499,63.4889 590,58.5C 587.546,56.987 585.879,57.6537 585,60.5C 584.501,64.8206 584.334,69.1539 584.5,73.5C 583.167,73.5 581.833,73.5 580.5,73.5C 580.5,67.1667 580.5,60.8333 580.5,54.5C 582.735,54.7947 584.735,54.4614 586.5,53.5 Z"/></g>
<g><path style="opacity:0.808" fill="#1c294f" d="M 600.5,53.5 C 606.092,52.7717 609.092,55.105 609.5,60.5C 607.048,60.3764 605.048,59.3764 603.5,57.5C 602.263,57.5565 601.263,58.0565 600.5,59C 602.745,61.0875 605.412,62.4208 608.5,63C 612.186,72.1113 609.186,75.6113 599.5,73.5C 596.159,70.7192 596.159,68.3859 599.5,66.5C 600.003,68.7443 601.337,70.0776 603.5,70.5C 605,70.5472 606,69.8805 606.5,68.5C 603.996,66.3763 601.163,64.7096 598,63.5C 597.333,60.8333 597.333,58.1667 598,55.5C 598.995,54.9341 599.828,54.2674 600.5,53.5 Z"/></g>
<g><path style="opacity:0.798" fill="#1d2a4f" d="M 665.5,53.5 C 669.888,52.9433 673.055,54.6099 675,58.5C 675.667,62.1667 675.667,65.8333 675,69.5C 672.335,74.4344 668.502,75.6011 663.5,73C 660.71,68.9359 659.877,64.4359 661,59.5C 661.599,56.7458 663.099,54.7458 665.5,53.5 Z M 666.5,57.5 C 670.333,57.8369 672.333,60.0036 672.5,64C 672.255,67.1242 670.755,69.2909 668,70.5C 666.739,70.2409 665.739,69.5742 665,68.5C 664.013,64.5252 664.513,60.8585 666.5,57.5 Z"/></g>
<g><path style="opacity:0.793" fill="#1d2a4f" d="M 707.5,53.5 C 710.272,53.22 712.772,53.8866 715,55.5C 716.759,58.6076 717.592,61.941 717.5,65.5C 713.486,65.3345 709.486,65.5012 705.5,66C 708.227,71.746 711.227,71.9127 714.5,66.5C 715.5,67 716.5,67.5 717.5,68C 714.523,74.9957 710.023,76.1624 704,71.5C 702.466,67.2891 702.133,62.9558 703,58.5C 704.025,56.313 705.525,54.6464 707.5,53.5 Z M 708.5,57.5 C 711.114,57.2771 712.781,58.4438 713.5,61C 711.098,61.8141 708.765,61.6474 706.5,60.5C 707.193,59.4822 707.859,58.4822 708.5,57.5 Z"/></g>
<g><path style="opacity:0.81" fill="#1d2a4f" d="M 752.5,53.5 C 759.763,54.104 763.096,58.104 762.5,65.5C 758.486,65.3345 754.486,65.5012 750.5,66C 752.833,71.3573 755.5,71.6906 758.5,67C 759.449,66.3828 760.282,66.5494 761,67.5C 761.019,73.0963 758.186,75.2629 752.5,74C 748.328,72.0409 746.328,68.7076 746.5,64C 746.39,59.1708 748.39,55.6708 752.5,53.5 Z M 752.5,57.5 C 755.55,56.9232 757.55,58.0899 758.5,61C 756.19,61.4966 753.857,61.6633 751.5,61.5C 751.433,60.0413 751.766,58.7079 752.5,57.5 Z"/></g>
<g><path style="opacity:0.799" fill="#1c294f" d="M 767.5,53.5 C 773.092,52.7717 776.092,55.105 776.5,60.5C 774.027,60.2009 771.86,59.2009 770,57.5C 768.72,57.6135 767.887,58.2801 767.5,59.5C 770.591,60.9773 773.591,62.6439 776.5,64.5C 777.918,73.4817 774.251,76.315 765.5,73C 762.315,69.3882 762.982,67.2215 767.5,66.5C 767.408,70.0714 769.074,71.2381 772.5,70C 772.957,69.586 773.291,69.086 773.5,68.5C 771.268,66.3549 768.601,64.8549 765.5,64C 762.936,59.8642 763.603,56.3642 767.5,53.5 Z"/></g>
<g><path style="opacity:0.832" fill="#1d2a4f" d="M 783.5,53.5 C 786.482,53.9629 789.482,54.2962 792.5,54.5C 792.5,63.5 792.5,72.5 792.5,81.5C 791.5,81.5 790.5,81.5 789.5,81.5C 789.813,78.7531 789.48,76.0865 788.5,73.5C 783.662,75.1635 780.495,73.4968 779,68.5C 777.374,62.3488 778.874,57.3488 783.5,53.5 Z M 784.5,57.5 C 788.158,57.9345 789.825,60.1012 789.5,64C 789.74,67.0255 788.573,69.1922 786,70.5C 784.739,70.2409 783.739,69.5742 783,68.5C 782.013,64.5252 782.513,60.8585 784.5,57.5 Z"/></g>
<g><path style="opacity:0.808" fill="#1c294f" d="M 822.5,53.5 C 828.092,52.7717 831.092,55.105 831.5,60.5C 829.048,60.3764 827.048,59.3764 825.5,57.5C 823.006,57.622 822.339,58.622 823.5,60.5C 831.387,61.2882 833.887,65.2882 831,72.5C 827.621,74.923 824.121,75.0897 820.5,73C 817.592,70.2013 817.926,68.0347 821.5,66.5C 822.003,68.7443 823.337,70.0776 825.5,70.5C 827,70.5472 828,69.8805 828.5,68.5C 825.996,66.3763 823.163,64.7096 820,63.5C 819.333,60.8333 819.333,58.1667 820,55.5C 820.995,54.9341 821.828,54.2674 822.5,53.5 Z"/></g>
<g><path style="opacity:0.794" fill="#1d2a4f" d="M 838.5,53.5 C 841.602,53.154 844.435,53.8207 847,55.5C 848.304,61.4229 848.804,67.4229 848.5,73.5C 846.856,73.7135 845.356,73.3802 844,72.5C 839.906,75.4756 836.573,74.809 834,70.5C 833.8,63.5472 837.3,60.5472 844.5,61.5C 844.915,59.0523 843.915,57.7189 841.5,57.5C 839.361,58.9771 837.028,59.9771 834.5,60.5C 834.187,57.1626 835.52,54.8293 838.5,53.5 Z M 839.5,65.5 C 844.406,64.9541 845.406,66.4541 842.5,70C 837.522,70.8641 836.522,69.3641 839.5,65.5 Z"/></g>
<g><path style="opacity:0.783" fill="#1d2a4f" d="M 854.5,53.5 C 860.029,52.7496 863.029,55.0829 863.5,60.5C 860.861,60.4292 858.694,59.4292 857,57.5C 854.8,57.893 854.3,58.893 855.5,60.5C 864.532,62.6844 866.199,67.1844 860.5,74C 855.485,75.4928 852.152,73.8261 850.5,69C 850.763,67.0543 851.763,66.3877 853.5,67C 855.253,70.8581 857.587,71.3581 860.5,68.5C 858.268,66.3549 855.601,64.8549 852.5,64C 849.602,59.7656 850.269,56.2656 854.5,53.5 Z"/></g>
<g><path style="opacity:0.794" fill="#1d294f" d="M 898.5,53.5 C 902.908,52.8659 905.908,54.5325 907.5,58.5C 907.132,59.91 906.299,60.91 905,61.5C 900.738,55.8075 898.238,56.6408 897.5,64C 897.26,67.0255 898.427,69.1922 901,70.5C 902.986,68.1854 905.486,66.852 908.5,66.5C 907.987,62.21 908.987,58.3767 911.5,55C 919.698,52.1842 923.698,55.1842 923.5,64C 924.082,71.418 920.749,74.7514 913.5,74C 910.626,72.7013 908.793,70.5347 908,67.5C 906.233,74.381 902.233,76.0477 896,72.5C 892.139,65.3673 892.972,59.034 898.5,53.5 Z M 914.5,57.5 C 920.342,59.1995 921.842,62.8662 919,68.5C 917,71.1667 915,71.1667 913,68.5C 912.013,64.5252 912.513,60.8585 914.5,57.5 Z"/></g>
<g><path style="opacity:0.881" fill="#1d2a4f" d="M 931.5,53.5 C 934.652,52.9586 937.152,53.9586 939,56.5C 939.499,62.1569 939.666,67.8236 939.5,73.5C 938.5,73.5 937.5,73.5 936.5,73.5C 936.666,69.4862 936.499,65.4862 936,61.5C 934.621,56.7007 932.621,56.3674 930,60.5C 929.501,64.8206 929.334,69.1539 929.5,73.5C 928.5,73.5 927.5,73.5 926.5,73.5C 926.5,67.1667 926.5,60.8333 926.5,54.5C 928.415,54.7845 930.081,54.4511 931.5,53.5 Z"/></g>
<g><path style="opacity:0.805" fill="#1d2a4f" d="M 947.5,53.5 C 954.044,53.8786 957.378,57.3786 957.5,64C 956.188,74.7021 951.355,76.8688 943,70.5C 940.058,63.4842 941.558,57.8175 947.5,53.5 Z M 947.5,57.5 C 950.238,56.9648 952.072,57.9648 953,60.5C 953.667,62.8333 953.667,65.1667 953,67.5C 950.667,71.5 948.333,71.5 946,67.5C 945.153,63.9277 945.653,60.5943 947.5,57.5 Z"/></g>
<g><path style="opacity:0.753" fill="#1d2a4f" d="M 964.5,53.5 C 967.157,53.162 969.49,53.8287 971.5,55.5C 974.371,52.887 977.205,52.887 980,55.5C 981.41,61.3792 981.91,67.3792 981.5,73.5C 980.167,73.5 978.833,73.5 977.5,73.5C 977.666,68.4889 977.499,63.4889 977,58.5C 975.413,57.273 974.079,57.6063 973,59.5C 972.501,64.1548 972.334,68.8215 972.5,73.5C 971.167,73.5 969.833,73.5 968.5,73.5C 968.666,68.4889 968.499,63.4889 968,58.5C 966.413,57.273 965.079,57.6063 964,59.5C 963.501,64.1548 963.334,68.8215 963.5,73.5C 962.167,73.5 960.833,73.5 959.5,73.5C 959.5,67.1667 959.5,60.8333 959.5,54.5C 960.822,54.33 961.989,54.6634 963,55.5C 963.717,54.9558 964.217,54.2891 964.5,53.5 Z"/></g>
<g><path style="opacity:0.789" fill="#1c2a4f" d="M 995.5,53.5 C 1000.14,52.8122 1003.14,54.6455 1004.5,59C 1002.13,62.6336 1000.46,62.3002 999.5,58C 997.633,57.2888 996.133,57.7888 995,59.5C 994.333,62.5 994.333,65.5 995,68.5C 997.842,71.3351 1000.01,70.8351 1001.5,67C 1002.45,66.5172 1003.45,66.3505 1004.5,66.5C 1003.04,74.8935 998.871,76.5602 992,71.5C 990.466,67.2891 990.133,62.9558 991,58.5C 992.025,56.313 993.525,54.6464 995.5,53.5 Z"/></g>
<g><path style="opacity:0.809" fill="#1d2a4f" d="M 1010.5,53.5 C 1013.97,52.8748 1016.8,53.8748 1019,56.5C 1019.21,61.8854 1019.71,67.2187 1020.5,72.5C 1017.28,72.0957 1014.11,72.7623 1011,74.5C 1009.19,74.5066 1007.69,73.84 1006.5,72.5C 1003.88,64.4431 1006.88,60.7765 1015.5,61.5C 1015.92,59.0523 1014.92,57.7189 1012.5,57.5C 1003.89,61.4954 1003.23,60.1621 1010.5,53.5 Z M 1011.5,65.5 C 1012.83,65.5 1014.17,65.5 1015.5,65.5C 1015.35,69.314 1013.35,70.9807 1009.5,70.5C 1009.37,68.4458 1010.03,66.7791 1011.5,65.5 Z"/></g>
<g><path style="opacity:0.806" fill="#1c294f" d="M 1025.5,53.5 C 1031.55,52.3247 1034.55,54.658 1034.5,60.5C 1032.33,59.8214 1030.33,58.8214 1028.5,57.5C 1027.26,57.5565 1026.26,58.0565 1025.5,59C 1028.56,61.0192 1031.72,62.8525 1035,64.5C 1037.03,70.6282 1034.86,73.9616 1028.5,74.5C 1024.14,73.8311 1022.14,71.4978 1022.5,67.5C 1023.17,67.1667 1023.83,66.8333 1024.5,66.5C 1025.4,68.3068 1026.73,69.6401 1028.5,70.5C 1030.92,70.2811 1031.92,68.9477 1031.5,66.5C 1022.17,65.4033 1020.17,61.0699 1025.5,53.5 Z"/></g>
<g><path style="opacity:0.876" fill="#1d2a4f" d="M 449.5,54.5 C 450.5,54.5 451.5,54.5 452.5,54.5C 452.334,58.8461 452.501,63.1794 453,67.5C 455.621,71.6326 457.621,71.2993 459,66.5C 459.499,62.5138 459.666,58.5138 459.5,54.5C 460.5,54.5 461.5,54.5 462.5,54.5C 462.5,60.8333 462.5,67.1667 462.5,73.5C 461.178,73.67 460.011,73.3366 459,72.5C 455.706,75.3112 452.706,74.9779 450,71.5C 449.501,65.8431 449.334,60.1764 449.5,54.5 Z"/></g>
<g><path style="opacity:0.916" fill="#1d2b4f" d="M 621.5,54.5 C 622.5,54.5 623.5,54.5 624.5,54.5C 624.5,60.8333 624.5,67.1667 624.5,73.5C 623.5,73.5 622.5,73.5 621.5,73.5C 621.5,67.1667 621.5,60.8333 621.5,54.5 Z"/></g>
<g><path style="opacity:0.876" fill="#1d2a4f" d="M 636.5,54.5 C 637.5,54.5 638.5,54.5 639.5,54.5C 639.334,58.8461 639.501,63.1794 640,67.5C 642.621,71.6326 644.621,71.2993 646,66.5C 646.499,62.5138 646.666,58.5138 646.5,54.5C 647.5,54.5 648.5,54.5 649.5,54.5C 649.5,60.8333 649.5,67.1667 649.5,73.5C 648.178,73.67 647.011,73.3366 646,72.5C 642.706,75.3112 639.706,74.9779 637,71.5C 636.501,65.8431 636.334,60.1764 636.5,54.5 Z"/></g>
<g><path style="opacity:0.838" fill="#1d2a4f" d="M 796.5,54.5 C 797.5,54.5 798.5,54.5 799.5,54.5C 799.334,59.1785 799.501,63.8452 800,68.5C 801.667,71.1667 803.333,71.1667 805,68.5C 805.499,63.8452 805.666,59.1785 805.5,54.5C 806.833,54.5 808.167,54.5 809.5,54.5C 809.5,60.8333 809.5,67.1667 809.5,73.5C 808.178,73.67 807.011,73.3366 806,72.5C 803.205,75.113 800.371,75.113 797.5,72.5C 796.543,66.561 796.21,60.561 796.5,54.5 Z"/></g>
<g><path style="opacity:0.688" fill="#1d2950" d="M 812.5,54.5 C 813.833,54.5 815.167,54.5 816.5,54.5C 816.5,60.8333 816.5,67.1667 816.5,73.5C 815.167,73.5 813.833,73.5 812.5,73.5C 812.5,67.1667 812.5,60.8333 812.5,54.5 Z"/></g>
<g><path style="opacity:0.916" fill="#1d2b4f" d="M 984.5,54.5 C 985.5,54.5 986.5,54.5 987.5,54.5C 987.5,60.8333 987.5,67.1667 987.5,73.5C 986.5,73.5 985.5,73.5 984.5,73.5C 984.5,67.1667 984.5,60.8333 984.5,54.5 Z"/></g>
<g><path style="opacity:0.933" fill="#0ca481" d="M 262.5,62.5 C 258.5,67.1667 254.5,71.8333 250.5,76.5C 241.968,79.6969 236.634,85.6969 234.5,94.5C 233.833,94.5 233.5,94.8333 233.5,95.5C 230.061,99.3604 226.395,103.027 222.5,106.5C 222.5,103.167 222.5,99.8333 222.5,96.5C 219.86,97.4485 217.193,98.4485 214.5,99.5C 217.878,96.1239 220.878,92.4572 223.5,88.5C 224.167,88.5 224.5,88.1667 224.5,87.5C 231.536,81.4648 237.869,74.7982 243.5,67.5C 249.302,64.0137 255.635,62.3471 262.5,62.5 Z"/></g>
<g><path style="opacity:0.814" fill="#1d2a4f" d="M 437.5,94.5 C 439.451,94.2267 440.951,94.8934 442,96.5C 445.015,104.708 447.515,113.042 449.5,121.5C 448.022,121.762 446.689,121.429 445.5,120.5C 444.662,114.065 441.162,112.065 435,114.5C 434.338,116.813 433.838,119.146 433.5,121.5C 432.167,121.5 430.833,121.5 429.5,121.5C 431.392,112.263 434.059,103.263 437.5,94.5 Z M 438.5,101.5 C 440.267,103.792 441.267,106.458 441.5,109.5C 439.801,109.66 438.134,109.494 436.5,109C 437.554,106.618 438.221,104.118 438.5,101.5 Z"/></g>
<g><path style="opacity:0.784" fill="#1d2a4f" d="M 460.5,94.5 C 461.833,94.5 463.167,94.5 464.5,94.5C 464.5,103.5 464.5,112.5 464.5,121.5C 460.818,121.665 457.152,121.499 453.5,121C 452.299,120.097 451.465,118.931 451,117.5C 450.121,112.713 450.455,108.047 452,103.5C 454.481,101.686 457.315,101.02 460.5,101.5C 460.5,99.1667 460.5,96.8333 460.5,94.5 Z M 456.5,104.5 C 459.768,105.865 461.101,108.365 460.5,112C 460.955,114.923 459.955,117.09 457.5,118.5C 452.565,114.209 452.232,109.542 456.5,104.5 Z"/></g>
<g><path style="opacity:0.589" fill="#1c2950" d="M 492.5,94.5 C 493.833,94.5 495.167,94.5 496.5,94.5C 496.5,96.1667 496.5,97.8333 496.5,99.5C 495.167,99.5 493.833,99.5 492.5,99.5C 492.5,97.8333 492.5,96.1667 492.5,94.5 Z"/></g>
<g><path style="opacity:0.615" fill="#1c294f" d="M 515.5,94.5 C 516.833,94.5 518.167,94.5 519.5,94.5C 519.5,96.1667 519.5,97.8333 519.5,99.5C 518.167,99.5 516.833,99.5 515.5,99.5C 515.5,97.8333 515.5,96.1667 515.5,94.5 Z"/></g>
<g><path style="opacity:0.688" fill="#1d2a4f" d="M 581.5,94.5 C 582.5,94.5 583.5,94.5 584.5,94.5C 584.5,96.1667 584.5,97.8333 584.5,99.5C 583.5,99.5 582.5,99.5 581.5,99.5C 581.5,97.8333 581.5,96.1667 581.5,94.5 Z"/></g>
<g><path style="opacity:0.817" fill="#1c294f" d="M 676.5,94.5 C 683.683,92.612 688.35,95.112 690.5,102C 689.5,102.5 688.5,103 687.5,103.5C 686.059,102.135 684.726,100.635 683.5,99C 678.876,97.9441 676.043,99.7774 675,104.5C 673.787,109.382 674.954,113.548 678.5,117C 682.7,118.31 685.367,116.81 686.5,112.5C 687.651,111.269 688.817,111.269 690,112.5C 688.996,120.463 684.496,123.296 676.5,121C 674.185,119.891 672.685,118.057 672,115.5C 669.041,107.455 670.541,100.455 676.5,94.5 Z"/></g>
<g><path style="opacity:0.736" fill="#1c2a4f" d="M 740.5,94.5 C 742.199,94.3398 743.866,94.5065 745.5,95C 744.33,97.3344 742.663,99.1677 740.5,100.5C 739.833,100.333 739.167,100.167 738.5,100C 739.464,98.2745 740.131,96.4412 740.5,94.5 Z"/></g>
<g><path style="opacity:0.859" fill="#1d2a4f" d="M 751.5,94.5 C 752.5,94.5 753.5,94.5 754.5,94.5C 754.336,97.1873 754.503,99.854 755,102.5C 759.728,100.396 763.061,101.73 765,106.5C 767.427,118.228 762.927,123.228 751.5,121.5C 751.5,112.5 751.5,103.5 751.5,94.5 Z M 757.5,104.5 C 760.617,105.725 761.95,108.059 761.5,111.5C 759.286,120.7 756.953,120.7 754.5,111.5C 754.695,108.782 755.695,106.449 757.5,104.5 Z"/></g>
<g><path style="opacity:0.589" fill="#1c2950" d="M 784.5,94.5 C 785.833,94.5 787.167,94.5 788.5,94.5C 788.5,96.1667 788.5,97.8333 788.5,99.5C 787.167,99.5 785.833,99.5 784.5,99.5C 784.5,97.8333 784.5,96.1667 784.5,94.5 Z"/></g>
<g><path style="opacity:0.825" fill="#1d2a4f" d="M 826.5,94.5 C 827.5,94.5 828.5,94.5 829.5,94.5C 829.5,103.5 829.5,112.5 829.5,121.5C 826.316,121.167 822.982,121 819.5,121C 817.741,119.992 816.574,118.492 816,116.5C 815.333,113.167 815.333,109.833 816,106.5C 817.939,101.73 821.272,100.396 826,102.5C 826.497,99.854 826.664,97.1873 826.5,94.5 Z M 820.5,105.5 C 824.771,105.34 826.771,107.507 826.5,112C 826.251,114.664 825.085,116.831 823,118.5C 822,117.833 821,117.167 820,116.5C 819.245,112.745 819.411,109.078 820.5,105.5 Z"/></g>
<g><path style="opacity:0.754" fill="#1d2a4f" d="M 859.5,94.5 C 861.5,94.5 863.5,94.5 865.5,94.5C 866.563,101.09 868.396,107.423 871,113.5C 872.667,107.5 874.333,101.5 876,95.5C 877.699,94.5939 879.533,94.2606 881.5,94.5C 881.5,103.5 881.5,112.5 881.5,121.5C 880.167,121.5 878.833,121.5 877.5,121.5C 877.666,115.824 877.499,110.157 877,104.5C 875.188,110.1 873.688,115.767 872.5,121.5C 871.022,121.762 869.689,121.429 868.5,120.5C 867.001,115.172 865.501,109.839 864,104.5C 863.501,110.157 863.334,115.824 863.5,121.5C 862.167,121.5 860.833,121.5 859.5,121.5C 859.5,112.5 859.5,103.5 859.5,94.5 Z"/></g>
<g><path style="opacity:0.688" fill="#1d2a4f" d="M 884.5,94.5 C 885.5,94.5 886.5,94.5 887.5,94.5C 887.5,96.1667 887.5,97.8333 887.5,99.5C 886.5,99.5 885.5,99.5 884.5,99.5C 884.5,97.8333 884.5,96.1667 884.5,94.5 Z"/></g>
<g><path style="opacity:0.82" fill="#1d2a4f" d="M 955.5,94.5 C 958.518,94.3354 961.518,94.502 964.5,95C 967.472,96.1414 969.139,98.3081 969.5,101.5C 969.113,102.72 968.28,103.387 967,103.5C 965.48,102.303 964.313,100.803 963.5,99C 959.219,97.5418 956.053,98.7084 954,102.5C 953.333,106.167 953.333,109.833 954,113.5C 956.206,117.125 959.373,118.292 963.5,117C 965.155,115.556 965.822,113.722 965.5,111.5C 963.5,111.5 961.5,111.5 959.5,111.5C 959.5,110.167 959.5,108.833 959.5,107.5C 962.833,107.5 966.167,107.5 969.5,107.5C 969.793,111.437 969.46,115.27 968.5,119C 963.725,121.909 958.725,122.243 953.5,120C 951.959,118.421 950.792,116.587 950,114.5C 949.333,110.167 949.333,105.833 950,101.5C 950.967,98.3794 952.8,96.046 955.5,94.5 Z"/></g>
<g><path style="opacity:0.688" fill="#1d2a4f" d="M 1016.5,94.5 C 1017.5,94.5 1018.5,94.5 1019.5,94.5C 1019.5,96.1667 1019.5,97.8333 1019.5,99.5C 1018.5,99.5 1017.5,99.5 1016.5,99.5C 1016.5,97.8333 1016.5,96.1667 1016.5,94.5 Z"/></g>
<g><path style="opacity:0.843" fill="#1d2a4f" d="M 539.5,95.5 C 541.308,96.9179 541.975,98.9179 541.5,101.5C 542.5,101.5 543.5,101.5 544.5,101.5C 544.5,102.833 544.5,104.167 544.5,105.5C 543.5,105.5 542.5,105.5 541.5,105.5C 541.335,109.182 541.501,112.848 542,116.5C 543.892,117.617 544.725,119.284 544.5,121.5C 542.533,121.739 540.699,121.406 539,120.5C 538.97,114.685 538.136,109.019 536.5,103.5C 537.863,100.928 538.863,98.2614 539.5,95.5 Z"/></g>
<g><path style="opacity:0.754" fill="#1d294f" d="M 574.5,95.5 C 575.5,95.5 576.5,95.5 577.5,95.5C 577.342,98.3609 578.008,101.028 579.5,103.5C 576.653,109.395 576.986,115.061 580.5,120.5C 578.305,121.769 576.139,121.769 574,120.5C 573.97,114.685 573.136,109.019 571.5,103.5C 572.863,100.928 573.863,98.2614 574.5,95.5 Z"/></g>
<g><path style="opacity:0.734" fill="#1d2a4f" d="M 467.5,101.5 C 470.262,102.353 472.929,102.353 475.5,101.5C 477.374,101.39 478.874,102.056 480,103.5C 483.472,100.582 486.472,100.915 489,104.5C 489.499,110.157 489.666,115.824 489.5,121.5C 488.167,121.5 486.833,121.5 485.5,121.5C 485.5,116.167 485.5,110.833 485.5,105.5C 483.549,105.227 482.049,105.893 481,107.5C 480.501,112.155 480.334,116.821 480.5,121.5C 479.167,121.5 477.833,121.5 476.5,121.5C 476.5,116.167 476.5,110.833 476.5,105.5C 474.856,105.286 473.356,105.62 472,106.5C 471.501,111.489 471.334,116.489 471.5,121.5C 470.167,121.5 468.833,121.5 467.5,121.5C 467.5,114.833 467.5,108.167 467.5,101.5 Z"/></g>
<g><path style="opacity:0.667" fill="#1d2950" d="M 492.5,101.5 C 493.833,101.5 495.167,101.5 496.5,101.5C 496.5,108.167 496.5,114.833 496.5,121.5C 495.167,121.5 493.833,121.5 492.5,121.5C 492.5,114.833 492.5,108.167 492.5,101.5 Z"/></g>
<g><path style="opacity:0.864" fill="#1d2a4f" d="M 499.5,101.5 C 503.014,101.764 506.681,101.931 510.5,102C 511,102.5 511.5,103 512,103.5C 512.499,109.491 512.666,115.491 512.5,121.5C 511.5,121.5 510.5,121.5 509.5,121.5C 509.666,116.821 509.499,112.155 509,107.5C 505.951,104.599 503.951,105.266 503,109.5C 502.501,113.486 502.334,117.486 502.5,121.5C 501.5,121.5 500.5,121.5 499.5,121.5C 499.5,114.833 499.5,108.167 499.5,101.5 Z"/></g>
<g><path style="opacity:0.728" fill="#1d2a4f" d="M 515.5,101.5 C 516.833,101.5 518.167,101.5 519.5,101.5C 519.5,108.167 519.5,114.833 519.5,121.5C 518.167,121.5 516.833,121.5 515.5,121.5C 515.5,114.833 515.5,108.167 515.5,101.5 Z"/></g>
<g><path style="opacity:0.829" fill="#1c2a4f" d="M 524.5,101.5 C 527.187,101.336 529.854,101.503 532.5,102C 534.155,103.444 534.822,105.278 534.5,107.5C 532.071,107.415 530.071,106.415 528.5,104.5C 527.354,105.145 526.354,105.978 525.5,107C 529,108.276 532.167,110.109 535,112.5C 535.821,120.332 532.321,123.165 524.5,121C 522.549,119.266 521.549,117.099 521.5,114.5C 522.978,114.238 524.311,114.571 525.5,115.5C 527.28,119.236 529.28,119.403 531.5,116C 528.719,114.172 525.886,112.338 523,110.5C 522.068,107.177 522.568,104.177 524.5,101.5 Z"/></g>
<g><path style="opacity:0.893" fill="#1d2a4f" d="M 546.5,101.5 C 549.346,102.095 552.346,102.095 555.5,101.5C 555.509,103.308 555.009,104.975 554,106.5C 551.91,105.209 550.576,105.876 550,108.5C 549.501,112.821 549.334,117.154 549.5,121.5C 548.5,121.5 547.5,121.5 546.5,121.5C 546.5,114.833 546.5,108.167 546.5,101.5 Z"/></g>
<g><path style="opacity:0.81" fill="#1d2a4f" d="M 558.5,101.5 C 561.518,101.335 564.518,101.502 567.5,102C 568,102.5 568.5,103 569,103.5C 569.302,109.533 569.802,115.533 570.5,121.5C 567.323,120.323 564.157,120.323 561,121.5C 558.966,121.646 557.299,120.98 556,119.5C 555.333,117.167 555.333,114.833 556,112.5C 559.145,110.264 562.645,108.764 566.5,108C 565.667,106.5 564.5,105.333 563,104.5C 561.003,105.672 559.17,107.005 557.5,108.5C 556.833,108.167 556.167,107.833 555.5,107.5C 556.129,105.259 557.129,103.259 558.5,101.5 Z M 563.5,112.5 C 566.684,112.332 567.184,113.666 565,116.5C 561.621,119.49 559.955,118.824 560,114.5C 561.302,113.915 562.469,113.249 563.5,112.5 Z"/></g>
<g><path style="opacity:0.871" fill="#1d2a4f" d="M 581.5,101.5 C 582.5,101.5 583.5,101.5 584.5,101.5C 584.5,108.167 584.5,114.833 584.5,121.5C 583.5,121.5 582.5,121.5 581.5,121.5C 581.5,114.833 581.5,108.167 581.5,101.5 Z"/></g>
<g><path style="opacity:0.789" fill="#1c294f" d="M 586.5,101.5 C 587.978,101.238 589.311,101.571 590.5,102.5C 591.766,106.465 592.933,110.465 594,114.5C 595.638,110.278 596.805,105.945 597.5,101.5C 598.833,101.5 600.167,101.5 601.5,101.5C 600.18,107.962 598.347,114.295 596,120.5C 594.667,121.833 593.333,121.833 592,120.5C 590.058,114.178 588.225,107.844 586.5,101.5 Z"/></g>
<g><path style="opacity:0.794" fill="#1d2a4f" d="M 605.5,101.5 C 608.518,101.335 611.518,101.502 614.5,102C 615,102.5 615.5,103 616,103.5C 616.211,109.218 616.711,114.885 617.5,120.5C 613.331,121.056 608.997,121.223 604.5,121C 600.338,113.46 602.671,109.46 611.5,109C 612.82,106.785 612.153,105.285 609.5,104.5C 608.167,105.167 607.167,106.167 606.5,107.5C 605.311,108.429 603.978,108.762 602.5,108.5C 602.688,105.794 603.688,103.461 605.5,101.5 Z M 610.5,112.5 C 613.316,115.205 612.649,117.205 608.5,118.5C 607.28,118.113 606.613,117.28 606.5,116C 607.347,114.229 608.68,113.063 610.5,112.5 Z"/></g>
<g><path style="opacity:0.824" fill="#1c2a4f" d="M 621.5,101.5 C 624.187,101.336 626.854,101.503 629.5,102C 631.155,103.444 631.822,105.278 631.5,107.5C 629.071,107.415 627.071,106.415 625.5,104.5C 624.354,105.145 623.354,105.978 622.5,107C 624.635,108.381 626.968,109.381 629.5,110C 633.057,113.182 633.391,116.682 630.5,120.5C 627.562,121.575 624.562,121.741 621.5,121C 618.943,118.698 618.61,116.531 620.5,114.5C 622.16,115.787 623.826,117.12 625.5,118.5C 628.153,117.715 628.82,116.215 627.5,114C 619.394,112.702 617.394,108.535 621.5,101.5 Z"/></g>
<g><path style="opacity:0.846" fill="#1d2a4f" d="M 647.5,101.5 C 656.167,100.167 659.833,103.833 658.5,112.5C 654.774,112.177 651.107,112.511 647.5,113.5C 649.006,118.793 651.34,119.46 654.5,115.5C 655.689,114.571 657.022,114.238 658.5,114.5C 657.742,121.109 654.075,123.276 647.5,121C 642.206,114.555 642.206,108.055 647.5,101.5 Z M 650.5,104.5 C 652.922,105.085 654.589,106.585 655.5,109C 652.833,109.667 650.167,109.667 647.5,109C 648.386,107.385 649.386,105.885 650.5,104.5 Z"/></g>
<g><path style="opacity:0.807" fill="#1c294f" d="M 695.5,101.5 C 705.577,100.758 709.41,105.425 707,115.5C 705.171,121.158 701.337,122.992 695.5,121C 690.221,114.503 690.221,108.003 695.5,101.5 Z M 697.5,105.5 C 700.238,104.965 702.072,105.965 703,108.5C 704.418,112.837 703.252,116.171 699.5,118.5C 695.05,114.8 694.384,110.467 697.5,105.5 Z"/></g>
<g><path style="opacity:0.807" fill="#1d2a4f" d="M 709.5,101.5 C 713.014,101.764 716.681,101.931 720.5,102C 721,102.5 721.5,103 722,103.5C 722.499,109.491 722.666,115.491 722.5,121.5C 721.5,121.5 720.5,121.5 719.5,121.5C 719.666,116.489 719.499,111.489 719,106.5C 717.333,105.167 715.667,105.167 714,106.5C 713.501,111.489 713.334,116.489 713.5,121.5C 712.167,121.5 710.833,121.5 709.5,121.5C 709.5,114.833 709.5,108.167 709.5,101.5 Z"/></g>
<g><path style="opacity:0.809" fill="#1d294f" d="M 728.5,95.5 C 730.178,97.7823 731.511,100.449 732.5,103.5C 730.752,107.993 730.085,112.66 730.5,117.5C 731.5,117.5 732.5,117.5 733.5,117.5C 733.317,115.064 733.984,112.897 735.5,111C 738.659,110.141 741.659,108.975 744.5,107.5C 741.983,103.476 739.65,103.642 737.5,108C 736.552,108.483 735.552,108.649 734.5,108.5C 734.247,106.173 734.914,104.173 736.5,102.5C 739.438,101.425 742.438,101.259 745.5,102C 747.004,103.491 747.837,105.324 748,107.5C 748.499,112.155 748.666,116.821 748.5,121.5C 744.314,121.208 739.98,121.042 735.5,121C 734.126,117.59 733.459,117.757 733.5,121.5C 730.956,121.896 728.789,121.229 727,119.5C 726.955,114.016 726.122,108.683 724.5,103.5C 725.639,100.632 726.972,97.9654 728.5,95.5 Z M 742.5,112.5 C 744.225,112.843 744.725,113.843 744,115.5C 740.61,119.796 738.61,119.463 738,114.5C 739.622,113.901 741.122,113.234 742.5,112.5 Z"/></g>
<g><path style="opacity:0.864" fill="#1c2a4f" d="M 771.5,101.5 C 779.331,100.754 782.998,104.421 782.5,112.5C 778.486,112.334 774.486,112.501 770.5,113C 772.383,118.654 775.049,119.32 778.5,115C 779.944,114.219 781.277,114.386 782.5,115.5C 779.898,121.58 775.564,123.08 769.5,120C 767.49,115.391 766.99,110.558 768,105.5C 768.69,103.65 769.856,102.316 771.5,101.5 Z M 774.5,104.5 C 779.936,108.556 778.936,110.223 771.5,109.5C 771.31,107.041 772.31,105.374 774.5,104.5 Z"/></g>
<g><path style="opacity:0.667" fill="#1d2950" d="M 784.5,101.5 C 785.833,101.5 787.167,101.5 788.5,101.5C 788.5,108.167 788.5,114.833 788.5,121.5C 787.167,121.5 785.833,121.5 784.5,121.5C 784.5,114.833 784.5,108.167 784.5,101.5 Z"/></g>
<g><path style="opacity:0.821" fill="#1c294f" d="M 793.5,101.5 C 796.249,101.274 798.916,101.607 801.5,102.5C 802.95,103.85 803.617,105.516 803.5,107.5C 800.912,107.457 798.746,106.457 797,104.5C 796.075,105.047 795.242,105.713 794.5,106.5C 796.732,108.645 799.399,110.145 802.5,111C 805.677,119.499 802.677,122.833 793.5,121C 791.081,119.491 790.081,117.325 790.5,114.5C 791.833,114.5 793.167,114.5 794.5,114.5C 795.792,119.147 797.792,119.481 800.5,115.5C 797.409,114.023 794.409,112.356 791.5,110.5C 790.108,107.065 790.775,104.065 793.5,101.5 Z"/></g>
<g><path style="opacity:0.865" fill="#1c2a4f" d="M 836.5,101.5 C 844.422,100.755 848.088,104.421 847.5,112.5C 843.486,112.334 839.486,112.501 835.5,113C 837.383,118.654 840.049,119.32 843.5,115C 844.944,114.219 846.277,114.386 847.5,115.5C 844.898,121.58 840.564,123.08 834.5,120C 832.49,115.391 831.99,110.558 833,105.5C 833.69,103.65 834.856,102.316 836.5,101.5 Z M 839.5,104.5 C 844.936,108.556 843.936,110.223 836.5,109.5C 836.31,107.041 837.31,105.374 839.5,104.5 Z"/></g>
<g><path style="opacity:0.871" fill="#1d2a4f" d="M 884.5,101.5 C 885.5,101.5 886.5,101.5 887.5,101.5C 887.5,108.167 887.5,114.833 887.5,121.5C 886.5,121.5 885.5,121.5 884.5,121.5C 884.5,114.833 884.5,108.167 884.5,101.5 Z"/></g>
<g><path style="opacity:0.854" fill="#1d2a4f" d="M 891.5,101.5 C 895.263,101.532 899.096,101.865 903,102.5C 904.416,108.715 904.916,115.048 904.5,121.5C 903.5,121.5 902.5,121.5 901.5,121.5C 901.608,116.13 901.275,110.797 900.5,105.5C 897.762,104.965 895.928,105.965 895,108.5C 894.501,112.821 894.334,117.154 894.5,121.5C 893.5,121.5 892.5,121.5 891.5,121.5C 891.5,114.833 891.5,108.167 891.5,101.5 Z"/></g>
<g><path style="opacity:0.809" fill="#1c294f" d="M 910.5,101.5 C 913.187,101.336 915.854,101.503 918.5,102C 919.667,102.5 920.5,103.333 921,104.5C 921.191,110.083 921.691,115.583 922.5,121C 919.321,120.343 916.154,120.51 913,121.5C 907.11,120.387 905.443,117.054 908,111.5C 911.405,110.473 914.571,109.14 917.5,107.5C 914.792,103.519 912.792,103.853 911.5,108.5C 910.167,108.5 908.833,108.5 907.5,108.5C 907.15,105.547 908.15,103.213 910.5,101.5 Z M 915.5,112.5 C 917.982,114.975 917.316,116.975 913.5,118.5C 912.167,117.833 911.167,116.833 910.5,115.5C 911.947,114.065 913.614,113.065 915.5,112.5 Z"/></g>
<g><path style="opacity:0.806" fill="#1d2a4f" d="M 926.5,101.5 C 929.249,101.274 931.916,101.607 934.5,102.5C 935.95,103.85 936.617,105.516 936.5,107.5C 933.912,107.457 931.746,106.457 930,104.5C 929.075,105.047 928.242,105.713 927.5,106.5C 929.732,108.645 932.399,110.145 935.5,111C 938.677,119.499 935.677,122.833 926.5,121C 924.549,119.266 923.549,117.099 923.5,114.5C 924.978,114.238 926.311,114.571 927.5,115.5C 929.5,119.5 931.5,119.5 933.5,115.5C 930.508,114.113 927.675,112.446 925,110.5C 923.058,107.141 923.558,104.141 926.5,101.5 Z"/></g>
<g><path style="opacity:0.86" fill="#1c2a4f" d="M 975.5,101.5 C 984.167,100.167 987.833,103.833 986.5,112.5C 982.833,112.5 979.167,112.5 975.5,112.5C 975.595,115.272 976.929,117.272 979.5,118.5C 980.833,117.833 981.833,116.833 982.5,115.5C 983.689,114.571 985.022,114.238 986.5,114.5C 985.742,121.109 982.075,123.276 975.5,121C 970.304,114.52 970.304,108.02 975.5,101.5 Z M 978.5,104.5 C 981.324,104.989 982.657,106.656 982.5,109.5C 980.076,109.808 977.743,109.474 975.5,108.5C 976.524,107.148 977.524,105.815 978.5,104.5 Z"/></g>
<g><path style="opacity:0.827" fill="#1d2a4f" d="M 989.5,101.5 C 992.346,102.095 995.346,102.095 998.5,101.5C 999.161,105.333 997.828,106.833 994.5,106C 992.709,110.967 992.042,116.134 992.5,121.5C 991.5,121.5 990.5,121.5 989.5,121.5C 989.5,114.833 989.5,108.167 989.5,101.5 Z"/></g>
<g><path style="opacity:0.826" fill="#1d2a4f" d="M 1002.5,101.5 C 1006.01,100.994 1009.17,101.66 1012,103.5C 1012.3,109.533 1012.8,115.533 1013.5,121.5C 1010.32,120.323 1007.16,120.323 1004,121.5C 1001.97,121.646 1000.3,120.98 999,119.5C 998.333,117.167 998.333,114.833 999,112.5C 1002.15,110.264 1005.65,108.764 1009.5,108C 1008.67,106.5 1007.5,105.333 1006,104.5C 1004,105.672 1002.17,107.005 1000.5,108.5C 999.833,108.167 999.167,107.833 998.5,107.5C 998.937,104.775 1000.27,102.775 1002.5,101.5 Z M 1006.5,112.5 C 1010,112.565 1010.5,113.899 1008,116.5C 1004.62,119.49 1002.95,118.824 1003,114.5C 1004.3,113.915 1005.47,113.249 1006.5,112.5 Z"/></g>
<g><path style="opacity:0.871" fill="#1d2a4f" d="M 1016.5,101.5 C 1017.5,101.5 1018.5,101.5 1019.5,101.5C 1019.5,108.167 1019.5,114.833 1019.5,121.5C 1018.5,121.5 1017.5,121.5 1016.5,121.5C 1016.5,114.833 1016.5,108.167 1016.5,101.5 Z"/></g>
<g><path style="opacity:0.819" fill="#1d2a4f" d="M 1024.5,101.5 C 1027.19,101.336 1029.85,101.503 1032.5,102C 1034.16,103.444 1034.82,105.278 1034.5,107.5C 1032.07,107.415 1030.07,106.415 1028.5,104.5C 1027.35,105.145 1026.35,105.978 1025.5,107C 1027.63,108.381 1029.97,109.381 1032.5,110C 1036.06,113.182 1036.39,116.682 1033.5,120.5C 1030.56,121.575 1027.56,121.741 1024.5,121C 1021.94,118.698 1021.61,116.531 1023.5,114.5C 1025.16,115.787 1026.83,117.12 1028.5,118.5C 1031.15,117.715 1031.82,116.215 1030.5,114C 1022.39,112.702 1020.39,108.535 1024.5,101.5 Z"/></g>
<g><path style="opacity:0.934" fill="#0ca582" d="M -0.5,115.5 C 6.16667,115.5 12.8333,115.5 19.5,115.5C 19.5,116.833 19.5,118.167 19.5,119.5C 27.3516,119.825 35.0182,119.492 42.5,118.5C 42.2627,117.209 42.596,116.209 43.5,115.5C 50.1667,115.5 56.8333,115.5 63.5,115.5C 64.8333,118.5 64.8333,121.5 63.5,124.5C 42.1667,124.5 20.8333,124.5 -0.5,124.5C -0.5,121.5 -0.5,118.5 -0.5,115.5 Z"/></g>
<g><path style="opacity:0.917" fill="#0da381" d="M 124.5,115.5 C 137.833,115.5 151.167,115.5 164.5,115.5C 169.042,117.265 173.709,118.765 178.5,120C 189.189,120.709 199.856,120.542 210.5,119.5C 210.141,121.371 209.141,122.871 207.5,124C 167.501,124.5 127.501,124.667 87.5,124.5C 86.5269,122.052 86.1936,119.385 86.5,116.5C 90.1452,117.652 93.8118,118.818 97.5,120C 100,120.167 102.5,120.333 105,120.5C 111.841,119.998 118.341,118.332 124.5,115.5 Z"/></g>
<g><path style="opacity:1" fill="#1a4e5e" d="M 19.5,115.5 C 20.404,116.209 20.7373,117.209 20.5,118.5C 27.8333,118.5 35.1667,118.5 42.5,118.5C 35.0182,119.492 27.3516,119.825 19.5,119.5C 19.5,118.167 19.5,116.833 19.5,115.5 Z"/></g>
<g><path style="opacity:0.864" fill="#1d2a4f" d="M 170.5,127.5 C 177.401,126.743 181.401,129.743 182.5,136.5C 179.159,138.496 176.826,137.663 175.5,134C 170.401,133.61 168.067,136.11 168.5,141.5C 168.481,144.206 169.148,146.706 170.5,149C 172.167,149.667 173.833,149.667 175.5,149C 176.376,147.414 177.376,145.914 178.5,144.5C 179.736,145.246 181.07,145.579 182.5,145.5C 181.721,153.439 177.388,156.605 169.5,155C 166.619,153.749 164.786,151.583 164,148.5C 162.873,142.245 163.54,136.245 166,130.5C 167.652,129.601 169.152,128.601 170.5,127.5 Z"/></g>
<g><path style="opacity:0.866" fill="#1d2a4f" d="M 98.5,128.5 C 103.5,128.5 108.5,128.5 113.5,128.5C 113.5,130.167 113.5,131.833 113.5,133.5C 110.167,133.5 106.833,133.5 103.5,133.5C 103.5,135.167 103.5,136.833 103.5,138.5C 106.5,138.5 109.5,138.5 112.5,138.5C 112.5,140.5 112.5,142.5 112.5,144.5C 109.5,144.5 106.5,144.5 103.5,144.5C 103.5,148.167 103.5,151.833 103.5,155.5C 101.833,155.5 100.167,155.5 98.5,155.5C 98.5,146.5 98.5,137.5 98.5,128.5 Z"/></g>
<g><path style="opacity:0.846" fill="#1d2a4f" d="M 134.5,128.5 C 136.604,128.201 138.604,128.534 140.5,129.5C 143.78,138.004 146.447,146.671 148.5,155.5C 144.219,156.517 141.886,154.85 141.5,150.5C 138.833,149.167 136.167,149.167 133.5,150.5C 132.691,152.071 132.357,153.738 132.5,155.5C 130.5,155.5 128.5,155.5 126.5,155.5C 128.762,146.382 131.428,137.382 134.5,128.5 Z M 136.5,138.5 C 138.185,139.184 139.185,140.517 139.5,142.5C 138.167,143.833 136.833,143.833 135.5,142.5C 136.246,141.264 136.579,139.93 136.5,138.5 Z"/></g>
<g><path style="opacity:0.839" fill="#1d2a4f" d="M 198.5,128.5 C 204.167,128.5 209.833,128.5 215.5,128.5C 215.5,130.167 215.5,131.833 215.5,133.5C 211.833,133.5 208.167,133.5 204.5,133.5C 204.5,135.167 204.5,136.833 204.5,138.5C 207.833,138.5 211.167,138.5 214.5,138.5C 214.5,140.167 214.5,141.833 214.5,143.5C 211.167,143.5 207.833,143.5 204.5,143.5C 204.5,145.5 204.5,147.5 204.5,149.5C 208.5,149.5 212.5,149.5 216.5,149.5C 216.5,151.5 216.5,153.5 216.5,155.5C 210.5,155.5 204.5,155.5 198.5,155.5C 198.5,146.5 198.5,137.5 198.5,128.5 Z"/></g>
<g><path style="opacity:0.851" fill="#1d2a4f" d="M 270.5,156.5 C 269.5,156.5 268.5,156.5 267.5,156.5C 264.438,156.159 262.272,154.492 261,151.5C 259.738,143.887 259.238,136.22 259.5,128.5C 261.5,128.5 263.5,128.5 265.5,128.5C 265.334,135.175 265.5,141.842 266,148.5C 268,151.167 270,151.167 272,148.5C 272.5,141.842 272.666,135.175 272.5,128.5C 274.167,128.5 275.833,128.5 277.5,128.5C 277.666,136.174 277.5,143.841 277,151.5C 275.728,154.492 273.562,156.159 270.5,156.5 Z"/></g>
<g><path style="opacity:0.868" fill="#1d2a4f" d="M 298.5,128.5 C 303.5,128.5 308.5,128.5 313.5,128.5C 313.5,130.5 313.5,132.5 313.5,134.5C 310.167,134.5 306.833,134.5 303.5,134.5C 303.5,136.167 303.5,137.833 303.5,139.5C 306.5,139.5 309.5,139.5 312.5,139.5C 312.5,141.167 312.5,142.833 312.5,144.5C 309.5,144.5 306.5,144.5 303.5,144.5C 303.5,148.167 303.5,151.833 303.5,155.5C 301.833,155.5 300.167,155.5 298.5,155.5C 298.5,146.5 298.5,137.5 298.5,128.5 Z"/></g>
<g><path style="opacity:0.871" fill="#1d2a4f" d="M 333.5,128.5 C 335.924,128.192 338.257,128.526 340.5,129.5C 341.664,134.156 342.831,138.823 344,143.5C 345.128,138.861 346.128,134.195 347,129.5C 349.381,128.565 351.881,128.232 354.5,128.5C 354.5,137.5 354.5,146.5 354.5,155.5C 352.833,155.5 351.167,155.5 349.5,155.5C 349.666,151.486 349.499,147.486 349,143.5C 348.333,146.833 347.667,150.167 347,153.5C 345.33,155.698 343.33,156.032 341,154.5C 340.333,151.167 339.667,147.833 339,144.5C 338.501,148.152 338.335,151.818 338.5,155.5C 336.833,155.5 335.167,155.5 333.5,155.5C 333.5,146.5 333.5,137.5 333.5,128.5 Z"/></g>
<g><path style="opacity:0.874" fill="#1d2a4f" d="M 386.5,156.5 C 385.5,156.5 384.5,156.5 383.5,156.5C 380.67,155.49 378.17,153.823 376,151.5C 373.732,144.665 374.065,137.998 377,131.5C 382.333,127.5 387.667,127.5 393,131.5C 395.645,135.936 394.478,137.769 389.5,137C 387.195,133.114 384.361,132.614 381,135.5C 379,139.833 379,144.167 381,148.5C 384.307,151.458 387.141,151.125 389.5,147.5C 387.955,146.548 386.288,146.215 384.5,146.5C 384.5,144.5 384.5,142.5 384.5,140.5C 387.833,140.5 391.167,140.5 394.5,140.5C 394.666,144.514 394.499,148.514 394,152.5C 391.745,154.499 389.245,155.832 386.5,156.5 Z"/></g>
<g><path style="opacity:0.894" fill="#0ba682" d="M 236.5,133.5 C 240.108,135.77 243.442,138.437 246.5,141.5C 243.729,144.392 240.729,147.058 237.5,149.5C 234.271,147.058 231.271,144.392 228.5,141.5C 230.882,138.452 233.548,135.785 236.5,133.5 Z"/></g>
</svg>
