<?xml version="1.0" encoding="UTF-8"?>
<!DOCTYPE svg PUBLIC "-//W3C//DTD SVG 1.1//EN" "http://www.w3.org/Graphics/SVG/1.1/DTD/svg11.dtd">
<svg xmlns="http://www.w3.org/2000/svg" version="1.1" width="1200px" height="1168px" style="shape-rendering:geometricPrecision; text-rendering:geometricPrecision; image-rendering:optimizeQuality; fill-rule:evenodd; clip-rule:evenodd" xmlns:xlink="http://www.w3.org/1999/xlink">
<g><path style="opacity:0.993" fill="#9d431d" d="M 571.5,-0.5 C 574.5,-0.5 577.5,-0.5 580.5,-0.5C 658.263,12.889 727.597,44.389 788.5,94C 811.258,114.074 829.424,137.574 843,164.5C 847.601,174.471 851.101,184.804 853.5,195.5C 859.261,230.415 857.761,265.082 849,299.5C 841.71,326.992 835.21,354.658 829.5,382.5C 841.866,408.908 861.866,417.075 889.5,407C 904.326,399.849 917.16,390.016 928,377.5C 939.916,359.336 951.583,341.003 963,322.5C 972.846,307.656 985.012,295.156 999.5,285C 1004.75,282.541 1010.08,280.375 1015.5,278.5C 1031.75,275.709 1047.09,278.209 1061.5,286C 1071.56,295.28 1078.73,306.447 1083,319.5C 1089.02,340.925 1095.36,362.258 1102,383.5C 1106.24,395.058 1113.4,404.224 1123.5,411C 1129.86,413.762 1136.53,415.095 1143.5,415C 1097.4,429.219 1054.73,450.052 1015.5,477.5C 1002.77,486.716 990.439,496.549 978.5,507C 956.905,527.591 936.405,549.091 917,571.5C 910.167,562 903.333,552.5 896.5,543C 932.296,501.693 971.963,464.86 1015.5,432.5C 1033.55,420.804 1052.55,410.638 1072.5,402C 1069.35,397.528 1066.85,392.694 1065,387.5C 1059.7,367.581 1051.7,348.915 1041,331.5C 1036.13,326.3 1030.97,321.467 1025.5,317C 1022.02,316.537 1018.69,317.037 1015.5,318.5C 1011.4,318.884 1007.73,320.384 1004.5,323C 1000.67,326.833 996.833,330.667 993,334.5C 979.667,355.167 966.333,375.833 953,396.5C 935.84,420.84 912.674,436.34 883.5,443C 873.409,445.231 863.409,444.898 853.5,442C 845.025,438.715 836.359,436.048 827.5,434C 806.136,424.641 792.803,408.641 787.5,386C 795.39,356.271 802.89,326.438 810,296.5C 815.715,269.781 818.715,242.781 819,215.5C 816.25,208.33 812.75,201.663 808.5,195.5C 782.557,148.057 745.557,111.89 697.5,87C 650.703,63.2897 602.369,43.2897 552.5,27C 552.167,26.6667 551.833,26.3333 551.5,26C 558.383,17.2899 565.05,8.45653 571.5,-0.5 Z M 1015.5,432.5 C 1015.5,394.5 1015.5,356.5 1015.5,318.5C 1018.69,317.037 1022.02,316.537 1025.5,317C 1030.97,321.467 1036.13,326.3 1041,331.5C 1051.7,348.915 1059.7,367.581 1065,387.5C 1066.85,392.694 1069.35,397.528 1072.5,402C 1052.55,410.638 1033.55,420.804 1015.5,432.5 Z"/></g>
<g><path style="opacity:0.995" fill="#1da738" d="M 425.5,195.5 C 421.433,213.641 417.266,231.974 413,250.5C 412.202,252.259 412.369,253.926 413.5,255.5C 441.409,242.879 469.076,229.712 496.5,216C 512.144,208.851 527.81,202.018 543.5,195.5C 557.366,190.491 571.532,186.491 586,183.5C 587.107,183.585 588.107,183.919 589,184.5C 590.674,188.021 591.84,191.687 592.5,195.5C 595.374,211.233 594.874,226.899 591,242.5C 582.166,271.833 568.833,298.833 551,323.5C 488.796,406.199 409.296,466.032 312.5,503C 310.833,503.667 309.167,503.667 307.5,503C 300.833,499 294.167,495 287.5,491C 319.5,470 351.5,449 383.5,428C 415.552,406.624 445.885,382.958 474.5,357C 499.176,334.793 518.342,308.626 532,278.5C 535.758,268.802 538.258,258.802 539.5,248.5C 540.8,245.976 540.8,243.309 539.5,240.5C 538.893,240.624 538.56,240.957 538.5,241.5C 499.553,260.64 460.553,279.806 421.5,299C 400.256,311.246 381.756,326.746 366,345.5C 360.769,342.801 355.602,339.968 350.5,337C 348.785,336.223 347.785,334.89 347.5,333C 355.911,297.435 365.744,262.268 377,227.5C 379.82,216.888 382.32,206.221 384.5,195.5C 390.172,167.446 392.672,139.113 392,110.5C 362.705,135.617 337.205,163.951 315.5,195.5C 309.129,200.704 303.629,206.704 299,213.5C 285.392,243.716 272.058,274.049 259,304.5C 254.957,312.539 249.457,319.372 242.5,325C 239.577,327.032 236.911,326.698 234.5,324C 216.633,305.3 198.633,286.8 180.5,268.5C 143.915,231.941 100.748,205.941 51,190.5C 73.1115,226.677 96.7782,262.01 122,296.5C 139.515,319.854 159.015,341.52 180.5,361.5C 181.117,363.229 182.117,364.729 183.5,366C 201.71,382.369 221.71,396.202 243.5,407.5C 239.641,415.081 235.974,422.747 232.5,430.5C 231.667,430.833 230.833,431.167 230,431.5C 212.607,427.426 196.107,421.092 180.5,412.5C 154.301,397.493 131.134,378.493 111,355.5C 72.5148,310.271 41.1815,260.271 17,205.5C 10.8483,191.521 5.015,177.521 -0.5,163.5C -0.5,162.167 -0.5,160.833 -0.5,159.5C 67.5332,155.071 127.867,174.071 180.5,216.5C 200.199,234.699 218.699,254.032 236,274.5C 242.002,246.651 251.836,220.317 265.5,195.5C 279.73,168.408 298.397,144.574 321.5,124C 331.833,115.667 342.167,107.333 352.5,99C 376.753,82.6236 400.92,66.1236 425,49.5C 430.399,85.97 431.732,122.637 429,159.5C 427.796,171.503 426.629,183.503 425.5,195.5 Z M 384.5,195.5 C 361.5,195.5 338.5,195.5 315.5,195.5C 337.205,163.951 362.705,135.617 392,110.5C 392.672,139.113 390.172,167.446 384.5,195.5 Z M 180.5,268.5 C 180.5,299.5 180.5,330.5 180.5,361.5C 159.015,341.52 139.515,319.854 122,296.5C 96.7782,262.01 73.1115,226.677 51,190.5C 100.748,205.941 143.915,231.941 180.5,268.5 Z"/></g>
<g><path style="opacity:0.994" fill="#16316e" d="M 265.5,195.5 C 251.836,220.317 242.002,246.651 236,274.5C 218.699,254.032 200.199,234.699 180.5,216.5C 180.5,209.5 180.5,202.5 180.5,195.5C 208.833,195.5 237.167,195.5 265.5,195.5 Z"/></g>
<g><path style="opacity:0.998" fill="#16316f" d="M 315.5,195.5 C 338.5,195.5 361.5,195.5 384.5,195.5C 382.32,206.221 379.82,216.888 377,227.5C 365.744,262.268 355.911,297.435 347.5,333C 347.785,334.89 348.785,336.223 350.5,337C 355.602,339.968 360.769,342.801 366,345.5C 381.756,326.746 400.256,311.246 421.5,299C 460.553,279.806 499.553,260.64 538.5,241.5C 539.468,243.607 539.802,245.941 539.5,248.5C 538.258,258.802 535.758,268.802 532,278.5C 518.342,308.626 499.176,334.793 474.5,357C 445.885,382.958 415.552,406.624 383.5,428C 351.5,449 319.5,470 287.5,491C 294.167,495 300.833,499 307.5,503C 309.167,503.667 310.833,503.667 312.5,503C 409.296,466.032 488.796,406.199 551,323.5C 568.833,298.833 582.166,271.833 591,242.5C 594.874,226.899 595.374,211.233 592.5,195.5C 664.5,195.5 736.5,195.5 808.5,195.5C 812.75,201.663 816.25,208.33 819,215.5C 818.715,242.781 815.715,269.781 810,296.5C 802.89,326.438 795.39,356.271 787.5,386C 792.803,408.641 806.136,424.641 827.5,434C 836.359,436.048 845.025,438.715 853.5,442C 863.409,444.898 873.409,445.231 883.5,443C 912.674,436.34 935.84,420.84 953,396.5C 966.333,375.833 979.667,355.167 993,334.5C 996.833,330.667 1000.67,326.833 1004.5,323C 1007.73,320.384 1011.4,318.884 1015.5,318.5C 1015.5,356.5 1015.5,394.5 1015.5,432.5C 971.963,464.86 932.296,501.693 896.5,543C 903.333,552.5 910.167,562 917,571.5C 936.405,549.091 956.905,527.591 978.5,507C 990.439,496.549 1002.77,486.716 1015.5,477.5C 1015.5,539.833 1015.5,602.167 1015.5,664.5C 1011.31,666.337 1006.81,667.337 1002,667.5C 969.187,665.002 940.021,653.502 914.5,633C 899.532,619.7 884.866,606.034 870.5,592C 842.474,567.654 810.474,560.654 774.5,571C 762.475,575.512 750.809,580.845 739.5,587C 706.231,607.939 673.231,629.273 640.5,651C 627.888,658.64 614.555,664.64 600.5,669C 596.143,669.631 591.809,669.465 587.5,668.5C 577.107,672.607 566.773,672.44 556.5,668C 538.496,658.661 522.163,646.995 507.5,633C 491.138,616.304 474.472,599.971 457.5,584C 448.409,575.572 438.742,567.905 428.5,561C 422.275,557.035 415.609,554.035 408.5,552C 398.833,550.719 389.166,549.552 379.5,548.5C 367.927,548.412 356.927,550.912 346.5,556C 320.602,568.438 296.936,584.105 275.5,603C 252.127,623.198 231.46,645.698 213.5,670.5C 220.167,677.833 227.167,684.833 234.5,691.5C 259.091,663.74 285.758,638.24 314.5,615C 328.987,603.42 344.987,594.42 362.5,588C 379.826,583.992 396.16,586.326 411.5,595C 420.79,601.955 429.79,609.288 438.5,617C 454.167,634 470.5,650.333 487.5,666C 505.167,682.177 525.167,694.844 547.5,704C 559.292,708.359 571.459,711.192 584,712.5C 622.925,703.423 658.758,687.59 691.5,665C 712.167,650.333 732.833,635.667 753.5,621C 770.338,609.332 789.004,603.832 809.5,604.5C 820.882,604.905 831.216,608.405 840.5,615C 859.756,630.251 878.422,646.251 896.5,663C 921.237,683.867 949.57,697.533 981.5,704C 992.821,705.685 1004.15,705.852 1015.5,704.5C 1015.5,799.5 1015.5,894.5 1015.5,989.5C 996.833,989.5 978.167,989.5 959.5,989.5C 938.654,946.16 919.82,901.827 903,856.5C 902.592,854.59 901.425,853.59 899.5,853.5C 894.797,854.196 890.13,854.529 885.5,854.5C 868.089,900.422 848.756,945.422 827.5,989.5C 817.833,989.5 808.167,989.5 798.5,989.5C 791.451,945.453 785.451,901.12 780.5,856.5C 773.578,856.188 766.744,856.521 760,857.5C 745.202,888.432 729.368,918.765 712.5,948.5C 695.736,918.641 679.736,888.308 664.5,857.5C 658.202,856.504 651.868,856.17 645.5,856.5C 639.205,900.897 632.539,945.23 625.5,989.5C 615.833,989.5 606.167,989.5 596.5,989.5C 575.326,945.144 556.326,899.81 539.5,853.5C 533.833,854.833 528.167,854.833 522.5,853.5C 505.675,899.997 486.342,945.33 464.5,989.5C 445.833,989.5 427.167,989.5 408.5,989.5C 432.236,978.681 439.403,961.014 430,936.5C 425.882,930.016 420.049,925.85 412.5,924C 404.671,921.634 396.671,920.301 388.5,920C 402.748,919.481 414.914,914.314 425,904.5C 433.773,889.524 431.939,876.024 419.5,864C 412.273,860.276 404.607,857.942 396.5,857C 375.503,856.5 354.503,856.333 333.5,856.5C 336.162,900.979 336.162,945.312 333.5,989.5C 315.167,989.5 296.833,989.5 278.5,989.5C 275.862,945.165 275.862,900.832 278.5,856.5C 266.499,857.789 254.499,857.789 242.5,856.5C 245.136,900.831 245.136,945.165 242.5,989.5C 221.833,989.5 201.167,989.5 180.5,989.5C 180.5,797.167 180.5,604.833 180.5,412.5C 196.107,421.092 212.607,427.426 230,431.5C 230.833,431.167 231.667,430.833 232.5,430.5C 235.974,422.747 239.641,415.081 243.5,407.5C 221.71,396.202 201.71,382.369 183.5,366C 182.117,364.729 181.117,363.229 180.5,361.5C 180.5,330.5 180.5,299.5 180.5,268.5C 198.633,286.8 216.633,305.3 234.5,324C 236.911,326.698 239.577,327.032 242.5,325C 249.457,319.372 254.957,312.539 259,304.5C 272.058,274.049 285.392,243.716 299,213.5C 303.629,206.704 309.129,200.704 315.5,195.5 Z"/></g>
<g><path style="opacity:0.998" fill="#16316e" d="M 425.5,195.5 C 464.833,195.5 504.167,195.5 543.5,195.5C 527.81,202.018 512.144,208.851 496.5,216C 469.076,229.712 441.409,242.879 413.5,255.5C 412.369,253.926 412.202,252.259 413,250.5C 417.266,231.974 421.433,213.641 425.5,195.5 Z"/></g>
<g><path style="opacity:0.998" fill="#16316e" d="M 853.5,195.5 C 907.5,195.5 961.5,195.5 1015.5,195.5C 1015.5,223.167 1015.5,250.833 1015.5,278.5C 1010.08,280.375 1004.75,282.541 999.5,285C 985.012,295.156 972.846,307.656 963,322.5C 951.583,341.003 939.916,359.336 928,377.5C 917.16,390.016 904.326,399.849 889.5,407C 861.866,417.075 841.866,408.908 829.5,382.5C 835.21,354.658 841.71,326.992 849,299.5C 857.761,265.082 859.261,230.415 853.5,195.5 Z"/></g>
<g><path style="opacity:1" fill="#1e7151" d="M 538.5,241.5 C 538.56,240.957 538.893,240.624 539.5,240.5C 540.8,243.309 540.8,245.976 539.5,248.5C 539.802,245.941 539.468,243.607 538.5,241.5 Z"/></g>
<g><path style="opacity:0.996" fill="#0092dc" d="M 1015.5,664.5 C 1073.9,650.054 1125.73,623.388 1171,584.5C 1180.61,590.386 1190.11,596.386 1199.5,602.5C 1199.5,602.833 1199.5,603.167 1199.5,603.5C 1168.91,627.134 1137.25,649.301 1104.5,670C 1076.31,685.43 1046.65,696.93 1015.5,704.5C 1004.15,705.852 992.821,705.685 981.5,704C 949.57,697.533 921.237,683.867 896.5,663C 878.422,646.251 859.756,630.251 840.5,615C 831.216,608.405 820.882,604.905 809.5,604.5C 789.004,603.832 770.338,609.332 753.5,621C 732.833,635.667 712.167,650.333 691.5,665C 658.758,687.59 622.925,703.423 584,712.5C 571.459,711.192 559.292,708.359 547.5,704C 525.167,694.844 505.167,682.177 487.5,666C 470.5,650.333 454.167,634 438.5,617C 429.79,609.288 420.79,601.955 411.5,595C 396.16,586.326 379.826,583.992 362.5,588C 344.987,594.42 328.987,603.42 314.5,615C 285.758,638.24 259.091,663.74 234.5,691.5C 227.167,684.833 220.167,677.833 213.5,670.5C 231.46,645.698 252.127,623.198 275.5,603C 296.936,584.105 320.602,568.438 346.5,556C 356.927,550.912 367.927,548.412 379.5,548.5C 389.166,549.552 398.833,550.719 408.5,552C 415.609,554.035 422.275,557.035 428.5,561C 438.742,567.905 448.409,575.572 457.5,584C 474.472,599.971 491.138,616.304 507.5,633C 522.163,646.995 538.496,658.661 556.5,668C 566.773,672.44 577.107,672.607 587.5,668.5C 591.809,669.465 596.143,669.631 600.5,669C 614.555,664.64 627.888,658.64 640.5,651C 673.231,629.273 706.231,607.939 739.5,587C 750.809,580.845 762.475,575.512 774.5,571C 810.474,560.654 842.474,567.654 870.5,592C 884.866,606.034 899.532,619.7 914.5,633C 940.021,653.502 969.187,665.002 1002,667.5C 1006.81,667.337 1011.31,666.337 1015.5,664.5 Z"/></g>
<g><path style="opacity:0.994" fill="#fbfcfd" d="M 596.5,989.5 C 597.626,990.858 597.626,992.192 596.5,993.5C 584.833,992.167 573.167,992.167 561.5,993.5C 560.295,992.423 559.628,991.09 559.5,989.5C 556.11,977.331 552.11,965.331 547.5,953.5C 530.833,952.167 514.167,952.167 497.5,953.5C 493.159,965.524 488.826,977.524 484.5,989.5C 484.372,991.09 483.705,992.423 482.5,993.5C 476.679,992.187 470.846,992.187 465,993.5C 464.5,993.167 464,992.833 463.5,992.5C 464.127,991.583 464.461,990.583 464.5,989.5C 486.342,945.33 505.675,899.997 522.5,853.5C 528.167,854.833 533.833,854.833 539.5,853.5C 556.326,899.81 575.326,945.144 596.5,989.5 Z"/></g>
<g><path style="opacity:0.994" fill="#fbfcfd" d="M 959.5,989.5 C 960.292,990.967 960.292,992.3 959.5,993.5C 947.833,992.167 936.167,992.167 924.5,993.5C 922.889,992.68 922.222,991.346 922.5,989.5C 918.504,977.178 914.504,964.844 910.5,952.5C 893.83,952.333 877.163,952.5 860.5,953C 856.259,965.223 851.926,977.39 847.5,989.5C 847.029,990.901 846.362,992.234 845.5,993.5C 839.181,992.254 832.847,992.254 826.5,993.5C 826.433,992.041 826.766,990.708 827.5,989.5C 848.756,945.422 868.089,900.422 885.5,854.5C 890.13,854.529 894.797,854.196 899.5,853.5C 901.425,853.59 902.592,854.59 903,856.5C 919.82,901.827 938.654,946.16 959.5,989.5 Z"/></g>
<g><path style="opacity:0.995" fill="#fcfdfd" d="M 278.5,989.5 C 279.626,990.858 279.626,992.192 278.5,993.5C 266.507,990.964 254.507,990.964 242.5,993.5C 241.708,992.3 241.708,990.967 242.5,989.5C 245.136,945.165 245.136,900.831 242.5,856.5C 254.499,857.789 266.499,857.789 278.5,856.5C 275.862,900.832 275.862,945.165 278.5,989.5 Z"/></g>
<g><path style="opacity:0.996" fill="#fbfcfd" d="M 408.5,989.5 C 399.892,991.923 391.059,993.256 382,993.5C 365.815,992.19 349.649,992.19 333.5,993.5C 333.5,992.167 333.5,990.833 333.5,989.5C 336.162,945.312 336.162,900.979 333.5,856.5C 354.503,856.333 375.503,856.5 396.5,857C 404.607,857.942 412.273,860.276 419.5,864C 431.939,876.024 433.773,889.524 425,904.5C 414.914,914.314 402.748,919.481 388.5,920C 396.671,920.301 404.671,921.634 412.5,924C 420.049,925.85 425.882,930.016 430,936.5C 439.403,961.014 432.236,978.681 408.5,989.5 Z"/></g>
<g><path style="opacity:0.995" fill="#fbfbfc" d="M 798.5,989.5 C 799.292,990.967 799.292,992.3 798.5,993.5C 792.522,992.79 786.522,992.123 780.5,991.5C 774.811,992.12 769.144,992.787 763.5,993.5C 762.571,992.311 762.238,990.978 762.5,989.5C 760.864,960.135 758.364,930.802 755,901.5C 738.723,930.386 723.223,959.719 708.5,989.5C 708.291,990.922 707.791,992.255 707,993.5C 704.333,992.167 701.667,992.167 699,993.5C 697.905,992.307 697.072,990.973 696.5,989.5C 682.456,961.079 667.623,933.079 652,905.5C 647.845,932.003 644.679,958.669 642.5,985.5C 642.511,987.045 642.844,988.378 643.5,989.5C 643.762,990.978 643.429,992.311 642.5,993.5C 636.698,991.107 630.864,991.107 625,993.5C 624.421,992.072 624.588,990.738 625.5,989.5C 632.539,945.23 639.205,900.897 645.5,856.5C 651.868,856.17 658.202,856.504 664.5,857.5C 679.736,888.308 695.736,918.641 712.5,948.5C 729.368,918.765 745.202,888.432 760,857.5C 766.744,856.521 773.578,856.188 780.5,856.5C 785.451,901.12 791.451,945.453 798.5,989.5 Z"/></g>
<g><path style="opacity:1" fill="#193270" d="M 366.5,867.5 C 393.616,865.435 403.782,877.435 397,903.5C 391.341,912.415 383.174,916.748 372.5,916.5C 370.571,916.46 368.738,916.127 367,915.5C 366.5,899.503 366.333,883.503 366.5,867.5 Z"/></g>
<g><path style="opacity:1" fill="#1a3370" d="M 522.5,894.5 C 529.977,908.572 536.31,923.238 541.5,938.5C 529.185,939.499 516.851,939.832 504.5,939.5C 509.112,923.943 515.112,908.943 522.5,894.5 Z"/></g>
<g><path style="opacity:1" fill="#1a3370" d="M 885.5,894.5 C 893.03,908.737 899.364,923.571 904.5,939C 892.171,939.5 879.838,939.667 867.5,939.5C 871.927,923.887 877.927,908.887 885.5,894.5 Z"/></g>
<g><path style="opacity:1" fill="#183270" d="M 762.5,989.5 C 744.5,989.5 726.5,989.5 708.5,989.5C 723.223,959.719 738.723,930.386 755,901.5C 758.364,930.802 760.864,960.135 762.5,989.5 Z"/></g>
<g><path style="opacity:1" fill="#183270" d="M 696.5,989.5 C 678.833,989.5 661.167,989.5 643.5,989.5C 642.844,988.378 642.511,987.045 642.5,985.5C 644.679,958.669 647.845,932.003 652,905.5C 667.623,933.079 682.456,961.079 696.5,989.5 Z"/></g>
<g><path style="opacity:1" fill="#18326f" d="M 366.5,927.5 C 393.665,925.103 404.831,937.436 400,964.5C 393.77,979.447 382.77,984.781 367,980.5C 366.5,962.836 366.333,945.17 366.5,927.5 Z"/></g>
<g><path style="opacity:1" fill="#17316f" d="M 559.5,989.5 C 534.5,989.5 509.5,989.5 484.5,989.5C 488.826,977.524 493.159,965.524 497.5,953.5C 514.167,952.167 530.833,952.167 547.5,953.5C 552.11,965.331 556.11,977.331 559.5,989.5 Z"/></g>
<g><path style="opacity:1" fill="#17316f" d="M 922.5,989.5 C 897.5,989.5 872.5,989.5 847.5,989.5C 851.926,977.39 856.259,965.223 860.5,953C 877.163,952.5 893.83,952.333 910.5,952.5C 914.504,964.844 918.504,977.178 922.5,989.5 Z"/></g>
<g><path style="opacity:0.97" fill="#1e1916" d="M 888.5,1167.5 C 878.5,1167.5 868.5,1167.5 858.5,1167.5C 855.771,1157.31 852.438,1147.31 848.5,1137.5C 835.604,1136.18 822.771,1136.18 810,1137.5C 806.39,1147.5 802.89,1157.5 799.5,1167.5C 794.167,1167.5 788.833,1167.5 783.5,1167.5C 799.805,1131.25 815.139,1094.59 829.5,1057.5C 833.949,1058.39 838.282,1058.73 842.5,1058.5C 857.059,1095.18 872.393,1131.52 888.5,1167.5 Z M 829.5,1091.5 C 834.921,1102.07 839.588,1113.07 843.5,1124.5C 834.184,1125.67 824.851,1125.83 815.5,1125C 819.682,1113.62 824.349,1102.45 829.5,1091.5 Z"/></g>
<g><path style="opacity:0.971" fill="#1e1916" d="M 450.5,1167.5 C 446.833,1167.5 443.167,1167.5 439.5,1167.5C 437.5,1166.17 435.5,1166.17 433.5,1167.5C 429.833,1167.5 426.167,1167.5 422.5,1167.5C 421.229,1144.33 418.729,1121.33 415,1098.5C 403.154,1121.53 391.32,1144.53 379.5,1167.5C 376.833,1167.5 374.167,1167.5 371.5,1167.5C 360.698,1144.56 348.865,1122.23 336,1100.5C 332.626,1122.74 330.126,1145.08 328.5,1167.5C 326.5,1167.5 324.5,1167.5 322.5,1167.5C 321.833,1166.17 321.167,1166.17 320.5,1167.5C 318.5,1167.5 316.5,1167.5 314.5,1167.5C 319.78,1131.87 324.78,1096.21 329.5,1060.5C 335.093,1060.19 340.593,1060.53 346,1061.5C 357.568,1085.64 369.902,1109.31 383,1132.5C 396.098,1109.31 408.432,1085.64 420,1061.5C 425.407,1060.53 430.907,1060.19 436.5,1060.5C 440.757,1096.22 445.424,1131.89 450.5,1167.5 Z"/></g>
<g><path style="opacity:0.973" fill="#1e1916" d="M 689.5,1167.5 C 685.5,1167.5 681.5,1167.5 677.5,1167.5C 675.833,1166.17 674.167,1166.17 672.5,1167.5C 668.5,1167.5 664.5,1167.5 660.5,1167.5C 659.471,1144.07 657.304,1120.74 654,1097.5C 641.885,1120.73 630.051,1144.06 618.5,1167.5C 615.5,1167.5 612.5,1167.5 609.5,1167.5C 599.338,1144.66 587.672,1122.66 574.5,1101.5C 571.025,1123.45 568.358,1145.45 566.5,1167.5C 564.833,1167.5 563.167,1167.5 561.5,1167.5C 560.5,1166.17 559.5,1166.17 558.5,1167.5C 556.5,1167.5 554.5,1167.5 552.5,1167.5C 558.201,1131.93 563.535,1096.26 568.5,1060.5C 573.875,1060.17 579.208,1060.51 584.5,1061.5C 596.324,1085.15 608.657,1108.48 621.5,1131.5C 634.852,1108.8 647.186,1085.47 658.5,1061.5C 664.128,1060.5 669.794,1060.17 675.5,1060.5C 679.267,1096.31 683.934,1131.97 689.5,1167.5 Z"/></g>
</svg>
