<svg width="152" height="30" viewBox="0 0 152 30" fill="none" xmlns="http://www.w3.org/2000/svg">
<rect width="152" height="30" fill="#1E1E1E"/>
<path d="M-707 -3649C-707 -3650.1 -706.105 -3651 -705 -3651H1991C1992.1 -3651 1993 -3650.1 1993 -3649V13509C1993 13510.1 1992.1 13511 1991 13511H-705C-706.104 13511 -707 13510.1 -707 13509V-3649Z" fill="#444444"/>
<path d="M-705 -3650H1991V-3652H-705V-3650ZM1992 -3649V13509H1994V-3649H1992ZM1991 13510H-705V13512H1991V13510ZM-706 13509V-3649H-708V13509H-706ZM-705 13510C-705.552 13510 -706 13509.6 -706 13509H-708C-708 13510.7 -706.657 13512 -705 13512V13510ZM1992 13509C1992 13509.6 1991.55 13510 1991 13510V13512C1992.66 13512 1994 13510.7 1994 13509H1992ZM1991 -3650C1991.55 -3650 1992 -3649.55 1992 -3649H1994C1994 -3650.66 1992.66 -3652 1991 -3652V-3650ZM-705 -3652C-706.657 -3652 -708 -3650.66 -708 -3649H-706C-706 -3649.55 -705.552 -3650 -705 -3650V-3652Z" fill="white" fill-opacity="0.1"/>
<g clip-path="url(#clip0_0_1)">
<rect width="1440" height="3406" transform="translate(-407 -3340)" fill="white"/>
<mask id="path-3-inside-1_0_1" fill="white">
<path d="M1033 -37L1033 66.0001L-407 66L-407 -37.0001L1033 -37Z"/>
</mask>
<path d="M1033 -37L1033 66.0001L-407 66L-407 -37.0001L1033 -37Z" fill="white"/>
<path d="M-407 -36.0001L1033 -36L1033 -38L-407 -38.0001L-407 -36.0001Z" fill="#E7E7E7" mask="url(#path-3-inside-1_0_1)"/>
<path fill-rule="evenodd" clip-rule="evenodd" d="M0.00585938 7.28908H29.6834V0H0.00585938V7.28908Z" fill="#FFCC31"/>
<path fill-rule="evenodd" clip-rule="evenodd" d="M61.5315 22.1094H52.3731L55.4848 11.007H64.4265L63.6993 13.5829H58.3592L57.9072 15.1802H62.4376L61.7076 17.7757H57.1786L56.6867 19.5132H62.2594L61.5315 22.1094ZM0.00390625 30.001H29.6801V10.9362H0.00390625V30.001ZM47.1554 18.635C46.9573 18.6559 46.7612 18.6559 46.5644 18.6559H44.7523L43.7877 22.1094H40.1834L43.3137 11.007H47.1527H48.5913C51.7416 11.007 52.8457 12.4641 52.2155 14.7401C51.5847 16.9973 49.9507 18.4551 47.1554 18.635ZM47.1554 13.5829H46.1715L45.4988 16.0544L47.1527 16.0598V16.0578C47.9019 16.0187 48.5321 15.6588 48.788 14.7617C49.0646 13.7231 47.9604 13.5829 47.1926 13.5829H47.1554ZM133.775 18.3345H134.916L134.877 14.3425L133.775 16.2984L132.651 18.3345H133.775ZM133.775 11.3662L134.011 11.007H137.673L138.482 22.1094H134.897V20.6516H133.775H131.314L130.486 22.1094H127.176H126.961L127.176 21.7711L133.775 11.3662ZM151.954 14.2218C152.229 12.2848 151.285 10.707 148.25 10.707C145.493 10.707 143.149 11.8851 142.5 14.2616C141.299 18.4955 147.936 17.337 147.463 19.0347C147.325 19.5537 146.636 19.8529 145.749 19.8529C145.394 19.8529 145.041 19.7532 144.805 19.5739C144.549 19.3731 144.411 19.0934 144.45 18.695H141.004C140.532 20.6914 141.928 22.4087 144.824 22.4087C147.837 22.4087 150.319 21.151 151.028 18.5757C152.171 14.5413 145.573 15.5604 146.044 13.9024C146.143 13.5034 146.556 13.2628 147.364 13.2628C147.7 13.2628 148.015 13.3234 148.231 13.4629C148.448 13.6024 148.585 13.8424 148.526 14.2218H151.954ZM127.176 14.3816C127.217 14.3014 127.236 14.2421 127.254 14.1618C127.492 13.3234 127.492 12.6447 127.176 12.1453C126.703 11.3662 125.503 11.007 123.277 11.007H122.075H118.097L114.986 22.1094H118.569L119.672 18.2354H120.756C121.426 18.2354 121.839 18.3163 122.075 18.4955C122.451 18.7752 122.391 19.2942 122.134 20.1717C122.114 20.2526 122.095 20.3133 122.075 20.3726C121.839 21.2501 121.76 21.8897 121.781 22.1094H122.075H125.423L125.503 21.7711C125.089 21.7711 125.266 21.2912 125.679 19.8334C126.31 17.5964 125.679 17.3167 124.654 16.878C125.957 16.5383 126.802 15.5604 127.176 14.3816ZM122.075 15.7996C123.002 15.739 123.572 15.4397 123.77 14.7401C123.985 13.9623 123.474 13.5829 122.648 13.5829H122.075H120.972L120.343 15.7996H121.76H122.075ZM108.466 22.0899C110.947 21.9497 112.779 21.0513 113.409 18.7752C113.744 17.5574 113.409 16.5181 112.307 16.2195C113.134 15.7787 114.099 14.9403 114.415 13.8019C115.025 11.5859 113.231 11.007 110.77 11.007H108.466H105.511L102.4 22.1094H107.758C107.994 22.1094 108.229 22.1094 108.466 22.0899ZM108.466 13.5829H109.648C110.415 13.5829 111.104 13.6024 110.869 14.4806C110.691 15.1196 110.08 15.4397 109.352 15.4397H108.466H107.875L108.387 13.5829H108.466ZM108.466 17.4765C109.589 17.4765 110.415 17.5371 110.139 18.4955C109.923 19.2942 109.272 19.4944 108.466 19.5132H108.289H106.732L107.304 17.4765H108.446H108.466ZM95.6237 19.5341C96.6874 19.1149 97.3973 17.9564 97.7915 16.4985C98.2236 14.9801 98.0667 13.3841 96.472 13.4232C96.1549 13.4232 95.8803 13.4825 95.6237 13.5829C94.5023 14.0419 93.8129 15.3595 93.4972 16.4985C93.0837 17.9173 93.0239 19.6939 94.7363 19.6939C95.0534 19.6939 95.3479 19.6339 95.6237 19.5341ZM95.6237 10.8877C96.1549 10.7677 96.708 10.707 97.259 10.707C101.179 10.707 102.223 13.5634 101.395 16.4985C100.509 19.6339 98.2236 21.6302 95.6237 22.2294C95.0913 22.3493 94.5402 22.4087 93.9698 22.4087C90.5423 22.4087 88.8498 20.2526 89.8928 16.4574C90.7191 13.5438 92.9255 11.4862 95.6237 10.8877ZM82.9986 20.3726C83.0199 20.3133 83.0378 20.2526 83.0591 20.1717C83.3144 19.2942 83.3749 18.7752 82.9986 18.4955C82.7626 18.3163 82.3491 18.2354 81.679 18.2354H80.5968L79.5325 22.1094H76.3424H75.9275L76.3424 20.6516L79.0413 11.007H82.9986H84.2005C87.8647 11.007 88.7701 12.0051 88.1791 14.1618C87.8048 15.4397 86.9573 16.5181 85.5792 16.878C86.6036 17.3167 87.2338 17.5964 86.6036 19.8334C86.1895 21.2912 86.0126 21.7711 86.4461 21.7711L86.3477 22.1094H82.9986H82.7048C82.6842 21.8897 82.7819 21.2501 82.9986 20.3726ZM82.9986 15.7996C83.9253 15.739 84.4956 15.4397 84.6931 14.7401C84.9098 13.9623 84.3979 13.5829 83.571 13.5829H82.9986H81.8971L81.2662 15.7996H82.6842H82.9986ZM76.3424 12.4641L76.7565 11.007H76.3424H66.6907L65.8843 13.9226H69.1131L66.8097 22.1094H70.3947L72.6995 13.9226H75.9275L76.3424 12.4641Z" fill="#008C4F"/>
<path fill-rule="evenodd" clip-rule="evenodd" d="M29.6836 10.9334V7.28516H0V10.9334H5.71295L2.54736 22.0318H9.02612C11.8321 22.0318 12.3207 21.368 12.8897 20.884C13.6522 20.2363 14.059 18.6976 13.7173 17.6267C13.4747 16.8691 12.7687 16.4095 12.6916 16.3879C13.5684 15.9754 14.0783 15.071 14.1415 14.9375C14.4678 14.2521 14.7205 13.0099 13.9101 12.0104C13.238 11.1801 11.9311 10.9509 10.9832 10.9334H17.918L14.7424 22.0541H17.9572L19.1318 17.8376H20.9672C22.3007 17.8376 22.1804 18.6801 22.2143 19.042L22.3173 22.143L25.3021 22.1417C25.3021 22.1417 25.1672 18.6626 25.1565 18.4078C25.116 17.5141 24.5323 17.1111 24.0351 17.1111C24.991 16.8489 25.8206 15.9701 26.1523 15.4046C26.5346 14.7542 26.8224 13.719 26.4455 12.6918C25.8951 11.1996 24.4805 10.9509 23.4893 10.9334H29.6836ZM20.4155 13.1703H22.7534C23.8622 13.1703 23.9061 13.9333 23.9061 14.151C23.9061 14.6592 23.4654 15.6567 22.1186 15.6567H19.7387C19.7387 15.6567 20.4035 13.231 20.4155 13.1703ZM7.07438 17.347H9.21225C10.2599 17.347 10.3197 17.6348 10.4653 17.8828C10.6082 18.1268 10.5424 18.6464 10.4434 18.825C10.3171 19.0495 10.1064 19.7457 8.7662 19.7457H6.39101C6.39101 19.7457 7.07305 17.3504 7.07438 17.347ZM8.2437 13.1569H10.7179C11.2092 13.1569 11.6546 13.477 11.6546 14.0034C11.6546 14.7144 11.0949 15.2132 10.3197 15.2132H7.67267L8.2437 13.1569Z" fill="white"/>
</g>
<defs>
<clipPath id="clip0_0_1">
<rect width="1440" height="3406" fill="white" transform="translate(-407 -3340)"/>
</clipPath>
</defs>
</svg>
