<svg width="1920" height="240" viewBox="0 0 1920 240" xmlns="http://www.w3.org/2000/svg"><path d="M1920,240C1610.8333333333333,242.5,309.5,243.5,0,240C-309.5,236.5,42.16666666666667,223.66666666666666,63,219C83.83333333333333,214.33333333333334,103.66666666666667,214.16666666666666,125,212C146.33333333333334,209.83333333333334,169.5,207.5,191,206C212.5,204.5,232.66666666666666,205.66666666666666,254,203C275.3333333333333,200.33333333333334,297.6666666666667,184.16666666666666,319,190C340.3333333333333,195.83333333333334,360.8333333333333,235.16666666666666,382,238C403.1666666666667,240.83333333333334,424.5,209.66666666666666,446,207C467.5,204.33333333333334,489.5,218,511,222C532.5,226,554,234.83333333333334,575,231C596,227.16666666666666,616,209.16666666666666,637,199C658,188.83333333333334,679.3333333333334,168.33333333333334,701,170C722.6666666666666,171.66666666666666,745.5,203.33333333333334,767,209C788.5,214.66666666666666,809,206.16666666666666,830,204C851,201.83333333333334,871.6666666666666,193.16666666666666,893,196C914.3333333333334,198.83333333333334,936.3333333333334,216.83333333333334,958,221C979.6666666666666,225.16666666666666,1001.8333333333334,228,1023,221C1044.1666666666667,214,1063.8333333333333,183.66666666666666,1085,179C1106.1666666666667,174.33333333333334,1128.3333333333333,185.16666666666666,1150,193C1171.6666666666667,200.83333333333334,1193.6666666666667,218.83333333333334,1215,226C1236.3333333333333,233.16666666666666,1257,244.16666666666666,1278,236C1299,227.83333333333334,1319.8333333333333,177.33333333333334,1341,177C1362.1666666666667,176.66666666666666,1383.5,236.66666666666666,1405,234C1426.5,231.33333333333334,1448.5,169.33333333333334,1470,161C1491.5,152.66666666666666,1512.8333333333333,171.16666666666666,1534,184C1555.1666666666667,196.83333333333334,1575.6666666666667,237.5,1597,238C1618.3333333333333,238.5,1640.6666666666667,196.33333333333334,1662,187C1683.3333333333333,177.66666666666666,1703.5,184.5,1725,182C1746.5,179.5,1769.3333333333333,164.83333333333334,1791,172C1812.6666666666667,179.16666666666666,1833.5,213.66666666666666,1855,225C1876.5,236.33333333333334,2229.1666666666665,237.5,1920,240C1610.8333333333333,242.5,309.5,243.5,0,240" fill="#ffffff"/></svg>