<?xml version="1.0" standalone="no"?>
<!DOCTYPE svg PUBLIC "-//W3C//DTD SVG 20010904//EN"
 "http://www.w3.org/TR/2001/REC-SVG-20010904/DTD/svg10.dtd">
<svg version="1.0" xmlns="http://www.w3.org/2000/svg"
 width="499.000000pt" height="499.000000pt" viewBox="0 0 499.000000 499.000000"
 preserveAspectRatio="xMidYMid meet">
<metadata>
Created by potrace 1.14, written by Peter Selinger 2001-2017
</metadata>
<g transform="translate(0.000000,499.000000) scale(0.100000,-0.100000)"
fill="#000000" stroke="none">
<path d="M2444 4904 c-66 -30 -104 -85 -104 -153 0 -150 178 -220 284 -112 31
32 38 47 43 93 5 47 2 63 -18 97 -13 23 -38 51 -56 62 -40 25 -110 31 -149 13z"/>
<path d="M2819 4739 c-10 -10 -19 -23 -19 -29 0 -13 35 -35 90 -56 134 -52
295 -185 379 -311 42 -64 44 -79 7 -44 -12 11 -43 31 -69 46 -204 112 -473 71
-641 -100 l-61 -61 -69 74 c-85 90 -161 150 -258 201 -210 112 -437 140 -662
83 -75 -18 -99 -40 -80 -69 14 -21 35 -21 130 0 154 35 356 16 503 -46 l34
-14 -79 -5 c-139 -9 -257 -62 -357 -162 -87 -88 -152 -238 -156 -365 -1 -20
-5 -22 -28 -17 -61 15 -119 27 -148 32 -40 6 -220 6 -248 -1 -12 -3 -33 -7
-47 -9 -179 -30 -359 -125 -494 -262 -85 -86 -105 -118 -90 -142 21 -33 49
-25 90 25 107 132 251 230 410 279 77 23 94 19 47 -12 -77 -50 -167 -178 -193
-274 -19 -69 -20 -80 -21 -150 -1 -111 26 -210 78 -293 14 -22 23 -40 21 -42
-2 -1 -42 -20 -89 -42 -157 -73 -275 -168 -371 -297 -110 -148 -174 -317 -184
-488 -5 -79 -4 -87 15 -97 19 -10 50 -6 52 8 2 10 6 40 13 111 10 104 35 188
83 285 40 80 86 148 122 185 21 21 24 22 17 5 -25 -64 -36 -119 -36 -189 0
-221 114 -399 324 -504 l54 -27 -39 -65 c-138 -228 -174 -534 -92 -785 23 -73
97 -215 127 -248 25 -27 28 -28 49 -14 30 20 28 33 -11 96 -36 56 -80 147 -87
178 -2 10 -11 43 -20 73 -19 64 -32 290 -18 290 6 0 15 -17 21 -39 44 -146
184 -278 355 -335 54 -18 190 -25 252 -13 84 15 79 18 83 -43 3 -45 18 -136
37 -210 8 -35 35 -102 64 -159 45 -92 83 -143 188 -257 67 -73 268 -193 350
-210 33 -6 57 13 51 42 -3 19 -1 17 -121 73 -83 38 -137 72 -182 113 -11 10
-33 31 -50 46 -48 44 -151 180 -142 188 2 2 22 -10 45 -27 118 -86 290 -115
452 -74 66 17 173 81 235 143 l65 64 23 -28 c106 -137 276 -254 452 -313 112
-37 151 -43 295 -43 193 -1 328 41 300 92 -13 24 -29 25 -117 4 -145 -34 -327
-24 -468 25 -89 31 -91 37 -16 38 144 2 284 68 386 182 73 82 135 235 135 336
0 20 4 34 9 31 25 -16 169 -38 261 -41 179 -6 324 28 480 112 47 25 87 48 90
52 3 3 21 18 40 32 83 62 180 173 180 205 0 13 -9 28 -20 34 -17 9 -25 6 -47
-18 -104 -110 -129 -134 -177 -171 -62 -48 -188 -112 -265 -135 -66 -19 -96
-21 -65 -3 66 38 159 147 193 226 67 156 60 325 -20 483 -16 32 -29 61 -30 64
0 4 33 21 73 39 206 91 375 251 475 449 53 104 92 254 95 364 2 65 -7 82 -44
82 -25 0 -31 -17 -35 -89 -6 -129 -60 -292 -135 -407 -34 -52 -83 -114 -91
-114 -2 0 5 25 15 56 20 61 27 170 14 249 -23 149 -151 316 -299 389 l-76 37
26 37 c155 227 196 558 103 827 -48 138 -130 265 -163 252 -35 -13 -37 -41 -5
-87 87 -131 138 -299 140 -463 1 -100 -6 -131 -18 -81 -26 111 -137 251 -246
312 -93 53 -148 66 -273 66 -69 0 -132 -5 -147 -12 -22 -9 -28 -9 -29 1 -1 6
-2 28 -4 47 -10 138 -45 263 -108 384 -105 203 -277 359 -486 441 -62 24 -62
24 -82 4z m-609 -435 c95 -38 202 -122 235 -185 18 -33 9 -67 -40 -155 -57
-101 -198 -224 -273 -239 -12 -2 -27 -7 -32 -10 -32 -20 -155 -32 -230 -22
-100 13 -180 43 -249 95 l-33 25 4 76 c13 205 153 379 343 428 67 17 217 10
275 -13z m846 15 c134 -33 253 -130 310 -254 35 -75 43 -106 49 -192 4 -48 2
-54 -26 -77 -42 -36 -144 -82 -211 -96 -241 -49 -486 69 -592 285 -51 104 -51
103 -3 165 108 138 309 209 473 169z m-502 -435 c91 -142 282 -258 439 -269
27 -2 51 -5 53 -8 3 -3 -28 -13 -68 -22 -173 -39 -320 -38 -488 4 -78 19 -94
16 -103 -20 -8 -30 19 -43 153 -74 24 -6 148 -17 191 -18 53 0 189 12 199 18
3 2 21 6 40 9 88 14 229 71 332 134 l67 41 -3 -87 c-7 -184 55 -342 184 -470
l54 -52 -41 14 c-60 21 -156 70 -221 113 -61 41 -198 170 -227 216 -25 39 -77
35 -80 -8 -3 -32 122 -166 226 -245 171 -128 400 -210 600 -214 l46 -1 -49
-60 c-54 -66 -109 -173 -128 -250 -18 -69 -20 -206 -4 -272 7 -31 9 -52 4 -47
-32 32 -129 228 -146 294 -2 8 -8 33 -14 55 -16 66 -26 140 -29 217 -1 31 -5
39 -26 44 -45 11 -53 -7 -48 -102 5 -100 38 -240 83 -346 59 -143 190 -316
314 -416 44 -35 46 -32 -52 -57 -156 -39 -304 -161 -379 -312 -20 -40 -37 -73
-38 -73 -8 0 9 150 26 220 31 133 92 275 149 347 24 31 25 47 5 66 -34 34 -72
-7 -148 -158 -104 -207 -139 -493 -85 -700 6 -22 12 -51 15 -64 2 -14 7 -29
10 -34 3 -6 2 -8 -3 -6 -109 55 -196 75 -318 72 -92 -2 -156 -18 -243 -59 -39
-19 -74 -34 -77 -34 -8 0 31 46 94 110 98 99 226 183 351 230 61 22 79 49 52
75 -19 19 -21 19 -95 -9 -258 -97 -493 -328 -597 -587 -28 -70 -41 -92 -41
-70 0 18 -72 120 -116 164 -97 98 -262 175 -387 179 -47 2 -31 14 38 28 28 6
61 13 75 16 14 3 77 7 140 9 109 3 215 -9 300 -35 48 -14 58 -13 70 9 20 39 5
52 -85 76 -271 72 -594 18 -847 -141 -21 -13 -39 -24 -40 -24 -2 0 -2 37 -1
82 2 106 -17 209 -56 289 -35 76 -64 116 -133 187 l-52 53 49 -21 c190 -80
326 -180 433 -317 38 -49 67 -55 84 -18 9 21 7 30 -18 62 -79 105 -209 214
-337 283 -65 35 -193 86 -235 95 -9 1 -35 8 -57 14 -22 5 -78 13 -125 16 -47
4 -86 8 -88 9 -1 2 10 16 24 32 73 81 123 180 150 293 19 80 11 254 -12 294
-5 8 -2 7 9 -2 23 -18 84 -127 117 -210 45 -111 66 -214 69 -333 1 -55 25 -77
62 -57 20 10 21 16 15 102 -22 303 -169 576 -415 774 l-24 19 59 13 c178 40
333 161 415 324 l41 82 -6 -70 c-9 -106 -14 -130 -36 -213 -23 -83 -77 -203
-120 -267 -35 -51 -39 -66 -28 -87 10 -21 44 -24 62 -5 27 28 97 156 131 241
22 57 54 186 62 253 9 73 9 214 0 273 -10 68 -34 177 -41 189 -4 5 22 -3 56
-18 82 -37 141 -49 243 -49 116 0 250 37 329 92 48 32 16 -11 -79 -108 -101
-104 -210 -173 -377 -240 -30 -12 -38 -20 -38 -40 0 -42 26 -47 100 -20 267
101 479 308 600 588 29 65 36 75 45 61 5 -9 23 -37 39 -61z m-1086 -100 c41
-11 55 -21 63 -42 18 -45 24 -93 23 -192 -1 -153 -54 -274 -166 -381 -89 -85
-242 -148 -358 -149 -44 0 -47 2 -82 55 -126 192 -104 433 54 594 62 62 170
118 248 127 30 3 56 8 58 9 8 7 111 -7 160 -21z m2280 12 c23 -3 51 -10 62
-16 11 -6 20 -8 20 -5 0 16 130 -65 172 -108 143 -143 176 -363 82 -548 -43
-86 -61 -99 -135 -94 -226 16 -408 158 -484 380 -41 121 -20 346 36 368 34 13
160 35 184 31 11 -1 39 -5 63 -8z m-2662 -965 c93 -118 125 -217 120 -366 -4
-111 -20 -167 -73 -257 -35 -60 -133 -163 -163 -173 -10 -3 -42 4 -72 15 -149
56 -257 175 -296 327 -28 112 -18 206 33 312 53 108 139 187 261 236 l58 23
44 -31 c25 -18 64 -56 88 -86z m3052 83 c23 -10 42 -22 42 -26 0 -5 6 -8 14
-8 26 0 140 -123 168 -180 37 -76 48 -118 52 -190 11 -201 -126 -403 -315
-465 -47 -16 -50 -16 -83 5 -54 33 -129 121 -164 192 -110 223 -64 473 117
646 50 48 60 53 91 49 19 -2 54 -13 78 -23z m-3044 -968 c107 -13 232 -76 310
-156 75 -76 139 -201 152 -295 11 -77 -8 -267 -27 -278 -2 -1 -14 -7 -25 -14
-12 -6 -50 -17 -85 -23 -280 -51 -538 150 -553 430 -5 107 30 226 89 304 23
30 63 49 86 39 3 -1 26 -4 53 -7z m2945 -21 c94 -120 125 -324 69 -455 -33
-77 -49 -101 -108 -161 -95 -96 -191 -136 -330 -136 -79 0 -158 16 -187 39
-35 28 -50 225 -24 330 48 203 241 379 439 404 13 1 25 4 27 6 2 2 23 3 47 3
36 0 47 -5 67 -30z m-1969 -655 c167 -45 341 -206 381 -353 9 -33 7 -42 -12
-70 -84 -121 -246 -205 -389 -202 -88 2 -124 11 -198 45 -164 76 -280 280
-263 460 2 26 127 97 206 117 86 22 201 23 275 3z m1155 -6 c69 -23 143 -61
170 -88 20 -20 22 -30 18 -82 -26 -355 -377 -556 -686 -392 -64 34 -147 110
-170 155 -14 27 -14 33 8 87 51 126 146 226 268 286 45 21 105 43 132 48 70
12 200 5 260 -14z"/>
<path d="M2158 4221 c-61 -35 -69 -108 -18 -154 27 -24 39 -28 68 -23 58 9 87
48 83 112 -3 54 -84 93 -133 65z"/>
<path d="M3188 4082 c-61 -31 -73 -105 -24 -151 57 -54 155 -15 156 62 0 23
-24 87 -33 87 -1 0 -16 4 -34 9 -24 7 -40 5 -65 -7z"/>
<path d="M1243 3728 c-34 -16 -57 -73 -44 -109 15 -42 36 -60 80 -66 32 -4 43
-1 69 23 17 16 32 36 33 44 4 41 -4 64 -30 91 -31 31 -68 37 -108 17z"/>
<path d="M3928 3365 c-31 -17 -52 -71 -42 -109 16 -67 104 -87 155 -37 77 77
-17 200 -113 146z"/>
<path d="M805 2796 c-54 -23 -73 -68 -50 -122 31 -74 132 -77 169 -6 25 49 3
106 -49 128 -40 16 -33 16 -70 0z"/>
<path d="M4124 2350 c-32 -13 -54 -50 -54 -91 0 -30 7 -43 32 -64 27 -23 39
-26 71 -22 50 7 79 35 81 78 3 45 -10 72 -44 92 -31 19 -54 20 -86 7z"/>
<path d="M990 1779 c-31 -11 -60 -57 -60 -93 0 -30 47 -84 75 -87 46 -4 66 2
90 28 67 74 -10 185 -105 152z"/>
<path d="M3674 1413 c-36 -18 -53 -42 -54 -75 0 -58 34 -96 94 -102 20 -3 37
6 62 29 43 41 46 82 7 125 -32 35 -70 44 -109 23z"/>
<path d="M1709 1039 c-32 -35 -35 -54 -15 -103 25 -61 101 -71 152 -21 55 55
9 155 -71 155 -28 0 -44 -7 -66 -31z"/>
<path d="M2748 912 c-54 -33 -49 -121 9 -155 79 -46 170 41 128 123 -27 52
-85 65 -137 32z"/>
<path d="M2338 4515 c-2 -2 -21 -5 -41 -7 -21 -1 -36 -5 -35 -10 2 -4 26 -23
53 -42 28 -20 82 -68 121 -106 l71 -71 54 51 c58 55 204 132 274 146 l40 7
-35 8 c-19 4 -57 10 -85 14 -58 8 -410 16 -417 10z"/>
<path d="M1123 4479 c-37 -11 -90 -61 -105 -98 -26 -70 1 -157 61 -196 107
-70 244 -7 258 119 13 115 -101 208 -214 175z"/>
<path d="M3789 4476 c-108 -33 -156 -167 -92 -255 27 -36 91 -71 132 -71 54 0
117 36 145 82 76 128 -45 287 -185 244z"/>
<path d="M1555 4285 c-33 -19 -67 -38 -75 -42 -62 -29 -240 -157 -315 -226
l-50 -46 75 -1 c92 -2 154 -8 200 -20 54 -15 67 -13 68 13 0 80 67 236 134
312 22 25 36 45 31 45 -4 0 -35 -16 -68 -35z"/>
<path d="M3506 4192 c26 -80 40 -150 46 -229 2 -30 4 -31 33 -25 95 22 298 -3
363 -44 45 -29 20 6 -52 70 -110 99 -210 178 -301 234 -118 75 -116 75 -89 -6z"/>
<path d="M682 3388 c-63 -133 -80 -176 -110 -270 -42 -129 -66 -227 -58 -235
3 -4 16 2 29 13 33 30 95 68 178 109 88 44 84 41 72 57 -16 20 -60 138 -69
183 -4 22 -8 77 -8 123 -1 45 -2 82 -3 82 -1 0 -15 -28 -31 -62z"/>
<path d="M297 3345 c-89 -31 -132 -120 -102 -208 25 -74 88 -115 168 -112 108
5 182 123 140 225 -35 85 -120 125 -206 95z"/>
<path d="M4585 3336 c-67 -29 -104 -105 -91 -184 22 -138 206 -180 292 -66 25
32 29 47 29 98 0 48 -5 68 -24 95 -43 61 -138 87 -206 57z"/>
<path d="M4321 3290 c-7 -28 -36 -97 -65 -154 l-52 -104 31 -11 c49 -18 161
-106 202 -159 70 -90 84 -107 79 -97 -2 6 -7 26 -10 45 -11 69 -37 186 -57
255 -28 94 -99 275 -108 275 -4 0 -13 -23 -20 -50z"/>
<path d="M495 2175 c3 -27 13 -79 21 -115 9 -36 18 -76 20 -90 16 -80 118
-349 130 -338 2 3 7 17 10 32 7 41 42 124 84 204 l40 73 -28 12 c-92 40 -193
129 -252 222 l-32 50 7 -50z"/>
<path d="M4436 2060 c-26 -21 -90 -59 -142 -84 l-93 -46 29 -58 c40 -80 59
-172 57 -270 -1 -45 -1 -82 1 -82 8 0 104 219 132 301 40 118 79 268 71 273
-3 2 -28 -14 -55 -34z"/>
<path d="M301 1953 c-13 -3 -42 -24 -66 -47 -143 -143 38 -362 207 -251 48 32
71 78 71 136 -2 112 -94 183 -212 162z"/>
<path d="M4604 1941 c-55 -22 -78 -40 -98 -79 -36 -69 -18 -154 44 -206 39
-32 69 -40 126 -32 76 10 129 65 140 145 11 76 -51 165 -123 177 -16 2 -33 6
-38 8 -6 2 -29 -4 -51 -13z"/>
<path d="M1109 1010 c46 -44 116 -105 155 -134 74 -57 247 -168 252 -163 2 2
-7 34 -20 73 -13 38 -27 89 -30 114 -4 25 -8 54 -10 65 -3 11 -5 33 -5 48 -1
28 -2 29 -48 22 -111 -16 -211 -7 -310 30 l-68 25 84 -80z"/>
<path d="M3545 1003 c-17 -107 -70 -230 -130 -301 -20 -23 -33 -42 -29 -42 16
0 179 93 257 147 91 62 152 110 209 163 l39 36 -78 -1 c-69 -1 -194 14 -244
30 -15 5 -19 -1 -24 -32z"/>
<path d="M1135 820 c-70 -15 -125 -79 -127 -147 -2 -71 2 -83 38 -123 38 -42
87 -62 139 -56 17 2 35 4 42 5 23 2 76 56 93 93 31 70 6 162 -55 202 -33 21
-94 34 -130 26z"/>
<path d="M3750 799 c-113 -65 -113 -232 1 -289 149 -76 301 82 219 229 -42 74
-146 103 -220 60z"/>
<path d="M2450 653 c-41 -41 -129 -103 -147 -103 -7 0 -13 -4 -13 -8 0 -9
-106 -42 -135 -42 -40 0 2 -18 55 -24 30 -4 71 -9 90 -12 85 -12 433 -5 447
10 2 2 -19 17 -45 34 -27 17 -83 65 -125 107 -42 41 -80 75 -84 74 -4 0 -24
-16 -43 -36z"/>
<path d="M2413 364 c-54 -36 -77 -77 -77 -140 0 -94 70 -164 164 -164 68 0
119 33 150 97 69 142 -104 293 -237 207z"/>
</g>
</svg>
